G75*
G70*
%OFA0B0*%
%FSLAX25Y25*%
%IPPOS*%
%LPD*%
%AMOC8*
5,1,8,0,0,1.08239X$1,22.5*
%
%ADD10C,0.01969*%
%ADD146C,0.00472*%
%ADD185C,0.00880*%
%ADD199C,0.00787*%
%ADD249C,0.01000*%
%ADD25C,0.01181*%
%ADD276C,0.01575*%
%ADD322C,0.00500*%
%ADD335C,0.00591*%
%ADD340C,0.00984*%
%ADD46C,0.01476*%
%ADD49C,0.01378*%
%ADD85C,0.00390*%
X0000000Y0000000D02*
%LPD*%
G01*
D340*
X0236516Y0592028D02*
X0236516Y0555020D01*
X0234154Y0552657D02*
X0234154Y0547933D01*
X0273130Y0522736D02*
X0273130Y0592028D01*
X0234154Y0547933D02*
X0236122Y0545965D01*
X0236516Y0555020D02*
X0234154Y0552657D01*
X0236122Y0545965D02*
X0236122Y0523130D01*
X0273130Y0592028D02*
X0236516Y0592028D01*
D185*
X0090437Y0546735D02*
X0092723Y0546735D01*
X0091580Y0546735D02*
X0091580Y0550735D01*
X0091961Y0550164D01*
X0092342Y0549783D01*
X0092723Y0549592D01*
X0088723Y0548830D02*
X0087389Y0548830D01*
X0086818Y0546735D02*
X0088723Y0546735D01*
X0088723Y0550735D01*
X0086818Y0550735D01*
X0494534Y0568627D02*
X0492058Y0568627D01*
X0493391Y0567104D01*
X0492820Y0567104D01*
X0492439Y0566913D01*
X0492248Y0566723D01*
X0492058Y0566342D01*
X0492058Y0565389D01*
X0492248Y0565008D01*
X0492439Y0564818D01*
X0492820Y0564627D01*
X0493963Y0564627D01*
X0494344Y0564818D01*
X0494534Y0565008D01*
X0488058Y0564627D02*
X0489391Y0566532D01*
X0490344Y0564627D02*
X0490344Y0568627D01*
X0488820Y0568627D01*
X0488439Y0568437D01*
X0488248Y0568247D01*
X0488058Y0567866D01*
X0488058Y0567294D01*
X0488248Y0566913D01*
X0488439Y0566723D01*
X0488820Y0566532D01*
X0490344Y0566532D01*
D49*
X0265668Y0588859D02*
X0263794Y0580985D01*
X0262294Y0586609D01*
X0260794Y0580985D01*
X0258919Y0588859D01*
X0253295Y0585110D02*
X0252170Y0584735D01*
X0251795Y0584360D01*
X0251420Y0583610D01*
X0251420Y0582485D01*
X0251795Y0581735D01*
X0252170Y0581360D01*
X0252920Y0580985D01*
X0255920Y0580985D01*
X0255920Y0588859D01*
X0253295Y0588859D01*
X0252545Y0588484D01*
X0252170Y0588109D01*
X0251795Y0587359D01*
X0251795Y0586609D01*
X0252170Y0585860D01*
X0252545Y0585485D01*
X0253295Y0585110D01*
X0255920Y0585110D01*
X0246546Y0588859D02*
X0245046Y0588859D01*
X0244296Y0588484D01*
X0243546Y0587734D01*
X0243171Y0586235D01*
X0243171Y0583610D01*
X0243546Y0582110D01*
X0244296Y0581360D01*
X0245046Y0580985D01*
X0246546Y0580985D01*
X0247296Y0581360D01*
X0248046Y0582110D01*
X0248421Y0583610D01*
X0248421Y0586235D01*
X0248046Y0587734D01*
X0247296Y0588484D01*
X0246546Y0588859D01*
D185*
X0246840Y0577486D02*
X0245507Y0573486D01*
X0244174Y0577486D01*
X0243031Y0573676D02*
X0242460Y0573486D01*
X0241507Y0573486D01*
X0241126Y0573676D01*
X0240936Y0573867D01*
X0240745Y0574248D01*
X0240745Y0574629D01*
X0240936Y0575010D01*
X0241126Y0575200D01*
X0241507Y0575391D01*
X0242269Y0575581D01*
X0242650Y0575771D01*
X0242840Y0575962D01*
X0243031Y0576343D01*
X0243031Y0576724D01*
X0242840Y0577105D01*
X0242650Y0577295D01*
X0242269Y0577486D01*
X0241317Y0577486D01*
X0240745Y0577295D01*
X0419149Y0573666D02*
X0418958Y0573476D01*
X0418768Y0572904D01*
X0418768Y0572523D01*
X0418958Y0571952D01*
X0419339Y0571571D01*
X0419720Y0571380D01*
X0420482Y0571190D01*
X0421054Y0571190D01*
X0421816Y0571380D01*
X0422197Y0571571D01*
X0422577Y0571952D01*
X0422768Y0572523D01*
X0422768Y0572904D01*
X0422577Y0573476D01*
X0422387Y0573666D01*
X0418768Y0577666D02*
X0420673Y0576333D01*
X0418768Y0575380D02*
X0422768Y0575380D01*
X0422768Y0576904D01*
X0422577Y0577285D01*
X0422387Y0577476D01*
X0422006Y0577666D01*
X0421435Y0577666D01*
X0421054Y0577476D01*
X0420863Y0577285D01*
X0420673Y0576904D01*
X0420673Y0575380D01*
X0419911Y0579190D02*
X0419911Y0581095D01*
X0418768Y0578809D02*
X0422768Y0580142D01*
X0418768Y0581476D01*
X0418768Y0582809D02*
X0422768Y0582809D01*
X0418768Y0585095D01*
X0422768Y0585095D01*
X0418768Y0586999D02*
X0422768Y0586999D01*
X0418768Y0589285D02*
X0421054Y0587571D01*
X0422768Y0589285D02*
X0420482Y0586999D01*
X0232389Y0566999D02*
X0232389Y0564332D01*
X0233342Y0568523D02*
X0234294Y0565666D01*
X0231818Y0565666D01*
X0228961Y0566427D02*
X0230294Y0566427D01*
X0230294Y0564332D02*
X0230294Y0568332D01*
X0228389Y0568332D01*
D340*
X0245662Y0455617D02*
X0245662Y0461523D01*
X0243412Y0461523D01*
X0242850Y0461241D01*
X0242568Y0460960D01*
X0242287Y0460398D01*
X0242287Y0459554D01*
X0242568Y0458992D01*
X0242850Y0458711D01*
X0243412Y0458429D01*
X0245662Y0458429D01*
X0239756Y0455617D02*
X0239756Y0461523D01*
X0237507Y0461523D01*
X0236944Y0461241D01*
X0236663Y0460960D01*
X0236382Y0460398D01*
X0236382Y0459554D01*
X0236663Y0458992D01*
X0236944Y0458711D01*
X0237507Y0458429D01*
X0239756Y0458429D01*
X0234132Y0455898D02*
X0233288Y0455617D01*
X0231882Y0455617D01*
X0231320Y0455898D01*
X0231039Y0456180D01*
X0230757Y0456742D01*
X0230757Y0457304D01*
X0231039Y0457867D01*
X0231320Y0458148D01*
X0231882Y0458429D01*
X0233007Y0458711D01*
X0233570Y0458992D01*
X0233851Y0459273D01*
X0234132Y0459835D01*
X0234132Y0460398D01*
X0233851Y0460960D01*
X0233570Y0461241D01*
X0233007Y0461523D01*
X0231601Y0461523D01*
X0230757Y0461241D01*
X0225133Y0455617D02*
X0228508Y0455617D01*
X0226820Y0455617D02*
X0226820Y0461523D01*
X0227383Y0460679D01*
X0227945Y0460117D01*
X0228508Y0459835D01*
D185*
X0166792Y0548929D02*
X0166221Y0548738D01*
X0166030Y0548548D01*
X0165840Y0548167D01*
X0165840Y0547595D01*
X0166030Y0547215D01*
X0166221Y0547024D01*
X0166601Y0546834D01*
X0168125Y0546834D01*
X0168125Y0550834D01*
X0166792Y0550834D01*
X0166411Y0550643D01*
X0166221Y0550453D01*
X0166030Y0550072D01*
X0166030Y0549691D01*
X0166221Y0549310D01*
X0166411Y0549119D01*
X0166792Y0548929D01*
X0168125Y0548929D01*
X0161840Y0546834D02*
X0163173Y0548738D01*
X0164125Y0546834D02*
X0164125Y0550834D01*
X0162601Y0550834D01*
X0162221Y0550643D01*
X0162030Y0550453D01*
X0161840Y0550072D01*
X0161840Y0549500D01*
X0162030Y0549119D01*
X0162221Y0548929D01*
X0162601Y0548738D01*
X0164125Y0548738D01*
X0160316Y0547976D02*
X0158411Y0547976D01*
X0160697Y0546834D02*
X0159363Y0550834D01*
X0158030Y0546834D01*
X0156697Y0546834D02*
X0156697Y0550834D01*
X0154411Y0546834D02*
X0156125Y0549119D01*
X0154411Y0550834D02*
X0156697Y0548548D01*
X0152697Y0548929D02*
X0151363Y0548929D01*
X0150792Y0546834D02*
X0152697Y0546834D01*
X0152697Y0550834D01*
X0150792Y0550834D01*
X0482129Y0536127D02*
X0479653Y0536127D01*
X0480987Y0534604D01*
X0480415Y0534604D01*
X0480034Y0534413D01*
X0479844Y0534223D01*
X0479653Y0533842D01*
X0479653Y0532889D01*
X0479844Y0532508D01*
X0480034Y0532318D01*
X0480415Y0532127D01*
X0481558Y0532127D01*
X0481939Y0532318D01*
X0482129Y0532508D01*
X0477177Y0536127D02*
X0476415Y0536127D01*
X0476034Y0535937D01*
X0475653Y0535556D01*
X0475463Y0534794D01*
X0475463Y0533461D01*
X0475653Y0532699D01*
X0476034Y0532318D01*
X0476415Y0532127D01*
X0477177Y0532127D01*
X0477558Y0532318D01*
X0477939Y0532699D01*
X0478129Y0533461D01*
X0478129Y0534794D01*
X0477939Y0535556D01*
X0477558Y0535937D01*
X0477177Y0536127D01*
X0149384Y0532857D02*
X0151670Y0532857D01*
X0150527Y0532857D02*
X0150527Y0536857D01*
X0150908Y0536286D01*
X0151289Y0535905D01*
X0151670Y0535714D01*
X0146908Y0536857D02*
X0146146Y0536857D01*
X0145765Y0536667D01*
X0145384Y0536286D01*
X0145194Y0535524D01*
X0145194Y0534191D01*
X0145384Y0533429D01*
X0145765Y0533048D01*
X0146146Y0532857D01*
X0146908Y0532857D01*
X0147289Y0533048D01*
X0147670Y0533429D01*
X0147860Y0534191D01*
X0147860Y0535524D01*
X0147670Y0536286D01*
X0147289Y0536667D01*
X0146908Y0536857D01*
D46*
X0120845Y0417077D02*
X0118876Y0417077D01*
X0118032Y0413983D02*
X0120845Y0413983D01*
X0120845Y0419889D01*
X0118032Y0419889D01*
X0116345Y0419889D02*
X0112971Y0419889D01*
X0114658Y0413983D02*
X0114658Y0419889D01*
X0109034Y0417077D02*
X0108190Y0416795D01*
X0107909Y0416514D01*
X0107628Y0415952D01*
X0107628Y0415108D01*
X0107909Y0414546D01*
X0108190Y0414265D01*
X0108752Y0413983D01*
X0111002Y0413983D01*
X0111002Y0419889D01*
X0109034Y0419889D01*
X0108471Y0419608D01*
X0108190Y0419326D01*
X0107909Y0418764D01*
X0107909Y0418202D01*
X0108190Y0417639D01*
X0108471Y0417358D01*
X0109034Y0417077D01*
X0111002Y0417077D01*
D185*
X0352457Y0546538D02*
X0352457Y0550538D01*
X0350743Y0547681D02*
X0348838Y0547681D01*
X0351124Y0546538D02*
X0349791Y0550538D01*
X0348457Y0546538D01*
X0347695Y0550538D02*
X0345410Y0550538D01*
X0346553Y0546538D02*
X0346553Y0550538D01*
X0126362Y0564824D02*
X0128648Y0564824D01*
X0127505Y0564824D02*
X0127505Y0568824D01*
X0127886Y0568253D01*
X0128267Y0567872D01*
X0128648Y0567681D01*
X0122743Y0564824D02*
X0124648Y0564824D01*
X0124648Y0568824D01*
X0446558Y0568627D02*
X0444082Y0568627D01*
X0445415Y0567104D01*
X0444844Y0567104D01*
X0444463Y0566913D01*
X0444272Y0566723D01*
X0444082Y0566342D01*
X0444082Y0565389D01*
X0444272Y0565008D01*
X0444463Y0564818D01*
X0444844Y0564627D01*
X0445987Y0564627D01*
X0446367Y0564818D01*
X0446558Y0565008D01*
X0441225Y0568627D02*
X0441225Y0565770D01*
X0441415Y0565199D01*
X0441796Y0564818D01*
X0442367Y0564627D01*
X0442748Y0564627D01*
X0494629Y0536127D02*
X0492153Y0536127D01*
X0493487Y0534604D01*
X0492915Y0534604D01*
X0492534Y0534413D01*
X0492344Y0534223D01*
X0492153Y0533842D01*
X0492153Y0532889D01*
X0492344Y0532508D01*
X0492534Y0532318D01*
X0492915Y0532127D01*
X0494058Y0532127D01*
X0494439Y0532318D01*
X0494629Y0532508D01*
X0487772Y0531747D02*
X0488153Y0531937D01*
X0488534Y0532318D01*
X0489106Y0532889D01*
X0489487Y0533080D01*
X0489867Y0533080D01*
X0489677Y0532127D02*
X0490058Y0532318D01*
X0490439Y0532699D01*
X0490629Y0533461D01*
X0490629Y0534794D01*
X0490439Y0535556D01*
X0490058Y0535937D01*
X0489677Y0536127D01*
X0488915Y0536127D01*
X0488534Y0535937D01*
X0488153Y0535556D01*
X0487963Y0534794D01*
X0487963Y0533461D01*
X0488153Y0532699D01*
X0488534Y0532318D01*
X0488915Y0532127D01*
X0489677Y0532127D01*
X0140976Y0550834D02*
X0139643Y0546834D01*
X0138310Y0550834D01*
X0137167Y0547024D02*
X0136595Y0546834D01*
X0135643Y0546834D01*
X0135262Y0547024D01*
X0135071Y0547215D01*
X0134881Y0547595D01*
X0134881Y0547976D01*
X0135071Y0548357D01*
X0135262Y0548548D01*
X0135643Y0548738D01*
X0136405Y0548929D01*
X0136786Y0549119D01*
X0136976Y0549310D01*
X0137167Y0549691D01*
X0137167Y0550072D01*
X0136976Y0550453D01*
X0136786Y0550643D01*
X0136405Y0550834D01*
X0135452Y0550834D01*
X0134881Y0550643D01*
X0133357Y0547024D02*
X0132786Y0546834D01*
X0131833Y0546834D01*
X0131452Y0547024D01*
X0131262Y0547215D01*
X0131071Y0547595D01*
X0131071Y0547976D01*
X0131262Y0548357D01*
X0131452Y0548548D01*
X0131833Y0548738D01*
X0132595Y0548929D01*
X0132976Y0549119D01*
X0133167Y0549310D01*
X0133357Y0549691D01*
X0133357Y0550072D01*
X0133167Y0550453D01*
X0132976Y0550643D01*
X0132595Y0550834D01*
X0131643Y0550834D01*
X0131071Y0550643D01*
X0079243Y0564824D02*
X0081529Y0564824D01*
X0080386Y0564824D02*
X0080386Y0568824D01*
X0080767Y0568253D01*
X0081148Y0567872D01*
X0081529Y0567681D01*
X0077529Y0564824D02*
X0077529Y0568824D01*
X0076576Y0568824D01*
X0076005Y0568634D01*
X0075624Y0568253D01*
X0075433Y0567872D01*
X0075243Y0567110D01*
X0075243Y0566539D01*
X0075433Y0565777D01*
X0075624Y0565396D01*
X0076005Y0565015D01*
X0076576Y0564824D01*
X0077529Y0564824D01*
X0325435Y0547215D02*
X0325625Y0547024D01*
X0326197Y0546834D01*
X0326578Y0546834D01*
X0327149Y0547024D01*
X0327530Y0547405D01*
X0327721Y0547786D01*
X0327911Y0548548D01*
X0327911Y0549119D01*
X0327721Y0549881D01*
X0327530Y0550262D01*
X0327149Y0550643D01*
X0326578Y0550834D01*
X0326197Y0550834D01*
X0325625Y0550643D01*
X0325435Y0550453D01*
X0321816Y0546834D02*
X0323721Y0546834D01*
X0323721Y0550834D01*
X0321054Y0550834D02*
X0318768Y0550834D01*
X0319911Y0546834D02*
X0319911Y0550834D01*
X0220980Y0529967D02*
X0218695Y0529967D01*
X0219838Y0525967D02*
X0219838Y0529967D01*
X0216790Y0529967D02*
X0217171Y0529777D01*
X0217361Y0529396D01*
X0217171Y0529015D01*
X0216790Y0528825D01*
X0216409Y0529015D01*
X0216218Y0529396D01*
X0216409Y0529777D01*
X0216790Y0529967D01*
X0397034Y0568627D02*
X0394558Y0568627D01*
X0395891Y0567104D01*
X0395320Y0567104D01*
X0394939Y0566913D01*
X0394748Y0566723D01*
X0394558Y0566342D01*
X0394558Y0565389D01*
X0394748Y0565008D01*
X0394939Y0564818D01*
X0395320Y0564627D01*
X0396463Y0564627D01*
X0396844Y0564818D01*
X0397034Y0565008D01*
X0391510Y0566723D02*
X0390939Y0566532D01*
X0390748Y0566342D01*
X0390558Y0565961D01*
X0390558Y0565389D01*
X0390748Y0565008D01*
X0390939Y0564818D01*
X0391320Y0564627D01*
X0392844Y0564627D01*
X0392844Y0568627D01*
X0391510Y0568627D01*
X0391129Y0568437D01*
X0390939Y0568247D01*
X0390748Y0567866D01*
X0390748Y0567485D01*
X0390939Y0567104D01*
X0391129Y0566913D01*
X0391510Y0566723D01*
X0392844Y0566723D01*
X0267675Y0534499D02*
X0267675Y0531832D01*
X0268627Y0536023D02*
X0269580Y0533166D01*
X0267104Y0533166D01*
X0265580Y0531832D02*
X0265580Y0535832D01*
X0263294Y0531832D02*
X0265008Y0534118D01*
X0263294Y0535832D02*
X0265580Y0533546D01*
D335*
X0248137Y0529600D02*
X0247218Y0526451D01*
X0246299Y0529600D01*
X0245512Y0526601D02*
X0245118Y0526451D01*
X0244462Y0526451D01*
X0244200Y0526601D01*
X0244068Y0526750D01*
X0243937Y0527050D01*
X0243937Y0527350D01*
X0244068Y0527650D01*
X0244200Y0527800D01*
X0244462Y0527950D01*
X0244987Y0528100D01*
X0245249Y0528250D01*
X0245381Y0528400D01*
X0245512Y0528700D01*
X0245512Y0529000D01*
X0245381Y0529300D01*
X0245249Y0529450D01*
X0244987Y0529600D01*
X0244331Y0529600D01*
X0243937Y0529450D01*
X0240787Y0529750D02*
X0243150Y0525701D01*
X0239869Y0526451D02*
X0239869Y0529600D01*
X0238556Y0526451D02*
X0238556Y0529600D01*
X0237507Y0529600D01*
X0237244Y0529450D01*
X0237113Y0529300D01*
X0236982Y0529000D01*
X0236982Y0528550D01*
X0237113Y0528250D01*
X0237244Y0528100D01*
X0237507Y0527950D01*
X0238556Y0527950D01*
D185*
X0410766Y0521973D02*
X0410957Y0521592D01*
X0410957Y0521021D01*
X0410766Y0520450D01*
X0410386Y0520069D01*
X0410005Y0519878D01*
X0409243Y0519688D01*
X0408671Y0519688D01*
X0407909Y0519878D01*
X0407528Y0520069D01*
X0407147Y0520450D01*
X0406957Y0521021D01*
X0406957Y0521402D01*
X0407147Y0521973D01*
X0407338Y0522164D01*
X0408671Y0522164D01*
X0408671Y0521402D01*
X0406957Y0523878D02*
X0410957Y0523878D01*
X0406957Y0526164D01*
X0410957Y0526164D01*
X0406957Y0528069D02*
X0410957Y0528069D01*
X0410957Y0529021D01*
X0410766Y0529592D01*
X0410386Y0529973D01*
X0410005Y0530164D01*
X0409243Y0530354D01*
X0408671Y0530354D01*
X0407909Y0530164D01*
X0407528Y0529973D01*
X0407147Y0529592D01*
X0406957Y0529021D01*
X0406957Y0528069D01*
X0410373Y0573647D02*
X0410563Y0573266D01*
X0410563Y0572694D01*
X0410373Y0572123D01*
X0409992Y0571742D01*
X0409611Y0571551D01*
X0408849Y0571361D01*
X0408278Y0571361D01*
X0407516Y0571551D01*
X0407135Y0571742D01*
X0406754Y0572123D01*
X0406563Y0572694D01*
X0406563Y0573075D01*
X0406754Y0573647D01*
X0406944Y0573837D01*
X0408278Y0573837D01*
X0408278Y0573075D01*
X0406563Y0575551D02*
X0410563Y0575551D01*
X0406563Y0577837D01*
X0410563Y0577837D01*
X0406563Y0579742D02*
X0410563Y0579742D01*
X0410563Y0580694D01*
X0410373Y0581266D01*
X0409992Y0581647D01*
X0409611Y0581837D01*
X0408849Y0582028D01*
X0408278Y0582028D01*
X0407516Y0581837D01*
X0407135Y0581647D01*
X0406754Y0581266D01*
X0406563Y0580694D01*
X0406563Y0579742D01*
X0458595Y0571612D02*
X0458595Y0573898D01*
X0454595Y0572755D02*
X0458595Y0572755D01*
X0455738Y0575041D02*
X0455738Y0576945D01*
X0454595Y0574660D02*
X0458595Y0575993D01*
X0454595Y0577326D01*
X0454976Y0580945D02*
X0454785Y0580755D01*
X0454595Y0580183D01*
X0454595Y0579802D01*
X0454785Y0579231D01*
X0455166Y0578850D01*
X0455547Y0578660D01*
X0456309Y0578469D01*
X0456880Y0578469D01*
X0457642Y0578660D01*
X0458023Y0578850D01*
X0458404Y0579231D01*
X0458595Y0579802D01*
X0458595Y0580183D01*
X0458404Y0580755D01*
X0458214Y0580945D01*
X0454595Y0582660D02*
X0458595Y0582660D01*
X0456690Y0582660D02*
X0456690Y0584945D01*
X0454595Y0584945D02*
X0458595Y0584945D01*
X0207582Y0529777D02*
X0207963Y0529967D01*
X0208534Y0529967D01*
X0209106Y0529777D01*
X0209487Y0529396D01*
X0209677Y0529015D01*
X0209868Y0528253D01*
X0209868Y0527682D01*
X0209677Y0526920D01*
X0209487Y0526539D01*
X0209106Y0526158D01*
X0208534Y0525967D01*
X0208153Y0525967D01*
X0207582Y0526158D01*
X0207391Y0526348D01*
X0207391Y0527682D01*
X0208153Y0527682D01*
X0205677Y0525967D02*
X0205677Y0529967D01*
X0203391Y0525967D01*
X0203391Y0529967D01*
X0201487Y0525967D02*
X0201487Y0529967D01*
X0200534Y0529967D01*
X0199963Y0529777D01*
X0199582Y0529396D01*
X0199391Y0529015D01*
X0199201Y0528253D01*
X0199201Y0527682D01*
X0199391Y0526920D01*
X0199582Y0526539D01*
X0199963Y0526158D01*
X0200534Y0525967D01*
X0201487Y0525967D01*
D340*
X0245015Y0451385D02*
X0241640Y0451385D01*
X0243328Y0445479D02*
X0243328Y0451385D01*
X0239672Y0445479D02*
X0239672Y0451385D01*
X0237422Y0451385D01*
X0236860Y0451104D01*
X0236579Y0450822D01*
X0236297Y0450260D01*
X0236297Y0449416D01*
X0236579Y0448854D01*
X0236860Y0448573D01*
X0237422Y0448292D01*
X0239672Y0448292D01*
X0234048Y0445761D02*
X0233204Y0445479D01*
X0231798Y0445479D01*
X0231236Y0445761D01*
X0230954Y0446042D01*
X0230673Y0446604D01*
X0230673Y0447167D01*
X0230954Y0447729D01*
X0231236Y0448010D01*
X0231798Y0448292D01*
X0232923Y0448573D01*
X0233485Y0448854D01*
X0233766Y0449135D01*
X0234048Y0449698D01*
X0234048Y0450260D01*
X0233766Y0450822D01*
X0233485Y0451104D01*
X0232923Y0451385D01*
X0231517Y0451385D01*
X0230673Y0451104D01*
X0228423Y0450822D02*
X0228142Y0451104D01*
X0227580Y0451385D01*
X0226174Y0451385D01*
X0225611Y0451104D01*
X0225330Y0450822D01*
X0225049Y0450260D01*
X0225049Y0449698D01*
X0225330Y0448854D01*
X0228705Y0445479D01*
X0225049Y0445479D01*
D185*
X0506939Y0536127D02*
X0504463Y0536127D01*
X0505796Y0534604D01*
X0505225Y0534604D01*
X0504844Y0534413D01*
X0504653Y0534223D01*
X0504463Y0533842D01*
X0504463Y0532889D01*
X0504653Y0532508D01*
X0504844Y0532318D01*
X0505225Y0532127D01*
X0506367Y0532127D01*
X0506748Y0532318D01*
X0506939Y0532508D01*
X0502939Y0532318D02*
X0502367Y0532127D01*
X0501415Y0532127D01*
X0501034Y0532318D01*
X0500844Y0532508D01*
X0500653Y0532889D01*
X0500653Y0533270D01*
X0500844Y0533651D01*
X0501034Y0533842D01*
X0501415Y0534032D01*
X0502177Y0534223D01*
X0502558Y0534413D01*
X0502748Y0534604D01*
X0502939Y0534985D01*
X0502939Y0535366D01*
X0502748Y0535747D01*
X0502558Y0535937D01*
X0502177Y0536127D01*
X0501225Y0536127D01*
X0500653Y0535937D01*
X0532320Y0536127D02*
X0529844Y0536127D01*
X0531177Y0534604D01*
X0530606Y0534604D01*
X0530225Y0534413D01*
X0530034Y0534223D01*
X0529844Y0533842D01*
X0529844Y0532889D01*
X0530034Y0532508D01*
X0530225Y0532318D01*
X0530606Y0532127D01*
X0531748Y0532127D01*
X0532129Y0532318D01*
X0532320Y0532508D01*
X0528510Y0536127D02*
X0527558Y0532127D01*
X0526796Y0534985D01*
X0526034Y0532127D01*
X0525082Y0536127D01*
X0459534Y0536127D02*
X0457058Y0536127D01*
X0458391Y0534604D01*
X0457820Y0534604D01*
X0457439Y0534413D01*
X0457248Y0534223D01*
X0457058Y0533842D01*
X0457058Y0532889D01*
X0457248Y0532508D01*
X0457439Y0532318D01*
X0457820Y0532127D01*
X0458963Y0532127D01*
X0459344Y0532318D01*
X0459534Y0532508D01*
X0455344Y0532127D02*
X0455344Y0536127D01*
X0453058Y0532127D02*
X0454772Y0534413D01*
X0453058Y0536127D02*
X0455344Y0533842D01*
X0327785Y0568443D02*
X0327595Y0568634D01*
X0327214Y0568824D01*
X0326262Y0568824D01*
X0325881Y0568634D01*
X0325690Y0568443D01*
X0325500Y0568062D01*
X0325500Y0567681D01*
X0325690Y0567110D01*
X0327976Y0564824D01*
X0325500Y0564824D01*
X0323785Y0564824D02*
X0323785Y0568824D01*
X0323785Y0566920D02*
X0321500Y0566920D01*
X0321500Y0564824D02*
X0321500Y0568824D01*
X0535058Y0525771D02*
X0535058Y0529771D01*
X0533153Y0525771D02*
X0533153Y0529771D01*
X0530868Y0525771D01*
X0530868Y0529771D01*
X0527820Y0529771D02*
X0527820Y0526913D01*
X0528010Y0526342D01*
X0528391Y0525961D01*
X0528963Y0525771D01*
X0529344Y0525771D01*
X0526296Y0529771D02*
X0523820Y0529771D01*
X0525153Y0528247D01*
X0524582Y0528247D01*
X0524201Y0528056D01*
X0524010Y0527866D01*
X0523820Y0527485D01*
X0523820Y0526532D01*
X0524010Y0526152D01*
X0524201Y0525961D01*
X0524582Y0525771D01*
X0525725Y0525771D01*
X0526106Y0525961D01*
X0526296Y0526152D01*
X0436010Y0535950D02*
X0433534Y0535950D01*
X0434868Y0534427D01*
X0434296Y0534427D01*
X0433915Y0534236D01*
X0433725Y0534046D01*
X0433534Y0533665D01*
X0433534Y0532712D01*
X0433725Y0532331D01*
X0433915Y0532141D01*
X0434296Y0531950D01*
X0435439Y0531950D01*
X0435820Y0532141D01*
X0436010Y0532331D01*
X0429725Y0535760D02*
X0430106Y0535950D01*
X0430677Y0535950D01*
X0431249Y0535760D01*
X0431630Y0535379D01*
X0431820Y0534998D01*
X0432010Y0534236D01*
X0432010Y0533665D01*
X0431820Y0532903D01*
X0431630Y0532522D01*
X0431249Y0532141D01*
X0430677Y0531950D01*
X0430296Y0531950D01*
X0429725Y0532141D01*
X0429534Y0532331D01*
X0429534Y0533665D01*
X0430296Y0533665D01*
X0231217Y0571215D02*
X0231217Y0574263D01*
X0229693Y0572739D02*
X0232741Y0572739D01*
X0233693Y0578072D02*
X0233693Y0576167D01*
X0231788Y0575977D01*
X0231979Y0576167D01*
X0232169Y0576548D01*
X0232169Y0577501D01*
X0231979Y0577882D01*
X0231788Y0578072D01*
X0231407Y0578263D01*
X0230455Y0578263D01*
X0230074Y0578072D01*
X0229884Y0577882D01*
X0229693Y0577501D01*
X0229693Y0576548D01*
X0229884Y0576167D01*
X0230074Y0575977D01*
X0233693Y0579406D02*
X0229693Y0580739D01*
X0233693Y0582072D01*
X0230836Y0583215D02*
X0230836Y0585120D01*
X0229693Y0582834D02*
X0233693Y0584167D01*
X0229693Y0585501D01*
X0173767Y0564824D02*
X0176052Y0564824D01*
X0174910Y0564824D02*
X0174910Y0568824D01*
X0175291Y0568253D01*
X0175672Y0567872D01*
X0176052Y0567681D01*
X0172624Y0568824D02*
X0170338Y0568824D01*
X0171481Y0564824D02*
X0171481Y0568824D01*
X0471336Y0536127D02*
X0468859Y0536127D01*
X0470193Y0534604D01*
X0469621Y0534604D01*
X0469240Y0534413D01*
X0469050Y0534223D01*
X0468859Y0533842D01*
X0468859Y0532889D01*
X0469050Y0532508D01*
X0469240Y0532318D01*
X0469621Y0532127D01*
X0470764Y0532127D01*
X0471145Y0532318D01*
X0471336Y0532508D01*
X0467145Y0532127D02*
X0467145Y0536127D01*
X0465812Y0533270D01*
X0464478Y0536127D01*
X0464478Y0532127D01*
D10*
X0024585Y0303321D02*
X0036396Y0303321D01*
X0030772Y0303321D02*
X0030772Y0307820D01*
X0024585Y0307820D02*
X0036396Y0307820D01*
X0025147Y0314569D02*
X0024585Y0313819D01*
X0024585Y0312319D01*
X0025147Y0311570D01*
X0026272Y0311195D01*
X0030772Y0311195D01*
X0031896Y0311570D01*
X0032459Y0312319D01*
X0032459Y0313819D01*
X0031896Y0314569D01*
X0030772Y0314944D01*
X0029647Y0314944D01*
X0028522Y0311195D01*
X0024585Y0319444D02*
X0025147Y0318694D01*
X0026272Y0318319D01*
X0036396Y0318319D01*
X0024585Y0323568D02*
X0025147Y0322818D01*
X0026272Y0322443D01*
X0036396Y0322443D01*
X0025147Y0329567D02*
X0024585Y0328817D01*
X0024585Y0327318D01*
X0025147Y0326568D01*
X0026272Y0326193D01*
X0030772Y0326193D01*
X0031896Y0326568D01*
X0032459Y0327318D01*
X0032459Y0328817D01*
X0031896Y0329567D01*
X0030772Y0329942D01*
X0029647Y0329942D01*
X0028522Y0326193D01*
X0032459Y0333317D02*
X0024585Y0333317D01*
X0031334Y0333317D02*
X0031896Y0333692D01*
X0032459Y0334442D01*
X0032459Y0335567D01*
X0031896Y0336316D01*
X0030772Y0336691D01*
X0024585Y0336691D01*
X0024585Y0340441D02*
X0036396Y0340441D01*
X0024585Y0344940D01*
X0036396Y0344940D01*
X0027959Y0348315D02*
X0027959Y0352065D01*
X0024585Y0347565D02*
X0036396Y0350190D01*
X0024585Y0352814D01*
X0031334Y0356564D02*
X0031896Y0355814D01*
X0032459Y0355439D01*
X0033584Y0355064D01*
X0034146Y0355064D01*
X0035271Y0355439D01*
X0035833Y0355814D01*
X0036396Y0356564D01*
X0036396Y0358064D01*
X0035833Y0358814D01*
X0035271Y0359189D01*
X0034146Y0359564D01*
X0033584Y0359564D01*
X0032459Y0359189D01*
X0031896Y0358814D01*
X0031334Y0358064D01*
X0031334Y0356564D01*
X0030772Y0355814D01*
X0030209Y0355439D01*
X0029084Y0355064D01*
X0026835Y0355064D01*
X0025710Y0355439D01*
X0025147Y0355814D01*
X0024585Y0356564D01*
X0024585Y0358064D01*
X0025147Y0358814D01*
X0025710Y0359189D01*
X0026835Y0359564D01*
X0029084Y0359564D01*
X0030209Y0359189D01*
X0030772Y0358814D01*
X0031334Y0358064D01*
X0023460Y0361063D02*
X0023460Y0367063D01*
X0024585Y0369312D02*
X0024585Y0370812D01*
X0025147Y0371562D01*
X0025710Y0371937D01*
X0027397Y0372687D01*
X0029647Y0373062D01*
X0034146Y0373062D01*
X0035271Y0372687D01*
X0035833Y0372312D01*
X0036396Y0371562D01*
X0036396Y0370062D01*
X0035833Y0369312D01*
X0035271Y0368937D01*
X0034146Y0368562D01*
X0031334Y0368562D01*
X0030209Y0368937D01*
X0029647Y0369312D01*
X0029084Y0370062D01*
X0029084Y0371562D01*
X0029647Y0372312D01*
X0030209Y0372687D01*
X0031334Y0373062D01*
X0036396Y0379811D02*
X0036396Y0378311D01*
X0035833Y0377561D01*
X0035271Y0377186D01*
X0033584Y0376436D01*
X0031334Y0376062D01*
X0026835Y0376062D01*
X0025710Y0376436D01*
X0025147Y0376811D01*
X0024585Y0377561D01*
X0024585Y0379061D01*
X0025147Y0379811D01*
X0025710Y0380186D01*
X0026835Y0380561D01*
X0029647Y0380561D01*
X0030772Y0380186D01*
X0031334Y0379811D01*
X0031896Y0379061D01*
X0031896Y0377561D01*
X0031334Y0376811D01*
X0030772Y0376436D01*
X0029647Y0376062D01*
D340*
X0239095Y0417611D02*
X0234596Y0417611D01*
X0236846Y0415361D02*
X0236846Y0419861D01*
X0228972Y0421267D02*
X0231784Y0421267D01*
X0232065Y0418455D01*
X0231784Y0418736D01*
X0231221Y0419017D01*
X0229815Y0419017D01*
X0229253Y0418736D01*
X0228972Y0418455D01*
X0228691Y0417892D01*
X0228691Y0416486D01*
X0228972Y0415924D01*
X0229253Y0415643D01*
X0229815Y0415361D01*
X0231221Y0415361D01*
X0231784Y0415643D01*
X0232065Y0415924D01*
X0227003Y0421267D02*
X0225035Y0415361D01*
X0223066Y0421267D01*
D185*
X0313910Y0571647D02*
X0313910Y0573932D01*
X0309910Y0572789D02*
X0313910Y0572789D01*
X0309910Y0575266D02*
X0313910Y0575266D01*
X0313910Y0576789D01*
X0313719Y0577170D01*
X0313529Y0577361D01*
X0313148Y0577551D01*
X0312576Y0577551D01*
X0312195Y0577361D01*
X0312005Y0577170D01*
X0311814Y0576789D01*
X0311814Y0575266D01*
X0310100Y0579075D02*
X0309910Y0579647D01*
X0309910Y0580599D01*
X0310100Y0580980D01*
X0310291Y0581170D01*
X0310672Y0581361D01*
X0311053Y0581361D01*
X0311433Y0581170D01*
X0311624Y0580980D01*
X0311814Y0580599D01*
X0312005Y0579837D01*
X0312195Y0579456D01*
X0312386Y0579266D01*
X0312767Y0579075D01*
X0313148Y0579075D01*
X0313529Y0579266D01*
X0313719Y0579456D01*
X0313910Y0579837D01*
X0313910Y0580789D01*
X0313719Y0581361D01*
X0245175Y0534499D02*
X0245175Y0531832D01*
X0246127Y0536023D02*
X0247080Y0533166D01*
X0244604Y0533166D01*
X0240985Y0535642D02*
X0241366Y0535832D01*
X0241937Y0535832D01*
X0242508Y0535642D01*
X0242889Y0535261D01*
X0243080Y0534880D01*
X0243270Y0534118D01*
X0243270Y0533546D01*
X0243080Y0532785D01*
X0242889Y0532404D01*
X0242508Y0532023D01*
X0241937Y0531832D01*
X0241556Y0531832D01*
X0240985Y0532023D01*
X0240794Y0532213D01*
X0240794Y0533546D01*
X0241556Y0533546D01*
X0445987Y0536127D02*
X0443510Y0536127D01*
X0444844Y0534604D01*
X0444272Y0534604D01*
X0443891Y0534413D01*
X0443701Y0534223D01*
X0443510Y0533842D01*
X0443510Y0532889D01*
X0443701Y0532508D01*
X0443891Y0532318D01*
X0444272Y0532127D01*
X0445415Y0532127D01*
X0445796Y0532318D01*
X0445987Y0532508D01*
X0441796Y0532127D02*
X0441796Y0536127D01*
D340*
X0238997Y0428143D02*
X0234498Y0428143D01*
X0236747Y0425893D02*
X0236747Y0430392D01*
X0228873Y0431798D02*
X0231685Y0431798D01*
X0231967Y0428986D01*
X0231685Y0429267D01*
X0231123Y0429549D01*
X0229717Y0429549D01*
X0229155Y0429267D01*
X0228873Y0428986D01*
X0228592Y0428424D01*
X0228592Y0427018D01*
X0228873Y0426455D01*
X0229155Y0426174D01*
X0229717Y0425893D01*
X0231123Y0425893D01*
X0231685Y0426174D01*
X0231967Y0426455D01*
X0226905Y0431798D02*
X0224936Y0425893D01*
X0222968Y0431798D01*
D185*
X0219380Y0572883D02*
X0219190Y0573455D01*
X0218999Y0573645D01*
X0218618Y0573836D01*
X0218047Y0573836D01*
X0217666Y0573645D01*
X0217475Y0573455D01*
X0217285Y0573074D01*
X0217285Y0571550D01*
X0221285Y0571550D01*
X0221285Y0572883D01*
X0221094Y0573264D01*
X0220904Y0573455D01*
X0220523Y0573645D01*
X0220142Y0573645D01*
X0219761Y0573455D01*
X0219571Y0573264D01*
X0219380Y0572883D01*
X0219380Y0571550D01*
X0221285Y0576312D02*
X0221285Y0577074D01*
X0221094Y0577455D01*
X0220714Y0577836D01*
X0219952Y0578026D01*
X0218618Y0578026D01*
X0217856Y0577836D01*
X0217475Y0577455D01*
X0217285Y0577074D01*
X0217285Y0576312D01*
X0217475Y0575931D01*
X0217856Y0575550D01*
X0218618Y0575359D01*
X0219952Y0575359D01*
X0220714Y0575550D01*
X0221094Y0575931D01*
X0221285Y0576312D01*
X0221285Y0580502D02*
X0221285Y0581264D01*
X0221094Y0581645D01*
X0220714Y0582026D01*
X0219952Y0582217D01*
X0218618Y0582217D01*
X0217856Y0582026D01*
X0217475Y0581645D01*
X0217285Y0581264D01*
X0217285Y0580502D01*
X0217475Y0580121D01*
X0217856Y0579740D01*
X0218618Y0579550D01*
X0219952Y0579550D01*
X0220714Y0579740D01*
X0221094Y0580121D01*
X0221285Y0580502D01*
X0217475Y0583740D02*
X0217285Y0584312D01*
X0217285Y0585264D01*
X0217475Y0585645D01*
X0217666Y0585836D01*
X0218047Y0586026D01*
X0218428Y0586026D01*
X0218809Y0585836D01*
X0218999Y0585645D01*
X0219190Y0585264D01*
X0219380Y0584502D01*
X0219571Y0584121D01*
X0219761Y0583931D01*
X0220142Y0583740D01*
X0220523Y0583740D01*
X0220904Y0583931D01*
X0221094Y0584121D01*
X0221285Y0584502D01*
X0221285Y0585455D01*
X0221094Y0586026D01*
X0221285Y0587169D02*
X0221285Y0589455D01*
X0217285Y0588312D02*
X0221285Y0588312D01*
D199*
X0259048Y0027216D02*
X0256236Y0027216D01*
X0259610Y0025529D02*
X0257642Y0031434D01*
X0255673Y0025529D01*
X0252861Y0025529D02*
X0253423Y0025810D01*
X0253705Y0026372D01*
X0253705Y0031434D01*
X0251174Y0029466D02*
X0250049Y0025529D01*
X0248924Y0028341D01*
X0247799Y0025529D01*
X0246674Y0029466D01*
X0241894Y0025529D02*
X0241894Y0028622D01*
X0242175Y0029184D01*
X0242737Y0029466D01*
X0243862Y0029466D01*
X0244424Y0029184D01*
X0241894Y0025810D02*
X0242456Y0025529D01*
X0243862Y0025529D01*
X0244424Y0025810D01*
X0244706Y0026372D01*
X0244706Y0026935D01*
X0244424Y0027497D01*
X0243862Y0027778D01*
X0242456Y0027778D01*
X0241894Y0028060D01*
X0239644Y0029466D02*
X0238238Y0025529D01*
X0236832Y0029466D02*
X0238238Y0025529D01*
X0238800Y0024123D01*
X0239081Y0023841D01*
X0239644Y0023560D01*
X0234863Y0025810D02*
X0234301Y0025529D01*
X0233176Y0025529D01*
X0232613Y0025810D01*
X0232332Y0026372D01*
X0232332Y0026653D01*
X0232613Y0027216D01*
X0233176Y0027497D01*
X0234020Y0027497D01*
X0234582Y0027778D01*
X0234863Y0028341D01*
X0234863Y0028622D01*
X0234582Y0029184D01*
X0234020Y0029466D01*
X0233176Y0029466D01*
X0232613Y0029184D01*
X0224458Y0025529D02*
X0225021Y0025810D01*
X0225302Y0026372D01*
X0225302Y0031434D01*
X0221365Y0025529D02*
X0221927Y0025810D01*
X0222209Y0026091D01*
X0222490Y0026653D01*
X0222490Y0028341D01*
X0222209Y0028903D01*
X0221927Y0029184D01*
X0221365Y0029466D01*
X0220521Y0029466D01*
X0219959Y0029184D01*
X0219678Y0028903D01*
X0219396Y0028341D01*
X0219396Y0026653D01*
X0219678Y0026091D01*
X0219959Y0025810D01*
X0220521Y0025529D01*
X0221365Y0025529D01*
X0216022Y0025529D02*
X0216584Y0025810D01*
X0216865Y0026091D01*
X0217147Y0026653D01*
X0217147Y0028341D01*
X0216865Y0028903D01*
X0216584Y0029184D01*
X0216022Y0029466D01*
X0215178Y0029466D01*
X0214616Y0029184D01*
X0214335Y0028903D01*
X0214053Y0028341D01*
X0214053Y0026653D01*
X0214335Y0026091D01*
X0214616Y0025810D01*
X0215178Y0025529D01*
X0216022Y0025529D01*
X0211522Y0025529D02*
X0211522Y0031434D01*
X0210960Y0027778D02*
X0209273Y0025529D01*
X0209273Y0029466D02*
X0211522Y0027216D01*
X0206742Y0025529D02*
X0206742Y0029466D01*
X0206742Y0031434D02*
X0207023Y0031153D01*
X0206742Y0030872D01*
X0206460Y0031153D01*
X0206742Y0031434D01*
X0206742Y0030872D01*
X0203930Y0029466D02*
X0203930Y0025529D01*
X0203930Y0028903D02*
X0203648Y0029184D01*
X0203086Y0029466D01*
X0202242Y0029466D01*
X0201680Y0029184D01*
X0201399Y0028622D01*
X0201399Y0025529D01*
X0196056Y0029466D02*
X0196056Y0024685D01*
X0196337Y0024123D01*
X0196618Y0023841D01*
X0197180Y0023560D01*
X0198024Y0023560D01*
X0198586Y0023841D01*
X0196056Y0025810D02*
X0196618Y0025529D01*
X0197743Y0025529D01*
X0198305Y0025810D01*
X0198586Y0026091D01*
X0198868Y0026653D01*
X0198868Y0028341D01*
X0198586Y0028903D01*
X0198305Y0029184D01*
X0197743Y0029466D01*
X0196618Y0029466D01*
X0196056Y0029184D01*
X0189588Y0029466D02*
X0187338Y0029466D01*
X0188744Y0025529D02*
X0188744Y0030590D01*
X0188463Y0031153D01*
X0187900Y0031434D01*
X0187338Y0031434D01*
X0184526Y0025529D02*
X0185088Y0025810D01*
X0185369Y0026091D01*
X0185651Y0026653D01*
X0185651Y0028341D01*
X0185369Y0028903D01*
X0185088Y0029184D01*
X0184526Y0029466D01*
X0183682Y0029466D01*
X0183120Y0029184D01*
X0182838Y0028903D01*
X0182557Y0028341D01*
X0182557Y0026653D01*
X0182838Y0026091D01*
X0183120Y0025810D01*
X0183682Y0025529D01*
X0184526Y0025529D01*
X0180026Y0025529D02*
X0180026Y0029466D01*
X0180026Y0028341D02*
X0179745Y0028903D01*
X0179464Y0029184D01*
X0178901Y0029466D01*
X0178339Y0029466D01*
X0168496Y0026091D02*
X0168778Y0025810D01*
X0169621Y0025529D01*
X0170184Y0025529D01*
X0171027Y0025810D01*
X0171590Y0026372D01*
X0171871Y0026935D01*
X0172152Y0028060D01*
X0172152Y0028903D01*
X0171871Y0030028D01*
X0171590Y0030590D01*
X0171027Y0031153D01*
X0170184Y0031434D01*
X0169621Y0031434D01*
X0168778Y0031153D01*
X0168496Y0030872D01*
X0161747Y0031715D02*
X0166809Y0024123D01*
X0156404Y0026091D02*
X0156685Y0025810D01*
X0157529Y0025529D01*
X0158092Y0025529D01*
X0158935Y0025810D01*
X0159498Y0026372D01*
X0159779Y0026935D01*
X0160060Y0028060D01*
X0160060Y0028903D01*
X0159779Y0030028D01*
X0159498Y0030590D01*
X0158935Y0031153D01*
X0158092Y0031434D01*
X0157529Y0031434D01*
X0156685Y0031153D01*
X0156404Y0030872D01*
X0153873Y0027778D02*
X0149374Y0027778D01*
X0151624Y0025529D02*
X0151624Y0030028D01*
X0146562Y0027778D02*
X0142062Y0027778D01*
X0144312Y0025529D02*
X0144312Y0030028D01*
X0135032Y0031715D02*
X0140094Y0024123D01*
X0133063Y0025529D02*
X0133063Y0031434D01*
X0130814Y0031434D01*
X0130251Y0031153D01*
X0129970Y0030872D01*
X0129689Y0030309D01*
X0129689Y0029466D01*
X0129970Y0028903D01*
X0130251Y0028622D01*
X0130814Y0028341D01*
X0133063Y0028341D01*
X0127158Y0025529D02*
X0127158Y0031434D01*
X0127158Y0028622D02*
X0123783Y0028622D01*
X0123783Y0025529D02*
X0123783Y0031434D01*
X0120971Y0025529D02*
X0120971Y0031434D01*
X0118721Y0031434D01*
X0118159Y0031153D01*
X0117878Y0030872D01*
X0117597Y0030309D01*
X0117597Y0029466D01*
X0117878Y0028903D01*
X0118159Y0028622D01*
X0118721Y0028341D01*
X0120971Y0028341D01*
X0110847Y0031715D02*
X0115909Y0024123D01*
X0107192Y0031434D02*
X0107192Y0027216D01*
X0107473Y0026372D01*
X0108035Y0025810D01*
X0108879Y0025529D01*
X0109441Y0025529D01*
X0101849Y0025529D02*
X0101849Y0028622D01*
X0102130Y0029184D01*
X0102692Y0029466D01*
X0103817Y0029466D01*
X0104380Y0029184D01*
X0101849Y0025810D02*
X0102411Y0025529D01*
X0103817Y0025529D01*
X0104380Y0025810D01*
X0104661Y0026372D01*
X0104661Y0026935D01*
X0104380Y0027497D01*
X0103817Y0027778D01*
X0102411Y0027778D01*
X0101849Y0028060D01*
X0099599Y0029466D02*
X0098193Y0025529D01*
X0096787Y0029466D01*
X0092006Y0025529D02*
X0092006Y0028622D01*
X0092287Y0029184D01*
X0092850Y0029466D01*
X0093975Y0029466D01*
X0094537Y0029184D01*
X0092006Y0025810D02*
X0092568Y0025529D01*
X0093975Y0025529D01*
X0094537Y0025810D01*
X0094818Y0026372D01*
X0094818Y0026935D01*
X0094537Y0027497D01*
X0093975Y0027778D01*
X0092568Y0027778D01*
X0092006Y0028060D01*
X0082164Y0025529D02*
X0082164Y0031434D01*
X0082164Y0025810D02*
X0082726Y0025529D01*
X0083851Y0025529D01*
X0084413Y0025810D01*
X0084694Y0026091D01*
X0084976Y0026653D01*
X0084976Y0028341D01*
X0084694Y0028903D01*
X0084413Y0029184D01*
X0083851Y0029466D01*
X0082726Y0029466D01*
X0082164Y0029184D01*
X0077102Y0025810D02*
X0077664Y0025529D01*
X0078789Y0025529D01*
X0079351Y0025810D01*
X0079633Y0026372D01*
X0079633Y0028622D01*
X0079351Y0029184D01*
X0078789Y0029466D01*
X0077664Y0029466D01*
X0077102Y0029184D01*
X0076820Y0028622D01*
X0076820Y0028060D01*
X0079633Y0027497D01*
X0074852Y0029466D02*
X0073446Y0025529D01*
X0072040Y0029466D01*
X0067540Y0025810D02*
X0068103Y0025529D01*
X0069228Y0025529D01*
X0069790Y0025810D01*
X0070071Y0026372D01*
X0070071Y0028622D01*
X0069790Y0029184D01*
X0069228Y0029466D01*
X0068103Y0029466D01*
X0067540Y0029184D01*
X0067259Y0028622D01*
X0067259Y0028060D01*
X0070071Y0027497D01*
X0063885Y0025529D02*
X0064447Y0025810D01*
X0064728Y0026372D01*
X0064728Y0031434D01*
X0060791Y0025529D02*
X0061354Y0025810D01*
X0061635Y0026091D01*
X0061916Y0026653D01*
X0061916Y0028341D01*
X0061635Y0028903D01*
X0061354Y0029184D01*
X0060791Y0029466D01*
X0059948Y0029466D01*
X0059385Y0029184D01*
X0059104Y0028903D01*
X0058823Y0028341D01*
X0058823Y0026653D01*
X0059104Y0026091D01*
X0059385Y0025810D01*
X0059948Y0025529D01*
X0060791Y0025529D01*
X0056292Y0029466D02*
X0056292Y0023560D01*
X0056292Y0029184D02*
X0055729Y0029466D01*
X0054604Y0029466D01*
X0054042Y0029184D01*
X0053761Y0028903D01*
X0053480Y0028341D01*
X0053480Y0026653D01*
X0053761Y0026091D01*
X0054042Y0025810D01*
X0054604Y0025529D01*
X0055729Y0025529D01*
X0056292Y0025810D01*
X0048699Y0025810D02*
X0049261Y0025529D01*
X0050386Y0025529D01*
X0050949Y0025810D01*
X0051230Y0026372D01*
X0051230Y0028622D01*
X0050949Y0029184D01*
X0050386Y0029466D01*
X0049261Y0029466D01*
X0048699Y0029184D01*
X0048418Y0028622D01*
X0048418Y0028060D01*
X0051230Y0027497D01*
X0045887Y0025529D02*
X0045887Y0029466D01*
X0045887Y0028341D02*
X0045606Y0028903D01*
X0045324Y0029184D01*
X0044762Y0029466D01*
X0044200Y0029466D01*
X0042512Y0025810D02*
X0041950Y0025529D01*
X0040825Y0025529D01*
X0040263Y0025810D01*
X0039981Y0026372D01*
X0039981Y0026653D01*
X0040263Y0027216D01*
X0040825Y0027497D01*
X0041669Y0027497D01*
X0042231Y0027778D01*
X0042512Y0028341D01*
X0042512Y0028622D01*
X0042231Y0029184D01*
X0041669Y0029466D01*
X0040825Y0029466D01*
X0040263Y0029184D01*
X0215319Y0016021D02*
X0215319Y0021926D01*
X0212788Y0016021D02*
X0212788Y0019114D01*
X0213069Y0019677D01*
X0213631Y0019958D01*
X0214475Y0019958D01*
X0215038Y0019677D01*
X0215319Y0019395D01*
X0210819Y0019958D02*
X0208570Y0019958D01*
X0209976Y0021926D02*
X0209976Y0016864D01*
X0209694Y0016302D01*
X0209132Y0016021D01*
X0208570Y0016021D01*
X0207445Y0019958D02*
X0205195Y0019958D01*
X0206601Y0021926D02*
X0206601Y0016864D01*
X0206320Y0016302D01*
X0205757Y0016021D01*
X0205195Y0016021D01*
X0203227Y0019958D02*
X0203227Y0014052D01*
X0203227Y0019677D02*
X0202664Y0019958D01*
X0201539Y0019958D01*
X0200977Y0019677D01*
X0200696Y0019395D01*
X0200414Y0018833D01*
X0200414Y0017146D01*
X0200696Y0016583D01*
X0200977Y0016302D01*
X0201539Y0016021D01*
X0202664Y0016021D01*
X0203227Y0016302D01*
X0198165Y0016302D02*
X0197602Y0016021D01*
X0196477Y0016021D01*
X0195915Y0016302D01*
X0195634Y0016864D01*
X0195634Y0017146D01*
X0195915Y0017708D01*
X0196477Y0017989D01*
X0197321Y0017989D01*
X0197883Y0018270D01*
X0198165Y0018833D01*
X0198165Y0019114D01*
X0197883Y0019677D01*
X0197321Y0019958D01*
X0196477Y0019958D01*
X0195915Y0019677D01*
X0193103Y0016583D02*
X0192822Y0016302D01*
X0193103Y0016021D01*
X0193384Y0016302D01*
X0193103Y0016583D01*
X0193103Y0016021D01*
X0193103Y0019677D02*
X0192822Y0019395D01*
X0193103Y0019114D01*
X0193384Y0019395D01*
X0193103Y0019677D01*
X0193103Y0019114D01*
X0186072Y0022207D02*
X0191134Y0014615D01*
X0179886Y0022207D02*
X0184948Y0014615D01*
X0177917Y0016021D02*
X0177917Y0019958D01*
X0177917Y0018833D02*
X0177636Y0019395D01*
X0177355Y0019677D01*
X0176792Y0019958D01*
X0176230Y0019958D01*
X0171730Y0019958D02*
X0171730Y0016021D01*
X0174261Y0019958D02*
X0174261Y0016864D01*
X0173980Y0016302D01*
X0173418Y0016021D01*
X0172574Y0016021D01*
X0172012Y0016302D01*
X0171730Y0016583D01*
X0169200Y0016302D02*
X0168637Y0016021D01*
X0167512Y0016021D01*
X0166950Y0016302D01*
X0166669Y0016864D01*
X0166669Y0017146D01*
X0166950Y0017708D01*
X0167512Y0017989D01*
X0168356Y0017989D01*
X0168918Y0018270D01*
X0169200Y0018833D01*
X0169200Y0019114D01*
X0168918Y0019677D01*
X0168356Y0019958D01*
X0167512Y0019958D01*
X0166950Y0019677D01*
X0161888Y0016302D02*
X0162450Y0016021D01*
X0163575Y0016021D01*
X0164138Y0016302D01*
X0164419Y0016864D01*
X0164419Y0019114D01*
X0164138Y0019677D01*
X0163575Y0019958D01*
X0162450Y0019958D01*
X0161888Y0019677D01*
X0161607Y0019114D01*
X0161607Y0018552D01*
X0164419Y0017989D01*
X0159919Y0019958D02*
X0157670Y0019958D01*
X0159076Y0016021D02*
X0159076Y0021083D01*
X0158795Y0021645D01*
X0158232Y0021926D01*
X0157670Y0021926D01*
X0155701Y0016021D02*
X0155701Y0019958D01*
X0155701Y0021926D02*
X0155982Y0021645D01*
X0155701Y0021364D01*
X0155420Y0021645D01*
X0155701Y0021926D01*
X0155701Y0021364D01*
X0152889Y0016583D02*
X0152608Y0016302D01*
X0152889Y0016021D01*
X0153170Y0016302D01*
X0152889Y0016583D01*
X0152889Y0016021D01*
X0147546Y0016302D02*
X0148108Y0016021D01*
X0149233Y0016021D01*
X0149796Y0016302D01*
X0150077Y0016583D01*
X0150358Y0017146D01*
X0150358Y0018833D01*
X0150077Y0019395D01*
X0149796Y0019677D01*
X0149233Y0019958D01*
X0148108Y0019958D01*
X0147546Y0019677D01*
X0144171Y0016021D02*
X0144734Y0016302D01*
X0145015Y0016583D01*
X0145296Y0017146D01*
X0145296Y0018833D01*
X0145015Y0019395D01*
X0144734Y0019677D01*
X0144171Y0019958D01*
X0143328Y0019958D01*
X0142765Y0019677D01*
X0142484Y0019395D01*
X0142203Y0018833D01*
X0142203Y0017146D01*
X0142484Y0016583D01*
X0142765Y0016302D01*
X0143328Y0016021D01*
X0144171Y0016021D01*
X0139672Y0016021D02*
X0139672Y0019958D01*
X0139672Y0019395D02*
X0139391Y0019677D01*
X0138828Y0019958D01*
X0137985Y0019958D01*
X0137422Y0019677D01*
X0137141Y0019114D01*
X0137141Y0016021D01*
X0137141Y0019114D02*
X0136860Y0019677D01*
X0136297Y0019958D01*
X0135454Y0019958D01*
X0134891Y0019677D01*
X0134610Y0019114D01*
X0134610Y0016021D01*
X0127580Y0022207D02*
X0132642Y0014615D01*
X0125892Y0016302D02*
X0125330Y0016021D01*
X0124205Y0016021D01*
X0123643Y0016302D01*
X0123362Y0016864D01*
X0123362Y0017146D01*
X0123643Y0017708D01*
X0124205Y0017989D01*
X0125049Y0017989D01*
X0125611Y0018270D01*
X0125892Y0018833D01*
X0125892Y0019114D01*
X0125611Y0019677D01*
X0125049Y0019958D01*
X0124205Y0019958D01*
X0123643Y0019677D01*
X0116612Y0022207D02*
X0121674Y0014615D01*
X0114644Y0016021D02*
X0114644Y0019958D01*
X0114644Y0019395D02*
X0114363Y0019677D01*
X0113800Y0019958D01*
X0112957Y0019958D01*
X0112394Y0019677D01*
X0112113Y0019114D01*
X0112113Y0016021D01*
X0112113Y0019114D02*
X0111832Y0019677D01*
X0111269Y0019958D01*
X0110426Y0019958D01*
X0109863Y0019677D01*
X0109582Y0019114D01*
X0109582Y0016021D01*
X0106770Y0016021D02*
X0106770Y0019958D01*
X0106770Y0021926D02*
X0107051Y0021645D01*
X0106770Y0021364D01*
X0106489Y0021645D01*
X0106770Y0021926D01*
X0106770Y0021364D01*
X0104239Y0016302D02*
X0103676Y0016021D01*
X0102552Y0016021D01*
X0101989Y0016302D01*
X0101708Y0016864D01*
X0101708Y0017146D01*
X0101989Y0017708D01*
X0102552Y0017989D01*
X0103395Y0017989D01*
X0103958Y0018270D01*
X0104239Y0018833D01*
X0104239Y0019114D01*
X0103958Y0019677D01*
X0103395Y0019958D01*
X0102552Y0019958D01*
X0101989Y0019677D01*
X0099458Y0016302D02*
X0098896Y0016021D01*
X0097771Y0016021D01*
X0097209Y0016302D01*
X0096927Y0016864D01*
X0096927Y0017146D01*
X0097209Y0017708D01*
X0097771Y0017989D01*
X0098615Y0017989D01*
X0099177Y0018270D01*
X0099458Y0018833D01*
X0099458Y0019114D01*
X0099177Y0019677D01*
X0098615Y0019958D01*
X0097771Y0019958D01*
X0097209Y0019677D01*
X0094396Y0016021D02*
X0094396Y0019958D01*
X0094396Y0021926D02*
X0094678Y0021645D01*
X0094396Y0021364D01*
X0094115Y0021645D01*
X0094396Y0021926D01*
X0094396Y0021364D01*
X0090741Y0016021D02*
X0091303Y0016302D01*
X0091584Y0016583D01*
X0091865Y0017146D01*
X0091865Y0018833D01*
X0091584Y0019395D01*
X0091303Y0019677D01*
X0090741Y0019958D01*
X0089897Y0019958D01*
X0089335Y0019677D01*
X0089053Y0019395D01*
X0088772Y0018833D01*
X0088772Y0017146D01*
X0089053Y0016583D01*
X0089335Y0016302D01*
X0089897Y0016021D01*
X0090741Y0016021D01*
X0086241Y0019958D02*
X0086241Y0016021D01*
X0086241Y0019395D02*
X0085960Y0019677D01*
X0085398Y0019958D01*
X0084554Y0019958D01*
X0083991Y0019677D01*
X0083710Y0019114D01*
X0083710Y0016021D01*
D185*
X0435249Y0527037D02*
X0435439Y0526847D01*
X0436011Y0526656D01*
X0436392Y0526656D01*
X0436963Y0526847D01*
X0437344Y0527228D01*
X0437535Y0527609D01*
X0437725Y0528371D01*
X0437725Y0528942D01*
X0437535Y0529704D01*
X0437344Y0530085D01*
X0436963Y0530466D01*
X0436392Y0530656D01*
X0436011Y0530656D01*
X0435439Y0530466D01*
X0435249Y0530275D01*
X0433725Y0527799D02*
X0431820Y0527799D01*
X0434106Y0526656D02*
X0432773Y0530656D01*
X0431439Y0526656D01*
X0430106Y0526656D02*
X0430106Y0530656D01*
X0428773Y0527799D01*
X0427439Y0530656D01*
X0427439Y0526656D01*
X0526839Y0571958D02*
X0530839Y0571958D01*
X0526839Y0573863D02*
X0530839Y0573863D01*
X0526839Y0576148D01*
X0530839Y0576148D01*
X0530839Y0579196D02*
X0527982Y0579196D01*
X0527410Y0579005D01*
X0527029Y0578625D01*
X0526839Y0578053D01*
X0526839Y0577672D01*
X0529505Y0582815D02*
X0526839Y0582815D01*
X0531029Y0581863D02*
X0528172Y0580910D01*
X0528172Y0583386D01*
X0220175Y0534499D02*
X0220175Y0531832D01*
X0221127Y0536023D02*
X0222080Y0533166D01*
X0219604Y0533166D01*
X0215794Y0532213D02*
X0215985Y0532023D01*
X0216556Y0531832D01*
X0216937Y0531832D01*
X0217508Y0532023D01*
X0217889Y0532404D01*
X0218080Y0532785D01*
X0218270Y0533546D01*
X0218270Y0534118D01*
X0218080Y0534880D01*
X0217889Y0535261D01*
X0217508Y0535642D01*
X0216937Y0535832D01*
X0216556Y0535832D01*
X0215985Y0535642D01*
X0215794Y0535451D01*
D340*
X0245465Y0465853D02*
X0245465Y0471759D01*
X0243215Y0471759D01*
X0242653Y0471478D01*
X0242372Y0471197D01*
X0242090Y0470634D01*
X0242090Y0469790D01*
X0242372Y0469228D01*
X0242653Y0468947D01*
X0243215Y0468666D01*
X0245465Y0468666D01*
X0239559Y0465853D02*
X0239559Y0471759D01*
X0237310Y0471759D01*
X0236747Y0471478D01*
X0236466Y0471197D01*
X0236185Y0470634D01*
X0236185Y0469790D01*
X0236466Y0469228D01*
X0236747Y0468947D01*
X0237310Y0468666D01*
X0239559Y0468666D01*
X0233935Y0466135D02*
X0233092Y0465853D01*
X0231685Y0465853D01*
X0231123Y0466135D01*
X0230842Y0466416D01*
X0230561Y0466978D01*
X0230561Y0467541D01*
X0230842Y0468103D01*
X0231123Y0468384D01*
X0231685Y0468666D01*
X0232810Y0468947D01*
X0233373Y0469228D01*
X0233654Y0469509D01*
X0233935Y0470072D01*
X0233935Y0470634D01*
X0233654Y0471197D01*
X0233373Y0471478D01*
X0232810Y0471759D01*
X0231404Y0471759D01*
X0230561Y0471478D01*
X0228311Y0471197D02*
X0228030Y0471478D01*
X0227467Y0471759D01*
X0226061Y0471759D01*
X0225499Y0471478D01*
X0225218Y0471197D01*
X0224936Y0470634D01*
X0224936Y0470072D01*
X0225218Y0469228D01*
X0228592Y0465853D01*
X0224936Y0465853D01*
D185*
X0363081Y0536476D02*
X0362890Y0536667D01*
X0362509Y0536857D01*
X0361557Y0536857D01*
X0361176Y0536667D01*
X0360986Y0536476D01*
X0360795Y0536095D01*
X0360795Y0535714D01*
X0360986Y0535143D01*
X0363271Y0532857D01*
X0360795Y0532857D01*
X0359081Y0532857D02*
X0359081Y0536857D01*
X0357748Y0534000D01*
X0356414Y0536857D01*
X0356414Y0532857D01*
X0113767Y0564824D02*
X0116052Y0564824D01*
X0114910Y0564824D02*
X0114910Y0568824D01*
X0115291Y0568253D01*
X0115672Y0567872D01*
X0116052Y0567681D01*
X0110910Y0568824D02*
X0110910Y0565967D01*
X0111100Y0565396D01*
X0111481Y0565015D01*
X0112052Y0564824D01*
X0112433Y0564824D01*
X0553969Y0555251D02*
X0553969Y0556013D01*
X0553778Y0556394D01*
X0553397Y0556775D01*
X0552635Y0556965D01*
X0551302Y0556965D01*
X0550540Y0556775D01*
X0550159Y0556394D01*
X0549969Y0556013D01*
X0549969Y0555251D01*
X0550159Y0554870D01*
X0550540Y0554489D01*
X0551302Y0554299D01*
X0552635Y0554299D01*
X0553397Y0554489D01*
X0553778Y0554870D01*
X0553969Y0555251D01*
X0553588Y0558489D02*
X0553778Y0558680D01*
X0553969Y0559061D01*
X0553969Y0560013D01*
X0553778Y0560394D01*
X0553588Y0560584D01*
X0553207Y0560775D01*
X0552826Y0560775D01*
X0552254Y0560584D01*
X0549969Y0558299D01*
X0549969Y0560775D01*
X0549969Y0562489D02*
X0553969Y0562489D01*
X0552064Y0562489D02*
X0552064Y0564775D01*
X0549969Y0564775D02*
X0553969Y0564775D01*
X0553588Y0566489D02*
X0553778Y0566680D01*
X0553969Y0567061D01*
X0553969Y0568013D01*
X0553778Y0568394D01*
X0553588Y0568584D01*
X0553207Y0568775D01*
X0552826Y0568775D01*
X0552254Y0568584D01*
X0549969Y0566299D01*
X0549969Y0568775D01*
X0220175Y0566999D02*
X0220175Y0564332D01*
X0221127Y0568523D02*
X0222080Y0565666D01*
X0219604Y0565666D01*
X0218080Y0564332D02*
X0218080Y0568332D01*
X0217127Y0568332D01*
X0216556Y0568142D01*
X0216175Y0567761D01*
X0215985Y0567380D01*
X0215794Y0566618D01*
X0215794Y0566046D01*
X0215985Y0565285D01*
X0216175Y0564904D01*
X0216556Y0564523D01*
X0217127Y0564332D01*
X0218080Y0564332D01*
X0232485Y0534499D02*
X0232485Y0531832D01*
X0233437Y0536023D02*
X0234389Y0533166D01*
X0231913Y0533166D01*
X0230389Y0533927D02*
X0229056Y0533927D01*
X0228485Y0531832D02*
X0230389Y0531832D01*
X0230389Y0535832D01*
X0228485Y0535832D01*
X0436106Y0568627D02*
X0433630Y0568627D01*
X0434963Y0567104D01*
X0434391Y0567104D01*
X0434010Y0566913D01*
X0433820Y0566723D01*
X0433630Y0566342D01*
X0433630Y0565389D01*
X0433820Y0565008D01*
X0434010Y0564818D01*
X0434391Y0564627D01*
X0435534Y0564627D01*
X0435915Y0564818D01*
X0436106Y0565008D01*
X0431915Y0564627D02*
X0431915Y0568627D01*
X0431915Y0566723D02*
X0429630Y0566723D01*
X0429630Y0564627D02*
X0429630Y0568627D01*
X0184338Y0532324D02*
X0186624Y0532324D01*
X0185481Y0532324D02*
X0185481Y0536324D01*
X0185862Y0535753D01*
X0186243Y0535372D01*
X0186624Y0535181D01*
X0182624Y0536324D02*
X0182624Y0533086D01*
X0182433Y0532705D01*
X0182243Y0532515D01*
X0181862Y0532324D01*
X0181100Y0532324D01*
X0180719Y0532515D01*
X0180529Y0532705D01*
X0180338Y0533086D01*
X0180338Y0536324D01*
X0123086Y0574406D02*
X0122895Y0574216D01*
X0122705Y0573644D01*
X0122705Y0573263D01*
X0122895Y0572692D01*
X0123276Y0572311D01*
X0123657Y0572120D01*
X0124419Y0571930D01*
X0124991Y0571930D01*
X0125753Y0572120D01*
X0126134Y0572311D01*
X0126514Y0572692D01*
X0126705Y0573263D01*
X0126705Y0573644D01*
X0126514Y0574216D01*
X0126324Y0574406D01*
X0122705Y0578025D02*
X0122705Y0576120D01*
X0126705Y0576120D01*
X0126705Y0579358D02*
X0123467Y0579358D01*
X0123086Y0579549D01*
X0122895Y0579739D01*
X0122705Y0580120D01*
X0122705Y0580882D01*
X0122895Y0581263D01*
X0123086Y0581454D01*
X0123467Y0581644D01*
X0126705Y0581644D01*
X0126705Y0582978D02*
X0126705Y0585263D01*
X0122705Y0584120D02*
X0126705Y0584120D01*
X0123086Y0588882D02*
X0122895Y0588692D01*
X0122705Y0588120D01*
X0122705Y0587739D01*
X0122895Y0587168D01*
X0123276Y0586787D01*
X0123657Y0586597D01*
X0124419Y0586406D01*
X0124991Y0586406D01*
X0125753Y0586597D01*
X0126134Y0586787D01*
X0126514Y0587168D01*
X0126705Y0587739D01*
X0126705Y0588120D01*
X0126514Y0588692D01*
X0126324Y0588882D01*
X0122705Y0590597D02*
X0126705Y0590597D01*
X0124800Y0590597D02*
X0124800Y0592882D01*
X0122705Y0592882D02*
X0126705Y0592882D01*
X0245270Y0566999D02*
X0245270Y0564332D01*
X0246223Y0568523D02*
X0247175Y0565666D01*
X0244699Y0565666D01*
X0243175Y0564332D02*
X0243175Y0568332D01*
X0243175Y0566427D02*
X0240889Y0566427D01*
X0240889Y0564332D02*
X0240889Y0568332D01*
X0314904Y0568443D02*
X0314714Y0568634D01*
X0314333Y0568824D01*
X0313381Y0568824D01*
X0313000Y0568634D01*
X0312809Y0568443D01*
X0312619Y0568062D01*
X0312619Y0567681D01*
X0312809Y0567110D01*
X0315095Y0564824D01*
X0312619Y0564824D01*
X0309571Y0566920D02*
X0310904Y0566920D01*
X0310904Y0564824D02*
X0310904Y0568824D01*
X0309000Y0568824D01*
X0488945Y0572333D02*
X0492945Y0572333D01*
X0492755Y0576333D02*
X0492945Y0575952D01*
X0492945Y0575380D01*
X0492755Y0574809D01*
X0492374Y0574428D01*
X0491993Y0574238D01*
X0491231Y0574047D01*
X0490659Y0574047D01*
X0489898Y0574238D01*
X0489517Y0574428D01*
X0489136Y0574809D01*
X0488945Y0575380D01*
X0488945Y0575761D01*
X0489136Y0576333D01*
X0489326Y0576523D01*
X0490659Y0576523D01*
X0490659Y0575761D01*
X0488945Y0578238D02*
X0492945Y0578238D01*
X0488945Y0580523D01*
X0492945Y0580523D01*
X0492564Y0582238D02*
X0492755Y0582428D01*
X0492945Y0582809D01*
X0492945Y0583761D01*
X0492755Y0584142D01*
X0492564Y0584333D01*
X0492183Y0584523D01*
X0491802Y0584523D01*
X0491231Y0584333D01*
X0488945Y0582047D01*
X0488945Y0584523D01*
X0492945Y0585857D02*
X0492945Y0588333D01*
X0491421Y0586999D01*
X0491421Y0587571D01*
X0491231Y0587952D01*
X0491040Y0588142D01*
X0490659Y0588333D01*
X0489707Y0588333D01*
X0489326Y0588142D01*
X0489136Y0587952D01*
X0488945Y0587571D01*
X0488945Y0586428D01*
X0489136Y0586047D01*
X0489326Y0585857D01*
X0412034Y0536127D02*
X0409558Y0536127D01*
X0410891Y0534604D01*
X0410320Y0534604D01*
X0409939Y0534413D01*
X0409748Y0534223D01*
X0409558Y0533842D01*
X0409558Y0532889D01*
X0409748Y0532508D01*
X0409939Y0532318D01*
X0410320Y0532127D01*
X0411463Y0532127D01*
X0411844Y0532318D01*
X0412034Y0532508D01*
X0405558Y0532508D02*
X0405748Y0532318D01*
X0406320Y0532127D01*
X0406701Y0532127D01*
X0407272Y0532318D01*
X0407653Y0532699D01*
X0407844Y0533080D01*
X0408034Y0533842D01*
X0408034Y0534413D01*
X0407844Y0535175D01*
X0407653Y0535556D01*
X0407272Y0535937D01*
X0406701Y0536127D01*
X0406320Y0536127D01*
X0405748Y0535937D01*
X0405558Y0535747D01*
X0304476Y0528095D02*
X0302572Y0528095D01*
X0304857Y0526952D02*
X0303524Y0530952D01*
X0302191Y0526952D01*
X0299524Y0529047D02*
X0300857Y0529047D01*
X0300857Y0526952D02*
X0300857Y0530952D01*
X0298953Y0530952D01*
X0295143Y0526952D02*
X0296476Y0528856D01*
X0297429Y0526952D02*
X0297429Y0530952D01*
X0295905Y0530952D01*
X0295524Y0530761D01*
X0295334Y0530571D01*
X0295143Y0530190D01*
X0295143Y0529618D01*
X0295334Y0529237D01*
X0295524Y0529047D01*
X0295905Y0528856D01*
X0297429Y0528856D01*
X0349809Y0568443D02*
X0349619Y0568634D01*
X0349238Y0568824D01*
X0348285Y0568824D01*
X0347904Y0568634D01*
X0347714Y0568443D01*
X0347523Y0568062D01*
X0347523Y0567681D01*
X0347714Y0567110D01*
X0350000Y0564824D01*
X0347523Y0564824D01*
X0343904Y0564824D02*
X0345809Y0564824D01*
X0345809Y0568824D01*
X0327559Y0535984D02*
X0327368Y0536175D01*
X0326987Y0536365D01*
X0326035Y0536365D01*
X0325654Y0536175D01*
X0325464Y0535984D01*
X0325273Y0535603D01*
X0325273Y0535222D01*
X0325464Y0534651D01*
X0327749Y0532365D01*
X0325273Y0532365D01*
X0321464Y0536175D02*
X0321845Y0536365D01*
X0322416Y0536365D01*
X0322987Y0536175D01*
X0323368Y0535794D01*
X0323559Y0535413D01*
X0323749Y0534651D01*
X0323749Y0534079D01*
X0323559Y0533317D01*
X0323368Y0532936D01*
X0322987Y0532556D01*
X0322416Y0532365D01*
X0322035Y0532365D01*
X0321464Y0532556D01*
X0321273Y0532746D01*
X0321273Y0534079D01*
X0322035Y0534079D01*
X0205671Y0571982D02*
X0209671Y0571982D01*
X0209671Y0572934D01*
X0209480Y0573506D01*
X0209099Y0573887D01*
X0208718Y0574077D01*
X0207957Y0574268D01*
X0207385Y0574268D01*
X0206623Y0574077D01*
X0206242Y0573887D01*
X0205861Y0573506D01*
X0205671Y0572934D01*
X0205671Y0571982D01*
X0205671Y0575982D02*
X0209671Y0575982D01*
X0209480Y0579982D02*
X0209671Y0579601D01*
X0209671Y0579029D01*
X0209480Y0578458D01*
X0209099Y0578077D01*
X0208718Y0577887D01*
X0207957Y0577696D01*
X0207385Y0577696D01*
X0206623Y0577887D01*
X0206242Y0578077D01*
X0205861Y0578458D01*
X0205671Y0579029D01*
X0205671Y0579410D01*
X0205861Y0579982D01*
X0206052Y0580172D01*
X0207385Y0580172D01*
X0207385Y0579410D01*
X0205671Y0581887D02*
X0209671Y0581887D01*
X0209671Y0583220D02*
X0209671Y0585506D01*
X0205671Y0584363D02*
X0209671Y0584363D01*
X0206814Y0586648D02*
X0206814Y0588553D01*
X0205671Y0586268D02*
X0209671Y0587601D01*
X0205671Y0588934D01*
X0205671Y0592172D02*
X0205671Y0590268D01*
X0209671Y0590268D01*
X0513945Y0572352D02*
X0517945Y0572352D01*
X0513945Y0574256D02*
X0517945Y0574256D01*
X0513945Y0576542D01*
X0517945Y0576542D01*
X0517945Y0579590D02*
X0515088Y0579590D01*
X0514517Y0579399D01*
X0514136Y0579018D01*
X0513945Y0578447D01*
X0513945Y0578066D01*
X0517564Y0581304D02*
X0517755Y0581494D01*
X0517945Y0581875D01*
X0517945Y0582828D01*
X0517755Y0583209D01*
X0517564Y0583399D01*
X0517183Y0583590D01*
X0516802Y0583590D01*
X0516231Y0583399D01*
X0513945Y0581113D01*
X0513945Y0583590D01*
X0136838Y0564824D02*
X0139124Y0564824D01*
X0137981Y0564824D02*
X0137981Y0568824D01*
X0138362Y0568253D01*
X0138743Y0567872D01*
X0139124Y0567681D01*
X0135124Y0564824D02*
X0135124Y0568824D01*
X0132838Y0564824D01*
X0132838Y0568824D01*
X0396593Y0518094D02*
X0396784Y0517713D01*
X0396784Y0517141D01*
X0396593Y0516570D01*
X0396212Y0516189D01*
X0395831Y0515999D01*
X0395069Y0515808D01*
X0394498Y0515808D01*
X0393736Y0515999D01*
X0393355Y0516189D01*
X0392974Y0516570D01*
X0392784Y0517141D01*
X0392784Y0517522D01*
X0392974Y0518094D01*
X0393165Y0518284D01*
X0394498Y0518284D01*
X0394498Y0517522D01*
X0392784Y0519999D02*
X0396784Y0519999D01*
X0392784Y0522284D01*
X0396784Y0522284D01*
X0392784Y0524189D02*
X0396784Y0524189D01*
X0396784Y0525141D01*
X0396593Y0525713D01*
X0396212Y0526094D01*
X0395831Y0526284D01*
X0395069Y0526475D01*
X0394498Y0526475D01*
X0393736Y0526284D01*
X0393355Y0526094D01*
X0392974Y0525713D01*
X0392784Y0525141D01*
X0392784Y0524189D01*
X0393927Y0527999D02*
X0393927Y0529903D01*
X0392784Y0527618D02*
X0396784Y0528951D01*
X0392784Y0530284D01*
X0207675Y0566999D02*
X0207675Y0564332D01*
X0208627Y0568523D02*
X0209580Y0565666D01*
X0207104Y0565666D01*
X0204247Y0566427D02*
X0203675Y0566237D01*
X0203485Y0566046D01*
X0203294Y0565666D01*
X0203294Y0565094D01*
X0203485Y0564713D01*
X0203675Y0564523D01*
X0204056Y0564332D01*
X0205580Y0564332D01*
X0205580Y0568332D01*
X0204247Y0568332D01*
X0203866Y0568142D01*
X0203675Y0567951D01*
X0203485Y0567570D01*
X0203485Y0567189D01*
X0203675Y0566808D01*
X0203866Y0566618D01*
X0204247Y0566427D01*
X0205580Y0566427D01*
X0510982Y0548240D02*
X0510410Y0548049D01*
X0510220Y0547859D01*
X0510029Y0547478D01*
X0510029Y0546906D01*
X0510220Y0546526D01*
X0510410Y0546335D01*
X0510791Y0546145D01*
X0512315Y0546145D01*
X0512315Y0550145D01*
X0510982Y0550145D01*
X0510601Y0549954D01*
X0510410Y0549764D01*
X0510220Y0549383D01*
X0510220Y0549002D01*
X0510410Y0548621D01*
X0510601Y0548430D01*
X0510982Y0548240D01*
X0512315Y0548240D01*
X0507553Y0550145D02*
X0506791Y0550145D01*
X0506410Y0549954D01*
X0506029Y0549573D01*
X0505839Y0548811D01*
X0505839Y0547478D01*
X0506029Y0546716D01*
X0506410Y0546335D01*
X0506791Y0546145D01*
X0507553Y0546145D01*
X0507934Y0546335D01*
X0508315Y0546716D01*
X0508505Y0547478D01*
X0508505Y0548811D01*
X0508315Y0549573D01*
X0507934Y0549954D01*
X0507553Y0550145D01*
X0503363Y0550145D02*
X0502601Y0550145D01*
X0502220Y0549954D01*
X0501839Y0549573D01*
X0501648Y0548811D01*
X0501648Y0547478D01*
X0501839Y0546716D01*
X0502220Y0546335D01*
X0502601Y0546145D01*
X0503363Y0546145D01*
X0503744Y0546335D01*
X0504125Y0546716D01*
X0504315Y0547478D01*
X0504315Y0548811D01*
X0504125Y0549573D01*
X0503744Y0549954D01*
X0503363Y0550145D01*
X0500125Y0546335D02*
X0499553Y0546145D01*
X0498601Y0546145D01*
X0498220Y0546335D01*
X0498029Y0546526D01*
X0497839Y0546906D01*
X0497839Y0547287D01*
X0498029Y0547668D01*
X0498220Y0547859D01*
X0498601Y0548049D01*
X0499363Y0548240D01*
X0499744Y0548430D01*
X0499934Y0548621D01*
X0500125Y0549002D01*
X0500125Y0549383D01*
X0499934Y0549764D01*
X0499744Y0549954D01*
X0499363Y0550145D01*
X0498410Y0550145D01*
X0497839Y0549954D01*
X0496696Y0550145D02*
X0494410Y0550145D01*
X0495553Y0546145D02*
X0495553Y0550145D01*
D340*
X0236691Y0490966D02*
X0237254Y0491247D01*
X0238097Y0491247D01*
X0238941Y0490966D01*
X0239503Y0490403D01*
X0239784Y0489841D01*
X0240066Y0488716D01*
X0240066Y0487873D01*
X0239784Y0486748D01*
X0239503Y0486185D01*
X0238941Y0485623D01*
X0238097Y0485342D01*
X0237535Y0485342D01*
X0236691Y0485623D01*
X0236410Y0485904D01*
X0236410Y0487873D01*
X0237535Y0487873D01*
X0233879Y0485342D02*
X0233879Y0491247D01*
X0230504Y0485342D01*
X0230504Y0491247D01*
X0227692Y0485342D02*
X0227692Y0491247D01*
X0226286Y0491247D01*
X0225442Y0490966D01*
X0224880Y0490403D01*
X0224599Y0489841D01*
X0224318Y0488716D01*
X0224318Y0487873D01*
X0224599Y0486748D01*
X0224880Y0486185D01*
X0225442Y0485623D01*
X0226286Y0485342D01*
X0227692Y0485342D01*
D185*
X0270948Y0526460D02*
X0270948Y0530460D01*
X0270948Y0528555D02*
X0268663Y0528555D01*
X0268663Y0526460D02*
X0268663Y0530460D01*
X0266758Y0527983D02*
X0263710Y0527983D01*
X0056155Y0561267D02*
X0055393Y0561267D01*
X0055012Y0561076D01*
X0054631Y0560695D01*
X0054440Y0559933D01*
X0054440Y0558600D01*
X0054631Y0557838D01*
X0055012Y0557457D01*
X0055393Y0557267D01*
X0056155Y0557267D01*
X0056535Y0557457D01*
X0056916Y0557838D01*
X0057107Y0558600D01*
X0057107Y0559933D01*
X0056916Y0560695D01*
X0056535Y0561076D01*
X0056155Y0561267D01*
X0052726Y0561267D02*
X0052726Y0558029D01*
X0052535Y0557648D01*
X0052345Y0557457D01*
X0051964Y0557267D01*
X0051202Y0557267D01*
X0050821Y0557457D01*
X0050631Y0557648D01*
X0050440Y0558029D01*
X0050440Y0561267D01*
X0049107Y0561267D02*
X0046821Y0561267D01*
X0047964Y0557267D02*
X0047964Y0561267D01*
X0046440Y0556886D02*
X0043393Y0556886D01*
X0042631Y0558409D02*
X0040726Y0558409D01*
X0043012Y0557267D02*
X0041678Y0561267D01*
X0040345Y0557267D01*
X0036726Y0557648D02*
X0036916Y0557457D01*
X0037488Y0557267D01*
X0037869Y0557267D01*
X0038440Y0557457D01*
X0038821Y0557838D01*
X0039012Y0558219D01*
X0039202Y0558981D01*
X0039202Y0559552D01*
X0039012Y0560314D01*
X0038821Y0560695D01*
X0038440Y0561076D01*
X0037869Y0561267D01*
X0037488Y0561267D01*
X0036916Y0561076D01*
X0036726Y0560886D01*
X0035964Y0556886D02*
X0032916Y0556886D01*
X0030631Y0559362D02*
X0031964Y0559362D01*
X0031964Y0557267D02*
X0031964Y0561267D01*
X0030059Y0561267D01*
X0028726Y0558409D02*
X0026821Y0558409D01*
X0029107Y0557267D02*
X0027774Y0561267D01*
X0026440Y0557267D01*
X0025107Y0557267D02*
X0025107Y0561267D01*
X0022821Y0557267D01*
X0022821Y0561267D01*
X0161743Y0564824D02*
X0164029Y0564824D01*
X0162886Y0564824D02*
X0162886Y0568824D01*
X0163267Y0568253D01*
X0163648Y0567872D01*
X0164029Y0567681D01*
X0157743Y0564824D02*
X0159076Y0566729D01*
X0160029Y0564824D02*
X0160029Y0568824D01*
X0158505Y0568824D01*
X0158124Y0568634D01*
X0157933Y0568443D01*
X0157743Y0568062D01*
X0157743Y0567491D01*
X0157933Y0567110D01*
X0158124Y0566920D01*
X0158505Y0566729D01*
X0160029Y0566729D01*
X0174148Y0532324D02*
X0176433Y0532324D01*
X0175291Y0532324D02*
X0175291Y0536324D01*
X0175672Y0535753D01*
X0176052Y0535372D01*
X0176433Y0535181D01*
X0172624Y0532515D02*
X0172052Y0532324D01*
X0171100Y0532324D01*
X0170719Y0532515D01*
X0170529Y0532705D01*
X0170338Y0533086D01*
X0170338Y0533467D01*
X0170529Y0533848D01*
X0170719Y0534039D01*
X0171100Y0534229D01*
X0171862Y0534420D01*
X0172243Y0534610D01*
X0172433Y0534801D01*
X0172624Y0535181D01*
X0172624Y0535562D01*
X0172433Y0535943D01*
X0172243Y0536134D01*
X0171862Y0536324D01*
X0170910Y0536324D01*
X0170338Y0536134D01*
X0161838Y0532324D02*
X0164124Y0532324D01*
X0162981Y0532324D02*
X0162981Y0536324D01*
X0163362Y0535753D01*
X0163743Y0535372D01*
X0164124Y0535181D01*
X0157457Y0531943D02*
X0157838Y0532134D01*
X0158219Y0532515D01*
X0158791Y0533086D01*
X0159172Y0533277D01*
X0159552Y0533277D01*
X0159362Y0532324D02*
X0159743Y0532515D01*
X0160124Y0532896D01*
X0160314Y0533658D01*
X0160314Y0534991D01*
X0160124Y0535753D01*
X0159743Y0536134D01*
X0159362Y0536324D01*
X0158600Y0536324D01*
X0158219Y0536134D01*
X0157838Y0535753D01*
X0157648Y0534991D01*
X0157648Y0533658D01*
X0157838Y0532896D01*
X0158219Y0532515D01*
X0158600Y0532324D01*
X0159362Y0532324D01*
X0269466Y0573781D02*
X0269466Y0577781D01*
X0269466Y0575876D02*
X0267180Y0575876D01*
X0267180Y0573781D02*
X0267180Y0577781D01*
X0265275Y0575305D02*
X0262227Y0575305D01*
X0263751Y0573781D02*
X0263751Y0576829D01*
X0290190Y0568443D02*
X0290000Y0568634D01*
X0289619Y0568824D01*
X0288666Y0568824D01*
X0288285Y0568634D01*
X0288095Y0568443D01*
X0287904Y0568062D01*
X0287904Y0567681D01*
X0288095Y0567110D01*
X0290381Y0564824D01*
X0287904Y0564824D01*
X0284857Y0566920D02*
X0284285Y0566729D01*
X0284095Y0566539D01*
X0283904Y0566158D01*
X0283904Y0565586D01*
X0284095Y0565205D01*
X0284285Y0565015D01*
X0284666Y0564824D01*
X0286190Y0564824D01*
X0286190Y0568824D01*
X0284857Y0568824D01*
X0284476Y0568634D01*
X0284285Y0568443D01*
X0284095Y0568062D01*
X0284095Y0567681D01*
X0284285Y0567301D01*
X0284476Y0567110D01*
X0284857Y0566920D01*
X0286190Y0566920D01*
D340*
X0245310Y0441247D02*
X0241936Y0441247D01*
X0243623Y0435342D02*
X0243623Y0441247D01*
X0239967Y0435342D02*
X0239967Y0441247D01*
X0237718Y0441247D01*
X0237155Y0440966D01*
X0236874Y0440685D01*
X0236593Y0440122D01*
X0236593Y0439279D01*
X0236874Y0438716D01*
X0237155Y0438435D01*
X0237718Y0438154D01*
X0239967Y0438154D01*
X0234343Y0435623D02*
X0233499Y0435342D01*
X0232093Y0435342D01*
X0231531Y0435623D01*
X0231250Y0435904D01*
X0230968Y0436466D01*
X0230968Y0437029D01*
X0231250Y0437591D01*
X0231531Y0437873D01*
X0232093Y0438154D01*
X0233218Y0438435D01*
X0233781Y0438716D01*
X0234062Y0438997D01*
X0234343Y0439560D01*
X0234343Y0440122D01*
X0234062Y0440685D01*
X0233781Y0440966D01*
X0233218Y0441247D01*
X0231812Y0441247D01*
X0230968Y0440966D01*
X0225344Y0435342D02*
X0228719Y0435342D01*
X0227031Y0435342D02*
X0227031Y0441247D01*
X0227594Y0440403D01*
X0228156Y0439841D01*
X0228719Y0439560D01*
D185*
X0518783Y0535950D02*
X0516307Y0535950D01*
X0517640Y0534427D01*
X0517069Y0534427D01*
X0516688Y0534236D01*
X0516497Y0534046D01*
X0516307Y0533665D01*
X0516307Y0532712D01*
X0516497Y0532331D01*
X0516688Y0532141D01*
X0517069Y0531950D01*
X0518211Y0531950D01*
X0518592Y0532141D01*
X0518783Y0532331D01*
X0514592Y0535950D02*
X0514592Y0532712D01*
X0514402Y0532331D01*
X0514211Y0532141D01*
X0513831Y0531950D01*
X0513069Y0531950D01*
X0512688Y0532141D01*
X0512497Y0532331D01*
X0512307Y0532712D01*
X0512307Y0535950D01*
X0257199Y0566999D02*
X0257199Y0564332D01*
X0258151Y0568523D02*
X0259104Y0565666D01*
X0256627Y0565666D01*
X0253961Y0568332D02*
X0253961Y0565475D01*
X0254151Y0564904D01*
X0254532Y0564523D01*
X0255104Y0564332D01*
X0255485Y0564332D01*
X0090335Y0564824D02*
X0092621Y0564824D01*
X0091478Y0564824D02*
X0091478Y0568824D01*
X0091859Y0568253D01*
X0092240Y0567872D01*
X0092621Y0567681D01*
X0087288Y0566920D02*
X0088621Y0566920D01*
X0088621Y0564824D02*
X0088621Y0568824D01*
X0086716Y0568824D01*
X0521180Y0525869D02*
X0521180Y0529869D01*
X0519275Y0525869D02*
X0519275Y0529869D01*
X0516990Y0525869D01*
X0516990Y0529869D01*
X0513942Y0529869D02*
X0513942Y0527012D01*
X0514132Y0526440D01*
X0514513Y0526059D01*
X0515085Y0525869D01*
X0515466Y0525869D01*
X0509942Y0525869D02*
X0512228Y0525869D01*
X0511085Y0525869D02*
X0511085Y0529869D01*
X0511466Y0529298D01*
X0511847Y0528917D01*
X0512228Y0528726D01*
X0183957Y0564824D02*
X0186243Y0564824D01*
X0185100Y0564824D02*
X0185100Y0568824D01*
X0185481Y0568253D01*
X0185862Y0567872D01*
X0186243Y0567681D01*
X0182814Y0568824D02*
X0181481Y0564824D01*
X0180148Y0568824D01*
X0234696Y0529869D02*
X0233363Y0525869D01*
X0232029Y0529869D01*
X0231268Y0529869D02*
X0229934Y0525869D01*
X0228601Y0529869D01*
X0227839Y0529869D02*
X0225553Y0529869D01*
X0226696Y0525869D02*
X0226696Y0529869D01*
X0375285Y0535943D02*
X0375095Y0536134D01*
X0374714Y0536324D01*
X0373762Y0536324D01*
X0373381Y0536134D01*
X0373190Y0535943D01*
X0373000Y0535562D01*
X0373000Y0535181D01*
X0373190Y0534610D01*
X0375476Y0532324D01*
X0373000Y0532324D01*
X0370523Y0536324D02*
X0369762Y0536324D01*
X0369381Y0536134D01*
X0369000Y0535753D01*
X0368809Y0534991D01*
X0368809Y0533658D01*
X0369000Y0532896D01*
X0369381Y0532515D01*
X0369762Y0532324D01*
X0370523Y0532324D01*
X0370904Y0532515D01*
X0371285Y0532896D01*
X0371476Y0533658D01*
X0371476Y0534991D01*
X0371285Y0535753D01*
X0370904Y0536134D01*
X0370523Y0536324D01*
X0362785Y0568443D02*
X0362595Y0568634D01*
X0362214Y0568824D01*
X0361262Y0568824D01*
X0360881Y0568634D01*
X0360690Y0568443D01*
X0360500Y0568062D01*
X0360500Y0567681D01*
X0360690Y0567110D01*
X0362976Y0564824D01*
X0360500Y0564824D01*
X0358785Y0564824D02*
X0358785Y0568824D01*
X0356500Y0564824D01*
X0356500Y0568824D01*
X0257413Y0573781D02*
X0257413Y0577781D01*
X0255509Y0573781D02*
X0255509Y0577781D01*
X0253985Y0577781D01*
X0253604Y0577591D01*
X0253413Y0577400D01*
X0253223Y0577019D01*
X0253223Y0576448D01*
X0253413Y0576067D01*
X0253604Y0575876D01*
X0253985Y0575686D01*
X0255509Y0575686D01*
X0459153Y0568627D02*
X0456677Y0568627D01*
X0458010Y0567104D01*
X0457439Y0567104D01*
X0457058Y0566913D01*
X0456867Y0566723D01*
X0456677Y0566342D01*
X0456677Y0565389D01*
X0456867Y0565008D01*
X0457058Y0564818D01*
X0457439Y0564627D01*
X0458582Y0564627D01*
X0458963Y0564818D01*
X0459153Y0565008D01*
X0453058Y0564627D02*
X0454963Y0564627D01*
X0454963Y0568627D01*
X0301705Y0572666D02*
X0301705Y0573428D01*
X0301514Y0573809D01*
X0301134Y0574190D01*
X0300372Y0574380D01*
X0299038Y0574380D01*
X0298276Y0574190D01*
X0297895Y0573809D01*
X0297705Y0573428D01*
X0297705Y0572666D01*
X0297895Y0572285D01*
X0298276Y0571904D01*
X0299038Y0571714D01*
X0300372Y0571714D01*
X0301134Y0571904D01*
X0301514Y0572285D01*
X0301705Y0572666D01*
X0301324Y0575904D02*
X0301514Y0576095D01*
X0301705Y0576475D01*
X0301705Y0577428D01*
X0301514Y0577809D01*
X0301324Y0577999D01*
X0300943Y0578190D01*
X0300562Y0578190D01*
X0299991Y0577999D01*
X0297705Y0575714D01*
X0297705Y0578190D01*
X0297895Y0579714D02*
X0297705Y0580285D01*
X0297705Y0581237D01*
X0297895Y0581618D01*
X0298086Y0581809D01*
X0298467Y0581999D01*
X0298848Y0581999D01*
X0299229Y0581809D01*
X0299419Y0581618D01*
X0299610Y0581237D01*
X0299800Y0580475D01*
X0299991Y0580095D01*
X0300181Y0579904D01*
X0300562Y0579714D01*
X0300943Y0579714D01*
X0301324Y0579904D01*
X0301514Y0580095D01*
X0301705Y0580475D01*
X0301705Y0581428D01*
X0301514Y0581999D01*
X0301324Y0583523D02*
X0301514Y0583714D01*
X0301705Y0584095D01*
X0301705Y0585047D01*
X0301514Y0585428D01*
X0301324Y0585618D01*
X0300943Y0585809D01*
X0300562Y0585809D01*
X0299991Y0585618D01*
X0297705Y0583333D01*
X0297705Y0585809D01*
D340*
X0237085Y0480927D02*
X0237647Y0481208D01*
X0238491Y0481208D01*
X0239335Y0480927D01*
X0239897Y0480364D01*
X0240178Y0479802D01*
X0240459Y0478677D01*
X0240459Y0477833D01*
X0240178Y0476708D01*
X0239897Y0476146D01*
X0239335Y0475583D01*
X0238491Y0475302D01*
X0237928Y0475302D01*
X0237085Y0475583D01*
X0236804Y0475865D01*
X0236804Y0477833D01*
X0237928Y0477833D01*
X0234273Y0475302D02*
X0234273Y0481208D01*
X0230898Y0475302D01*
X0230898Y0481208D01*
X0228086Y0475302D02*
X0228086Y0481208D01*
X0226680Y0481208D01*
X0225836Y0480927D01*
X0225274Y0480364D01*
X0224993Y0479802D01*
X0224711Y0478677D01*
X0224711Y0477833D01*
X0224993Y0476708D01*
X0225274Y0476146D01*
X0225836Y0475583D01*
X0226680Y0475302D01*
X0228086Y0475302D01*
D185*
X0339714Y0568443D02*
X0339523Y0568634D01*
X0339142Y0568824D01*
X0338190Y0568824D01*
X0337809Y0568634D01*
X0337619Y0568443D01*
X0337428Y0568062D01*
X0337428Y0567681D01*
X0337619Y0567110D01*
X0339904Y0564824D01*
X0337428Y0564824D01*
X0334571Y0568824D02*
X0334571Y0565967D01*
X0334762Y0565396D01*
X0335142Y0565015D01*
X0335714Y0564824D01*
X0336095Y0564824D01*
X0350190Y0535943D02*
X0350000Y0536134D01*
X0349619Y0536324D01*
X0348666Y0536324D01*
X0348285Y0536134D01*
X0348095Y0535943D01*
X0347904Y0535562D01*
X0347904Y0535181D01*
X0348095Y0534610D01*
X0350381Y0532324D01*
X0347904Y0532324D01*
X0346190Y0532324D02*
X0346190Y0536324D01*
X0343904Y0532324D02*
X0345619Y0534610D01*
X0343904Y0536324D02*
X0346190Y0534039D01*
X0546748Y0536127D02*
X0544272Y0536127D01*
X0545606Y0534604D01*
X0545034Y0534604D01*
X0544653Y0534413D01*
X0544463Y0534223D01*
X0544272Y0533842D01*
X0544272Y0532889D01*
X0544463Y0532508D01*
X0544653Y0532318D01*
X0545034Y0532127D01*
X0546177Y0532127D01*
X0546558Y0532318D01*
X0546748Y0532508D01*
X0541796Y0534032D02*
X0541796Y0532127D01*
X0543129Y0536127D02*
X0541796Y0534032D01*
X0540463Y0536127D01*
X0078521Y0532956D02*
X0080807Y0532956D01*
X0079664Y0532956D02*
X0079664Y0536956D01*
X0080045Y0536384D01*
X0080426Y0536003D01*
X0080807Y0535813D01*
X0074521Y0533337D02*
X0074712Y0533146D01*
X0075283Y0532956D01*
X0075664Y0532956D01*
X0076236Y0533146D01*
X0076616Y0533527D01*
X0076807Y0533908D01*
X0076997Y0534670D01*
X0076997Y0535241D01*
X0076807Y0536003D01*
X0076616Y0536384D01*
X0076236Y0536765D01*
X0075664Y0536956D01*
X0075283Y0536956D01*
X0074712Y0536765D01*
X0074521Y0536575D01*
X0302690Y0535943D02*
X0302500Y0536134D01*
X0302119Y0536324D01*
X0301166Y0536324D01*
X0300785Y0536134D01*
X0300595Y0535943D01*
X0300404Y0535562D01*
X0300404Y0535181D01*
X0300595Y0534610D01*
X0302881Y0532324D01*
X0300404Y0532324D01*
X0296404Y0532705D02*
X0296595Y0532515D01*
X0297166Y0532324D01*
X0297547Y0532324D01*
X0298119Y0532515D01*
X0298500Y0532896D01*
X0298690Y0533277D01*
X0298881Y0534039D01*
X0298881Y0534610D01*
X0298690Y0535372D01*
X0298500Y0535753D01*
X0298119Y0536134D01*
X0297547Y0536324D01*
X0297166Y0536324D01*
X0296595Y0536134D01*
X0296404Y0535943D01*
X0256627Y0534499D02*
X0256627Y0531832D01*
X0257580Y0536023D02*
X0258532Y0533166D01*
X0256056Y0533166D01*
X0254532Y0531832D02*
X0254532Y0535832D01*
X0125765Y0532857D02*
X0128051Y0532857D01*
X0126908Y0532857D02*
X0126908Y0536857D01*
X0127289Y0536286D01*
X0127670Y0535905D01*
X0128051Y0535714D01*
X0124051Y0532857D02*
X0124051Y0536857D01*
X0121765Y0532857D02*
X0123480Y0535143D01*
X0121765Y0536857D02*
X0124051Y0534571D01*
X0471145Y0568627D02*
X0468669Y0568627D01*
X0470002Y0567104D01*
X0469431Y0567104D01*
X0469050Y0566913D01*
X0468859Y0566723D01*
X0468669Y0566342D01*
X0468669Y0565389D01*
X0468859Y0565008D01*
X0469050Y0564818D01*
X0469431Y0564627D01*
X0470574Y0564627D01*
X0470955Y0564818D01*
X0471145Y0565008D01*
X0466955Y0564627D02*
X0466955Y0568627D01*
X0464669Y0564627D01*
X0464669Y0568627D01*
X0063176Y0532267D02*
X0065462Y0532267D01*
X0064319Y0532267D02*
X0064319Y0536267D01*
X0064700Y0535695D01*
X0065081Y0535314D01*
X0065462Y0535124D01*
X0061653Y0533409D02*
X0059748Y0533409D01*
X0062034Y0532267D02*
X0060700Y0536267D01*
X0059367Y0532267D01*
X0489634Y0519002D02*
X0493634Y0519002D01*
X0489634Y0520907D02*
X0493634Y0520907D01*
X0493634Y0521859D01*
X0493444Y0522430D01*
X0493063Y0522811D01*
X0492682Y0523002D01*
X0491920Y0523192D01*
X0491348Y0523192D01*
X0490586Y0523002D01*
X0490206Y0522811D01*
X0489825Y0522430D01*
X0489634Y0521859D01*
X0489634Y0520907D01*
X0489634Y0526811D02*
X0489634Y0524907D01*
X0493634Y0524907D01*
X0491729Y0528145D02*
X0491729Y0529478D01*
X0489634Y0530050D02*
X0489634Y0528145D01*
X0493634Y0528145D01*
X0493634Y0530050D01*
D46*
X0208049Y0462155D02*
X0206081Y0462155D01*
X0205237Y0459062D02*
X0208049Y0459062D01*
X0208049Y0464968D01*
X0205237Y0464968D01*
X0203550Y0464968D02*
X0200175Y0464968D01*
X0201863Y0459062D02*
X0201863Y0464968D01*
X0196238Y0462155D02*
X0195395Y0461874D01*
X0195113Y0461593D01*
X0194832Y0461031D01*
X0194832Y0460187D01*
X0195113Y0459625D01*
X0195395Y0459343D01*
X0195957Y0459062D01*
X0198207Y0459062D01*
X0198207Y0464968D01*
X0196238Y0464968D01*
X0195676Y0464686D01*
X0195395Y0464405D01*
X0195113Y0463843D01*
X0195113Y0463280D01*
X0195395Y0462718D01*
X0195676Y0462437D01*
X0196238Y0462155D01*
X0198207Y0462155D01*
D276*
X0036715Y0468131D02*
X0037464Y0468506D01*
X0038589Y0468506D01*
X0039714Y0468131D01*
X0040464Y0467381D01*
X0040839Y0466631D01*
X0041214Y0465132D01*
X0041214Y0464007D01*
X0040839Y0462507D01*
X0040464Y0461757D01*
X0039714Y0461007D01*
X0038589Y0460632D01*
X0037839Y0460632D01*
X0036715Y0461007D01*
X0036340Y0461382D01*
X0036340Y0464007D01*
X0037839Y0464007D01*
X0032965Y0460632D02*
X0032965Y0468506D01*
X0028466Y0460632D01*
X0028466Y0468506D01*
X0024716Y0460632D02*
X0024716Y0468506D01*
X0022841Y0468506D01*
X0021716Y0468131D01*
X0020966Y0467381D01*
X0020592Y0466631D01*
X0020217Y0465132D01*
X0020217Y0464007D01*
X0020592Y0462507D01*
X0020966Y0461757D01*
X0021716Y0461007D01*
X0022841Y0460632D01*
X0024716Y0460632D01*
D185*
X0113104Y0532956D02*
X0115389Y0532956D01*
X0114246Y0532956D02*
X0114246Y0536956D01*
X0114627Y0536384D01*
X0115008Y0536003D01*
X0115389Y0535813D01*
X0111389Y0532956D02*
X0111389Y0536956D01*
X0289904Y0535943D02*
X0289714Y0536134D01*
X0289333Y0536324D01*
X0288381Y0536324D01*
X0288000Y0536134D01*
X0287809Y0535943D01*
X0287619Y0535562D01*
X0287619Y0535181D01*
X0287809Y0534610D01*
X0290095Y0532324D01*
X0287619Y0532324D01*
X0286095Y0533467D02*
X0284190Y0533467D01*
X0286476Y0532324D02*
X0285142Y0536324D01*
X0283809Y0532324D01*
X0482034Y0568627D02*
X0479558Y0568627D01*
X0480891Y0567104D01*
X0480320Y0567104D01*
X0479939Y0566913D01*
X0479748Y0566723D01*
X0479558Y0566342D01*
X0479558Y0565389D01*
X0479748Y0565008D01*
X0479939Y0564818D01*
X0480320Y0564627D01*
X0481463Y0564627D01*
X0481844Y0564818D01*
X0482034Y0565008D01*
X0477844Y0564627D02*
X0477844Y0568627D01*
X0476320Y0568627D01*
X0475939Y0568437D01*
X0475748Y0568247D01*
X0475558Y0567866D01*
X0475558Y0567294D01*
X0475748Y0566913D01*
X0475939Y0566723D01*
X0476320Y0566532D01*
X0477844Y0566532D01*
X0412034Y0568627D02*
X0409558Y0568627D01*
X0410891Y0567104D01*
X0410320Y0567104D01*
X0409939Y0566913D01*
X0409748Y0566723D01*
X0409558Y0566342D01*
X0409558Y0565389D01*
X0409748Y0565008D01*
X0409939Y0564818D01*
X0410320Y0564627D01*
X0411463Y0564627D01*
X0411844Y0564818D01*
X0412034Y0565008D01*
X0407844Y0564627D02*
X0407844Y0568627D01*
X0406891Y0568627D01*
X0406320Y0568437D01*
X0405939Y0568056D01*
X0405748Y0567675D01*
X0405558Y0566913D01*
X0405558Y0566342D01*
X0405748Y0565580D01*
X0405939Y0565199D01*
X0406320Y0564818D01*
X0406891Y0564627D01*
X0407844Y0564627D01*
D340*
X0003531Y0309695D02*
X0011405Y0309695D01*
X0003531Y0313069D02*
X0007656Y0313069D01*
X0008406Y0312694D01*
X0008781Y0311945D01*
X0008781Y0310820D01*
X0008406Y0310070D01*
X0008031Y0309695D01*
X0008781Y0315694D02*
X0008781Y0318694D01*
X0011405Y0316819D02*
X0004656Y0316819D01*
X0003906Y0317194D01*
X0003531Y0317944D01*
X0003531Y0318694D01*
X0008781Y0320194D02*
X0008781Y0323193D01*
X0011405Y0321318D02*
X0004656Y0321318D01*
X0003906Y0321693D01*
X0003531Y0322443D01*
X0003531Y0323193D01*
X0008781Y0325818D02*
X0000907Y0325818D01*
X0008406Y0325818D02*
X0008781Y0326568D01*
X0008781Y0328068D01*
X0008406Y0328817D01*
X0008031Y0329192D01*
X0007281Y0329567D01*
X0005031Y0329567D01*
X0004281Y0329192D01*
X0003906Y0328817D01*
X0003531Y0328068D01*
X0003531Y0326568D01*
X0003906Y0325818D01*
X0004281Y0332942D02*
X0003906Y0333317D01*
X0003531Y0332942D01*
X0003906Y0332567D01*
X0004281Y0332942D01*
X0003531Y0332942D01*
X0008406Y0332942D02*
X0008031Y0333317D01*
X0007656Y0332942D01*
X0008031Y0332567D01*
X0008406Y0332942D01*
X0007656Y0332942D01*
X0011780Y0342316D02*
X0001656Y0335567D01*
X0011780Y0350565D02*
X0001656Y0343816D01*
X0003531Y0353189D02*
X0008781Y0353189D01*
X0007281Y0353189D02*
X0008031Y0353564D01*
X0008406Y0353939D01*
X0008781Y0354689D01*
X0008781Y0355439D01*
X0008781Y0361438D02*
X0003531Y0361438D01*
X0008781Y0358064D02*
X0004656Y0358064D01*
X0003906Y0358439D01*
X0003531Y0359189D01*
X0003531Y0360313D01*
X0003906Y0361063D01*
X0004281Y0361438D01*
X0003906Y0364813D02*
X0003531Y0365563D01*
X0003531Y0367063D01*
X0003906Y0367813D01*
X0004656Y0368188D01*
X0005031Y0368188D01*
X0005781Y0367813D01*
X0006156Y0367063D01*
X0006156Y0365938D01*
X0006531Y0365188D01*
X0007281Y0364813D01*
X0007656Y0364813D01*
X0008406Y0365188D01*
X0008781Y0365938D01*
X0008781Y0367063D01*
X0008406Y0367813D01*
X0003906Y0374562D02*
X0003531Y0373812D01*
X0003531Y0372312D01*
X0003906Y0371562D01*
X0004656Y0371187D01*
X0007656Y0371187D01*
X0008406Y0371562D01*
X0008781Y0372312D01*
X0008781Y0373812D01*
X0008406Y0374562D01*
X0007656Y0374937D01*
X0006906Y0374937D01*
X0006156Y0371187D01*
X0008781Y0377186D02*
X0008781Y0380186D01*
X0003531Y0378311D02*
X0010280Y0378311D01*
X0011030Y0378686D01*
X0011405Y0379436D01*
X0011405Y0380186D01*
X0003531Y0382811D02*
X0008781Y0382811D01*
X0011405Y0382811D02*
X0011030Y0382436D01*
X0010655Y0382811D01*
X0011030Y0383186D01*
X0011405Y0382811D01*
X0010655Y0382811D01*
X0004281Y0386560D02*
X0003906Y0386935D01*
X0003531Y0386560D01*
X0003906Y0386185D01*
X0004281Y0386560D01*
X0003531Y0386560D01*
X0003906Y0393684D02*
X0003531Y0392934D01*
X0003531Y0391435D01*
X0003906Y0390685D01*
X0004281Y0390310D01*
X0005031Y0389935D01*
X0007281Y0389935D01*
X0008031Y0390310D01*
X0008406Y0390685D01*
X0008781Y0391435D01*
X0008781Y0392934D01*
X0008406Y0393684D01*
X0003531Y0398184D02*
X0003906Y0397434D01*
X0004281Y0397059D01*
X0005031Y0396684D01*
X0007281Y0396684D01*
X0008031Y0397059D01*
X0008406Y0397434D01*
X0008781Y0398184D01*
X0008781Y0399309D01*
X0008406Y0400059D01*
X0008031Y0400433D01*
X0007281Y0400808D01*
X0005031Y0400808D01*
X0004281Y0400433D01*
X0003906Y0400059D01*
X0003531Y0399309D01*
X0003531Y0398184D01*
X0003531Y0404183D02*
X0008781Y0404183D01*
X0008031Y0404183D02*
X0008406Y0404558D01*
X0008781Y0405308D01*
X0008781Y0406433D01*
X0008406Y0407183D01*
X0007656Y0407558D01*
X0003531Y0407558D01*
X0007656Y0407558D02*
X0008406Y0407933D01*
X0008781Y0408682D01*
X0008781Y0409807D01*
X0008406Y0410557D01*
X0007656Y0410932D01*
X0003531Y0410932D01*
X0011780Y0420306D02*
X0001656Y0413557D01*
X0003906Y0422556D02*
X0003531Y0423306D01*
X0003531Y0424805D01*
X0003906Y0425555D01*
X0004656Y0425930D01*
X0005031Y0425930D01*
X0005781Y0425555D01*
X0006156Y0424805D01*
X0006156Y0423681D01*
X0006531Y0422931D01*
X0007281Y0422556D01*
X0007656Y0422556D01*
X0008406Y0422931D01*
X0008781Y0423681D01*
X0008781Y0424805D01*
X0008406Y0425555D01*
X0011780Y0434929D02*
X0001656Y0428180D01*
X0003531Y0437554D02*
X0011405Y0437554D01*
X0003531Y0440928D02*
X0007656Y0440928D01*
X0008406Y0440553D01*
X0008781Y0439804D01*
X0008781Y0438679D01*
X0008406Y0437929D01*
X0008031Y0437554D01*
X0003906Y0447678D02*
X0003531Y0446928D01*
X0003531Y0445428D01*
X0003906Y0444678D01*
X0004656Y0444303D01*
X0007656Y0444303D01*
X0008406Y0444678D01*
X0008781Y0445428D01*
X0008781Y0446928D01*
X0008406Y0447678D01*
X0007656Y0448053D01*
X0006906Y0448053D01*
X0006156Y0444303D01*
X0003531Y0452552D02*
X0003906Y0451802D01*
X0004656Y0451427D01*
X0011405Y0451427D01*
X0003531Y0456676D02*
X0003906Y0455927D01*
X0004656Y0455552D01*
X0011405Y0455552D01*
X0003906Y0462676D02*
X0003531Y0461926D01*
X0003531Y0460426D01*
X0003906Y0459676D01*
X0004656Y0459301D01*
X0007656Y0459301D01*
X0008406Y0459676D01*
X0008781Y0460426D01*
X0008781Y0461926D01*
X0008406Y0462676D01*
X0007656Y0463051D01*
X0006906Y0463051D01*
X0006156Y0459301D01*
X0008781Y0466425D02*
X0003531Y0466425D01*
X0008031Y0466425D02*
X0008406Y0466800D01*
X0008781Y0467550D01*
X0008781Y0468675D01*
X0008406Y0469425D01*
X0007656Y0469800D01*
X0003531Y0469800D01*
X0003531Y0473549D02*
X0011405Y0473549D01*
X0003531Y0478049D01*
X0011405Y0478049D01*
X0005781Y0481423D02*
X0005781Y0485173D01*
X0003531Y0480673D02*
X0011405Y0483298D01*
X0003531Y0485923D01*
X0003531Y0488922D02*
X0003531Y0490422D01*
X0003906Y0491172D01*
X0004281Y0491547D01*
X0005406Y0492297D01*
X0006906Y0492672D01*
X0009905Y0492672D01*
X0010655Y0492297D01*
X0011030Y0491922D01*
X0011405Y0491172D01*
X0011405Y0489672D01*
X0011030Y0488922D01*
X0010655Y0488547D01*
X0009905Y0488173D01*
X0008031Y0488173D01*
X0007281Y0488547D01*
X0006906Y0488922D01*
X0006531Y0489672D01*
X0006531Y0491172D01*
X0006906Y0491922D01*
X0007281Y0492297D01*
X0008031Y0492672D01*
X0011405Y0499421D02*
X0011405Y0497921D01*
X0011030Y0497171D01*
X0010655Y0496796D01*
X0009530Y0496047D01*
X0008031Y0495672D01*
X0005031Y0495672D01*
X0004281Y0496047D01*
X0003906Y0496421D01*
X0003531Y0497171D01*
X0003531Y0498671D01*
X0003906Y0499421D01*
X0004281Y0499796D01*
X0005031Y0500171D01*
X0006906Y0500171D01*
X0007656Y0499796D01*
X0008031Y0499421D01*
X0008406Y0498671D01*
X0008406Y0497171D01*
X0008031Y0496421D01*
X0007656Y0496047D01*
X0006906Y0495672D01*
D185*
X0375190Y0568443D02*
X0375000Y0568634D01*
X0374619Y0568824D01*
X0373666Y0568824D01*
X0373285Y0568634D01*
X0373095Y0568443D01*
X0372904Y0568062D01*
X0372904Y0567681D01*
X0373095Y0567110D01*
X0375381Y0564824D01*
X0372904Y0564824D01*
X0371190Y0564824D02*
X0371190Y0568824D01*
X0369666Y0568824D01*
X0369285Y0568634D01*
X0369095Y0568443D01*
X0368904Y0568062D01*
X0368904Y0567491D01*
X0369095Y0567110D01*
X0369285Y0566920D01*
X0369666Y0566729D01*
X0371190Y0566729D01*
X0149243Y0564824D02*
X0151529Y0564824D01*
X0150386Y0564824D02*
X0150386Y0568824D01*
X0150767Y0568253D01*
X0151148Y0567872D01*
X0151529Y0567681D01*
X0147529Y0564824D02*
X0147529Y0568824D01*
X0146005Y0568824D01*
X0145624Y0568634D01*
X0145433Y0568443D01*
X0145243Y0568062D01*
X0145243Y0567491D01*
X0145433Y0567110D01*
X0145624Y0566920D01*
X0146005Y0566729D01*
X0147529Y0566729D01*
X0111570Y0574819D02*
X0111380Y0574628D01*
X0111189Y0574057D01*
X0111189Y0573676D01*
X0111380Y0573104D01*
X0111761Y0572723D01*
X0112142Y0572533D01*
X0112904Y0572342D01*
X0113475Y0572342D01*
X0114237Y0572533D01*
X0114618Y0572723D01*
X0114999Y0573104D01*
X0115189Y0573676D01*
X0115189Y0574057D01*
X0114999Y0574628D01*
X0114808Y0574819D01*
X0112332Y0576342D02*
X0112332Y0578247D01*
X0111189Y0575961D02*
X0115189Y0577295D01*
X0111189Y0578628D01*
X0111189Y0579961D02*
X0115189Y0579961D01*
X0111189Y0582247D01*
X0115189Y0582247D01*
X0110808Y0583200D02*
X0110808Y0586247D01*
X0111189Y0589104D02*
X0111189Y0587200D01*
X0115189Y0587200D01*
X0137468Y0532660D02*
X0139754Y0532660D01*
X0138611Y0532660D02*
X0138611Y0536660D01*
X0138992Y0536089D01*
X0139373Y0535708D01*
X0139754Y0535517D01*
X0135754Y0532660D02*
X0135754Y0536660D01*
X0134421Y0533803D01*
X0133087Y0536660D01*
X0133087Y0532660D01*
X0339142Y0535943D02*
X0338952Y0536134D01*
X0338571Y0536324D01*
X0337619Y0536324D01*
X0337238Y0536134D01*
X0337047Y0535943D01*
X0336857Y0535562D01*
X0336857Y0535181D01*
X0337047Y0534610D01*
X0339333Y0532324D01*
X0336857Y0532324D01*
X0335142Y0532324D02*
X0335142Y0536324D01*
X0396748Y0536127D02*
X0394272Y0536127D01*
X0395606Y0534604D01*
X0395034Y0534604D01*
X0394653Y0534413D01*
X0394463Y0534223D01*
X0394272Y0533842D01*
X0394272Y0532889D01*
X0394463Y0532508D01*
X0394653Y0532318D01*
X0395034Y0532127D01*
X0396177Y0532127D01*
X0396558Y0532318D01*
X0396748Y0532508D01*
X0392748Y0533270D02*
X0390844Y0533270D01*
X0393129Y0532127D02*
X0391796Y0536127D01*
X0390463Y0532127D01*
X0193339Y0527160D02*
X0193339Y0527921D01*
X0193148Y0528302D01*
X0192767Y0528683D01*
X0192005Y0528874D01*
X0190672Y0528874D01*
X0189910Y0528683D01*
X0189529Y0528302D01*
X0189339Y0527921D01*
X0189339Y0527160D01*
X0189529Y0526779D01*
X0189910Y0526398D01*
X0190672Y0526207D01*
X0192005Y0526207D01*
X0192767Y0526398D01*
X0193148Y0526779D01*
X0193339Y0527160D01*
X0193339Y0530588D02*
X0190101Y0530588D01*
X0189720Y0530779D01*
X0189529Y0530969D01*
X0189339Y0531350D01*
X0189339Y0532112D01*
X0189529Y0532493D01*
X0189720Y0532683D01*
X0190101Y0532874D01*
X0193339Y0532874D01*
X0193339Y0534207D02*
X0193339Y0536493D01*
X0189339Y0535350D02*
X0193339Y0535350D01*
X0188958Y0536874D02*
X0188958Y0539921D01*
X0189339Y0540874D02*
X0193339Y0540874D01*
X0193339Y0542398D01*
X0193148Y0542779D01*
X0192958Y0542969D01*
X0192577Y0543160D01*
X0192005Y0543160D01*
X0191625Y0542969D01*
X0191434Y0542779D01*
X0191244Y0542398D01*
X0191244Y0540874D01*
X0193339Y0544874D02*
X0190101Y0544874D01*
X0189720Y0545064D01*
X0189529Y0545255D01*
X0189339Y0545636D01*
X0189339Y0546398D01*
X0189529Y0546779D01*
X0189720Y0546969D01*
X0190101Y0547160D01*
X0193339Y0547160D01*
X0189339Y0549064D02*
X0193339Y0549064D01*
X0190482Y0550398D01*
X0193339Y0551731D01*
X0189339Y0551731D01*
X0189339Y0553636D02*
X0193339Y0553636D01*
X0193339Y0555160D01*
X0193148Y0555541D01*
X0192958Y0555731D01*
X0192577Y0555921D01*
X0192005Y0555921D01*
X0191625Y0555731D01*
X0191434Y0555541D01*
X0191244Y0555160D01*
X0191244Y0553636D01*
X0546939Y0568627D02*
X0544463Y0568627D01*
X0545796Y0567104D01*
X0545225Y0567104D01*
X0544844Y0566913D01*
X0544653Y0566723D01*
X0544463Y0566342D01*
X0544463Y0565389D01*
X0544653Y0565008D01*
X0544844Y0564818D01*
X0545225Y0564627D01*
X0546367Y0564627D01*
X0546748Y0564818D01*
X0546939Y0565008D01*
X0543129Y0568627D02*
X0540463Y0568627D01*
X0543129Y0564627D01*
X0540463Y0564627D01*
X0315000Y0536083D02*
X0314809Y0536273D01*
X0314428Y0536463D01*
X0313476Y0536463D01*
X0313095Y0536273D01*
X0312904Y0536083D01*
X0312714Y0535702D01*
X0312714Y0535321D01*
X0312904Y0534749D01*
X0315190Y0532463D01*
X0312714Y0532463D01*
X0311000Y0534559D02*
X0309666Y0534559D01*
X0309095Y0532463D02*
X0311000Y0532463D01*
X0311000Y0536463D01*
X0309095Y0536463D01*
X0506558Y0568627D02*
X0504082Y0568627D01*
X0505415Y0567104D01*
X0504844Y0567104D01*
X0504463Y0566913D01*
X0504272Y0566723D01*
X0504082Y0566342D01*
X0504082Y0565389D01*
X0504272Y0565008D01*
X0504463Y0564818D01*
X0504844Y0564627D01*
X0505987Y0564627D01*
X0506367Y0564818D01*
X0506558Y0565008D01*
X0502939Y0568627D02*
X0500653Y0568627D01*
X0501796Y0564627D02*
X0501796Y0568627D01*
X0207389Y0534499D02*
X0207389Y0531832D01*
X0208342Y0536023D02*
X0209294Y0533166D01*
X0206818Y0533166D01*
X0205485Y0532975D02*
X0203580Y0532975D01*
X0205866Y0531832D02*
X0204532Y0535832D01*
X0203199Y0531832D01*
X0424344Y0536127D02*
X0421867Y0536127D01*
X0423201Y0534604D01*
X0422629Y0534604D01*
X0422248Y0534413D01*
X0422058Y0534223D01*
X0421867Y0533842D01*
X0421867Y0532889D01*
X0422058Y0532508D01*
X0422248Y0532318D01*
X0422629Y0532127D01*
X0423772Y0532127D01*
X0424153Y0532318D01*
X0424344Y0532508D01*
X0420153Y0534223D02*
X0418820Y0534223D01*
X0418248Y0532127D02*
X0420153Y0532127D01*
X0420153Y0536127D01*
X0418248Y0536127D01*
X0394406Y0570729D02*
X0394406Y0573777D01*
X0392882Y0572253D02*
X0395930Y0572253D01*
X0392882Y0577777D02*
X0392882Y0575491D01*
X0392882Y0576634D02*
X0396882Y0576634D01*
X0396311Y0576253D01*
X0395930Y0575872D01*
X0395739Y0575491D01*
X0396501Y0579301D02*
X0396692Y0579491D01*
X0396882Y0579872D01*
X0396882Y0580825D01*
X0396692Y0581206D01*
X0396501Y0581396D01*
X0396120Y0581586D01*
X0395739Y0581586D01*
X0395168Y0581396D01*
X0392882Y0579110D01*
X0392882Y0581586D01*
X0396882Y0582729D02*
X0392882Y0584063D01*
X0396882Y0585396D01*
X0466110Y0572431D02*
X0470110Y0572431D01*
X0469920Y0576431D02*
X0470110Y0576050D01*
X0470110Y0575479D01*
X0469920Y0574907D01*
X0469539Y0574526D01*
X0469158Y0574336D01*
X0468396Y0574146D01*
X0467825Y0574146D01*
X0467063Y0574336D01*
X0466682Y0574526D01*
X0466301Y0574907D01*
X0466110Y0575479D01*
X0466110Y0575860D01*
X0466301Y0576431D01*
X0466491Y0576622D01*
X0467825Y0576622D01*
X0467825Y0575860D01*
X0466110Y0578336D02*
X0470110Y0578336D01*
X0466110Y0580622D01*
X0470110Y0580622D01*
X0466110Y0584622D02*
X0466110Y0582336D01*
X0466110Y0583479D02*
X0470110Y0583479D01*
X0469539Y0583098D01*
X0469158Y0582717D01*
X0468968Y0582336D01*
X0468777Y0588050D02*
X0466110Y0588050D01*
X0470301Y0587098D02*
X0467444Y0586146D01*
X0467444Y0588622D01*
X0531939Y0568627D02*
X0529463Y0568627D01*
X0530796Y0567104D01*
X0530225Y0567104D01*
X0529844Y0566913D01*
X0529653Y0566723D01*
X0529463Y0566342D01*
X0529463Y0565389D01*
X0529653Y0565008D01*
X0529844Y0564818D01*
X0530225Y0564627D01*
X0531367Y0564627D01*
X0531748Y0564818D01*
X0531939Y0565008D01*
X0528129Y0568627D02*
X0525463Y0564627D01*
X0525463Y0568627D02*
X0528129Y0564627D01*
X0101838Y0564824D02*
X0104124Y0564824D01*
X0102981Y0564824D02*
X0102981Y0568824D01*
X0103362Y0568253D01*
X0103743Y0567872D01*
X0104124Y0567681D01*
X0100124Y0564824D02*
X0100124Y0568824D01*
X0100124Y0566920D02*
X0097838Y0566920D01*
X0097838Y0564824D02*
X0097838Y0568824D01*
X0424248Y0568627D02*
X0421772Y0568627D01*
X0423106Y0567104D01*
X0422534Y0567104D01*
X0422153Y0566913D01*
X0421963Y0566723D01*
X0421772Y0566342D01*
X0421772Y0565389D01*
X0421963Y0565008D01*
X0422153Y0564818D01*
X0422534Y0564627D01*
X0423677Y0564627D01*
X0424058Y0564818D01*
X0424248Y0565008D01*
X0418725Y0566723D02*
X0420058Y0566723D01*
X0420058Y0564627D02*
X0420058Y0568627D01*
X0418153Y0568627D01*
X0285500Y0572326D02*
X0289500Y0572326D01*
X0286643Y0573659D01*
X0289500Y0574993D01*
X0285500Y0574993D01*
X0286643Y0576707D02*
X0286643Y0578612D01*
X0285500Y0576326D02*
X0289500Y0577659D01*
X0285500Y0578993D01*
X0287595Y0581659D02*
X0287595Y0580326D01*
X0285500Y0580326D02*
X0289500Y0580326D01*
X0289500Y0582231D01*
X0519189Y0568627D02*
X0516713Y0568627D01*
X0518046Y0567104D01*
X0517475Y0567104D01*
X0517094Y0566913D01*
X0516904Y0566723D01*
X0516713Y0566342D01*
X0516713Y0565389D01*
X0516904Y0565008D01*
X0517094Y0564818D01*
X0517475Y0564627D01*
X0518618Y0564627D01*
X0518999Y0564818D01*
X0519189Y0565008D01*
X0515570Y0568627D02*
X0514237Y0564627D01*
X0512904Y0568627D01*
X0302690Y0568443D02*
X0302500Y0568634D01*
X0302119Y0568824D01*
X0301166Y0568824D01*
X0300785Y0568634D01*
X0300595Y0568443D01*
X0300404Y0568062D01*
X0300404Y0567681D01*
X0300595Y0567110D01*
X0302881Y0564824D01*
X0300404Y0564824D01*
X0298690Y0564824D02*
X0298690Y0568824D01*
X0297738Y0568824D01*
X0297166Y0568634D01*
X0296785Y0568253D01*
X0296595Y0567872D01*
X0296404Y0567110D01*
X0296404Y0566539D01*
X0296595Y0565777D01*
X0296785Y0565396D01*
X0297166Y0565015D01*
X0297738Y0564824D01*
X0298690Y0564824D01*
X0344265Y0548062D02*
X0341218Y0548062D01*
X0342742Y0546538D02*
X0342742Y0549586D01*
X0337408Y0550538D02*
X0339313Y0550538D01*
X0339503Y0548634D01*
X0339313Y0548824D01*
X0338932Y0549014D01*
X0337980Y0549014D01*
X0337599Y0548824D01*
X0337408Y0548634D01*
X0337218Y0548253D01*
X0337218Y0547300D01*
X0337408Y0546919D01*
X0337599Y0546729D01*
X0337980Y0546538D01*
X0338932Y0546538D01*
X0339313Y0546729D01*
X0339503Y0546919D01*
X0336075Y0550538D02*
X0334742Y0546538D01*
X0333408Y0550538D01*
X0332265Y0547681D02*
X0330361Y0547681D01*
X0332646Y0546538D02*
X0331313Y0550538D01*
X0329980Y0546538D01*
X0081886Y0547215D02*
X0082077Y0547024D01*
X0082648Y0546834D01*
X0083029Y0546834D01*
X0083600Y0547024D01*
X0083981Y0547405D01*
X0084172Y0547786D01*
X0084362Y0548548D01*
X0084362Y0549119D01*
X0084172Y0549881D01*
X0083981Y0550262D01*
X0083600Y0550643D01*
X0083029Y0550834D01*
X0082648Y0550834D01*
X0082077Y0550643D01*
X0081886Y0550453D01*
X0080362Y0547976D02*
X0078457Y0547976D01*
X0080743Y0546834D02*
X0079410Y0550834D01*
X0078077Y0546834D01*
X0076743Y0546834D02*
X0076743Y0550834D01*
X0074457Y0546834D01*
X0074457Y0550834D01*
X0073505Y0546453D02*
X0070457Y0546453D01*
X0069505Y0546834D02*
X0069505Y0550834D01*
X0069505Y0548929D02*
X0067219Y0548929D01*
X0067219Y0546834D02*
X0067219Y0550834D01*
X0267294Y0566999D02*
X0267294Y0564332D01*
X0268247Y0568523D02*
X0269199Y0565666D01*
X0266723Y0565666D01*
X0263294Y0564332D02*
X0265199Y0564332D01*
X0265199Y0568332D01*
D25*
X0013767Y0313576D02*
X0019017Y0313576D01*
X0017517Y0313576D02*
X0018267Y0313951D01*
X0018642Y0314325D01*
X0019017Y0315075D01*
X0019017Y0315825D01*
X0014142Y0321450D02*
X0013767Y0320700D01*
X0013767Y0319200D01*
X0014142Y0318450D01*
X0014892Y0318075D01*
X0017892Y0318075D01*
X0018642Y0318450D01*
X0019017Y0319200D01*
X0019017Y0320700D01*
X0018642Y0321450D01*
X0017892Y0321825D01*
X0017142Y0321825D01*
X0016392Y0318075D01*
X0019017Y0324449D02*
X0013767Y0326324D01*
X0019017Y0328199D01*
X0014517Y0331198D02*
X0014142Y0331573D01*
X0013767Y0331198D01*
X0014142Y0330823D01*
X0014517Y0331198D01*
X0013767Y0331198D01*
X0016017Y0340572D02*
X0016017Y0344322D01*
X0013767Y0339822D02*
X0021641Y0342447D01*
X0013767Y0345072D01*
D185*
X0064243Y0564824D02*
X0066529Y0564824D01*
X0065386Y0564824D02*
X0065386Y0568824D01*
X0065767Y0568253D01*
X0066148Y0567872D01*
X0066529Y0567681D01*
X0061195Y0566920D02*
X0060624Y0566729D01*
X0060433Y0566539D01*
X0060243Y0566158D01*
X0060243Y0565586D01*
X0060433Y0565205D01*
X0060624Y0565015D01*
X0061005Y0564824D01*
X0062529Y0564824D01*
X0062529Y0568824D01*
X0061195Y0568824D01*
X0060814Y0568634D01*
X0060624Y0568443D01*
X0060433Y0568062D01*
X0060433Y0567681D01*
X0060624Y0567301D01*
X0060814Y0567110D01*
X0061195Y0566920D01*
X0062529Y0566920D01*
X0057511Y0546995D02*
X0056749Y0546995D01*
X0056368Y0546804D01*
X0055987Y0546424D01*
X0055797Y0545662D01*
X0055797Y0544328D01*
X0055987Y0543566D01*
X0056368Y0543185D01*
X0056749Y0542995D01*
X0057511Y0542995D01*
X0057892Y0543185D01*
X0058273Y0543566D01*
X0058463Y0544328D01*
X0058463Y0545662D01*
X0058273Y0546424D01*
X0057892Y0546804D01*
X0057511Y0546995D01*
X0054082Y0546995D02*
X0054082Y0543757D01*
X0053892Y0543376D01*
X0053701Y0543185D01*
X0053320Y0542995D01*
X0052559Y0542995D01*
X0052178Y0543185D01*
X0051987Y0543376D01*
X0051797Y0543757D01*
X0051797Y0546995D01*
X0050463Y0546995D02*
X0048178Y0546995D01*
X0049320Y0542995D02*
X0049320Y0546995D01*
X0047797Y0542614D02*
X0044749Y0542614D01*
X0043797Y0545090D02*
X0042463Y0545090D01*
X0041892Y0542995D02*
X0043797Y0542995D01*
X0043797Y0546995D01*
X0041892Y0546995D01*
X0037892Y0543376D02*
X0038082Y0543185D01*
X0038654Y0542995D01*
X0039035Y0542995D01*
X0039606Y0543185D01*
X0039987Y0543566D01*
X0040178Y0543947D01*
X0040368Y0544709D01*
X0040368Y0545281D01*
X0040178Y0546043D01*
X0039987Y0546424D01*
X0039606Y0546804D01*
X0039035Y0546995D01*
X0038654Y0546995D01*
X0038082Y0546804D01*
X0037892Y0546614D01*
X0034844Y0545090D02*
X0036178Y0545090D01*
X0036178Y0542995D02*
X0036178Y0546995D01*
X0034273Y0546995D01*
X0101553Y0546637D02*
X0103838Y0546637D01*
X0102696Y0546637D02*
X0102696Y0550637D01*
X0103077Y0550065D01*
X0103457Y0549684D01*
X0103838Y0549494D01*
X0097743Y0550446D02*
X0098124Y0550637D01*
X0098696Y0550637D01*
X0099267Y0550446D01*
X0099648Y0550065D01*
X0099838Y0549684D01*
X0100029Y0548922D01*
X0100029Y0548351D01*
X0099838Y0547589D01*
X0099648Y0547208D01*
X0099267Y0546827D01*
X0098696Y0546637D01*
X0098315Y0546637D01*
X0097743Y0546827D01*
X0097553Y0547018D01*
X0097553Y0548351D01*
X0098315Y0548351D01*
D335*
X0259455Y0526352D02*
X0260374Y0527852D01*
X0261030Y0526352D02*
X0261030Y0529502D01*
X0259980Y0529502D01*
X0259718Y0529352D01*
X0259587Y0529202D01*
X0259455Y0528902D01*
X0259455Y0528452D01*
X0259587Y0528152D01*
X0259718Y0528002D01*
X0259980Y0527852D01*
X0261030Y0527852D01*
X0258668Y0529502D02*
X0257093Y0529502D01*
X0257881Y0526352D02*
X0257881Y0529502D01*
X0256175Y0526352D02*
X0256175Y0528452D01*
X0256175Y0527852D02*
X0256043Y0528152D01*
X0255912Y0528302D01*
X0255650Y0528452D01*
X0255387Y0528452D01*
X0254469Y0526352D02*
X0254469Y0528452D01*
X0254469Y0529502D02*
X0254600Y0529352D01*
X0254469Y0529202D01*
X0254337Y0529352D01*
X0254469Y0529502D01*
X0254469Y0529202D01*
X0253156Y0526352D02*
X0253156Y0528452D01*
X0253156Y0528152D02*
X0253025Y0528302D01*
X0252763Y0528452D01*
X0252369Y0528452D01*
X0252106Y0528302D01*
X0251975Y0528002D01*
X0251975Y0526352D01*
X0251975Y0528002D02*
X0251844Y0528302D01*
X0251581Y0528452D01*
X0251188Y0528452D01*
X0250925Y0528302D01*
X0250794Y0528002D01*
X0250794Y0526352D01*
D322*
X0191001Y0495613D02*
X0192001Y0497041D01*
X0192715Y0495613D02*
X0192715Y0498613D01*
X0191573Y0498613D01*
X0191287Y0498470D01*
X0191144Y0498327D01*
X0191001Y0498041D01*
X0191001Y0497613D01*
X0191144Y0497327D01*
X0191287Y0497184D01*
X0191573Y0497041D01*
X0192715Y0497041D01*
X0190001Y0498613D02*
X0188144Y0498613D01*
X0189144Y0497470D01*
X0188715Y0497470D01*
X0188430Y0497327D01*
X0188287Y0497184D01*
X0188144Y0496898D01*
X0188144Y0496184D01*
X0188287Y0495898D01*
X0188430Y0495756D01*
X0188715Y0495613D01*
X0189573Y0495613D01*
X0189858Y0495756D01*
X0190001Y0495898D01*
X0187001Y0498327D02*
X0186858Y0498470D01*
X0186573Y0498613D01*
X0185858Y0498613D01*
X0185573Y0498470D01*
X0185430Y0498327D01*
X0185287Y0498041D01*
X0185287Y0497756D01*
X0185430Y0497327D01*
X0187144Y0495613D01*
X0185287Y0495613D01*
D335*
X0248191Y0148456D02*
X0248191Y0152393D01*
X0246691Y0152393D01*
X0246316Y0152206D01*
X0246129Y0152018D01*
X0245941Y0151643D01*
X0245941Y0151081D01*
X0246129Y0150706D01*
X0246316Y0150518D01*
X0246691Y0150331D01*
X0248191Y0150331D01*
X0242379Y0152393D02*
X0244254Y0152393D01*
X0244441Y0150518D01*
X0244254Y0150706D01*
X0243879Y0150893D01*
X0242942Y0150893D01*
X0242567Y0150706D01*
X0242379Y0150518D01*
X0242192Y0150143D01*
X0242192Y0149206D01*
X0242379Y0148831D01*
X0242567Y0148644D01*
X0242942Y0148456D01*
X0243879Y0148456D01*
X0244254Y0148644D01*
X0244441Y0148831D01*
X0248191Y0177992D02*
X0248191Y0181929D01*
X0246691Y0181929D01*
X0246316Y0181742D01*
X0246129Y0181554D01*
X0245941Y0181179D01*
X0245941Y0180617D01*
X0246129Y0180242D01*
X0246316Y0180054D01*
X0246691Y0179867D01*
X0248191Y0179867D01*
X0242567Y0181929D02*
X0243316Y0181929D01*
X0243691Y0181742D01*
X0243879Y0181554D01*
X0244254Y0180992D01*
X0244441Y0180242D01*
X0244441Y0178742D01*
X0244254Y0178367D01*
X0244066Y0178180D01*
X0243691Y0177992D01*
X0242942Y0177992D01*
X0242567Y0178180D01*
X0242379Y0178367D01*
X0242192Y0178742D01*
X0242192Y0179679D01*
X0242379Y0180054D01*
X0242567Y0180242D01*
X0242942Y0180429D01*
X0243691Y0180429D01*
X0244066Y0180242D01*
X0244254Y0180054D01*
X0244441Y0179679D01*
X0136086Y0516350D02*
X0136086Y0520287D01*
X0134587Y0520287D01*
X0134212Y0520100D01*
X0134024Y0519912D01*
X0133837Y0519537D01*
X0133837Y0518975D01*
X0134024Y0518600D01*
X0134212Y0518412D01*
X0134587Y0518225D01*
X0136086Y0518225D01*
X0130462Y0518975D02*
X0130462Y0516350D01*
X0131400Y0520475D02*
X0132337Y0517663D01*
X0129900Y0517663D01*
X0128775Y0520287D02*
X0126150Y0520287D01*
X0127838Y0516350D01*
X0460791Y0520878D02*
X0460791Y0524815D01*
X0459291Y0524815D01*
X0458916Y0524627D01*
X0458729Y0524440D01*
X0458541Y0524065D01*
X0458541Y0523502D01*
X0458729Y0523128D01*
X0458916Y0522940D01*
X0459291Y0522753D01*
X0460791Y0522753D01*
X0454792Y0520878D02*
X0457042Y0520878D01*
X0455917Y0520878D02*
X0455917Y0524815D01*
X0456292Y0524252D01*
X0456667Y0523877D01*
X0457042Y0523690D01*
X0452917Y0520878D02*
X0452167Y0520878D01*
X0451792Y0521065D01*
X0451605Y0521253D01*
X0451230Y0521815D01*
X0451042Y0522565D01*
X0451042Y0524065D01*
X0451230Y0524440D01*
X0451417Y0524627D01*
X0451792Y0524815D01*
X0452542Y0524815D01*
X0452917Y0524627D01*
X0453105Y0524440D01*
X0453292Y0524065D01*
X0453292Y0523128D01*
X0453105Y0522753D01*
X0452917Y0522565D01*
X0452542Y0522378D01*
X0451792Y0522378D01*
X0451417Y0522565D01*
X0451230Y0522753D01*
X0451042Y0523128D01*
X0359413Y0416547D02*
X0359413Y0420484D01*
X0357913Y0420484D01*
X0357538Y0420297D01*
X0357351Y0420109D01*
X0357164Y0419734D01*
X0357164Y0419172D01*
X0357351Y0418797D01*
X0357538Y0418609D01*
X0357913Y0418422D01*
X0359413Y0418422D01*
X0355664Y0420109D02*
X0355476Y0420297D01*
X0355101Y0420484D01*
X0354164Y0420484D01*
X0353789Y0420297D01*
X0353601Y0420109D01*
X0353414Y0419734D01*
X0353414Y0419359D01*
X0353601Y0418797D01*
X0355851Y0416547D01*
X0353414Y0416547D01*
X0350039Y0420484D02*
X0350789Y0420484D01*
X0351164Y0420297D01*
X0351352Y0420109D01*
X0351727Y0419547D01*
X0351914Y0418797D01*
X0351914Y0417297D01*
X0351727Y0416922D01*
X0351539Y0416735D01*
X0351164Y0416547D01*
X0350414Y0416547D01*
X0350039Y0416735D01*
X0349852Y0416922D01*
X0349664Y0417297D01*
X0349664Y0418234D01*
X0349852Y0418609D01*
X0350039Y0418797D01*
X0350414Y0418984D01*
X0351164Y0418984D01*
X0351539Y0418797D01*
X0351727Y0418609D01*
X0351914Y0418234D01*
X0354492Y0505031D02*
X0354492Y0508968D01*
X0352992Y0508968D01*
X0352617Y0508781D01*
X0352430Y0508593D01*
X0352242Y0508218D01*
X0352242Y0507656D01*
X0352430Y0507281D01*
X0352617Y0507094D01*
X0352992Y0506906D01*
X0354492Y0506906D01*
X0348493Y0505031D02*
X0350742Y0505031D01*
X0349618Y0505031D02*
X0349618Y0508968D01*
X0349993Y0508406D01*
X0350368Y0508031D01*
X0350742Y0507843D01*
X0346056Y0508968D02*
X0345681Y0508968D01*
X0345306Y0508781D01*
X0345118Y0508593D01*
X0344931Y0508218D01*
X0344743Y0507469D01*
X0344743Y0506531D01*
X0344931Y0505781D01*
X0345118Y0505406D01*
X0345306Y0505219D01*
X0345681Y0505031D01*
X0346056Y0505031D01*
X0346430Y0505219D01*
X0346618Y0505406D01*
X0346805Y0505781D01*
X0346993Y0506531D01*
X0346993Y0507469D01*
X0346805Y0508218D01*
X0346618Y0508593D01*
X0346430Y0508781D01*
X0346056Y0508968D01*
D322*
X0221916Y0495514D02*
X0222916Y0496943D01*
X0223630Y0495514D02*
X0223630Y0498514D01*
X0222487Y0498514D01*
X0222201Y0498371D01*
X0222058Y0498228D01*
X0221916Y0497943D01*
X0221916Y0497514D01*
X0222058Y0497228D01*
X0222201Y0497086D01*
X0222487Y0496943D01*
X0223630Y0496943D01*
X0220773Y0498228D02*
X0220630Y0498371D01*
X0220344Y0498514D01*
X0219630Y0498514D01*
X0219344Y0498371D01*
X0219201Y0498228D01*
X0219058Y0497943D01*
X0219058Y0497657D01*
X0219201Y0497228D01*
X0220916Y0495514D01*
X0219058Y0495514D01*
X0216201Y0495514D02*
X0217916Y0495514D01*
X0217058Y0495514D02*
X0217058Y0498514D01*
X0217344Y0498086D01*
X0217630Y0497800D01*
X0217916Y0497657D01*
D335*
X0121716Y0318122D02*
X0121716Y0322059D01*
X0120217Y0322059D01*
X0119842Y0321871D01*
X0119654Y0321684D01*
X0119467Y0321309D01*
X0119467Y0320747D01*
X0119654Y0320372D01*
X0119842Y0320184D01*
X0120217Y0319997D01*
X0121716Y0319997D01*
X0115717Y0318122D02*
X0117967Y0318122D01*
X0116842Y0318122D02*
X0116842Y0322059D01*
X0117217Y0321496D01*
X0117592Y0321122D01*
X0117967Y0320934D01*
X0114217Y0321684D02*
X0114030Y0321871D01*
X0113655Y0322059D01*
X0112718Y0322059D01*
X0112343Y0321871D01*
X0112155Y0321684D01*
X0111968Y0321309D01*
X0111968Y0320934D01*
X0112155Y0320372D01*
X0114405Y0318122D01*
X0111968Y0318122D01*
X0472307Y0520779D02*
X0472307Y0524716D01*
X0470807Y0524716D01*
X0470432Y0524529D01*
X0470245Y0524341D01*
X0470057Y0523966D01*
X0470057Y0523404D01*
X0470245Y0523029D01*
X0470432Y0522842D01*
X0470807Y0522654D01*
X0472307Y0522654D01*
X0468745Y0524716D02*
X0466308Y0524716D01*
X0467620Y0523217D01*
X0467058Y0523217D01*
X0466683Y0523029D01*
X0466495Y0522842D01*
X0466308Y0522467D01*
X0466308Y0521529D01*
X0466495Y0521154D01*
X0466683Y0520967D01*
X0467058Y0520779D01*
X0468182Y0520779D01*
X0468557Y0520967D01*
X0468745Y0521154D01*
X0464433Y0520779D02*
X0463683Y0520779D01*
X0463308Y0520967D01*
X0463121Y0521154D01*
X0462746Y0521717D01*
X0462558Y0522467D01*
X0462558Y0523966D01*
X0462746Y0524341D01*
X0462933Y0524529D01*
X0463308Y0524716D01*
X0464058Y0524716D01*
X0464433Y0524529D01*
X0464620Y0524341D01*
X0464808Y0523966D01*
X0464808Y0523029D01*
X0464620Y0522654D01*
X0464433Y0522467D01*
X0464058Y0522279D01*
X0463308Y0522279D01*
X0462933Y0522467D01*
X0462746Y0522654D01*
X0462558Y0523029D01*
X0430575Y0520090D02*
X0430575Y0524027D01*
X0429075Y0524027D01*
X0428700Y0523840D01*
X0428512Y0523652D01*
X0428325Y0523277D01*
X0428325Y0522715D01*
X0428512Y0522340D01*
X0428700Y0522153D01*
X0429075Y0521965D01*
X0430575Y0521965D01*
X0424950Y0522715D02*
X0424950Y0520090D01*
X0425888Y0524215D02*
X0426825Y0521403D01*
X0424388Y0521403D01*
X0422138Y0524027D02*
X0421763Y0524027D01*
X0421388Y0523840D01*
X0421201Y0523652D01*
X0421013Y0523277D01*
X0420826Y0522528D01*
X0420826Y0521590D01*
X0421013Y0520840D01*
X0421201Y0520465D01*
X0421388Y0520278D01*
X0421763Y0520090D01*
X0422138Y0520090D01*
X0422513Y0520278D01*
X0422701Y0520465D01*
X0422888Y0520840D01*
X0423076Y0521590D01*
X0423076Y0522528D01*
X0422888Y0523277D01*
X0422701Y0523652D01*
X0422513Y0523840D01*
X0422138Y0524027D01*
D322*
X0447014Y0482325D02*
X0448014Y0483754D01*
X0448728Y0482325D02*
X0448728Y0485325D01*
X0447585Y0485325D01*
X0447300Y0485183D01*
X0447157Y0485040D01*
X0447014Y0484754D01*
X0447014Y0484325D01*
X0447157Y0484040D01*
X0447300Y0483897D01*
X0447585Y0483754D01*
X0448728Y0483754D01*
X0444442Y0484325D02*
X0444442Y0482325D01*
X0445157Y0485468D02*
X0445871Y0483325D01*
X0444014Y0483325D01*
X0442442Y0484040D02*
X0442728Y0484183D01*
X0442871Y0484325D01*
X0443014Y0484611D01*
X0443014Y0484754D01*
X0442871Y0485040D01*
X0442728Y0485183D01*
X0442442Y0485325D01*
X0441871Y0485325D01*
X0441585Y0485183D01*
X0441442Y0485040D01*
X0441300Y0484754D01*
X0441300Y0484611D01*
X0441442Y0484325D01*
X0441585Y0484183D01*
X0441871Y0484040D01*
X0442442Y0484040D01*
X0442728Y0483897D01*
X0442871Y0483754D01*
X0443014Y0483468D01*
X0443014Y0482897D01*
X0442871Y0482611D01*
X0442728Y0482468D01*
X0442442Y0482325D01*
X0441871Y0482325D01*
X0441585Y0482468D01*
X0441442Y0482611D01*
X0441300Y0482897D01*
X0441300Y0483468D01*
X0441442Y0483754D01*
X0441585Y0483897D01*
X0441871Y0484040D01*
D335*
X0522752Y0493384D02*
X0518815Y0493384D01*
X0518815Y0491885D01*
X0519003Y0491510D01*
X0519190Y0491322D01*
X0519565Y0491135D01*
X0520128Y0491135D01*
X0520502Y0491322D01*
X0520690Y0491510D01*
X0520877Y0491885D01*
X0520877Y0493384D01*
X0522752Y0487385D02*
X0522752Y0489635D01*
X0522752Y0488510D02*
X0518815Y0488510D01*
X0519378Y0488885D01*
X0519753Y0489260D01*
X0519940Y0489635D01*
X0518815Y0483823D02*
X0518815Y0485698D01*
X0520690Y0485885D01*
X0520502Y0485698D01*
X0520315Y0485323D01*
X0520315Y0484385D01*
X0520502Y0484011D01*
X0520690Y0483823D01*
X0521065Y0483636D01*
X0522002Y0483636D01*
X0522377Y0483823D01*
X0522565Y0484011D01*
X0522752Y0484385D01*
X0522752Y0485323D01*
X0522565Y0485698D01*
X0522377Y0485885D01*
X0159020Y0505819D02*
X0159020Y0509756D01*
X0157520Y0509756D01*
X0157145Y0509568D01*
X0156957Y0509381D01*
X0156770Y0509006D01*
X0156770Y0508443D01*
X0156957Y0508068D01*
X0157145Y0507881D01*
X0157520Y0507694D01*
X0159020Y0507694D01*
X0155270Y0509381D02*
X0155083Y0509568D01*
X0154708Y0509756D01*
X0153770Y0509756D01*
X0153395Y0509568D01*
X0153208Y0509381D01*
X0153020Y0509006D01*
X0153020Y0508631D01*
X0153208Y0508068D01*
X0155457Y0505819D01*
X0153020Y0505819D01*
X0149271Y0505819D02*
X0151520Y0505819D01*
X0150396Y0505819D02*
X0150396Y0509756D01*
X0150771Y0509193D01*
X0151146Y0508818D01*
X0151520Y0508631D01*
D322*
X0457053Y0481735D02*
X0458053Y0483163D01*
X0458768Y0481735D02*
X0458768Y0484735D01*
X0457625Y0484735D01*
X0457339Y0484592D01*
X0457196Y0484449D01*
X0457053Y0484163D01*
X0457053Y0483735D01*
X0457196Y0483449D01*
X0457339Y0483306D01*
X0457625Y0483163D01*
X0458768Y0483163D01*
X0455910Y0484449D02*
X0455768Y0484592D01*
X0455482Y0484735D01*
X0454768Y0484735D01*
X0454482Y0484592D01*
X0454339Y0484449D01*
X0454196Y0484163D01*
X0454196Y0483878D01*
X0454339Y0483449D01*
X0456053Y0481735D01*
X0454196Y0481735D01*
X0451625Y0483735D02*
X0451625Y0481735D01*
X0452339Y0484878D02*
X0453053Y0482735D01*
X0451196Y0482735D01*
X0047763Y0504788D02*
X0046335Y0505788D01*
X0047763Y0506502D02*
X0044763Y0506502D01*
X0044763Y0505359D01*
X0044906Y0505074D01*
X0045049Y0504931D01*
X0045335Y0504788D01*
X0045763Y0504788D01*
X0046049Y0504931D01*
X0046192Y0505074D01*
X0046335Y0505359D01*
X0046335Y0506502D01*
X0045763Y0502216D02*
X0047763Y0502216D01*
X0044620Y0502931D02*
X0046763Y0503645D01*
X0046763Y0501788D01*
X0045049Y0500788D02*
X0044906Y0500645D01*
X0044763Y0500359D01*
X0044763Y0499645D01*
X0044906Y0499359D01*
X0045049Y0499216D01*
X0045335Y0499074D01*
X0045620Y0499074D01*
X0046049Y0499216D01*
X0047763Y0500931D01*
X0047763Y0499074D01*
D335*
X0170929Y0516646D02*
X0170929Y0520583D01*
X0169429Y0520583D01*
X0169054Y0520395D01*
X0168867Y0520208D01*
X0168679Y0519833D01*
X0168679Y0519270D01*
X0168867Y0518895D01*
X0169054Y0518708D01*
X0169429Y0518520D01*
X0170929Y0518520D01*
X0165117Y0520583D02*
X0166992Y0520583D01*
X0167179Y0518708D01*
X0166992Y0518895D01*
X0166617Y0519083D01*
X0165680Y0519083D01*
X0165305Y0518895D01*
X0165117Y0518708D01*
X0164930Y0518333D01*
X0164930Y0517395D01*
X0165117Y0517020D01*
X0165305Y0516833D01*
X0165680Y0516646D01*
X0166617Y0516646D01*
X0166992Y0516833D01*
X0167179Y0517020D01*
X0161555Y0520583D02*
X0162305Y0520583D01*
X0162680Y0520395D01*
X0162868Y0520208D01*
X0163242Y0519645D01*
X0163430Y0518895D01*
X0163430Y0517395D01*
X0163242Y0517020D01*
X0163055Y0516833D01*
X0162680Y0516646D01*
X0161930Y0516646D01*
X0161555Y0516833D01*
X0161368Y0517020D01*
X0161180Y0517395D01*
X0161180Y0518333D01*
X0161368Y0518708D01*
X0161555Y0518895D01*
X0161930Y0519083D01*
X0162680Y0519083D01*
X0163055Y0518895D01*
X0163242Y0518708D01*
X0163430Y0518333D01*
X0498586Y0479146D02*
X0498586Y0483083D01*
X0497087Y0483083D01*
X0496712Y0482895D01*
X0496524Y0482708D01*
X0496337Y0482333D01*
X0496337Y0481770D01*
X0496524Y0481395D01*
X0496712Y0481208D01*
X0497087Y0481020D01*
X0498586Y0481020D01*
X0492775Y0483083D02*
X0494649Y0483083D01*
X0494837Y0481208D01*
X0494649Y0481395D01*
X0494275Y0481583D01*
X0493337Y0481583D01*
X0492962Y0481395D01*
X0492775Y0481208D01*
X0492587Y0480833D01*
X0492587Y0479895D01*
X0492775Y0479520D01*
X0492962Y0479333D01*
X0493337Y0479146D01*
X0494275Y0479146D01*
X0494649Y0479333D01*
X0494837Y0479520D01*
X0491087Y0482708D02*
X0490900Y0482895D01*
X0490525Y0483083D01*
X0489588Y0483083D01*
X0489213Y0482895D01*
X0489025Y0482708D01*
X0488838Y0482333D01*
X0488838Y0481958D01*
X0489025Y0481395D01*
X0491275Y0479146D01*
X0488838Y0479146D01*
X0489433Y0453260D02*
X0489433Y0457197D01*
X0487933Y0457197D01*
X0487558Y0457009D01*
X0487371Y0456822D01*
X0487183Y0456447D01*
X0487183Y0455884D01*
X0487371Y0455509D01*
X0487558Y0455322D01*
X0487933Y0455134D01*
X0489433Y0455134D01*
X0483809Y0455884D02*
X0483809Y0453260D01*
X0484746Y0457384D02*
X0485683Y0454572D01*
X0483246Y0454572D01*
X0480059Y0457197D02*
X0480809Y0457197D01*
X0481184Y0457009D01*
X0481371Y0456822D01*
X0481746Y0456259D01*
X0481934Y0455509D01*
X0481934Y0454010D01*
X0481746Y0453635D01*
X0481559Y0453447D01*
X0481184Y0453260D01*
X0480434Y0453260D01*
X0480059Y0453447D01*
X0479872Y0453635D01*
X0479684Y0454010D01*
X0479684Y0454947D01*
X0479872Y0455322D01*
X0480059Y0455509D01*
X0480434Y0455697D01*
X0481184Y0455697D01*
X0481559Y0455509D01*
X0481746Y0455322D01*
X0481934Y0454947D01*
X0361775Y0333279D02*
X0361775Y0337216D01*
X0360276Y0337216D01*
X0359901Y0337029D01*
X0359713Y0336841D01*
X0359526Y0336466D01*
X0359526Y0335904D01*
X0359713Y0335529D01*
X0359901Y0335342D01*
X0360276Y0335154D01*
X0361775Y0335154D01*
X0356151Y0335904D02*
X0356151Y0333279D01*
X0357089Y0337404D02*
X0358026Y0334592D01*
X0355589Y0334592D01*
X0352402Y0335904D02*
X0352402Y0333279D01*
X0353339Y0337404D02*
X0354276Y0334592D01*
X0351839Y0334592D01*
X0133134Y0288988D02*
X0133134Y0292925D01*
X0131634Y0292925D01*
X0131259Y0292738D01*
X0131071Y0292550D01*
X0130884Y0292175D01*
X0130884Y0291613D01*
X0131071Y0291238D01*
X0131259Y0291050D01*
X0131634Y0290863D01*
X0133134Y0290863D01*
X0127134Y0288988D02*
X0129384Y0288988D01*
X0128259Y0288988D02*
X0128259Y0292925D01*
X0128634Y0292363D01*
X0129009Y0291988D01*
X0129384Y0291800D01*
X0125822Y0292925D02*
X0123385Y0292925D01*
X0124697Y0291425D01*
X0124135Y0291425D01*
X0123760Y0291238D01*
X0123572Y0291050D01*
X0123385Y0290675D01*
X0123385Y0289738D01*
X0123572Y0289363D01*
X0123760Y0289176D01*
X0124135Y0288988D01*
X0125260Y0288988D01*
X0125635Y0289176D01*
X0125822Y0289363D01*
X0480772Y0169303D02*
X0480772Y0173240D01*
X0479272Y0173240D01*
X0478897Y0173053D01*
X0478709Y0172865D01*
X0478522Y0172490D01*
X0478522Y0171928D01*
X0478709Y0171553D01*
X0478897Y0171365D01*
X0479272Y0171178D01*
X0480772Y0171178D01*
X0477022Y0172865D02*
X0476835Y0173053D01*
X0476460Y0173240D01*
X0475522Y0173240D01*
X0475147Y0173053D01*
X0474960Y0172865D01*
X0474772Y0172490D01*
X0474772Y0172115D01*
X0474960Y0171553D01*
X0477209Y0169303D01*
X0474772Y0169303D01*
X0472898Y0169303D02*
X0472148Y0169303D01*
X0471773Y0169490D01*
X0471585Y0169678D01*
X0471210Y0170240D01*
X0471023Y0170990D01*
X0471023Y0172490D01*
X0471210Y0172865D01*
X0471398Y0173053D01*
X0471773Y0173240D01*
X0472523Y0173240D01*
X0472898Y0173053D01*
X0473085Y0172865D01*
X0473272Y0172490D01*
X0473272Y0171553D01*
X0473085Y0171178D01*
X0472898Y0170990D01*
X0472523Y0170803D01*
X0471773Y0170803D01*
X0471398Y0170990D01*
X0471210Y0171178D01*
X0471023Y0171553D01*
X0484807Y0520484D02*
X0484807Y0524421D01*
X0483307Y0524421D01*
X0482932Y0524234D01*
X0482745Y0524046D01*
X0482557Y0523671D01*
X0482557Y0523109D01*
X0482745Y0522734D01*
X0482932Y0522546D01*
X0483307Y0522359D01*
X0484807Y0522359D01*
X0481245Y0524421D02*
X0478808Y0524421D01*
X0480120Y0522921D01*
X0479558Y0522921D01*
X0479183Y0522734D01*
X0478995Y0522546D01*
X0478808Y0522171D01*
X0478808Y0521234D01*
X0478995Y0520859D01*
X0479183Y0520672D01*
X0479558Y0520484D01*
X0480682Y0520484D01*
X0481057Y0520672D01*
X0481245Y0520859D01*
X0477495Y0524421D02*
X0474871Y0524421D01*
X0476558Y0520484D01*
D322*
X0212270Y0495613D02*
X0213270Y0497041D01*
X0213984Y0495613D02*
X0213984Y0498613D01*
X0212841Y0498613D01*
X0212556Y0498470D01*
X0212413Y0498327D01*
X0212270Y0498041D01*
X0212270Y0497613D01*
X0212413Y0497327D01*
X0212556Y0497184D01*
X0212841Y0497041D01*
X0213984Y0497041D01*
X0209698Y0497613D02*
X0209698Y0495613D01*
X0210413Y0498756D02*
X0211127Y0496613D01*
X0209270Y0496613D01*
X0208413Y0498613D02*
X0206556Y0498613D01*
X0207556Y0497470D01*
X0207127Y0497470D01*
X0206841Y0497327D01*
X0206698Y0497184D01*
X0206556Y0496898D01*
X0206556Y0496184D01*
X0206698Y0495898D01*
X0206841Y0495756D01*
X0207127Y0495613D01*
X0207984Y0495613D01*
X0208270Y0495756D01*
X0208413Y0495898D01*
D335*
X0254150Y0270156D02*
X0250213Y0270156D01*
X0250213Y0268656D01*
X0250400Y0268281D01*
X0250588Y0268094D01*
X0250963Y0267906D01*
X0251525Y0267906D01*
X0251900Y0268094D01*
X0252088Y0268281D01*
X0252275Y0268656D01*
X0252275Y0270156D01*
X0250213Y0266594D02*
X0250213Y0264157D01*
X0251713Y0265469D01*
X0251713Y0264907D01*
X0251900Y0264532D01*
X0252088Y0264344D01*
X0252463Y0264157D01*
X0253400Y0264157D01*
X0253775Y0264344D01*
X0253962Y0264532D01*
X0254150Y0264907D01*
X0254150Y0266032D01*
X0253962Y0266406D01*
X0253775Y0266594D01*
X0250213Y0260595D02*
X0250213Y0262469D01*
X0252088Y0262657D01*
X0251900Y0262469D01*
X0251713Y0262095D01*
X0251713Y0261157D01*
X0251900Y0260782D01*
X0252088Y0260595D01*
X0252463Y0260407D01*
X0253400Y0260407D01*
X0253775Y0260595D01*
X0253962Y0260782D01*
X0254150Y0261157D01*
X0254150Y0262095D01*
X0253962Y0262469D01*
X0253775Y0262657D01*
X0480772Y0140425D02*
X0480772Y0144362D01*
X0479272Y0144362D01*
X0478897Y0144174D01*
X0478709Y0143987D01*
X0478522Y0143612D01*
X0478522Y0143049D01*
X0478709Y0142674D01*
X0478897Y0142487D01*
X0479272Y0142299D01*
X0480772Y0142299D01*
X0477209Y0144362D02*
X0474772Y0144362D01*
X0476085Y0142862D01*
X0475522Y0142862D01*
X0475147Y0142674D01*
X0474960Y0142487D01*
X0474772Y0142112D01*
X0474772Y0141174D01*
X0474960Y0140800D01*
X0475147Y0140612D01*
X0475522Y0140425D01*
X0476647Y0140425D01*
X0477022Y0140612D01*
X0477209Y0140800D01*
X0472335Y0144362D02*
X0471960Y0144362D01*
X0471585Y0144174D01*
X0471398Y0143987D01*
X0471210Y0143612D01*
X0471023Y0142862D01*
X0471023Y0141924D01*
X0471210Y0141174D01*
X0471398Y0140800D01*
X0471585Y0140612D01*
X0471960Y0140425D01*
X0472335Y0140425D01*
X0472710Y0140612D01*
X0472898Y0140800D01*
X0473085Y0141174D01*
X0473272Y0141924D01*
X0473272Y0142862D01*
X0473085Y0143612D01*
X0472898Y0143987D01*
X0472710Y0144174D01*
X0472335Y0144362D01*
X0259255Y0177984D02*
X0259255Y0181921D01*
X0257755Y0181921D01*
X0257380Y0181733D01*
X0257193Y0181546D01*
X0257005Y0181171D01*
X0257005Y0180608D01*
X0257193Y0180233D01*
X0257380Y0180046D01*
X0257755Y0179858D01*
X0259255Y0179858D01*
X0253631Y0180608D02*
X0253631Y0177984D01*
X0254568Y0182108D02*
X0255505Y0179296D01*
X0253068Y0179296D01*
X0492583Y0140425D02*
X0492583Y0144362D01*
X0491083Y0144362D01*
X0490708Y0144174D01*
X0490520Y0143987D01*
X0490333Y0143612D01*
X0490333Y0143049D01*
X0490520Y0142674D01*
X0490708Y0142487D01*
X0491083Y0142299D01*
X0492583Y0142299D01*
X0488833Y0143987D02*
X0488646Y0144174D01*
X0488271Y0144362D01*
X0487333Y0144362D01*
X0486958Y0144174D01*
X0486771Y0143987D01*
X0486583Y0143612D01*
X0486583Y0143237D01*
X0486771Y0142674D01*
X0489020Y0140425D01*
X0486583Y0140425D01*
X0483021Y0144362D02*
X0484896Y0144362D01*
X0485083Y0142487D01*
X0484896Y0142674D01*
X0484521Y0142862D01*
X0483584Y0142862D01*
X0483209Y0142674D01*
X0483021Y0142487D01*
X0482834Y0142112D01*
X0482834Y0141174D01*
X0483021Y0140800D01*
X0483209Y0140612D01*
X0483584Y0140425D01*
X0484521Y0140425D01*
X0484896Y0140612D01*
X0485083Y0140800D01*
D322*
X0523786Y0519727D02*
X0524786Y0521155D01*
X0525500Y0519727D02*
X0525500Y0522727D01*
X0524357Y0522727D01*
X0524071Y0522584D01*
X0523928Y0522441D01*
X0523786Y0522155D01*
X0523786Y0521727D01*
X0523928Y0521441D01*
X0524071Y0521298D01*
X0524357Y0521155D01*
X0525500Y0521155D01*
X0520928Y0519727D02*
X0522643Y0519727D01*
X0521786Y0519727D02*
X0521786Y0522727D01*
X0522071Y0522298D01*
X0522357Y0522013D01*
X0522643Y0521870D01*
X0519928Y0522727D02*
X0517928Y0522727D01*
X0519214Y0519727D01*
D335*
X0456854Y0338299D02*
X0456854Y0342236D01*
X0455354Y0342236D01*
X0454979Y0342049D01*
X0454792Y0341861D01*
X0454604Y0341486D01*
X0454604Y0340924D01*
X0454792Y0340549D01*
X0454979Y0340361D01*
X0455354Y0340174D01*
X0456854Y0340174D01*
X0453105Y0341861D02*
X0452917Y0342049D01*
X0452542Y0342236D01*
X0451605Y0342236D01*
X0451230Y0342049D01*
X0451042Y0341861D01*
X0450855Y0341486D01*
X0450855Y0341111D01*
X0451042Y0340549D01*
X0453292Y0338299D01*
X0450855Y0338299D01*
X0449543Y0342236D02*
X0446918Y0342236D01*
X0448605Y0338299D01*
X0429886Y0493417D02*
X0429886Y0497354D01*
X0428386Y0497354D01*
X0428011Y0497167D01*
X0427823Y0496979D01*
X0427636Y0496604D01*
X0427636Y0496042D01*
X0427823Y0495667D01*
X0428011Y0495479D01*
X0428386Y0495292D01*
X0429886Y0495292D01*
X0424074Y0497354D02*
X0425949Y0497354D01*
X0426136Y0495479D01*
X0425949Y0495667D01*
X0425574Y0495854D01*
X0424636Y0495854D01*
X0424261Y0495667D01*
X0424074Y0495479D01*
X0423886Y0495104D01*
X0423886Y0494167D01*
X0424074Y0493792D01*
X0424261Y0493605D01*
X0424636Y0493417D01*
X0425574Y0493417D01*
X0425949Y0493605D01*
X0426136Y0493792D01*
X0420324Y0497354D02*
X0422199Y0497354D01*
X0422387Y0495479D01*
X0422199Y0495667D01*
X0421824Y0495854D01*
X0420887Y0495854D01*
X0420512Y0495667D01*
X0420324Y0495479D01*
X0420137Y0495104D01*
X0420137Y0494167D01*
X0420324Y0493792D01*
X0420512Y0493605D01*
X0420887Y0493417D01*
X0421824Y0493417D01*
X0422199Y0493605D01*
X0422387Y0493792D01*
D322*
X0484955Y0480947D02*
X0485955Y0482376D01*
X0486670Y0480947D02*
X0486670Y0483947D01*
X0485527Y0483947D01*
X0485241Y0483804D01*
X0485098Y0483662D01*
X0484955Y0483376D01*
X0484955Y0482947D01*
X0485098Y0482662D01*
X0485241Y0482519D01*
X0485527Y0482376D01*
X0486670Y0482376D01*
X0483241Y0482662D02*
X0483527Y0482804D01*
X0483670Y0482947D01*
X0483813Y0483233D01*
X0483813Y0483376D01*
X0483670Y0483662D01*
X0483527Y0483804D01*
X0483241Y0483947D01*
X0482670Y0483947D01*
X0482384Y0483804D01*
X0482241Y0483662D01*
X0482098Y0483376D01*
X0482098Y0483233D01*
X0482241Y0482947D01*
X0482384Y0482804D01*
X0482670Y0482662D01*
X0483241Y0482662D01*
X0483527Y0482519D01*
X0483670Y0482376D01*
X0483813Y0482090D01*
X0483813Y0481519D01*
X0483670Y0481233D01*
X0483527Y0481090D01*
X0483241Y0480947D01*
X0482670Y0480947D01*
X0482384Y0481090D01*
X0482241Y0481233D01*
X0482098Y0481519D01*
X0482098Y0482090D01*
X0482241Y0482376D01*
X0482384Y0482519D01*
X0482670Y0482662D01*
D335*
X0192976Y0308279D02*
X0192976Y0312216D01*
X0191476Y0312216D01*
X0191101Y0312029D01*
X0190914Y0311841D01*
X0190727Y0311466D01*
X0190727Y0310904D01*
X0190914Y0310529D01*
X0191101Y0310342D01*
X0191476Y0310154D01*
X0192976Y0310154D01*
X0189414Y0312216D02*
X0186977Y0312216D01*
X0188289Y0310717D01*
X0187727Y0310717D01*
X0187352Y0310529D01*
X0187164Y0310342D01*
X0186977Y0309967D01*
X0186977Y0309029D01*
X0187164Y0308654D01*
X0187352Y0308467D01*
X0187727Y0308279D01*
X0188852Y0308279D01*
X0189227Y0308467D01*
X0189414Y0308654D01*
X0183602Y0310904D02*
X0183602Y0308279D01*
X0184540Y0312404D02*
X0185477Y0309592D01*
X0183040Y0309592D01*
X0283087Y0248109D02*
X0279150Y0248109D01*
X0279150Y0246609D01*
X0279337Y0246234D01*
X0279525Y0246047D01*
X0279900Y0245859D01*
X0280462Y0245859D01*
X0280837Y0246047D01*
X0281025Y0246234D01*
X0281212Y0246609D01*
X0281212Y0248109D01*
X0283087Y0242110D02*
X0283087Y0244359D01*
X0283087Y0243234D02*
X0279150Y0243234D01*
X0279712Y0243609D01*
X0280087Y0243984D01*
X0280275Y0244359D01*
X0279150Y0240797D02*
X0279150Y0238173D01*
X0283087Y0239860D01*
X0121716Y0288988D02*
X0121716Y0292925D01*
X0120217Y0292925D01*
X0119842Y0292738D01*
X0119654Y0292550D01*
X0119467Y0292175D01*
X0119467Y0291613D01*
X0119654Y0291238D01*
X0119842Y0291050D01*
X0120217Y0290863D01*
X0121716Y0290863D01*
X0115717Y0288988D02*
X0117967Y0288988D01*
X0116842Y0288988D02*
X0116842Y0292925D01*
X0117217Y0292363D01*
X0117592Y0291988D01*
X0117967Y0291800D01*
X0111968Y0288988D02*
X0114217Y0288988D01*
X0113092Y0288988D02*
X0113092Y0292925D01*
X0113467Y0292363D01*
X0113842Y0291988D01*
X0114217Y0291800D01*
D322*
X0092642Y0487637D02*
X0093642Y0489065D01*
X0094356Y0487637D02*
X0094356Y0490637D01*
X0093213Y0490637D01*
X0092928Y0490494D01*
X0092785Y0490351D01*
X0092642Y0490065D01*
X0092642Y0489637D01*
X0092785Y0489351D01*
X0092928Y0489208D01*
X0093213Y0489065D01*
X0094356Y0489065D01*
X0090071Y0489637D02*
X0090071Y0487637D01*
X0090785Y0490780D02*
X0091499Y0488637D01*
X0089642Y0488637D01*
X0087928Y0490637D02*
X0087642Y0490637D01*
X0087356Y0490494D01*
X0087213Y0490351D01*
X0087071Y0490065D01*
X0086928Y0489494D01*
X0086928Y0488780D01*
X0087071Y0488208D01*
X0087213Y0487922D01*
X0087356Y0487780D01*
X0087642Y0487637D01*
X0087928Y0487637D01*
X0088213Y0487780D01*
X0088356Y0487922D01*
X0088499Y0488208D01*
X0088642Y0488780D01*
X0088642Y0489494D01*
X0088499Y0490065D01*
X0088356Y0490351D01*
X0088213Y0490494D01*
X0087928Y0490637D01*
D335*
X0438936Y0504736D02*
X0438936Y0508673D01*
X0437436Y0508673D01*
X0437061Y0508486D01*
X0436874Y0508298D01*
X0436686Y0507923D01*
X0436686Y0507361D01*
X0436874Y0506986D01*
X0437061Y0506798D01*
X0437436Y0506611D01*
X0438936Y0506611D01*
X0435374Y0508673D02*
X0432937Y0508673D01*
X0434249Y0507173D01*
X0433687Y0507173D01*
X0433312Y0506986D01*
X0433124Y0506798D01*
X0432937Y0506423D01*
X0432937Y0505486D01*
X0433124Y0505111D01*
X0433312Y0504924D01*
X0433687Y0504736D01*
X0434812Y0504736D01*
X0435187Y0504924D01*
X0435374Y0505111D01*
X0325653Y0288594D02*
X0325653Y0292531D01*
X0324154Y0292531D01*
X0323779Y0292344D01*
X0323591Y0292156D01*
X0323404Y0291781D01*
X0323404Y0291219D01*
X0323591Y0290844D01*
X0323779Y0290657D01*
X0324154Y0290469D01*
X0325653Y0290469D01*
X0321904Y0292156D02*
X0321716Y0292344D01*
X0321341Y0292531D01*
X0320404Y0292531D01*
X0320029Y0292344D01*
X0319842Y0292156D01*
X0319654Y0291781D01*
X0319654Y0291406D01*
X0319842Y0290844D01*
X0322091Y0288594D01*
X0319654Y0288594D01*
X0317404Y0290844D02*
X0317779Y0291032D01*
X0317967Y0291219D01*
X0318154Y0291594D01*
X0318154Y0291781D01*
X0317967Y0292156D01*
X0317779Y0292344D01*
X0317404Y0292531D01*
X0316655Y0292531D01*
X0316280Y0292344D01*
X0316092Y0292156D01*
X0315905Y0291781D01*
X0315905Y0291594D01*
X0316092Y0291219D01*
X0316280Y0291032D01*
X0316655Y0290844D01*
X0317404Y0290844D01*
X0317779Y0290657D01*
X0317967Y0290469D01*
X0318154Y0290094D01*
X0318154Y0289344D01*
X0317967Y0288969D01*
X0317779Y0288782D01*
X0317404Y0288594D01*
X0316655Y0288594D01*
X0316280Y0288782D01*
X0316092Y0288969D01*
X0315905Y0289344D01*
X0315905Y0290094D01*
X0316092Y0290469D01*
X0316280Y0290657D01*
X0316655Y0290844D01*
X0492583Y0169303D02*
X0492583Y0173240D01*
X0491083Y0173240D01*
X0490708Y0173053D01*
X0490520Y0172865D01*
X0490333Y0172490D01*
X0490333Y0171928D01*
X0490520Y0171553D01*
X0490708Y0171365D01*
X0491083Y0171178D01*
X0492583Y0171178D01*
X0488833Y0172865D02*
X0488646Y0173053D01*
X0488271Y0173240D01*
X0487333Y0173240D01*
X0486958Y0173053D01*
X0486771Y0172865D01*
X0486583Y0172490D01*
X0486583Y0172115D01*
X0486771Y0171553D01*
X0489020Y0169303D01*
X0486583Y0169303D01*
X0483209Y0171928D02*
X0483209Y0169303D01*
X0484146Y0173427D02*
X0485083Y0170615D01*
X0482646Y0170615D01*
X0373975Y0504933D02*
X0373975Y0508870D01*
X0372476Y0508870D01*
X0372101Y0508682D01*
X0371913Y0508495D01*
X0371726Y0508120D01*
X0371726Y0507558D01*
X0371913Y0507183D01*
X0372101Y0506995D01*
X0372476Y0506808D01*
X0373975Y0506808D01*
X0369476Y0507183D02*
X0369851Y0507370D01*
X0370038Y0507558D01*
X0370226Y0507933D01*
X0370226Y0508120D01*
X0370038Y0508495D01*
X0369851Y0508682D01*
X0369476Y0508870D01*
X0368726Y0508870D01*
X0368351Y0508682D01*
X0368164Y0508495D01*
X0367976Y0508120D01*
X0367976Y0507933D01*
X0368164Y0507558D01*
X0368351Y0507370D01*
X0368726Y0507183D01*
X0369476Y0507183D01*
X0369851Y0506995D01*
X0370038Y0506808D01*
X0370226Y0506433D01*
X0370226Y0505683D01*
X0370038Y0505308D01*
X0369851Y0505120D01*
X0369476Y0504933D01*
X0368726Y0504933D01*
X0368351Y0505120D01*
X0368164Y0505308D01*
X0367976Y0505683D01*
X0367976Y0506433D01*
X0368164Y0506808D01*
X0368351Y0506995D01*
X0368726Y0507183D01*
D322*
X0066423Y0505099D02*
X0064994Y0506099D01*
X0066423Y0506813D02*
X0063423Y0506813D01*
X0063423Y0505671D01*
X0063566Y0505385D01*
X0063709Y0505242D01*
X0063994Y0505099D01*
X0064423Y0505099D01*
X0064709Y0505242D01*
X0064851Y0505385D01*
X0064994Y0505671D01*
X0064994Y0506813D01*
X0063423Y0504099D02*
X0063423Y0502242D01*
X0064566Y0503242D01*
X0064566Y0502813D01*
X0064709Y0502528D01*
X0064851Y0502385D01*
X0065137Y0502242D01*
X0065851Y0502242D01*
X0066137Y0502385D01*
X0066280Y0502528D01*
X0066423Y0502813D01*
X0066423Y0503671D01*
X0066280Y0503956D01*
X0066137Y0504099D01*
X0064709Y0500528D02*
X0064566Y0500813D01*
X0064423Y0500956D01*
X0064137Y0501099D01*
X0063994Y0501099D01*
X0063709Y0500956D01*
X0063566Y0500813D01*
X0063423Y0500528D01*
X0063423Y0499956D01*
X0063566Y0499671D01*
X0063709Y0499528D01*
X0063994Y0499385D01*
X0064137Y0499385D01*
X0064423Y0499528D01*
X0064566Y0499671D01*
X0064709Y0499956D01*
X0064709Y0500528D01*
X0064851Y0500813D01*
X0064994Y0500956D01*
X0065280Y0501099D01*
X0065851Y0501099D01*
X0066137Y0500956D01*
X0066280Y0500813D01*
X0066423Y0500528D01*
X0066423Y0499956D01*
X0066280Y0499671D01*
X0066137Y0499528D01*
X0065851Y0499385D01*
X0065280Y0499385D01*
X0064994Y0499528D01*
X0064851Y0499671D01*
X0064709Y0499956D01*
X0506193Y0509943D02*
X0504765Y0510943D01*
X0506193Y0511657D02*
X0503193Y0511657D01*
X0503193Y0510514D01*
X0503336Y0510229D01*
X0503479Y0510086D01*
X0503765Y0509943D01*
X0504193Y0509943D01*
X0504479Y0510086D01*
X0504622Y0510229D01*
X0504765Y0510514D01*
X0504765Y0511657D01*
X0504193Y0507372D02*
X0506193Y0507372D01*
X0503050Y0508086D02*
X0505193Y0508800D01*
X0505193Y0506943D01*
X0504193Y0504514D02*
X0506193Y0504514D01*
X0503050Y0505229D02*
X0505193Y0505943D01*
X0505193Y0504086D01*
D335*
X0147996Y0516547D02*
X0147996Y0520484D01*
X0146496Y0520484D01*
X0146121Y0520297D01*
X0145934Y0520109D01*
X0145746Y0519734D01*
X0145746Y0519172D01*
X0145934Y0518797D01*
X0146121Y0518609D01*
X0146496Y0518422D01*
X0147996Y0518422D01*
X0142372Y0519172D02*
X0142372Y0516547D01*
X0143309Y0520672D02*
X0144246Y0517859D01*
X0141809Y0517859D01*
X0139747Y0518797D02*
X0140122Y0518984D01*
X0140309Y0519172D01*
X0140497Y0519547D01*
X0140497Y0519734D01*
X0140309Y0520109D01*
X0140122Y0520297D01*
X0139747Y0520484D01*
X0138997Y0520484D01*
X0138622Y0520297D01*
X0138435Y0520109D01*
X0138247Y0519734D01*
X0138247Y0519547D01*
X0138435Y0519172D01*
X0138622Y0518984D01*
X0138997Y0518797D01*
X0139747Y0518797D01*
X0140122Y0518609D01*
X0140309Y0518422D01*
X0140497Y0518047D01*
X0140497Y0517297D01*
X0140309Y0516922D01*
X0140122Y0516735D01*
X0139747Y0516547D01*
X0138997Y0516547D01*
X0138622Y0516735D01*
X0138435Y0516922D01*
X0138247Y0517297D01*
X0138247Y0518047D01*
X0138435Y0518422D01*
X0138622Y0518609D01*
X0138997Y0518797D01*
D322*
X0507355Y0467386D02*
X0508355Y0468814D01*
X0509069Y0467386D02*
X0509069Y0470386D01*
X0507927Y0470386D01*
X0507641Y0470243D01*
X0507498Y0470100D01*
X0507355Y0469814D01*
X0507355Y0469386D01*
X0507498Y0469100D01*
X0507641Y0468957D01*
X0507927Y0468814D01*
X0509069Y0468814D01*
X0506355Y0470386D02*
X0504498Y0470386D01*
X0505498Y0469243D01*
X0505069Y0469243D01*
X0504784Y0469100D01*
X0504641Y0468957D01*
X0504498Y0468671D01*
X0504498Y0467957D01*
X0504641Y0467671D01*
X0504784Y0467529D01*
X0505069Y0467386D01*
X0505927Y0467386D01*
X0506212Y0467529D01*
X0506355Y0467671D01*
X0501641Y0467386D02*
X0503355Y0467386D01*
X0502498Y0467386D02*
X0502498Y0470386D01*
X0502784Y0469957D01*
X0503069Y0469671D01*
X0503355Y0469529D01*
D335*
X0468960Y0140425D02*
X0468960Y0144362D01*
X0467461Y0144362D01*
X0467086Y0144174D01*
X0466898Y0143987D01*
X0466711Y0143612D01*
X0466711Y0143049D01*
X0466898Y0142674D01*
X0467086Y0142487D01*
X0467461Y0142299D01*
X0468960Y0142299D01*
X0465398Y0144362D02*
X0462961Y0144362D01*
X0464274Y0142862D01*
X0463711Y0142862D01*
X0463336Y0142674D01*
X0463149Y0142487D01*
X0462961Y0142112D01*
X0462961Y0141174D01*
X0463149Y0140800D01*
X0463336Y0140612D01*
X0463711Y0140425D01*
X0464836Y0140425D01*
X0465211Y0140612D01*
X0465398Y0140800D01*
X0461461Y0143987D02*
X0461274Y0144174D01*
X0460899Y0144362D01*
X0459962Y0144362D01*
X0459587Y0144174D01*
X0459399Y0143987D01*
X0459212Y0143612D01*
X0459212Y0143237D01*
X0459399Y0142674D01*
X0461649Y0140425D01*
X0459212Y0140425D01*
X0381118Y0528616D02*
X0377181Y0528616D01*
X0377181Y0527116D01*
X0377369Y0526741D01*
X0377556Y0526554D01*
X0377931Y0526366D01*
X0378494Y0526366D01*
X0378869Y0526554D01*
X0379056Y0526741D01*
X0379244Y0527116D01*
X0379244Y0528616D01*
X0381118Y0524491D02*
X0381118Y0523741D01*
X0380931Y0523367D01*
X0380743Y0523179D01*
X0380181Y0522804D01*
X0379431Y0522617D01*
X0377931Y0522617D01*
X0377556Y0522804D01*
X0377369Y0522992D01*
X0377181Y0523367D01*
X0377181Y0524116D01*
X0377369Y0524491D01*
X0377556Y0524679D01*
X0377931Y0524866D01*
X0378869Y0524866D01*
X0379244Y0524679D01*
X0379431Y0524491D01*
X0379619Y0524116D01*
X0379619Y0523367D01*
X0379431Y0522992D01*
X0379244Y0522804D01*
X0378869Y0522617D01*
X0193370Y0318122D02*
X0193370Y0322059D01*
X0191870Y0322059D01*
X0191495Y0321871D01*
X0191308Y0321684D01*
X0191120Y0321309D01*
X0191120Y0320747D01*
X0191308Y0320372D01*
X0191495Y0320184D01*
X0191870Y0319997D01*
X0193370Y0319997D01*
X0189620Y0321684D02*
X0189433Y0321871D01*
X0189058Y0322059D01*
X0188121Y0322059D01*
X0187746Y0321871D01*
X0187558Y0321684D01*
X0187371Y0321309D01*
X0187371Y0320934D01*
X0187558Y0320372D01*
X0189808Y0318122D01*
X0187371Y0318122D01*
X0186058Y0322059D02*
X0183621Y0322059D01*
X0184933Y0320559D01*
X0184371Y0320559D01*
X0183996Y0320372D01*
X0183809Y0320184D01*
X0183621Y0319809D01*
X0183621Y0318872D01*
X0183809Y0318497D01*
X0183996Y0318309D01*
X0184371Y0318122D01*
X0185496Y0318122D01*
X0185871Y0318309D01*
X0186058Y0318497D01*
X0184413Y0505917D02*
X0184413Y0509854D01*
X0182913Y0509854D01*
X0182538Y0509667D01*
X0182351Y0509479D01*
X0182164Y0509104D01*
X0182164Y0508542D01*
X0182351Y0508167D01*
X0182538Y0507979D01*
X0182913Y0507792D01*
X0184413Y0507792D01*
X0178414Y0505917D02*
X0180664Y0505917D01*
X0179539Y0505917D02*
X0179539Y0509854D01*
X0179914Y0509292D01*
X0180289Y0508917D01*
X0180664Y0508729D01*
X0175039Y0509854D02*
X0175789Y0509854D01*
X0176164Y0509667D01*
X0176352Y0509479D01*
X0176727Y0508917D01*
X0176914Y0508167D01*
X0176914Y0506667D01*
X0176727Y0506292D01*
X0176539Y0506105D01*
X0176164Y0505917D01*
X0175414Y0505917D01*
X0175039Y0506105D01*
X0174852Y0506292D01*
X0174664Y0506667D01*
X0174664Y0507604D01*
X0174852Y0507979D01*
X0175039Y0508167D01*
X0175414Y0508354D01*
X0176164Y0508354D01*
X0176539Y0508167D01*
X0176727Y0507979D01*
X0176914Y0507604D01*
D322*
X0109766Y0521003D02*
X0110766Y0521003D01*
X0110766Y0519432D02*
X0110766Y0522432D01*
X0109338Y0522432D01*
X0106624Y0519432D02*
X0108338Y0519432D01*
X0107481Y0519432D02*
X0107481Y0522432D01*
X0107766Y0522003D01*
X0108052Y0521717D01*
X0108338Y0521574D01*
X0110652Y0529664D02*
X0111652Y0529664D01*
X0111652Y0528093D02*
X0111652Y0531093D01*
X0110224Y0531093D01*
X0109367Y0531093D02*
X0107509Y0531093D01*
X0108509Y0529950D01*
X0108081Y0529950D01*
X0107795Y0529807D01*
X0107652Y0529664D01*
X0107509Y0529379D01*
X0107509Y0528664D01*
X0107652Y0528379D01*
X0107795Y0528236D01*
X0108081Y0528093D01*
X0108938Y0528093D01*
X0109224Y0528236D01*
X0109367Y0528379D01*
X0101640Y0487640D02*
X0102640Y0489069D01*
X0103354Y0487640D02*
X0103354Y0490640D01*
X0102211Y0490640D01*
X0101926Y0490497D01*
X0101783Y0490355D01*
X0101640Y0490069D01*
X0101640Y0489640D01*
X0101783Y0489355D01*
X0101926Y0489212D01*
X0102211Y0489069D01*
X0103354Y0489069D01*
X0100640Y0490640D02*
X0098783Y0490640D01*
X0099783Y0489497D01*
X0099354Y0489497D01*
X0099068Y0489355D01*
X0098926Y0489212D01*
X0098783Y0488926D01*
X0098783Y0488212D01*
X0098926Y0487926D01*
X0099068Y0487783D01*
X0099354Y0487640D01*
X0100211Y0487640D01*
X0100497Y0487783D01*
X0100640Y0487926D01*
X0096068Y0490640D02*
X0097497Y0490640D01*
X0097640Y0489212D01*
X0097497Y0489355D01*
X0097211Y0489497D01*
X0096497Y0489497D01*
X0096211Y0489355D01*
X0096068Y0489212D01*
X0095926Y0488926D01*
X0095926Y0488212D01*
X0096068Y0487926D01*
X0096211Y0487783D01*
X0096497Y0487640D01*
X0097211Y0487640D01*
X0097497Y0487783D01*
X0097640Y0487926D01*
D335*
X0133134Y0318039D02*
X0133134Y0321976D01*
X0131634Y0321976D01*
X0131259Y0321788D01*
X0131071Y0321601D01*
X0130884Y0321226D01*
X0130884Y0320663D01*
X0131071Y0320288D01*
X0131259Y0320101D01*
X0131634Y0319914D01*
X0133134Y0319914D01*
X0127134Y0318039D02*
X0129384Y0318039D01*
X0128259Y0318039D02*
X0128259Y0321976D01*
X0128634Y0321413D01*
X0129009Y0321038D01*
X0129384Y0320851D01*
X0123760Y0320663D02*
X0123760Y0318039D01*
X0124697Y0322163D02*
X0125635Y0319351D01*
X0123197Y0319351D01*
D322*
X0083628Y0487837D02*
X0084628Y0489266D01*
X0085342Y0487837D02*
X0085342Y0490837D01*
X0084200Y0490837D01*
X0083914Y0490694D01*
X0083771Y0490551D01*
X0083628Y0490266D01*
X0083628Y0489837D01*
X0083771Y0489551D01*
X0083914Y0489409D01*
X0084200Y0489266D01*
X0085342Y0489266D01*
X0082628Y0490837D02*
X0080771Y0490837D01*
X0081771Y0489694D01*
X0081342Y0489694D01*
X0081057Y0489551D01*
X0080914Y0489409D01*
X0080771Y0489123D01*
X0080771Y0488409D01*
X0080914Y0488123D01*
X0081057Y0487980D01*
X0081342Y0487837D01*
X0082200Y0487837D01*
X0082485Y0487980D01*
X0082628Y0488123D01*
X0079771Y0490837D02*
X0077771Y0490837D01*
X0079057Y0487837D01*
X0362128Y0506558D02*
X0363128Y0507986D01*
X0363843Y0506558D02*
X0363843Y0509558D01*
X0362700Y0509558D01*
X0362414Y0509415D01*
X0362271Y0509272D01*
X0362128Y0508986D01*
X0362128Y0508558D01*
X0362271Y0508272D01*
X0362414Y0508129D01*
X0362700Y0507986D01*
X0363843Y0507986D01*
X0360985Y0509272D02*
X0360843Y0509415D01*
X0360557Y0509558D01*
X0359843Y0509558D01*
X0359557Y0509415D01*
X0359414Y0509272D01*
X0359271Y0508986D01*
X0359271Y0508700D01*
X0359414Y0508272D01*
X0361128Y0506558D01*
X0359271Y0506558D01*
X0356700Y0509558D02*
X0357271Y0509558D01*
X0357557Y0509415D01*
X0357700Y0509272D01*
X0357985Y0508843D01*
X0358128Y0508272D01*
X0358128Y0507129D01*
X0357985Y0506843D01*
X0357843Y0506700D01*
X0357557Y0506558D01*
X0356985Y0506558D01*
X0356700Y0506700D01*
X0356557Y0506843D01*
X0356414Y0507129D01*
X0356414Y0507843D01*
X0356557Y0508129D01*
X0356700Y0508272D01*
X0356985Y0508415D01*
X0357557Y0508415D01*
X0357843Y0508272D01*
X0357985Y0508129D01*
X0358128Y0507843D01*
D335*
X0283087Y0270156D02*
X0279150Y0270156D01*
X0279150Y0268656D01*
X0279337Y0268281D01*
X0279525Y0268094D01*
X0279900Y0267906D01*
X0280462Y0267906D01*
X0280837Y0268094D01*
X0281025Y0268281D01*
X0281212Y0268656D01*
X0281212Y0270156D01*
X0279525Y0266406D02*
X0279337Y0266219D01*
X0279150Y0265844D01*
X0279150Y0264907D01*
X0279337Y0264532D01*
X0279525Y0264344D01*
X0279900Y0264157D01*
X0280275Y0264157D01*
X0280837Y0264344D01*
X0283087Y0266594D01*
X0283087Y0264157D01*
X0279525Y0262657D02*
X0279337Y0262469D01*
X0279150Y0262095D01*
X0279150Y0261157D01*
X0279337Y0260782D01*
X0279525Y0260595D01*
X0279900Y0260407D01*
X0280275Y0260407D01*
X0280837Y0260595D01*
X0283087Y0262844D01*
X0283087Y0260407D01*
D322*
X0532250Y0493743D02*
X0533250Y0495171D01*
X0533964Y0493743D02*
X0533964Y0496743D01*
X0532822Y0496743D01*
X0532536Y0496600D01*
X0532393Y0496457D01*
X0532250Y0496171D01*
X0532250Y0495743D01*
X0532393Y0495457D01*
X0532536Y0495314D01*
X0532822Y0495171D01*
X0533964Y0495171D01*
X0531107Y0496457D02*
X0530964Y0496600D01*
X0530679Y0496743D01*
X0529964Y0496743D01*
X0529679Y0496600D01*
X0529536Y0496457D01*
X0529393Y0496171D01*
X0529393Y0495885D01*
X0529536Y0495457D01*
X0531250Y0493743D01*
X0529393Y0493743D01*
X0526679Y0496743D02*
X0528107Y0496743D01*
X0528250Y0495314D01*
X0528107Y0495457D01*
X0527822Y0495600D01*
X0527107Y0495600D01*
X0526822Y0495457D01*
X0526679Y0495314D01*
X0526536Y0495028D01*
X0526536Y0494314D01*
X0526679Y0494028D01*
X0526822Y0493885D01*
X0527107Y0493743D01*
X0527822Y0493743D01*
X0528107Y0493885D01*
X0528250Y0494028D01*
D335*
X0254347Y0281180D02*
X0250410Y0281180D01*
X0250410Y0279680D01*
X0250597Y0279305D01*
X0250785Y0279117D01*
X0251160Y0278930D01*
X0251722Y0278930D01*
X0252097Y0279117D01*
X0252284Y0279305D01*
X0252472Y0279680D01*
X0252472Y0281180D01*
X0250785Y0277430D02*
X0250597Y0277243D01*
X0250410Y0276868D01*
X0250410Y0275930D01*
X0250597Y0275555D01*
X0250785Y0275368D01*
X0251160Y0275180D01*
X0251535Y0275180D01*
X0252097Y0275368D01*
X0254347Y0277618D01*
X0254347Y0275180D01*
X0250410Y0272743D02*
X0250410Y0272368D01*
X0250597Y0271993D01*
X0250785Y0271806D01*
X0251160Y0271618D01*
X0251910Y0271431D01*
X0252847Y0271431D01*
X0253597Y0271618D01*
X0253972Y0271806D01*
X0254159Y0271993D01*
X0254347Y0272368D01*
X0254347Y0272743D01*
X0254159Y0273118D01*
X0253972Y0273306D01*
X0253597Y0273493D01*
X0252847Y0273681D01*
X0251910Y0273681D01*
X0251160Y0273493D01*
X0250785Y0273306D01*
X0250597Y0273118D01*
X0250410Y0272743D01*
X0254347Y0259132D02*
X0250410Y0259132D01*
X0250410Y0257633D01*
X0250597Y0257258D01*
X0250785Y0257070D01*
X0251160Y0256883D01*
X0251722Y0256883D01*
X0252097Y0257070D01*
X0252284Y0257258D01*
X0252472Y0257633D01*
X0252472Y0259132D01*
X0254347Y0253133D02*
X0254347Y0255383D01*
X0254347Y0254258D02*
X0250410Y0254258D01*
X0250972Y0254633D01*
X0251347Y0255008D01*
X0251535Y0255383D01*
X0252097Y0250883D02*
X0251910Y0251258D01*
X0251722Y0251446D01*
X0251347Y0251633D01*
X0251160Y0251633D01*
X0250785Y0251446D01*
X0250597Y0251258D01*
X0250410Y0250883D01*
X0250410Y0250134D01*
X0250597Y0249759D01*
X0250785Y0249571D01*
X0251160Y0249384D01*
X0251347Y0249384D01*
X0251722Y0249571D01*
X0251910Y0249759D01*
X0252097Y0250134D01*
X0252097Y0250883D01*
X0252284Y0251258D01*
X0252472Y0251446D01*
X0252847Y0251633D01*
X0253597Y0251633D01*
X0253972Y0251446D01*
X0254159Y0251258D01*
X0254347Y0250883D01*
X0254347Y0250134D01*
X0254159Y0249759D01*
X0253972Y0249571D01*
X0253597Y0249384D01*
X0252847Y0249384D01*
X0252472Y0249571D01*
X0252284Y0249759D01*
X0252097Y0250134D01*
X0312760Y0303457D02*
X0312760Y0307394D01*
X0311260Y0307394D01*
X0310885Y0307206D01*
X0310697Y0307019D01*
X0310510Y0306644D01*
X0310510Y0306081D01*
X0310697Y0305706D01*
X0310885Y0305519D01*
X0311260Y0305331D01*
X0312760Y0305331D01*
X0309198Y0307394D02*
X0306760Y0307394D01*
X0308073Y0305894D01*
X0307510Y0305894D01*
X0307135Y0305706D01*
X0306948Y0305519D01*
X0306760Y0305144D01*
X0306760Y0304206D01*
X0306948Y0303831D01*
X0307135Y0303644D01*
X0307510Y0303457D01*
X0308635Y0303457D01*
X0309010Y0303644D01*
X0309198Y0303831D01*
X0303386Y0307394D02*
X0304136Y0307394D01*
X0304511Y0307206D01*
X0304698Y0307019D01*
X0305073Y0306456D01*
X0305261Y0305706D01*
X0305261Y0304206D01*
X0305073Y0303831D01*
X0304886Y0303644D01*
X0304511Y0303457D01*
X0303761Y0303457D01*
X0303386Y0303644D01*
X0303198Y0303831D01*
X0303011Y0304206D01*
X0303011Y0305144D01*
X0303198Y0305519D01*
X0303386Y0305706D01*
X0303761Y0305894D01*
X0304511Y0305894D01*
X0304886Y0305706D01*
X0305073Y0305519D01*
X0305261Y0305144D01*
D322*
X0500065Y0494038D02*
X0501065Y0495466D01*
X0501779Y0494038D02*
X0501779Y0497038D01*
X0500637Y0497038D01*
X0500351Y0496895D01*
X0500208Y0496752D01*
X0500065Y0496466D01*
X0500065Y0496038D01*
X0500208Y0495752D01*
X0500351Y0495609D01*
X0500637Y0495466D01*
X0501779Y0495466D01*
X0498922Y0496752D02*
X0498779Y0496895D01*
X0498494Y0497038D01*
X0497779Y0497038D01*
X0497494Y0496895D01*
X0497351Y0496752D01*
X0497208Y0496466D01*
X0497208Y0496181D01*
X0497351Y0495752D01*
X0499065Y0494038D01*
X0497208Y0494038D01*
X0496208Y0497038D02*
X0494208Y0497038D01*
X0495494Y0494038D01*
D335*
X0354295Y0500209D02*
X0354295Y0504146D01*
X0352795Y0504146D01*
X0352420Y0503958D01*
X0352233Y0503771D01*
X0352045Y0503396D01*
X0352045Y0502833D01*
X0352233Y0502458D01*
X0352420Y0502271D01*
X0352795Y0502083D01*
X0354295Y0502083D01*
X0348671Y0502833D02*
X0348671Y0500209D01*
X0349608Y0504333D02*
X0350546Y0501521D01*
X0348108Y0501521D01*
X0344546Y0500209D02*
X0346796Y0500209D01*
X0345671Y0500209D02*
X0345671Y0504146D01*
X0346046Y0503583D01*
X0346421Y0503208D01*
X0346796Y0503021D01*
X0478508Y0478850D02*
X0478508Y0482787D01*
X0477008Y0482787D01*
X0476633Y0482600D01*
X0476445Y0482412D01*
X0476258Y0482037D01*
X0476258Y0481475D01*
X0476445Y0481100D01*
X0476633Y0480912D01*
X0477008Y0480725D01*
X0478508Y0480725D01*
X0472696Y0482787D02*
X0474571Y0482787D01*
X0474758Y0480912D01*
X0474571Y0481100D01*
X0474196Y0481287D01*
X0473258Y0481287D01*
X0472883Y0481100D01*
X0472696Y0480912D01*
X0472508Y0480538D01*
X0472508Y0479600D01*
X0472696Y0479225D01*
X0472883Y0479038D01*
X0473258Y0478850D01*
X0474196Y0478850D01*
X0474571Y0479038D01*
X0474758Y0479225D01*
X0471196Y0482787D02*
X0468759Y0482787D01*
X0470071Y0481287D01*
X0469509Y0481287D01*
X0469134Y0481100D01*
X0468946Y0480912D01*
X0468759Y0480538D01*
X0468759Y0479600D01*
X0468946Y0479225D01*
X0469134Y0479038D01*
X0469509Y0478850D01*
X0470634Y0478850D01*
X0471009Y0479038D01*
X0471196Y0479225D01*
X0342386Y0516153D02*
X0342386Y0520090D01*
X0340886Y0520090D01*
X0340511Y0519903D01*
X0340323Y0519715D01*
X0340136Y0519340D01*
X0340136Y0518778D01*
X0340323Y0518403D01*
X0340511Y0518216D01*
X0340886Y0518028D01*
X0342386Y0518028D01*
X0336761Y0518778D02*
X0336761Y0516153D01*
X0337699Y0520278D02*
X0338636Y0517466D01*
X0336199Y0517466D01*
X0334887Y0519715D02*
X0334699Y0519903D01*
X0334324Y0520090D01*
X0333387Y0520090D01*
X0333012Y0519903D01*
X0332824Y0519715D01*
X0332637Y0519340D01*
X0332637Y0518966D01*
X0332824Y0518403D01*
X0335074Y0516153D01*
X0332637Y0516153D01*
D322*
X0074573Y0487837D02*
X0075573Y0489266D01*
X0076287Y0487837D02*
X0076287Y0490837D01*
X0075144Y0490837D01*
X0074859Y0490694D01*
X0074716Y0490551D01*
X0074573Y0490266D01*
X0074573Y0489837D01*
X0074716Y0489551D01*
X0074859Y0489409D01*
X0075144Y0489266D01*
X0076287Y0489266D01*
X0073573Y0490837D02*
X0071716Y0490837D01*
X0072716Y0489694D01*
X0072287Y0489694D01*
X0072002Y0489551D01*
X0071859Y0489409D01*
X0071716Y0489123D01*
X0071716Y0488409D01*
X0071859Y0488123D01*
X0072002Y0487980D01*
X0072287Y0487837D01*
X0073144Y0487837D01*
X0073430Y0487980D01*
X0073573Y0488123D01*
X0070287Y0487837D02*
X0069716Y0487837D01*
X0069430Y0487980D01*
X0069287Y0488123D01*
X0069002Y0488551D01*
X0068859Y0489123D01*
X0068859Y0490266D01*
X0069002Y0490551D01*
X0069144Y0490694D01*
X0069430Y0490837D01*
X0070002Y0490837D01*
X0070287Y0490694D01*
X0070430Y0490551D01*
X0070573Y0490266D01*
X0070573Y0489551D01*
X0070430Y0489266D01*
X0070287Y0489123D01*
X0070002Y0488980D01*
X0069430Y0488980D01*
X0069144Y0489123D01*
X0069002Y0489266D01*
X0068859Y0489551D01*
D335*
X0326047Y0317827D02*
X0326047Y0321764D01*
X0324547Y0321764D01*
X0324172Y0321576D01*
X0323985Y0321389D01*
X0323797Y0321014D01*
X0323797Y0320451D01*
X0323985Y0320076D01*
X0324172Y0319889D01*
X0324547Y0319701D01*
X0326047Y0319701D01*
X0322485Y0321764D02*
X0320048Y0321764D01*
X0321360Y0320264D01*
X0320798Y0320264D01*
X0320423Y0320076D01*
X0320235Y0319889D01*
X0320048Y0319514D01*
X0320048Y0318577D01*
X0320235Y0318202D01*
X0320423Y0318014D01*
X0320798Y0317827D01*
X0321923Y0317827D01*
X0322298Y0318014D01*
X0322485Y0318202D01*
X0318736Y0321764D02*
X0316298Y0321764D01*
X0317611Y0320264D01*
X0317048Y0320264D01*
X0316673Y0320076D01*
X0316486Y0319889D01*
X0316298Y0319514D01*
X0316298Y0318577D01*
X0316486Y0318202D01*
X0316673Y0318014D01*
X0317048Y0317827D01*
X0318173Y0317827D01*
X0318548Y0318014D01*
X0318736Y0318202D01*
X0051886Y0490132D02*
X0047949Y0490132D01*
X0047949Y0488632D01*
X0048137Y0488257D01*
X0048324Y0488069D01*
X0048699Y0487882D01*
X0049261Y0487882D01*
X0049636Y0488069D01*
X0049824Y0488257D01*
X0050011Y0488632D01*
X0050011Y0490132D01*
X0047949Y0486570D02*
X0047949Y0483945D01*
X0051886Y0485632D01*
X0423488Y0334165D02*
X0423488Y0338102D01*
X0421988Y0338102D01*
X0421613Y0337915D01*
X0421426Y0337727D01*
X0421238Y0337352D01*
X0421238Y0336790D01*
X0421426Y0336415D01*
X0421613Y0336227D01*
X0421988Y0336040D01*
X0423488Y0336040D01*
X0419926Y0338102D02*
X0417489Y0338102D01*
X0418801Y0336602D01*
X0418239Y0336602D01*
X0417864Y0336415D01*
X0417676Y0336227D01*
X0417489Y0335852D01*
X0417489Y0334915D01*
X0417676Y0334540D01*
X0417864Y0334353D01*
X0418239Y0334165D01*
X0419364Y0334165D01*
X0419739Y0334353D01*
X0419926Y0334540D01*
X0415239Y0336415D02*
X0415614Y0336602D01*
X0415802Y0336790D01*
X0415989Y0337165D01*
X0415989Y0337352D01*
X0415802Y0337727D01*
X0415614Y0337915D01*
X0415239Y0338102D01*
X0414489Y0338102D01*
X0414114Y0337915D01*
X0413927Y0337727D01*
X0413739Y0337352D01*
X0413739Y0337165D01*
X0413927Y0336790D01*
X0414114Y0336602D01*
X0414489Y0336415D01*
X0415239Y0336415D01*
X0415614Y0336227D01*
X0415802Y0336040D01*
X0415989Y0335665D01*
X0415989Y0334915D01*
X0415802Y0334540D01*
X0415614Y0334353D01*
X0415239Y0334165D01*
X0414489Y0334165D01*
X0414114Y0334353D01*
X0413927Y0334540D01*
X0413739Y0334915D01*
X0413739Y0335665D01*
X0413927Y0336040D01*
X0414114Y0336227D01*
X0414489Y0336415D01*
X0433129Y0356016D02*
X0433129Y0359953D01*
X0431629Y0359953D01*
X0431254Y0359765D01*
X0431067Y0359578D01*
X0430879Y0359203D01*
X0430879Y0358640D01*
X0431067Y0358265D01*
X0431254Y0358078D01*
X0431629Y0357890D01*
X0433129Y0357890D01*
X0427130Y0356016D02*
X0429380Y0356016D01*
X0428255Y0356016D02*
X0428255Y0359953D01*
X0428630Y0359390D01*
X0429005Y0359015D01*
X0429380Y0358828D01*
D322*
X0466010Y0481144D02*
X0467010Y0482573D01*
X0467724Y0481144D02*
X0467724Y0484144D01*
X0466581Y0484144D01*
X0466296Y0484001D01*
X0466153Y0483858D01*
X0466010Y0483573D01*
X0466010Y0483144D01*
X0466153Y0482858D01*
X0466296Y0482716D01*
X0466581Y0482573D01*
X0467724Y0482573D01*
X0463439Y0483144D02*
X0463439Y0481144D01*
X0464153Y0484287D02*
X0464867Y0482144D01*
X0463010Y0482144D01*
X0460581Y0484144D02*
X0461153Y0484144D01*
X0461439Y0484001D01*
X0461581Y0483858D01*
X0461867Y0483430D01*
X0462010Y0482858D01*
X0462010Y0481716D01*
X0461867Y0481430D01*
X0461724Y0481287D01*
X0461439Y0481144D01*
X0460867Y0481144D01*
X0460581Y0481287D01*
X0460439Y0481430D01*
X0460296Y0481716D01*
X0460296Y0482430D01*
X0460439Y0482716D01*
X0460581Y0482858D01*
X0460867Y0483001D01*
X0461439Y0483001D01*
X0461724Y0482858D01*
X0461867Y0482716D01*
X0462010Y0482430D01*
D335*
X0125358Y0506508D02*
X0125358Y0510445D01*
X0123858Y0510445D01*
X0123483Y0510257D01*
X0123296Y0510070D01*
X0123108Y0509695D01*
X0123108Y0509132D01*
X0123296Y0508757D01*
X0123483Y0508570D01*
X0123858Y0508382D01*
X0125358Y0508382D01*
X0119734Y0509132D02*
X0119734Y0506508D01*
X0120671Y0510632D02*
X0121609Y0507820D01*
X0119171Y0507820D01*
X0117484Y0506508D02*
X0116734Y0506508D01*
X0116359Y0506695D01*
X0116172Y0506883D01*
X0115797Y0507445D01*
X0115609Y0508195D01*
X0115609Y0509695D01*
X0115797Y0510070D01*
X0115984Y0510257D01*
X0116359Y0510445D01*
X0117109Y0510445D01*
X0117484Y0510257D01*
X0117672Y0510070D01*
X0117859Y0509695D01*
X0117859Y0508757D01*
X0117672Y0508382D01*
X0117484Y0508195D01*
X0117109Y0508008D01*
X0116359Y0508008D01*
X0115984Y0508195D01*
X0115797Y0508382D01*
X0115609Y0508757D01*
X0468960Y0169303D02*
X0468960Y0173240D01*
X0467461Y0173240D01*
X0467086Y0173053D01*
X0466898Y0172865D01*
X0466711Y0172490D01*
X0466711Y0171928D01*
X0466898Y0171553D01*
X0467086Y0171365D01*
X0467461Y0171178D01*
X0468960Y0171178D01*
X0465398Y0173240D02*
X0462961Y0173240D01*
X0464274Y0171740D01*
X0463711Y0171740D01*
X0463336Y0171553D01*
X0463149Y0171365D01*
X0462961Y0170990D01*
X0462961Y0170053D01*
X0463149Y0169678D01*
X0463336Y0169490D01*
X0463711Y0169303D01*
X0464836Y0169303D01*
X0465211Y0169490D01*
X0465398Y0169678D01*
X0459212Y0169303D02*
X0461461Y0169303D01*
X0460337Y0169303D02*
X0460337Y0173240D01*
X0460712Y0172678D01*
X0461086Y0172303D01*
X0461461Y0172115D01*
D322*
X0516607Y0467583D02*
X0517607Y0469011D01*
X0518321Y0467583D02*
X0518321Y0470583D01*
X0517179Y0470583D01*
X0516893Y0470440D01*
X0516750Y0470297D01*
X0516607Y0470011D01*
X0516607Y0469583D01*
X0516750Y0469297D01*
X0516893Y0469154D01*
X0517179Y0469011D01*
X0518321Y0469011D01*
X0513750Y0467583D02*
X0515464Y0467583D01*
X0514607Y0467583D02*
X0514607Y0470583D01*
X0514893Y0470154D01*
X0515179Y0469868D01*
X0515464Y0469725D01*
X0512607Y0470297D02*
X0512464Y0470440D01*
X0512179Y0470583D01*
X0511464Y0470583D01*
X0511179Y0470440D01*
X0511036Y0470297D01*
X0510893Y0470011D01*
X0510893Y0469725D01*
X0511036Y0469297D01*
X0512750Y0467583D01*
X0510893Y0467583D01*
D335*
X0350161Y0333378D02*
X0350161Y0337315D01*
X0348661Y0337315D01*
X0348287Y0337127D01*
X0348099Y0336940D01*
X0347912Y0336565D01*
X0347912Y0336002D01*
X0348099Y0335628D01*
X0348287Y0335440D01*
X0348661Y0335253D01*
X0350161Y0335253D01*
X0344537Y0336002D02*
X0344537Y0333378D01*
X0345474Y0337502D02*
X0346412Y0334690D01*
X0343975Y0334690D01*
X0342850Y0337315D02*
X0340413Y0337315D01*
X0341725Y0335815D01*
X0341162Y0335815D01*
X0340787Y0335628D01*
X0340600Y0335440D01*
X0340413Y0335065D01*
X0340413Y0334128D01*
X0340600Y0333753D01*
X0340787Y0333565D01*
X0341162Y0333378D01*
X0342287Y0333378D01*
X0342662Y0333565D01*
X0342850Y0333753D01*
X0309118Y0522256D02*
X0309118Y0526193D01*
X0307618Y0526193D01*
X0307243Y0526005D01*
X0307056Y0525818D01*
X0306868Y0525443D01*
X0306868Y0524880D01*
X0307056Y0524505D01*
X0307243Y0524318D01*
X0307618Y0524131D01*
X0309118Y0524131D01*
X0303494Y0524880D02*
X0303494Y0522256D01*
X0304431Y0526380D02*
X0305368Y0523568D01*
X0302931Y0523568D01*
X0299557Y0526193D02*
X0301431Y0526193D01*
X0301619Y0524318D01*
X0301431Y0524505D01*
X0301056Y0524693D01*
X0300119Y0524693D01*
X0299744Y0524505D01*
X0299557Y0524318D01*
X0299369Y0523943D01*
X0299369Y0523006D01*
X0299557Y0522631D01*
X0299744Y0522443D01*
X0300119Y0522256D01*
X0301056Y0522256D01*
X0301431Y0522443D01*
X0301619Y0522631D01*
D322*
X0330478Y0506538D02*
X0331478Y0507966D01*
X0332193Y0506538D02*
X0332193Y0509538D01*
X0331050Y0509538D01*
X0330764Y0509395D01*
X0330621Y0509252D01*
X0330478Y0508966D01*
X0330478Y0508538D01*
X0330621Y0508252D01*
X0330764Y0508109D01*
X0331050Y0507966D01*
X0332193Y0507966D01*
X0327621Y0506538D02*
X0329336Y0506538D01*
X0328478Y0506538D02*
X0328478Y0509538D01*
X0328764Y0509109D01*
X0329050Y0508824D01*
X0329336Y0508681D01*
X0325907Y0508252D02*
X0326193Y0508395D01*
X0326336Y0508538D01*
X0326478Y0508824D01*
X0326478Y0508966D01*
X0326336Y0509252D01*
X0326193Y0509395D01*
X0325907Y0509538D01*
X0325336Y0509538D01*
X0325050Y0509395D01*
X0324907Y0509252D01*
X0324764Y0508966D01*
X0324764Y0508824D01*
X0324907Y0508538D01*
X0325050Y0508395D01*
X0325336Y0508252D01*
X0325907Y0508252D01*
X0326193Y0508109D01*
X0326336Y0507966D01*
X0326478Y0507681D01*
X0326478Y0507109D01*
X0326336Y0506824D01*
X0326193Y0506681D01*
X0325907Y0506538D01*
X0325336Y0506538D01*
X0325050Y0506681D01*
X0324907Y0506824D01*
X0324764Y0507109D01*
X0324764Y0507681D01*
X0324907Y0507966D01*
X0325050Y0508109D01*
X0325336Y0508252D01*
D335*
X0134905Y0480425D02*
X0134905Y0484362D01*
X0133406Y0484362D01*
X0133031Y0484175D01*
X0132843Y0483987D01*
X0132656Y0483612D01*
X0132656Y0483050D01*
X0132843Y0482675D01*
X0133031Y0482487D01*
X0133406Y0482300D01*
X0134905Y0482300D01*
X0129094Y0484362D02*
X0130968Y0484362D01*
X0131156Y0482487D01*
X0130968Y0482675D01*
X0130593Y0482862D01*
X0129656Y0482862D01*
X0129281Y0482675D01*
X0129094Y0482487D01*
X0128906Y0482112D01*
X0128906Y0481175D01*
X0129094Y0480800D01*
X0129281Y0480613D01*
X0129656Y0480425D01*
X0130593Y0480425D01*
X0130968Y0480613D01*
X0131156Y0480800D01*
X0125157Y0480425D02*
X0127406Y0480425D01*
X0126281Y0480425D02*
X0126281Y0484362D01*
X0126656Y0483800D01*
X0127031Y0483425D01*
X0127406Y0483237D01*
D322*
X0045593Y0529172D02*
X0046593Y0529172D01*
X0046593Y0527601D02*
X0046593Y0530601D01*
X0045165Y0530601D01*
X0044165Y0530315D02*
X0044022Y0530458D01*
X0043736Y0530601D01*
X0043022Y0530601D01*
X0042736Y0530458D01*
X0042593Y0530315D01*
X0042450Y0530029D01*
X0042450Y0529744D01*
X0042593Y0529315D01*
X0044308Y0527601D01*
X0042450Y0527601D01*
D199*
X0298400Y0017008D02*
X0355295Y0017008D01*
X0355295Y0017008D02*
X0355295Y0026891D01*
X0358242Y0026891D02*
X0358242Y0076358D01*
X0284030Y0067303D02*
X0284030Y0077146D01*
X0284030Y0067303D02*
X0296628Y0067303D01*
X0298400Y0017008D02*
X0298400Y0065532D01*
X0284030Y0077146D02*
X0357455Y0077146D01*
X0355295Y0026891D02*
X0358242Y0026891D01*
X0296628Y0067303D02*
X0298400Y0065532D01*
X0422486Y0353617D02*
X0350537Y0353617D01*
X0395911Y0339542D02*
X0393057Y0336688D01*
X0350537Y0353617D02*
X0350537Y0339542D01*
X0422486Y0353617D02*
X0422486Y0339542D01*
X0422486Y0339542D02*
X0395911Y0339542D01*
X0371010Y0336688D02*
X0368155Y0339542D01*
X0368155Y0339542D02*
X0350537Y0339542D01*
X0393057Y0336688D02*
X0371010Y0336688D01*
D85*
X0192222Y0504749D02*
X0192222Y0508749D01*
X0185923Y0516749D02*
X0185923Y0512749D01*
X0185923Y0508749D02*
X0185923Y0504749D01*
X0192222Y0512749D02*
X0192222Y0516749D01*
D146*
X0192229Y0504533D02*
G75*
G02*
X0185923Y0504549I-003156J-001283D01*
G01*
X0192236Y0516984D02*
G75*
G03*
X0185923Y0516950I-003163J0001265D01*
G01*
X0249318Y0146615D02*
X0250521Y0146615D01*
X0250521Y0146615D02*
X0250521Y0136143D01*
X0249362Y0136143D02*
X0250521Y0136143D01*
X0240049Y0136143D02*
X0240049Y0146615D01*
X0241208Y0146615D02*
X0240049Y0146615D01*
X0241252Y0136143D02*
X0240049Y0136143D01*
X0250521Y0176151D02*
X0250521Y0165679D01*
X0240049Y0165679D02*
X0240049Y0176151D01*
X0241252Y0165679D02*
X0240049Y0165679D01*
X0249362Y0165679D02*
X0250521Y0165679D01*
X0241208Y0176151D02*
X0240049Y0176151D01*
X0249318Y0176151D02*
X0250521Y0176151D01*
X0126387Y0521261D02*
X0125184Y0521261D01*
X0135656Y0531734D02*
X0135656Y0521261D01*
X0134453Y0531734D02*
X0135656Y0531734D01*
X0134497Y0521261D02*
X0135656Y0521261D01*
X0126343Y0531734D02*
X0125184Y0531734D01*
X0125184Y0521261D02*
X0125184Y0531734D01*
X0451463Y0509647D02*
X0451463Y0520119D01*
X0460776Y0509647D02*
X0461936Y0509647D01*
X0452623Y0520119D02*
X0451463Y0520119D01*
X0460732Y0520119D02*
X0461936Y0520119D01*
X0452667Y0509647D02*
X0451463Y0509647D01*
X0461936Y0520119D02*
X0461936Y0509647D01*
X0349396Y0404234D02*
X0349396Y0414706D01*
X0358710Y0404234D02*
X0359869Y0404234D01*
X0358666Y0414706D02*
X0359869Y0414706D01*
X0350600Y0404234D02*
X0349396Y0404234D01*
X0350556Y0414706D02*
X0349396Y0414706D01*
X0359869Y0414706D02*
X0359869Y0404234D01*
X0075567Y0221549D02*
X0103567Y0221549D01*
X0103567Y0221549D02*
X0103567Y0173549D01*
X0103567Y0173549D02*
X0075567Y0173549D01*
X0075567Y0173549D02*
X0075567Y0221549D01*
X0346564Y0521064D02*
X0345361Y0521064D01*
X0354630Y0531537D02*
X0355833Y0531537D01*
X0355833Y0531537D02*
X0355833Y0521064D01*
X0346520Y0531537D02*
X0345361Y0531537D01*
X0345361Y0521064D02*
X0345361Y0531537D01*
X0354674Y0521064D02*
X0355833Y0521064D01*
D85*
X0216837Y0516651D02*
X0216837Y0512651D01*
X0216837Y0508651D02*
X0216837Y0504651D01*
X0223137Y0512651D02*
X0223137Y0516651D01*
X0223137Y0504651D02*
X0223137Y0508651D01*
D146*
X0223150Y0516886D02*
G75*
G03*
X0216837Y0516852I-003163J0001265D01*
G01*
X0223143Y0504434D02*
G75*
G02*
X0216837Y0504450I-003156J-001283D01*
G01*
X0120969Y0316281D02*
X0122172Y0316281D01*
X0112903Y0305808D02*
X0111700Y0305808D01*
X0122172Y0316281D02*
X0122172Y0305808D01*
X0111700Y0305808D02*
X0111700Y0316281D01*
X0112859Y0316281D02*
X0111700Y0316281D01*
X0121013Y0305808D02*
X0122172Y0305808D01*
X0045567Y0171549D02*
X0073567Y0171549D01*
X0073567Y0171549D02*
X0073567Y0123549D01*
X0073567Y0123549D02*
X0045567Y0123549D01*
X0045567Y0123549D02*
X0045567Y0171549D01*
X0471953Y0520021D02*
X0473156Y0520021D01*
X0462684Y0509549D02*
X0462684Y0520021D01*
X0463887Y0509549D02*
X0462684Y0509549D01*
X0463843Y0520021D02*
X0462684Y0520021D01*
X0473156Y0520021D02*
X0473156Y0509549D01*
X0471997Y0509549D02*
X0473156Y0509549D01*
D199*
X0226437Y0220642D02*
X0226437Y0123201D01*
X0226971Y0284675D02*
X0226012Y0285634D01*
X0226971Y0221175D02*
X0226437Y0220642D01*
X0116299Y0284126D02*
X0116299Y0118870D01*
X0226012Y0285634D02*
X0117807Y0285634D01*
X0226437Y0123201D02*
X0220236Y0117000D01*
X0220236Y0117000D02*
X0118169Y0117000D01*
X0226971Y0284675D02*
X0226971Y0221175D01*
X0117807Y0285634D02*
X0116299Y0284126D01*
X0118169Y0117000D02*
X0116299Y0118870D01*
D146*
X0431129Y0520021D02*
X0431129Y0509549D01*
X0421816Y0520021D02*
X0420656Y0520021D01*
X0429969Y0509549D02*
X0431129Y0509549D01*
X0429925Y0520021D02*
X0431129Y0520021D01*
X0421859Y0509549D02*
X0420656Y0509549D01*
X0420656Y0509549D02*
X0420656Y0520021D01*
D85*
X0448727Y0498478D02*
X0448727Y0502478D01*
X0442428Y0502478D02*
X0442428Y0498478D01*
X0442428Y0494478D02*
X0442428Y0490478D01*
X0448727Y0490478D02*
X0448727Y0494478D01*
D146*
X0448741Y0502712D02*
G75*
G03*
X0442428Y0502679I-003163J0001265D01*
G01*
X0448734Y0490261D02*
G75*
G02*
X0442428Y0490277I-003156J-001283D01*
G01*
X0523314Y0483958D02*
X0523314Y0494430D01*
X0524517Y0483958D02*
X0523314Y0483958D01*
X0524473Y0494430D02*
X0523314Y0494430D01*
X0532627Y0483958D02*
X0533786Y0483958D01*
X0532583Y0494430D02*
X0533786Y0494430D01*
X0533786Y0494430D02*
X0533786Y0483958D01*
X0150600Y0510533D02*
X0149396Y0510533D01*
X0159869Y0521005D02*
X0159869Y0510533D01*
X0149396Y0510533D02*
X0149396Y0521005D01*
X0150556Y0521005D02*
X0149396Y0521005D01*
X0158710Y0510533D02*
X0159869Y0510533D01*
X0158666Y0521005D02*
X0159869Y0521005D01*
D85*
X0453058Y0494281D02*
X0453058Y0490281D01*
X0459357Y0490281D02*
X0459357Y0494281D01*
X0453058Y0502281D02*
X0453058Y0498281D01*
X0459357Y0498281D02*
X0459357Y0502281D01*
D146*
X0459371Y0502516D02*
G75*
G03*
X0453058Y0502482I-003163J0001265D01*
G01*
X0459363Y0490064D02*
G75*
G02*
X0453058Y0490080I-003156J-001283D01*
G01*
D85*
X0055125Y0504875D02*
X0055125Y0508875D01*
X0055125Y0496875D02*
X0055125Y0500875D01*
X0048826Y0500875D02*
X0048826Y0496875D01*
X0048826Y0508875D02*
X0048826Y0504875D01*
D146*
X0055138Y0509110D02*
G75*
G03*
X0048826Y0509076I-003163J0001265D01*
G01*
X0055131Y0496659D02*
G75*
G02*
X0048826Y0496675I-003156J-001283D01*
G01*
X0162065Y0531930D02*
X0160906Y0531930D01*
X0171378Y0531930D02*
X0171378Y0521458D01*
X0170219Y0521458D02*
X0171378Y0521458D01*
X0160906Y0521458D02*
X0160906Y0531930D01*
X0162109Y0521458D02*
X0160906Y0521458D01*
X0170175Y0531930D02*
X0171378Y0531930D01*
X0488471Y0483958D02*
X0488471Y0494430D01*
X0497740Y0494430D02*
X0498944Y0494430D01*
X0498944Y0494430D02*
X0498944Y0483958D01*
X0497784Y0483958D02*
X0498944Y0483958D01*
X0489674Y0483958D02*
X0488471Y0483958D01*
X0489630Y0494430D02*
X0488471Y0494430D01*
X0488685Y0451419D02*
X0489889Y0451419D01*
X0480619Y0440946D02*
X0479416Y0440946D01*
X0480575Y0451419D02*
X0479416Y0451419D01*
X0479416Y0440946D02*
X0479416Y0451419D01*
X0488729Y0440946D02*
X0489889Y0440946D01*
X0489889Y0451419D02*
X0489889Y0440946D01*
X0362428Y0322049D02*
X0351955Y0322049D01*
X0362428Y0331362D02*
X0362428Y0332521D01*
X0351955Y0331318D02*
X0351955Y0332521D01*
X0351955Y0323208D02*
X0351955Y0322049D01*
X0351955Y0332521D02*
X0362428Y0332521D01*
X0362428Y0323252D02*
X0362428Y0322049D01*
X0133589Y0304864D02*
X0133589Y0294391D01*
X0132430Y0294391D02*
X0133589Y0294391D01*
X0132386Y0304864D02*
X0133589Y0304864D01*
X0124276Y0304864D02*
X0123117Y0304864D01*
X0123117Y0294391D02*
X0123117Y0304864D01*
X0124320Y0294391D02*
X0123117Y0294391D01*
X0480024Y0167462D02*
X0481227Y0167462D01*
X0470755Y0156990D02*
X0470755Y0167462D01*
X0480068Y0156990D02*
X0481227Y0156990D01*
X0471914Y0167462D02*
X0470755Y0167462D01*
X0481227Y0167462D02*
X0481227Y0156990D01*
X0471958Y0156990D02*
X0470755Y0156990D01*
X0485656Y0519923D02*
X0485656Y0509450D01*
X0484453Y0519923D02*
X0485656Y0519923D01*
X0475184Y0509450D02*
X0475184Y0519923D01*
X0476387Y0509450D02*
X0475184Y0509450D01*
X0484497Y0509450D02*
X0485656Y0509450D01*
X0476343Y0519923D02*
X0475184Y0519923D01*
D85*
X0213491Y0504749D02*
X0213491Y0508749D01*
X0207192Y0508749D02*
X0207192Y0504749D01*
X0207192Y0516749D02*
X0207192Y0512749D01*
X0213491Y0512749D02*
X0213491Y0516749D01*
D146*
X0213505Y0516984D02*
G75*
G03*
X0207192Y0516950I-003163J0001265D01*
G01*
X0213497Y0504533D02*
G75*
G02*
X0207192Y0504549I-003156J-001283D01*
G01*
X0257096Y0260139D02*
X0255892Y0260139D01*
X0265162Y0270612D02*
X0266365Y0270612D01*
X0257052Y0270612D02*
X0255892Y0270612D01*
X0255892Y0260139D02*
X0255892Y0270612D01*
X0266365Y0270612D02*
X0266365Y0260139D01*
X0265206Y0260139D02*
X0266365Y0260139D01*
X0480068Y0145828D02*
X0481227Y0145828D01*
X0470755Y0145828D02*
X0470755Y0156300D01*
X0471914Y0156300D02*
X0470755Y0156300D01*
X0480024Y0156300D02*
X0481227Y0156300D01*
X0481227Y0156300D02*
X0481227Y0145828D01*
X0471958Y0145828D02*
X0470755Y0145828D01*
X0252316Y0165670D02*
X0251113Y0165670D01*
X0260382Y0176143D02*
X0261585Y0176143D01*
X0261585Y0176143D02*
X0261585Y0165670D01*
X0260426Y0165670D02*
X0261585Y0165670D01*
X0252272Y0176143D02*
X0251113Y0176143D01*
X0251113Y0165670D02*
X0251113Y0176143D01*
X0493038Y0156300D02*
X0493038Y0145828D01*
X0491879Y0145828D02*
X0493038Y0145828D01*
X0483725Y0156300D02*
X0482566Y0156300D01*
X0482566Y0145828D02*
X0482566Y0156300D01*
X0483769Y0145828D02*
X0482566Y0145828D01*
X0491835Y0156300D02*
X0493038Y0156300D01*
D199*
X0233599Y0411319D02*
X0232516Y0410236D01*
X0229071Y0410015D02*
X0229071Y0367322D01*
X0233599Y0411319D02*
X0256031Y0411319D01*
X0256031Y0411319D02*
X0256184Y0367322D01*
X0229268Y0410236D02*
X0229071Y0410015D01*
X0229268Y0410236D02*
X0232516Y0410236D01*
X0229047Y0367322D02*
X0256184Y0367322D01*
D85*
X0518018Y0506055D02*
X0518018Y0502055D01*
X0524318Y0510055D02*
X0524318Y0514055D01*
X0524318Y0502055D02*
X0524318Y0506055D01*
X0518018Y0514055D02*
X0518018Y0510055D01*
D146*
X0518005Y0501821D02*
G75*
G03*
X0524318Y0501854I0003163J-001265D01*
G01*
X0518012Y0514272D02*
G75*
G02*
X0524318Y0514256I0003156J0001283D01*
G01*
X0446837Y0325986D02*
X0446837Y0336458D01*
X0448041Y0325986D02*
X0446837Y0325986D01*
X0447997Y0336458D02*
X0446837Y0336458D01*
X0456150Y0325986D02*
X0457310Y0325986D01*
X0456107Y0336458D02*
X0457310Y0336458D01*
X0457310Y0336458D02*
X0457310Y0325986D01*
X0015567Y0221549D02*
X0043567Y0221549D01*
X0043567Y0221549D02*
X0043567Y0173549D01*
X0043567Y0173549D02*
X0015567Y0173549D01*
X0015567Y0173549D02*
X0015567Y0221549D01*
X0420066Y0498328D02*
X0420066Y0508801D01*
X0429335Y0508801D02*
X0430538Y0508801D01*
X0421225Y0508801D02*
X0420066Y0508801D01*
X0430538Y0508801D02*
X0430538Y0498328D01*
X0421269Y0498328D02*
X0420066Y0498328D01*
X0429379Y0498328D02*
X0430538Y0498328D01*
D85*
X0479140Y0501887D02*
X0479140Y0497887D01*
X0485440Y0489887D02*
X0485440Y0493887D01*
X0485440Y0497887D02*
X0485440Y0501887D01*
X0479140Y0493887D02*
X0479140Y0489887D01*
D146*
X0485446Y0489671D02*
G75*
G02*
X0479140Y0489686I-003156J-001283D01*
G01*
X0485453Y0502122D02*
G75*
G03*
X0479140Y0502088I-003163J0001265D01*
G01*
X0184163Y0295966D02*
X0182959Y0295966D01*
X0192229Y0306438D02*
X0193432Y0306438D01*
X0184119Y0306438D02*
X0182959Y0306438D01*
X0193432Y0306438D02*
X0193432Y0295966D01*
X0182959Y0295966D02*
X0182959Y0306438D01*
X0192273Y0295966D02*
X0193432Y0295966D01*
X0277684Y0238092D02*
X0267211Y0238092D01*
X0277684Y0247405D02*
X0277684Y0248564D01*
X0277684Y0239295D02*
X0277684Y0238092D01*
X0267211Y0239251D02*
X0267211Y0238092D01*
X0267211Y0248564D02*
X0277684Y0248564D01*
X0267211Y0247361D02*
X0267211Y0248564D01*
D199*
X0435506Y0077475D02*
X0435506Y0074227D01*
X0436589Y0073144D02*
X0436589Y0050712D01*
X0435506Y0077475D02*
X0435285Y0077671D01*
X0436589Y0050712D02*
X0392593Y0050559D01*
X0435285Y0077671D02*
X0392593Y0077671D01*
X0392593Y0077696D02*
X0392593Y0050559D01*
X0436589Y0073144D02*
X0435506Y0074227D01*
D146*
X0120969Y0304864D02*
X0122172Y0304864D01*
X0112903Y0294391D02*
X0111700Y0294391D01*
X0111700Y0294391D02*
X0111700Y0304864D01*
X0112859Y0304864D02*
X0111700Y0304864D01*
X0122172Y0304864D02*
X0122172Y0294391D01*
X0121013Y0294391D02*
X0122172Y0294391D01*
X0075540Y0525198D02*
X0076700Y0525198D01*
X0076700Y0535671D02*
X0076700Y0525198D01*
X0075496Y0535671D02*
X0076700Y0535671D01*
X0067430Y0525198D02*
X0066227Y0525198D01*
X0066227Y0525198D02*
X0066227Y0535671D01*
X0067386Y0535671D02*
X0066227Y0535671D01*
D85*
X0093863Y0504773D02*
X0093863Y0508773D01*
X0093863Y0496773D02*
X0093863Y0500773D01*
X0087564Y0500773D02*
X0087564Y0496773D01*
X0087564Y0508773D02*
X0087564Y0504773D01*
D146*
X0093877Y0509008D02*
G75*
G03*
X0087564Y0508974I-003163J0001265D01*
G01*
X0093870Y0496557D02*
G75*
G02*
X0087564Y0496573I-003156J-001283D01*
G01*
D199*
X0184366Y0111422D02*
X0184470Y0111526D01*
X0184366Y0046237D02*
X0184366Y0111422D01*
X0225315Y0046536D02*
X0225315Y0110898D01*
X0225315Y0110898D02*
X0224788Y0111426D01*
X0224788Y0111426D02*
X0184470Y0111526D01*
X0219307Y0040528D02*
X0190075Y0040528D01*
X0219307Y0040528D02*
X0225315Y0046536D01*
X0190075Y0040528D02*
X0184366Y0046237D01*
D146*
X0442448Y0520021D02*
X0442448Y0509549D01*
X0433178Y0509549D02*
X0431975Y0509549D01*
X0441244Y0520021D02*
X0442448Y0520021D01*
X0433134Y0520021D02*
X0431975Y0520021D01*
X0441288Y0509549D02*
X0442448Y0509549D01*
X0431975Y0509549D02*
X0431975Y0520021D01*
X0316938Y0292324D02*
X0315735Y0292324D01*
X0326207Y0302797D02*
X0326207Y0292324D01*
X0325004Y0302797D02*
X0326207Y0302797D01*
X0315735Y0292324D02*
X0315735Y0302797D01*
X0325048Y0292324D02*
X0326207Y0292324D01*
X0316894Y0302797D02*
X0315735Y0302797D01*
X0483725Y0167462D02*
X0482566Y0167462D01*
X0482566Y0156990D02*
X0482566Y0167462D01*
X0491835Y0167462D02*
X0493038Y0167462D01*
X0491879Y0156990D02*
X0493038Y0156990D01*
X0483769Y0156990D02*
X0482566Y0156990D01*
X0493038Y0167462D02*
X0493038Y0156990D01*
X0375343Y0509745D02*
X0376503Y0509745D01*
X0367233Y0509745D02*
X0366030Y0509745D01*
X0367190Y0520218D02*
X0366030Y0520218D01*
X0375299Y0520218D02*
X0376503Y0520218D01*
X0366030Y0509745D02*
X0366030Y0520218D01*
X0376503Y0520218D02*
X0376503Y0509745D01*
X0015567Y0121549D02*
X0043567Y0121549D01*
X0043567Y0121549D02*
X0043567Y0073549D01*
X0043567Y0073549D02*
X0015567Y0073549D01*
X0015567Y0073549D02*
X0015567Y0121549D01*
D199*
X0336762Y0240197D02*
X0334794Y0242165D01*
X0456054Y0291083D02*
X0449951Y0297185D01*
X0454479Y0240197D02*
X0336762Y0240197D01*
X0338436Y0297185D02*
X0334794Y0293543D01*
X0456054Y0241772D02*
X0454479Y0240197D01*
X0449951Y0297185D02*
X0338416Y0297185D01*
X0334794Y0293543D02*
X0334794Y0242165D01*
X0456054Y0291083D02*
X0456054Y0241772D01*
D85*
X0062900Y0496875D02*
X0062900Y0500875D01*
X0062900Y0504875D02*
X0062900Y0508875D01*
X0056601Y0500875D02*
X0056601Y0496875D01*
X0056601Y0508875D02*
X0056601Y0504875D01*
D146*
X0062907Y0496659D02*
G75*
G02*
X0056601Y0496675I-003156J-001283D01*
G01*
X0062914Y0509110D02*
G75*
G03*
X0056601Y0509076I-003163J0001265D01*
G01*
D85*
X0513294Y0510190D02*
X0513294Y0514190D01*
X0506995Y0506190D02*
X0506995Y0502190D01*
X0513294Y0502190D02*
X0513294Y0506190D01*
X0506995Y0514190D02*
X0506995Y0510190D01*
D146*
X0513300Y0501974D02*
G75*
G02*
X0506995Y0501990I-003156J-001283D01*
G01*
X0513308Y0514425D02*
G75*
G03*
X0506995Y0514391I-003163J0001265D01*
G01*
D199*
X0275073Y0086275D02*
X0274190Y0087158D01*
X0454649Y0083519D02*
X0283833Y0083519D01*
X0281077Y0086275D02*
X0275073Y0086275D01*
X0456569Y0085439D02*
X0454649Y0083519D01*
X0275538Y0229775D02*
X0274190Y0228427D01*
X0454329Y0229775D02*
X0275538Y0229775D01*
X0283833Y0083519D02*
X0281077Y0086275D01*
X0456569Y0227535D02*
X0454329Y0229775D01*
X0456569Y0085439D02*
X0456569Y0227535D01*
X0274190Y0087158D02*
X0274190Y0228427D01*
D146*
X0138176Y0521261D02*
X0138176Y0531734D01*
X0139335Y0531734D02*
X0138176Y0531734D01*
X0147489Y0521261D02*
X0148648Y0521261D01*
X0148648Y0531734D02*
X0148648Y0521261D01*
X0147445Y0531734D02*
X0148648Y0531734D01*
X0139379Y0521261D02*
X0138176Y0521261D01*
D85*
X0503255Y0480600D02*
X0503255Y0476600D01*
X0509554Y0476600D02*
X0509554Y0480600D01*
X0509554Y0484600D02*
X0509554Y0488600D01*
X0503255Y0488600D02*
X0503255Y0484600D01*
D146*
X0509560Y0476383D02*
G75*
G02*
X0503255Y0476399I-003156J-001283D01*
G01*
X0509568Y0488834D02*
G75*
G03*
X0503255Y0488801I-003163J0001265D01*
G01*
X0469416Y0156300D02*
X0469416Y0145828D01*
X0468213Y0156300D02*
X0469416Y0156300D01*
X0460103Y0156300D02*
X0458944Y0156300D01*
X0468257Y0145828D02*
X0469416Y0145828D01*
X0458944Y0145828D02*
X0458944Y0156300D01*
X0460147Y0145828D02*
X0458944Y0145828D01*
X0366030Y0522224D02*
X0366030Y0521064D01*
X0376503Y0530377D02*
X0376503Y0531537D01*
X0366030Y0530334D02*
X0366030Y0531537D01*
X0376503Y0522268D02*
X0376503Y0521064D01*
X0366030Y0531537D02*
X0376503Y0531537D01*
X0376503Y0521064D02*
X0366030Y0521064D01*
X0045567Y0221549D02*
X0073567Y0221549D01*
X0073567Y0221549D02*
X0073567Y0173549D01*
X0073567Y0173549D02*
X0045567Y0173549D01*
X0045567Y0173549D02*
X0045567Y0221549D01*
X0183353Y0305808D02*
X0183353Y0316281D01*
X0192666Y0305808D02*
X0193826Y0305808D01*
X0184512Y0316281D02*
X0183353Y0316281D01*
X0192622Y0316281D02*
X0193826Y0316281D01*
X0193826Y0316281D02*
X0193826Y0305808D01*
X0184556Y0305808D02*
X0183353Y0305808D01*
D199*
X0092964Y0415094D02*
X0056842Y0415094D01*
X0113732Y0438815D02*
X0096409Y0438815D01*
X0092964Y0415094D02*
X0093456Y0415587D01*
X0117964Y0478776D02*
X0056842Y0478776D01*
X0093456Y0435862D02*
X0096409Y0438815D01*
X0056842Y0415094D02*
X0056842Y0478776D01*
X0113732Y0438815D02*
X0117964Y0443047D01*
X0117964Y0443047D02*
X0117964Y0478776D01*
X0093456Y0415587D02*
X0093456Y0435862D01*
D146*
X0075567Y0171549D02*
X0103567Y0171549D01*
X0103567Y0171549D02*
X0103567Y0123549D01*
X0103567Y0123549D02*
X0075567Y0123549D01*
X0075567Y0123549D02*
X0075567Y0171549D01*
D199*
X0259350Y0521654D02*
X0318012Y0521654D01*
X0318012Y0521654D02*
X0318012Y0367520D01*
X0318012Y0367520D02*
X0259350Y0367520D01*
X0259350Y0367520D02*
X0259350Y0521654D01*
D146*
X0183862Y0521301D02*
X0185066Y0521301D01*
X0175753Y0521301D02*
X0174593Y0521301D01*
X0174593Y0510828D02*
X0174593Y0521301D01*
X0183906Y0510828D02*
X0185066Y0510828D01*
X0185066Y0521301D02*
X0185066Y0510828D01*
X0175796Y0510828D02*
X0174593Y0510828D01*
X0102264Y0517323D02*
X0083169Y0517323D01*
X0102264Y0525197D02*
X0083169Y0525197D01*
X0083169Y0517323D02*
G75*
G02*
X0083169Y0525197I0000000J0003937D01*
G01*
X0102461Y0525197D02*
G75*
G02*
X0102461Y0517323I0000000J-003937D01*
G01*
X0102461Y0534646D02*
X0083366Y0534646D01*
X0102461Y0526772D02*
X0083366Y0526772D01*
X0102657Y0534646D02*
G75*
G02*
X0102657Y0526772I0000000J-003937D01*
G01*
X0083366Y0526772D02*
G75*
G02*
X0083366Y0534646I0000000J0003937D01*
G01*
X0015567Y0171549D02*
X0043567Y0171549D01*
X0043567Y0171549D02*
X0043567Y0123549D01*
X0043567Y0123549D02*
X0015567Y0123549D01*
X0015567Y0123549D02*
X0015567Y0171549D01*
D85*
X0096028Y0500695D02*
X0096028Y0496695D01*
X0096028Y0508695D02*
X0096028Y0504695D01*
X0102328Y0496695D02*
X0102328Y0500695D01*
X0102328Y0504695D02*
X0102328Y0508695D01*
D146*
X0102341Y0508929D02*
G75*
G03*
X0096028Y0508895I-003163J0001265D01*
G01*
X0102334Y0496478D02*
G75*
G02*
X0096028Y0496494I-003156J-001283D01*
G01*
X0124276Y0316198D02*
X0123117Y0316198D01*
X0132430Y0305725D02*
X0133589Y0305725D01*
X0132386Y0316198D02*
X0133589Y0316198D01*
X0123117Y0305725D02*
X0123117Y0316198D01*
X0124320Y0305725D02*
X0123117Y0305725D01*
X0133589Y0316198D02*
X0133589Y0305725D01*
D85*
X0078706Y0508872D02*
X0078706Y0504872D01*
X0085005Y0504872D02*
X0085005Y0508872D01*
X0078706Y0500872D02*
X0078706Y0496872D01*
X0085005Y0496872D02*
X0085005Y0500872D01*
D146*
X0085011Y0496655D02*
G75*
G02*
X0078706Y0496671I-003156J-001283D01*
G01*
X0085019Y0509106D02*
G75*
G03*
X0078706Y0509073I-003163J0001265D01*
G01*
D85*
X0356601Y0519379D02*
X0356601Y0515379D01*
X0362900Y0523379D02*
X0362900Y0527379D01*
X0356601Y0527379D02*
X0356601Y0523379D01*
X0362900Y0515379D02*
X0362900Y0519379D01*
D146*
X0362907Y0515163D02*
G75*
G02*
X0356601Y0515179I-003156J-001283D01*
G01*
X0362914Y0527614D02*
G75*
G03*
X0356601Y0527580I-003163J0001265D01*
G01*
X0267211Y0270612D02*
X0277684Y0270612D01*
X0277684Y0261342D02*
X0277684Y0260139D01*
X0277684Y0260139D02*
X0267211Y0260139D01*
X0267211Y0269408D02*
X0267211Y0270612D01*
X0267211Y0261298D02*
X0267211Y0260139D01*
X0277684Y0269452D02*
X0277684Y0270612D01*
D85*
X0532881Y0502055D02*
X0532881Y0506055D01*
X0526581Y0514055D02*
X0526581Y0510055D01*
X0526581Y0506055D02*
X0526581Y0502055D01*
X0532881Y0510055D02*
X0532881Y0514055D01*
D146*
X0532894Y0514290D02*
G75*
G03*
X0526581Y0514256I-003163J0001265D01*
G01*
X0532887Y0501839D02*
G75*
G02*
X0526581Y0501854I-003156J-001283D01*
G01*
X0266660Y0271163D02*
X0256188Y0271163D01*
X0266660Y0272366D02*
X0266660Y0271163D01*
X0256188Y0272322D02*
X0256188Y0271163D01*
X0256188Y0280432D02*
X0256188Y0281635D01*
X0256188Y0281635D02*
X0266660Y0281635D01*
X0266660Y0280476D02*
X0266660Y0281635D01*
X0266660Y0250319D02*
X0266660Y0249116D01*
X0266660Y0258429D02*
X0266660Y0259588D01*
X0256188Y0259588D02*
X0266660Y0259588D01*
X0256188Y0250275D02*
X0256188Y0249116D01*
X0256188Y0258385D02*
X0256188Y0259588D01*
X0266660Y0249116D02*
X0256188Y0249116D01*
X0303137Y0292127D02*
X0303137Y0302600D01*
X0304340Y0292127D02*
X0303137Y0292127D01*
X0312406Y0302600D02*
X0313609Y0302600D01*
X0313609Y0302600D02*
X0313609Y0292127D01*
X0304296Y0302600D02*
X0303137Y0302600D01*
X0312450Y0292127D02*
X0313609Y0292127D01*
D85*
X0495971Y0514486D02*
X0495971Y0510486D01*
X0502270Y0510486D02*
X0502270Y0514486D01*
X0502270Y0502486D02*
X0502270Y0506486D01*
X0495971Y0506486D02*
X0495971Y0502486D01*
D146*
X0495965Y0514702D02*
G75*
G02*
X0502270Y0514686I0003156J0001283D01*
G01*
X0495957Y0502251D02*
G75*
G03*
X0502270Y0502285I0003163J-001265D01*
G01*
D199*
X0309849Y0241950D02*
X0309849Y0288210D01*
X0329534Y0241950D02*
X0310243Y0241950D01*
X0329534Y0241950D02*
X0329534Y0288210D01*
X0329534Y0288210D02*
X0310243Y0288210D01*
D146*
X0354674Y0509745D02*
X0355833Y0509745D01*
X0346564Y0509745D02*
X0345361Y0509745D01*
X0355833Y0520218D02*
X0355833Y0509745D01*
X0345361Y0509745D02*
X0345361Y0520218D01*
X0346520Y0520218D02*
X0345361Y0520218D01*
X0354630Y0520218D02*
X0355833Y0520218D01*
X0477509Y0483761D02*
X0478668Y0483761D01*
X0469355Y0494234D02*
X0468196Y0494234D01*
X0469399Y0483761D02*
X0468196Y0483761D01*
X0478668Y0494234D02*
X0478668Y0483761D01*
X0468196Y0483761D02*
X0468196Y0494234D01*
X0477465Y0494234D02*
X0478668Y0494234D01*
X0342032Y0531537D02*
X0343235Y0531537D01*
X0333922Y0531537D02*
X0332763Y0531537D01*
X0343235Y0531537D02*
X0343235Y0521064D01*
X0333966Y0521064D02*
X0332763Y0521064D01*
X0332763Y0521064D02*
X0332763Y0531537D01*
X0342076Y0521064D02*
X0343235Y0521064D01*
D85*
X0070143Y0501069D02*
X0070143Y0497069D01*
X0076442Y0505069D02*
X0076442Y0509069D01*
X0076442Y0497069D02*
X0076442Y0501069D01*
X0070143Y0509069D02*
X0070143Y0505069D01*
D146*
X0076456Y0509303D02*
G75*
G03*
X0070143Y0509269I-003163J0001265D01*
G01*
X0076448Y0496852D02*
G75*
G02*
X0070143Y0496868I-003156J-001283D01*
G01*
X0316030Y0306301D02*
X0316030Y0316773D01*
X0325299Y0316773D02*
X0326503Y0316773D01*
X0317190Y0316773D02*
X0316030Y0316773D01*
X0317233Y0306301D02*
X0316030Y0306301D01*
X0326503Y0316773D02*
X0326503Y0306301D01*
X0325343Y0306301D02*
X0326503Y0306301D01*
X0063314Y0492659D02*
X0063314Y0482186D01*
X0054001Y0492659D02*
X0052841Y0492659D01*
X0052841Y0482186D02*
X0052841Y0492659D01*
X0062110Y0492659D02*
X0063314Y0492659D01*
X0054045Y0482186D02*
X0052841Y0482186D01*
X0062154Y0482186D02*
X0063314Y0482186D01*
X0413471Y0322836D02*
X0413471Y0333308D01*
X0422740Y0333308D02*
X0423944Y0333308D01*
X0414630Y0333308D02*
X0413471Y0333308D01*
X0423944Y0333308D02*
X0423944Y0322836D01*
X0422784Y0322836D02*
X0423944Y0322836D01*
X0414674Y0322836D02*
X0413471Y0322836D01*
X0435949Y0354864D02*
X0435949Y0344391D01*
X0426680Y0344391D02*
X0425477Y0344391D01*
X0426636Y0354864D02*
X0425477Y0354864D01*
X0434746Y0354864D02*
X0435949Y0354864D01*
X0425477Y0344391D02*
X0425477Y0354864D01*
X0434790Y0344391D02*
X0435949Y0344391D01*
D85*
X0467625Y0498084D02*
X0467625Y0502084D01*
X0467625Y0490084D02*
X0467625Y0494084D01*
X0461326Y0502084D02*
X0461326Y0498084D01*
X0461326Y0494084D02*
X0461326Y0490084D01*
D146*
X0467631Y0489867D02*
G75*
G02*
X0461326Y0489883I-003156J-001283D01*
G01*
X0467638Y0502319D02*
G75*
G03*
X0461326Y0502285I-003163J0001265D01*
G01*
X0115440Y0511320D02*
X0115440Y0521793D01*
X0116599Y0521793D02*
X0115440Y0521793D01*
X0116643Y0511320D02*
X0115440Y0511320D01*
X0124753Y0511320D02*
X0125912Y0511320D01*
X0124709Y0521793D02*
X0125912Y0521793D01*
X0125912Y0521793D02*
X0125912Y0511320D01*
X0468213Y0167462D02*
X0469416Y0167462D01*
X0468257Y0156990D02*
X0469416Y0156990D01*
X0460103Y0167462D02*
X0458944Y0167462D01*
X0458944Y0156990D02*
X0458944Y0167462D01*
X0469416Y0167462D02*
X0469416Y0156990D01*
X0460147Y0156990D02*
X0458944Y0156990D01*
D199*
X0495575Y0131385D02*
X0494591Y0132369D01*
X0494152Y0078537D02*
X0471560Y0078537D01*
X0468607Y0083847D02*
X0464670Y0083847D01*
X0471560Y0080894D02*
X0471560Y0078537D01*
X0464670Y0131386D02*
X0464670Y0083847D01*
X0495575Y0131385D02*
X0495575Y0079961D01*
X0494591Y0132369D02*
X0465653Y0132369D01*
X0471560Y0080894D02*
X0468607Y0083847D01*
X0465653Y0132369D02*
X0464670Y0131386D01*
X0495575Y0079961D02*
X0494152Y0078537D01*
D85*
X0518314Y0476304D02*
X0518314Y0480304D01*
X0512014Y0488304D02*
X0512014Y0484304D01*
X0518314Y0484304D02*
X0518314Y0488304D01*
X0512014Y0480304D02*
X0512014Y0476304D01*
D146*
X0512008Y0488521D02*
G75*
G02*
X0518314Y0488505I0003156J0001283D01*
G01*
X0512001Y0476070D02*
G75*
G03*
X0518314Y0476104I0003163J-001265D01*
G01*
X0350004Y0332521D02*
X0351207Y0332521D01*
X0341894Y0332521D02*
X0340735Y0332521D01*
X0341938Y0322049D02*
X0340735Y0322049D01*
X0340735Y0322049D02*
X0340735Y0332521D01*
X0350048Y0322049D02*
X0351207Y0322049D01*
X0351207Y0332521D02*
X0351207Y0322049D01*
X0310026Y0522639D02*
X0310026Y0533112D01*
X0319339Y0522639D02*
X0320499Y0522639D01*
X0320499Y0533112D02*
X0320499Y0522639D01*
X0311186Y0533112D02*
X0310026Y0533112D01*
X0311230Y0522639D02*
X0310026Y0522639D01*
X0319295Y0533112D02*
X0320499Y0533112D01*
D85*
X0330518Y0523478D02*
X0330518Y0527478D01*
X0324219Y0527478D02*
X0324219Y0523478D01*
X0330518Y0515478D02*
X0330518Y0519478D01*
X0324219Y0519478D02*
X0324219Y0515478D01*
D146*
X0330532Y0527712D02*
G75*
G03*
X0324219Y0527679I-003163J0001265D01*
G01*
X0330525Y0515261D02*
G75*
G02*
X0324219Y0515277I-003156J-001283D01*
G01*
D199*
X0085187Y0227559D02*
X0085187Y0375787D01*
X0062648Y0348720D02*
X0062648Y0359055D01*
X0085187Y0227559D02*
X0056644Y0227559D01*
X0082825Y0380217D02*
X0080266Y0382776D01*
X0056644Y0227559D02*
X0056938Y0382776D01*
X0082825Y0378150D02*
X0082825Y0380217D01*
X0085187Y0375787D02*
X0082825Y0378150D01*
X0080266Y0382776D02*
X0056938Y0382776D01*
D146*
X0125971Y0485238D02*
X0125971Y0495710D01*
X0136444Y0495710D02*
X0136444Y0485238D01*
X0135240Y0495710D02*
X0136444Y0495710D01*
X0135284Y0485238D02*
X0136444Y0485238D01*
X0127130Y0495710D02*
X0125971Y0495710D01*
X0127174Y0485238D02*
X0125971Y0485238D01*
X0047743Y0518722D02*
X0047743Y0537816D01*
X0055617Y0518722D02*
X0055617Y0537816D01*
X0055617Y0518525D02*
G75*
G02*
X0047743Y0518525I-003937J0000000D01*
G01*
X0047743Y0537816D02*
G75*
G02*
X0055617Y0537816I0003937J0000000D01*
G01*
X0035440Y0476399D02*
G75*
G03*
X0035440Y0476399I-004724J0000000D01*
G01*
X0456447Y0297579D02*
G01*
G75*
D199*
X0454478Y0240197D02*
X0336762Y0240197D01*
X0334794Y0242166D01*
X0334794Y0293544D02*
X0334794Y0242166D01*
X0338435Y0297185D02*
X0334794Y0293544D01*
X0449951Y0297185D02*
X0338415Y0297185D01*
X0456053Y0291083D02*
X0449951Y0297185D01*
X0456053Y0291083D02*
X0456053Y0241772D01*
X0454478Y0240197D01*
D249*
X0451412Y0287130D02*
X0451412Y0285556D01*
X0451412Y0286343D01*
X0448263Y0286343D01*
X0448263Y0287130D01*
X0451412Y0283194D02*
X0448263Y0283194D01*
X0448263Y0280833D01*
X0449051Y0280046D01*
X0451412Y0280046D01*
X0452986Y0278472D02*
X0448263Y0278472D01*
X0448263Y0276110D01*
X0449051Y0275323D01*
X0450625Y0275323D01*
X0451412Y0276110D01*
X0451412Y0278472D01*
X0448263Y0273749D02*
X0450625Y0273749D01*
X0451412Y0272961D01*
X0451412Y0270600D01*
X0448263Y0270600D01*
X0447476Y0268239D02*
X0448263Y0268239D01*
X0448263Y0269026D01*
X0448263Y0267451D01*
X0448263Y0268239D01*
X0450625Y0268239D01*
X0451412Y0267451D01*
X0449051Y0265090D02*
X0449051Y0261941D01*
X0447476Y0260367D02*
X0446689Y0259580D01*
X0446689Y0258006D01*
X0447476Y0257219D01*
X0450625Y0257219D01*
X0451412Y0258006D01*
X0451412Y0259580D01*
X0450625Y0260367D01*
X0447476Y0260367D01*
X0451412Y0255644D02*
X0450625Y0255644D01*
X0450625Y0254857D01*
X0451412Y0254857D01*
X0451412Y0255644D01*
X0451412Y0251709D02*
X0451412Y0250134D01*
X0451412Y0250921D01*
X0446689Y0250921D01*
X0447476Y0251709D01*
X0495674Y0132764D02*
G01*
G75*
D199*
X0468902Y0083847D02*
X0464965Y0083847D01*
X0471855Y0080894D02*
X0471855Y0078537D01*
X0495674Y0079764D02*
X0494447Y0078537D01*
X0495674Y0131582D02*
X0494886Y0132369D01*
X0465948Y0132369D01*
X0464965Y0131386D01*
X0464965Y0083847D01*
X0471855Y0080894D02*
X0468902Y0083847D01*
X0494447Y0078537D02*
X0471855Y0078537D01*
D249*
X0492017Y0127335D02*
X0492017Y0125761D01*
X0492017Y0126548D01*
X0488868Y0126548D01*
X0488868Y0127335D01*
X0493591Y0121825D02*
X0493591Y0121038D01*
X0492804Y0120250D01*
X0488868Y0120250D01*
X0488868Y0122612D01*
X0489655Y0123399D01*
X0491230Y0123399D01*
X0492017Y0122612D01*
X0492017Y0120250D01*
X0492017Y0118676D02*
X0488868Y0118676D01*
X0488868Y0116315D01*
X0489655Y0115528D01*
X0492017Y0115528D01*
X0488081Y0113953D02*
X0487294Y0113166D01*
X0487294Y0111592D01*
X0488081Y0110805D01*
X0488868Y0110805D01*
X0489655Y0111592D01*
X0490443Y0110805D01*
X0491230Y0110805D01*
X0492017Y0111592D01*
X0492017Y0113166D01*
X0491230Y0113953D01*
X0490443Y0113953D01*
X0489655Y0113166D01*
X0488868Y0113953D01*
X0488081Y0113953D01*
X0489655Y0113166D02*
X0489655Y0111592D01*
X0489655Y0109230D02*
X0489655Y0106082D01*
X0488081Y0104508D02*
X0487294Y0103721D01*
X0487294Y0102146D01*
X0488081Y0101359D01*
X0491230Y0101359D01*
X0492017Y0102146D01*
X0492017Y0103721D01*
X0491230Y0104508D01*
X0488081Y0104508D01*
X0492017Y0099785D02*
X0491230Y0099785D01*
X0491230Y0098998D01*
X0492017Y0098998D01*
X0492017Y0099785D01*
X0492017Y0095849D02*
X0492017Y0094275D01*
X0492017Y0095062D01*
X0487294Y0095062D01*
X0488081Y0095849D01*
X0456963Y0230173D02*
G01*
G75*
D249*
X0450058Y0213031D02*
X0446909Y0213031D01*
X0446909Y0212244D01*
X0447696Y0211457D01*
X0450058Y0211457D01*
X0447696Y0211457D01*
X0446909Y0210670D01*
X0447696Y0209883D01*
X0450058Y0209883D01*
X0446909Y0205160D02*
X0446909Y0207521D01*
X0447696Y0208308D01*
X0449270Y0208308D01*
X0450058Y0207521D01*
X0450058Y0205160D01*
X0446909Y0203585D02*
X0449270Y0203585D01*
X0450058Y0202798D01*
X0450058Y0200437D01*
X0446909Y0200437D01*
X0450058Y0198863D02*
X0450058Y0197288D01*
X0450058Y0198075D01*
X0445335Y0198075D01*
X0446122Y0198863D01*
X0450058Y0192565D02*
X0445335Y0192565D01*
X0447696Y0194927D01*
X0447696Y0191778D01*
X0450058Y0187843D02*
X0445335Y0187843D01*
X0447696Y0190204D01*
X0447696Y0187055D01*
X0447696Y0185481D02*
X0447696Y0182333D01*
X0446122Y0180758D02*
X0445335Y0179971D01*
X0445335Y0178397D01*
X0446122Y0177610D01*
X0449270Y0177610D01*
X0450058Y0178397D01*
X0450058Y0179971D01*
X0449270Y0180758D01*
X0446122Y0180758D01*
X0450058Y0176035D02*
X0449270Y0176035D01*
X0449270Y0175248D01*
X0450058Y0175248D01*
X0450058Y0176035D01*
X0445335Y0168951D02*
X0445335Y0172100D01*
X0447696Y0172100D01*
X0446909Y0170525D01*
X0446909Y0169738D01*
X0447696Y0168951D01*
X0449270Y0168951D01*
X0450058Y0169738D01*
X0450058Y0171313D01*
X0449270Y0172100D01*
D199*
X0454649Y0083520D02*
X0283833Y0083520D01*
X0281077Y0086275D01*
X0275073Y0086275D01*
X0456569Y0227535D02*
X0454329Y0229775D01*
X0274190Y0087158D02*
X0274190Y0228427D01*
X0456569Y0085439D02*
X0456569Y0227535D01*
X0456569Y0085439D02*
X0454649Y0083520D01*
X0454329Y0229775D02*
X0275539Y0229775D01*
X0274190Y0228427D01*
X0275073Y0086275D02*
X0274190Y0087158D01*
X0283636Y0016614D02*
G01*
G75*
D199*
X0355295Y0017008D02*
X0355295Y0026891D01*
X0358242Y0026891D01*
X0284030Y0067303D02*
X0284030Y0077146D01*
X0284030Y0067303D02*
X0296628Y0067303D01*
X0298400Y0065531D01*
X0298400Y0017008D02*
X0298400Y0065531D01*
X0298400Y0017008D02*
X0355295Y0017008D01*
X0358242Y0026891D02*
X0358242Y0076358D01*
X0284030Y0077146D02*
X0357455Y0077146D01*
D249*
X0301762Y0022043D02*
X0301762Y0024405D01*
X0302549Y0025192D01*
X0303336Y0024405D01*
X0303336Y0022830D01*
X0304123Y0022043D01*
X0304911Y0022830D01*
X0304911Y0025192D01*
X0306485Y0029915D02*
X0301762Y0029915D01*
X0301762Y0027553D01*
X0302549Y0026766D01*
X0304123Y0026766D01*
X0304911Y0027553D01*
X0304911Y0029915D01*
X0304123Y0031489D02*
X0304123Y0034637D01*
X0305698Y0036212D02*
X0306485Y0036999D01*
X0306485Y0038573D01*
X0305698Y0039360D01*
X0302549Y0039360D01*
X0301762Y0038573D01*
X0301762Y0036999D01*
X0302549Y0036212D01*
X0305698Y0036212D01*
X0301762Y0040935D02*
X0302549Y0040935D01*
X0302549Y0041722D01*
X0301762Y0041722D01*
X0301762Y0040935D01*
X0301762Y0044870D02*
X0301762Y0046445D01*
X0301762Y0045657D01*
X0306485Y0045657D01*
X0305698Y0044870D01*
X0227230Y0286050D02*
G01*
G75*
D199*
X0226970Y0221175D02*
X0226437Y0220642D01*
X0226970Y0284675D02*
X0226970Y0221175D01*
X0226970Y0284675D02*
X0226011Y0285634D01*
X0117807Y0285634D01*
X0226437Y0220642D02*
X0226437Y0123201D01*
X0220236Y0117000D02*
X0118169Y0117000D01*
X0226437Y0123201D02*
X0220236Y0117000D01*
X0118169Y0117000D02*
X0116299Y0118870D01*
X0117807Y0285634D02*
X0116299Y0284126D01*
X0116299Y0118870D01*
D249*
X0220522Y0270385D02*
X0220522Y0268811D01*
X0219735Y0268023D01*
X0218160Y0268023D01*
X0217373Y0268811D01*
X0217373Y0270385D01*
X0218160Y0271172D01*
X0219735Y0271172D01*
X0220522Y0270385D01*
X0217373Y0266449D02*
X0219735Y0266449D01*
X0220522Y0265662D01*
X0220522Y0263301D01*
X0217373Y0263301D01*
X0216586Y0260939D02*
X0217373Y0260939D01*
X0217373Y0261726D01*
X0217373Y0260152D01*
X0217373Y0260939D01*
X0219735Y0260939D01*
X0220522Y0260152D01*
X0222096Y0257790D02*
X0217373Y0257790D01*
X0217373Y0255429D01*
X0218160Y0254642D01*
X0219735Y0254642D01*
X0220522Y0255429D01*
X0220522Y0257790D01*
X0217373Y0253068D02*
X0219735Y0253068D01*
X0220522Y0252280D01*
X0220522Y0249919D01*
X0217373Y0249919D01*
X0216586Y0247558D02*
X0217373Y0247558D01*
X0217373Y0248345D01*
X0217373Y0246771D01*
X0217373Y0247558D01*
X0219735Y0247558D01*
X0220522Y0246771D01*
X0218160Y0244409D02*
X0218160Y0241260D01*
X0216586Y0239686D02*
X0215799Y0238899D01*
X0215799Y0237325D01*
X0216586Y0236538D01*
X0219735Y0236538D01*
X0220522Y0237325D01*
X0220522Y0238899D01*
X0219735Y0239686D01*
X0216586Y0239686D01*
X0220522Y0234963D02*
X0219735Y0234963D01*
X0219735Y0234176D01*
X0220522Y0234176D01*
X0220522Y0234963D01*
X0220522Y0227879D02*
X0220522Y0231027D01*
X0217373Y0227879D01*
X0216586Y0227879D01*
X0215799Y0228666D01*
X0215799Y0230240D01*
X0216586Y0231027D01*
X0330026Y0241556D02*
G01*
G75*
D199*
X0329534Y0241950D02*
X0329534Y0288210D01*
X0310243Y0288210D01*
X0309849Y0241950D02*
X0309849Y0288210D01*
X0329534Y0241950D02*
X0310243Y0241950D01*
D249*
X0311213Y0276580D02*
X0314755Y0276580D01*
X0314755Y0278351D01*
X0314164Y0278942D01*
X0312984Y0278942D01*
X0312393Y0278351D01*
X0312393Y0276580D01*
X0314755Y0275400D02*
X0314755Y0274219D01*
X0314755Y0274809D01*
X0312393Y0274809D01*
X0312393Y0275400D01*
X0314755Y0272448D02*
X0312393Y0272448D01*
X0312393Y0270677D01*
X0312984Y0270086D01*
X0314755Y0270086D01*
X0315936Y0268906D02*
X0312393Y0268906D01*
X0312393Y0267135D01*
X0312984Y0266544D01*
X0314164Y0266544D01*
X0314755Y0267135D01*
X0314755Y0268906D01*
X0312393Y0265364D02*
X0314164Y0265364D01*
X0314755Y0264773D01*
X0314755Y0263002D01*
X0312393Y0263002D01*
X0311803Y0261231D02*
X0312393Y0261231D01*
X0312393Y0261821D01*
X0312393Y0260641D01*
X0312393Y0261231D01*
X0314164Y0261231D01*
X0314755Y0260641D01*
X0314755Y0257098D02*
X0311213Y0257098D01*
X0312984Y0258870D01*
X0312984Y0256508D01*
X0312984Y0255327D02*
X0312984Y0252966D01*
X0311803Y0251785D02*
X0311213Y0251195D01*
X0311213Y0250014D01*
X0311803Y0249424D01*
X0314164Y0249424D01*
X0314755Y0250014D01*
X0314755Y0251195D01*
X0314164Y0251785D01*
X0311803Y0251785D01*
X0314755Y0248243D02*
X0314164Y0248243D01*
X0314164Y0247653D01*
X0314755Y0247653D01*
X0314755Y0248243D01*
X0314755Y0245291D02*
X0314755Y0244111D01*
X0314755Y0244701D01*
X0311213Y0244701D01*
X0311803Y0245291D01*
X0225705Y0040135D02*
G01*
G75*
D199*
X0184366Y0046237D02*
X0184366Y0111422D01*
X0190075Y0040528D02*
X0184366Y0046237D01*
X0225315Y0046536D02*
X0225315Y0110898D01*
X0219307Y0040528D02*
X0190075Y0040528D01*
X0219307Y0040528D02*
X0225315Y0046536D01*
X0225315Y0110898D02*
X0224788Y0111426D01*
X0184366Y0111422D02*
X0184470Y0111526D01*
X0224788Y0111426D02*
X0184470Y0111526D01*
D249*
X0221359Y0099765D02*
X0221359Y0097404D01*
X0220571Y0096616D01*
X0219784Y0097404D01*
X0219784Y0098978D01*
X0218997Y0099765D01*
X0218210Y0098978D01*
X0218210Y0096616D01*
X0217423Y0094255D02*
X0218210Y0094255D01*
X0218210Y0095042D01*
X0218210Y0093468D01*
X0218210Y0094255D01*
X0220571Y0094255D01*
X0221359Y0093468D01*
X0221359Y0091106D02*
X0221359Y0089532D01*
X0221359Y0090319D01*
X0216636Y0090319D01*
X0216636Y0091106D01*
X0221359Y0087171D02*
X0221359Y0085596D01*
X0221359Y0086383D01*
X0218210Y0086383D01*
X0218210Y0087171D01*
X0221359Y0083235D02*
X0218210Y0083235D01*
X0218210Y0080873D01*
X0218997Y0080086D01*
X0221359Y0080086D01*
X0221359Y0078512D02*
X0216636Y0078512D01*
X0219784Y0078512D02*
X0218210Y0076150D01*
X0219784Y0078512D02*
X0221359Y0076150D01*
X0218997Y0073789D02*
X0218997Y0070640D01*
X0217423Y0069066D02*
X0216636Y0068279D01*
X0216636Y0066705D01*
X0217423Y0065918D01*
X0220571Y0065918D01*
X0221359Y0066705D01*
X0221359Y0068279D01*
X0220571Y0069066D01*
X0217423Y0069066D01*
X0221359Y0064343D02*
X0220571Y0064343D01*
X0220571Y0063556D01*
X0221359Y0063556D01*
X0221359Y0064343D01*
X0221359Y0060408D02*
X0221359Y0058833D01*
X0221359Y0059620D01*
X0216636Y0059620D01*
X0217423Y0060408D01*
X0228677Y0411712D02*
G01*
G75*
D199*
X0229268Y0410236D02*
X0229071Y0410014D01*
X0229268Y0410236D02*
X0232516Y0410236D01*
X0233598Y0411318D02*
X0232516Y0410236D01*
X0229046Y0367322D02*
X0256184Y0367322D01*
X0256031Y0411318D02*
X0256184Y0367322D01*
X0229071Y0410014D02*
X0229071Y0367322D01*
X0233598Y0411318D02*
X0256031Y0411318D01*
D249*
X0250837Y0377967D02*
X0250837Y0375605D01*
X0250050Y0374818D01*
X0248476Y0374818D01*
X0247689Y0375605D01*
X0247689Y0377967D01*
X0250837Y0380328D02*
X0250837Y0381903D01*
X0250050Y0382690D01*
X0247689Y0382690D01*
X0247689Y0380328D01*
X0248476Y0379541D01*
X0249263Y0380328D01*
X0249263Y0382690D01*
X0247689Y0384264D02*
X0250837Y0384264D01*
X0250837Y0386625D01*
X0250050Y0387413D01*
X0247689Y0387413D01*
X0250050Y0388987D02*
X0250050Y0392135D01*
X0251625Y0393710D02*
X0252412Y0394497D01*
X0252412Y0396071D01*
X0251625Y0396858D01*
X0248476Y0396858D01*
X0247689Y0396071D01*
X0247689Y0394497D01*
X0248476Y0393710D01*
X0251625Y0393710D01*
X0247689Y0398433D02*
X0248476Y0398433D01*
X0248476Y0399220D01*
X0247689Y0399220D01*
X0247689Y0398433D01*
X0247689Y0402368D02*
X0247689Y0403943D01*
X0247689Y0403156D01*
X0252412Y0403156D01*
X0251625Y0402368D01*
X0422880Y0354011D02*
G01*
G75*
D199*
X0368156Y0339542D02*
X0350538Y0339542D01*
X0371010Y0336688D02*
X0368156Y0339542D01*
X0422486Y0339542D02*
X0395911Y0339542D01*
X0393057Y0336688D01*
X0371010Y0336688D01*
X0350538Y0353617D02*
X0350538Y0339542D01*
X0422486Y0353617D02*
X0350538Y0353617D01*
X0422486Y0353617D02*
X0422486Y0339542D01*
D249*
X0361282Y0351633D02*
X0361282Y0346910D01*
X0361282Y0350059D02*
X0363643Y0348485D01*
X0361282Y0350059D02*
X0363643Y0351633D01*
X0366005Y0351633D02*
X0366005Y0348485D01*
X0368366Y0348485D01*
X0369153Y0349272D01*
X0369153Y0351633D01*
X0371514Y0351633D02*
X0373089Y0351633D01*
X0373876Y0350846D01*
X0373876Y0349272D01*
X0373089Y0348485D01*
X0371514Y0348485D01*
X0370727Y0349272D01*
X0370727Y0350846D01*
X0371514Y0351633D01*
X0378599Y0348485D02*
X0376237Y0348485D01*
X0375450Y0349272D01*
X0375450Y0350846D01*
X0376237Y0351633D01*
X0378599Y0351633D01*
X0380173Y0351633D02*
X0380173Y0346910D01*
X0380173Y0350059D02*
X0382535Y0348485D01*
X0380173Y0350059D02*
X0382535Y0351633D01*
X0384896Y0349272D02*
X0388045Y0349272D01*
X0389619Y0347697D02*
X0390406Y0346910D01*
X0391980Y0346910D01*
X0392767Y0347697D01*
X0392767Y0350846D01*
X0391980Y0351633D01*
X0390406Y0351633D01*
X0389619Y0350846D01*
X0389619Y0347697D01*
X0394342Y0351633D02*
X0394342Y0350846D01*
X0395129Y0350846D01*
X0395129Y0351633D01*
X0394342Y0351633D01*
X0398278Y0351633D02*
X0399852Y0351633D01*
X0399065Y0351633D01*
X0399065Y0346910D01*
X0398278Y0347697D01*
X0118358Y0414701D02*
G01*
G75*
D199*
X0113732Y0438815D02*
X0117964Y0443047D01*
X0113732Y0438815D02*
X0096409Y0438815D01*
X0092964Y0415095D02*
X0093457Y0415587D01*
X0093457Y0435863D01*
X0092964Y0415095D02*
X0056842Y0415095D01*
X0093457Y0435863D02*
X0096409Y0438815D01*
X0117964Y0443047D02*
X0117964Y0478776D01*
X0056842Y0415095D02*
X0056842Y0478776D01*
X0117964Y0478776D02*
X0056842Y0478776D01*
D249*
X0112830Y0470229D02*
X0112830Y0474951D01*
X0110469Y0474951D01*
X0109682Y0474164D01*
X0109682Y0472590D01*
X0110469Y0471803D01*
X0112830Y0471803D01*
X0107320Y0471803D02*
X0105746Y0471803D01*
X0104959Y0472590D01*
X0104959Y0474164D01*
X0105746Y0474951D01*
X0107320Y0474951D01*
X0108108Y0474164D01*
X0108108Y0472590D01*
X0107320Y0471803D01*
X0103385Y0474951D02*
X0103385Y0472590D01*
X0102597Y0471803D01*
X0101810Y0472590D01*
X0101023Y0471803D01*
X0100236Y0472590D01*
X0100236Y0474951D01*
X0096300Y0471803D02*
X0097875Y0471803D01*
X0098662Y0472590D01*
X0098662Y0474164D01*
X0097875Y0474951D01*
X0096300Y0474951D01*
X0095513Y0474164D01*
X0095513Y0473377D01*
X0098662Y0473377D01*
X0093939Y0474951D02*
X0093939Y0471803D01*
X0093939Y0473377D01*
X0093152Y0474164D01*
X0092365Y0474951D01*
X0091577Y0474951D01*
X0089216Y0471803D02*
X0087642Y0471803D01*
X0088429Y0471803D01*
X0088429Y0476526D01*
X0089216Y0475739D01*
X0082132Y0471803D02*
X0085280Y0471803D01*
X0082132Y0474951D01*
X0082132Y0475739D01*
X0082919Y0476526D01*
X0084493Y0476526D01*
X0085280Y0475739D01*
X0080557Y0474164D02*
X0077409Y0474164D01*
X0075834Y0475739D02*
X0075047Y0476526D01*
X0073473Y0476526D01*
X0072686Y0475739D01*
X0072686Y0472590D01*
X0073473Y0471803D01*
X0075047Y0471803D01*
X0075834Y0472590D01*
X0075834Y0475739D01*
X0071112Y0471803D02*
X0071112Y0472590D01*
X0070325Y0472590D01*
X0070325Y0471803D01*
X0071112Y0471803D01*
X0064027Y0471803D02*
X0067176Y0471803D01*
X0064027Y0474951D01*
X0064027Y0475739D01*
X0064814Y0476526D01*
X0066389Y0476526D01*
X0067176Y0475739D01*
X0085581Y0227165D02*
G01*
G75*
D199*
X0085187Y0227559D02*
X0085187Y0375787D01*
X0082825Y0378149D01*
X0082825Y0380216D01*
X0080266Y0382775D01*
X0062648Y0348720D02*
X0062648Y0359055D01*
X0056645Y0227559D02*
X0056938Y0382775D01*
X0085187Y0227559D02*
X0056645Y0227559D01*
X0080266Y0382775D02*
X0056938Y0382775D01*
D249*
X0082809Y0323311D02*
X0078086Y0323311D01*
X0078086Y0320949D01*
X0078874Y0320162D01*
X0080448Y0320162D01*
X0081235Y0320949D01*
X0081235Y0323311D01*
X0081235Y0317801D02*
X0081235Y0316226D01*
X0080448Y0315439D01*
X0078874Y0315439D01*
X0078086Y0316226D01*
X0078086Y0317801D01*
X0078874Y0318588D01*
X0080448Y0318588D01*
X0081235Y0317801D01*
X0078086Y0313865D02*
X0080448Y0313865D01*
X0081235Y0313078D01*
X0080448Y0312291D01*
X0081235Y0311503D01*
X0080448Y0310716D01*
X0078086Y0310716D01*
X0081235Y0306781D02*
X0081235Y0308355D01*
X0080448Y0309142D01*
X0078874Y0309142D01*
X0078086Y0308355D01*
X0078086Y0306781D01*
X0078874Y0305993D01*
X0079661Y0305993D01*
X0079661Y0309142D01*
X0078086Y0304419D02*
X0081235Y0304419D01*
X0079661Y0304419D01*
X0078874Y0303632D01*
X0078086Y0302845D01*
X0078086Y0302058D01*
X0076512Y0296548D02*
X0076512Y0299696D01*
X0078874Y0299696D01*
X0078086Y0298122D01*
X0078086Y0297335D01*
X0078874Y0296548D01*
X0080448Y0296548D01*
X0081235Y0297335D01*
X0081235Y0298909D01*
X0080448Y0299696D01*
X0078874Y0294973D02*
X0078874Y0291825D01*
X0077299Y0290251D02*
X0076512Y0289463D01*
X0076512Y0287889D01*
X0077299Y0287102D01*
X0080448Y0287102D01*
X0081235Y0287889D01*
X0081235Y0289463D01*
X0080448Y0290251D01*
X0077299Y0290251D01*
X0081235Y0285528D02*
X0080448Y0285528D01*
X0080448Y0284741D01*
X0081235Y0284741D01*
X0081235Y0285528D01*
X0081235Y0278443D02*
X0081235Y0281592D01*
X0078086Y0278443D01*
X0077299Y0278443D01*
X0076512Y0279230D01*
X0076512Y0280805D01*
X0077299Y0281592D01*
X0318406Y0367126D02*
%LPD*%
G01*
D199*
X0259351Y0521654D02*
X0259351Y0367520D01*
X0259351Y0367520D02*
X0318012Y0367520D01*
X0318012Y0367520D02*
X0318012Y0521654D01*
X0318012Y0521654D02*
X0259351Y0521654D01*
X0436982Y0078065D02*
G01*
G75*
D199*
X0435506Y0077474D02*
X0435284Y0077671D01*
X0435506Y0077474D02*
X0435506Y0074226D01*
X0436588Y0073144D02*
X0435506Y0074226D01*
X0392592Y0077696D02*
X0392592Y0050558D01*
X0436588Y0050711D02*
X0392592Y0050558D01*
X0435284Y0077671D02*
X0392592Y0077671D01*
X0436588Y0073144D02*
X0436588Y0050711D01*
D249*
X0403237Y0055905D02*
X0400875Y0055905D01*
X0400088Y0056692D01*
X0400088Y0058266D01*
X0400875Y0059053D01*
X0403237Y0059053D01*
X0405598Y0055905D02*
X0407173Y0055905D01*
X0407960Y0056692D01*
X0407960Y0059053D01*
X0405598Y0059053D01*
X0404811Y0058266D01*
X0405598Y0057479D01*
X0407960Y0057479D01*
X0409534Y0059053D02*
X0409534Y0055905D01*
X0411895Y0055905D01*
X0412683Y0056692D01*
X0412683Y0059053D01*
X0414257Y0056692D02*
X0417405Y0056692D01*
X0418980Y0055117D02*
X0419767Y0054330D01*
X0421341Y0054330D01*
X0422128Y0055117D01*
X0422128Y0058266D01*
X0421341Y0059053D01*
X0419767Y0059053D01*
X0418980Y0058266D01*
X0418980Y0055117D01*
X0423703Y0059053D02*
X0423703Y0058266D01*
X0424490Y0058266D01*
X0424490Y0059053D01*
X0423703Y0059053D01*
X0427638Y0059053D02*
X0429213Y0059053D01*
X0428426Y0059053D01*
X0428426Y0054330D01*
X0427638Y0055117D01*
M02*
