M48
INCH,TZ
T01C0.012400
T02C0.019700
T03C0.027600
T04C0.033700
T05C0.037800
T06C0.043300
T07C0.070900
T08C0.078700
T09C0.091700
T10C0.119050
T11C0.137800
T12C0.196900
%
T01
X31406Y23194
X36458Y5635
X45394Y29687
X6477Y48221
X9086Y33073
X14505Y29072
X15237Y35120
X15266Y34067
X15375Y32286
X17944Y35445
X18268Y29745
X18824Y31656
X20110Y34795
X20391Y36931
X20627Y31971
X21116Y35218
X21427Y40538
X21526Y36528
X21725Y40425
X21827Y36633
X22205Y30081
X22235Y34146
X22520Y28821
X22835Y28388
X23032Y25249
X23155Y21656
X23155Y8624
X23249Y30160
X23446Y6075
X23780Y6065
X23839Y30858
X24074Y27440
X24105Y6065
X24371Y11065
X24410Y11538
X24410Y6075
X24579Y30041
X24710Y30337
X24794Y24973
X25089Y8693
X25119Y29136
X25166Y25099
X25385Y26301
X25483Y36321
X25542Y34244
X25714Y29766
X25877Y36469
X25929Y52195
X26049Y30337
X26370Y12566
X26428Y34205
X26540Y11191
X26540Y10872
X26540Y10553
X26551Y10227
X26678Y12484
X26694Y6934
X26975Y12187
X27090Y29413
X27171Y11695
X27481Y6934
X27505Y30336
X27816Y34423
X27845Y8526
X27918Y6459
X28298Y33830
X28446Y36698
X28544Y24375
X28750Y24090
X28824Y30336
X28898Y34205
X29047Y23793
X29122Y31816
X29542Y31816
X29572Y8112
X29636Y2473
X29686Y24018
X29873Y33163
X31225Y7994
X31698Y7994
X32097Y33729
X32717Y1587
X32879Y8152
X33174Y27154
X33190Y26498
X33190Y27969
X33347Y30475
X33588Y8152
X33655Y23580
X34078Y33811
X35044Y8112
X35205Y30640
X36934Y31065
X37353Y1665
X37442Y30770
X39686Y29963
X40670Y8153
X41575Y40927
X41822Y40150
X43151Y7958
X43505Y7958
X44336Y31419
X44410Y30552
X44915Y23691
X45552Y30996
X47367Y1104
X48268Y23706
X48524Y35849
X48770Y35849
X48977Y17603
X49213Y30553
X49253Y17131
X49372Y36862
X49645Y36734
X50227Y36075
X51392Y19662
X51566Y19392
X27392Y36929
X27785Y36929
X29183Y36929
X29577Y36929
X30010Y51988
X30404Y51988
X30797Y51988
X31152Y24254
X31191Y51988
X31433Y28132
X31674Y27561
X31703Y24254
X31913Y24697
X32009Y27561
X32127Y24254
X32343Y27561
X32678Y24254
X32678Y27561
X941Y17408
X946Y50868
X946Y47915
X946Y42994
X946Y38073
X946Y32167
X946Y25278
X946Y14451
X946Y7561
X2205Y56045
X2796Y43467
X2914Y33349
X3072Y38703
X3111Y49687
X3898Y3624
X4528Y45356
X4528Y40475
X4528Y34963
X4568Y30711
X4568Y25160
X4696Y51380
X4741Y49246
X5020Y22473
X5316Y44963
X5316Y31813
X5394Y27404
X5424Y47522
X5434Y42522
X5434Y38034
X5660Y39402
X5788Y7364
X5847Y366
X6359Y54884
X6694Y2876
X7284Y5593
X7363Y57669
X8396Y39057
X8446Y40868
X8554Y48447
X8820Y34530
X8908Y48112
X8957Y28752
X8997Y23290
X9070Y41248
X9070Y36445
X9095Y31065
X9095Y22738
X9306Y37748
X9410Y36380
X9420Y32847
X9449Y55150
X9449Y33349
X9489Y32266
X9686Y26774
X9804Y60711
X9961Y51538
X10040Y43162
X10040Y2915
X10207Y39215
X10306Y11931
X10385Y34559
X10616Y36344
X10629Y37481
X10709Y48093
X10818Y10622
X11034Y297
X11142Y15514
X11182Y25120
X11221Y20514
X11261Y13309
X11339Y28585
X11379Y11577
X11615Y52069
X11792Y49963
X11812Y47837
X11812Y46577
X11851Y55041
X11920Y50553
X11959Y40524
X12018Y49746
X12048Y33654
X12107Y35022
X12186Y37689
X12255Y39293
X12688Y46597
X12717Y41912
X12757Y37128
X12766Y44244
X13111Y11341
X13298Y48496
X13347Y47482
X13396Y33939
X13534Y39302
X13672Y50325
X13721Y8132
X13761Y32965
X13790Y55051
X13800Y33654
X13829Y47640
X13839Y42758
X13869Y44264
X13898Y6695
X13967Y32207
X14135Y37679
X14135Y31183
X14135Y29648
X14194Y50691
X14292Y44264
X14558Y45593
X14577Y39914
X14607Y33073
X14627Y57778
X14715Y40396
X14715Y46319
X14764Y44923
X14774Y60652
X14784Y50159
X14833Y33585
X14981Y40868
X15079Y11341
X15138Y50376
X15148Y32826
X15237Y31341
X15503Y50032
X15512Y32896
X15886Y297
X16172Y32689
X16379Y49175
X16508Y32649
X16585Y32364
X16694Y29648
X16703Y51528
X16713Y46252
X16753Y39766
X16930Y45307
X16930Y40110
X17156Y33683
X17245Y29815
X17283Y49185
X17294Y48841
X17353Y37699
X17422Y45288
X17461Y40081
X17511Y31410
X17540Y7541
X17609Y41134
X17638Y44697
X17698Y46223
X17727Y50081
X17737Y39854
X17776Y37679
X17796Y33939
X17875Y11459
X17904Y47473
X17953Y44854
X17953Y41321
X17953Y9648
X17953Y1892
X18062Y36705
X18199Y48417
X18219Y5967
X18278Y46813
X18505Y37768
X18534Y33034
X18692Y36715
X18831Y34530
X18859Y47630
X18928Y56390
X19144Y34028
X19194Y46695
X19361Y38092
X19361Y33269
X19371Y35110
X19449Y36114
X19475Y49490
X19499Y51026
X19518Y54106
X19528Y55652
X19686Y3545
X19804Y11459
X19814Y29500
X19981Y47984
X20050Y1498
X20079Y34077
X20089Y29943
X20148Y248
X20433Y49362
X20631Y60711
X20729Y48861
X20764Y29702
X20955Y37837
X21044Y49352
X21060Y29156
X21103Y39067
X21142Y31026
X21221Y33919
X21241Y36360
X21428Y36095
X21654Y1459
X21664Y35494
X22294Y33644
X22354Y36735
X22402Y3624
X22403Y32650
X22442Y11734
X22560Y34215
X22668Y45445
X22678Y32420
X22835Y14254
X22835Y13821
X22835Y9136
X22835Y5947
X22875Y20632
X22894Y28742
X22953Y32689
X22990Y28046
X23032Y22286
X23150Y23545
X23268Y34471
X23419Y14867
X23455Y42138
X23455Y57748
X23465Y11774
X23505Y24293
X23583Y297
X23662Y14175
X23731Y55297
X23731Y15110
X23740Y43230
X23780Y32167
X23859Y33978
X23859Y42827
X23908Y50268
X23918Y53486
X24007Y43595
X24016Y15297
X24125Y20642
X24213Y34963
X24213Y32610
X24312Y43122
X24331Y31734
X24538Y54914
X24568Y34146
X24686Y8644
X24725Y9451
X24744Y6142
X24922Y52640
X24981Y21823
X25119Y11262
X25168Y23585
X25316Y10160
X25345Y15740
X25355Y32207
X25473Y9490
X25532Y33684
X25621Y8782
X25635Y10632
X25660Y14146
X25661Y11419
X25709Y47207
X25788Y45160
X25808Y54933
X25809Y48914
X25827Y37128
X25857Y7906
X25867Y39215
X25906Y42246
X25945Y5325
X25946Y53664
X26103Y22797
X26103Y20475
X26142Y28585
X26182Y19805
X26221Y15750
X26300Y23506
X26349Y297
X26516Y60681
X26536Y9569
X26644Y33684
X26723Y53329
X26733Y6026
X26762Y52404
X27087Y9766
X27117Y3063
X27166Y22679
X27166Y20317
X27221Y27644
X27442Y34421
X27461Y52354
X27501Y27335
X27698Y55071
X27766Y56852
X27796Y52345
X27796Y33595
X27875Y36104
X28032Y32364
X28072Y24451
X28121Y52335
X28583Y36144
X28642Y6410
X29174Y32325
X29203Y278
X29213Y57748
X29253Y23467
X29381Y6114
X29410Y36045
X29410Y4195
X29735Y55101
X29794Y36351
X30070Y36026
X30158Y31695
X30198Y23978
X30316Y26892
X30316Y25081
X30512Y27955
X30867Y53014
X30946Y32079
X31182Y23860
X31192Y30524
X31694Y297
X31743Y55091
X31920Y57748
X31979Y60750
X32048Y52591
X32284Y44884
X32284Y40593
X32284Y37089
X32363Y50278
X32491Y33466
X32875Y49766
X32894Y38142
X32914Y47955
X32993Y29963
X33003Y31508
X33072Y57108
X33130Y32650
X33229Y24490
X33236Y32946
X33249Y31745
X33298Y54687
X33347Y46223
X33347Y43349
X33524Y41921
X33583Y31962
X33642Y31291
X33711Y32502
X33743Y41723
X33743Y41723
X33772Y33930
X33790Y38437
X33800Y41114
X33881Y41418
X33881Y41418
X33908Y50248
X34076Y51892
X34607Y33398
X34735Y34500
X34745Y35012
X34865Y35325
X34865Y33917
X34873Y49943
X34902Y55071
X34922Y30740
X35001Y32335
X35178Y41498
X35316Y48063
X35355Y46065
X35453Y57738
X35759Y2443
X35759Y317
X35926Y42886
X36103Y30425
X36103Y4766
X36182Y39372
X36418Y53191
X36458Y2306
X36497Y1685
X36497Y612
X36837Y39547
X36900Y32443
X37048Y47994
X37073Y30726
X37127Y45160
X37166Y7994
X37166Y6695
X37186Y32689
X37383Y37738
X37491Y49362
X37717Y39372
X37816Y55868
X37845Y30120
X37973Y31282
X38062Y317
X38249Y32345
X38347Y43112
X38426Y5475
X38505Y7994
X38505Y6380
X38613Y50573
X38613Y50573
X38633Y31213
X38741Y29963
X38938Y1656
X38987Y52089
X39016Y5317
X39056Y47719
X39066Y32473
X39154Y44057
X39154Y33427
X39331Y60711
X39381Y32827
X39528Y39490
X39538Y52532
X39558Y51715
X39696Y31479
X39961Y32571
X40001Y45199
X40011Y33516
X40316Y58349
X40316Y30228
X40414Y31636
X40631Y33191
X41034Y39569
X41103Y41301
X41172Y49766
X41179Y30560
X41221Y38742
X41261Y44608
X41270Y31617
X41310Y51360
X41753Y46223
X41802Y49687
X41861Y44982
X41890Y33585
X42353Y44421
X42491Y32315
X42511Y31744
X42541Y33282
X42638Y278
X42786Y46725
X42796Y7955
X42816Y30701
X42835Y43201
X42855Y33723
X42894Y49648
X42894Y31400
X42934Y38821
X42973Y45917
X42973Y41429
X43180Y37315
X43199Y48309
X43199Y32059
X43209Y34303
X43288Y31528
X43446Y49205
X43617Y30362
X43938Y43181
X43948Y30416
X43967Y58388
X43967Y38752
X43977Y34018
X44016Y35238
X44056Y31813
X44213Y8152
X44253Y60711
X44253Y5317
X44331Y6498
X44587Y1852
X44942Y42709
X44961Y33664
X44971Y38408
X45119Y35238
X45316Y31262
X45473Y7601
X45626Y45263
X45680Y47620
X45906Y34215
X45906Y29215
X45946Y27049
X45985Y24175
X46103Y13821
X46133Y44333
X46182Y11577
X46261Y22719
X46261Y19845
X46261Y17679
X46300Y38703
X46477Y35071
X46497Y33614
X46497Y31124
X46605Y41675
X46654Y45917
X46674Y46695
X46851Y38703
X46940Y37014
X46969Y1656
X47009Y21380
X47196Y37014
X47323Y17443
X47717Y7404
X47796Y41577
X47835Y25435
X47875Y28073
X47894Y46784
X47914Y33575
X48022Y45868
X48081Y35110
X48101Y38870
X48111Y22561
X48131Y47994
X48150Y48240
X48298Y58142
X48337Y31085
X48613Y60780
X48731Y34480
X48820Y29648
X48859Y35406
X48898Y34126
X48938Y24175
X49036Y33782
X49056Y32010
X49528Y3624
X49696Y36006
X49715Y34549
X49804Y20002
X49863Y46341
X49961Y2404
X50001Y23782
X50001Y21183
X50001Y9727
X50237Y32246
X50512Y30002
X50522Y297
X50552Y5278
X50581Y43949
X50709Y23073
X50749Y26183
X50749Y20160
X50749Y7679
X50788Y19057
X50847Y3526
X50896Y35730
X50946Y6419
X50985Y10986
X51103Y33585
X51103Y30632
X51142Y32049
X51182Y13742
X51261Y17640
X51300Y43703
X51318Y37955
X51536Y7915
X51615Y35908
X51890Y3427
X52127Y59727
X52225Y32177
X52359Y2660
X52599Y43073
X52626Y4044
X52796Y45002
X52875Y35790
X53111Y5278
X53190Y35790
X53426Y16223
X53544Y10593
X53583Y3644
X53780Y6223
X53997Y4097
X54016Y5160
X54174Y35356
X54174Y6931
X54292Y46459
X54371Y13309
X54528Y51971
X54686Y18112
X54686Y8545
X54883Y22837
X54883Y4254
X55198Y26104
X55237Y54018
X55512Y40671
X55512Y14569
X55591Y17994
X56064Y2640
X56812Y8112
X56969Y55160
X57127Y37325
X57599Y23427
X58229Y40396
X58308Y50081
X58623Y46931
X58623Y37364
X58741Y43427
X60001Y56774
X60001Y49884
X60001Y42994
X60001Y31183
X60001Y24293
X60001Y17404
X60001Y10514
X60070Y37748
X5842Y37677
X5842Y33386
X5842Y27795
X5842Y22967
X5852Y47198
X6373Y43960
X7338Y23514
X8433Y43967
X8627Y44708
X9070Y41815
X23409Y38140
X23616Y38484
X23911Y38022
X25309Y38051
X29712Y7006
X30332Y5075
X31995Y4811
X32458Y4811
X33314Y4811
X34190Y4811
X35334Y5078
X40549Y6763
X40578Y5366
X40667Y7265
X41011Y7058
X46575Y11150
X46575Y10383
X46575Y9359
X47091Y10895
X47268Y10255
X47298Y9192
X47298Y9920
X47304Y8444
X47382Y9576
X48908Y8326
X45389Y29030
X45133Y27976
X44976Y27701
X45295Y26741
X45304Y25819
X44266Y25824
X43814Y25447
X43433Y25505
X42879Y25477
X42495Y25539
X42141Y25435
X41757Y25539
X41058Y25585
X40704Y25496
X40261Y25467
X39838Y25614
X39621Y25866
X39375Y25585
X38952Y25477
X38539Y25388
X38076Y25427
X37948Y25870
X37643Y25585
X37249Y25447
X36875Y25536
X36373Y25536
X35960Y25585
X36236Y25880
X36570Y26225
X36108Y26599
X35517Y27484
X35192Y27484
X35606Y27800
X35635Y28193
X35950Y28183
X36312Y28198
X36639Y28252
X37183Y28555
X37200Y27465
X37524Y27465
X37791Y26618
X38243Y26293
X39484Y26618
X39946Y26284
X41216Y26618
X41610Y26293
X41323Y25869
X42879Y26223
X43174Y26597
X43005Y26864
X43667Y27268
X43676Y27583
X43667Y27898
X43726Y28478
X43293Y28183
X42958Y28154
X42636Y28161
X42299Y28177
X41806Y28173
X41491Y28162
X40997Y28178
X40675Y28173
X40153Y28095
X39837Y28172
X38736Y28326
X38270Y28173
X38794Y27473
X39188Y27465
X34789Y28134
X34474Y28154
X34159Y28232
X33873Y28784
X33833Y27611
X33914Y27150
X34405Y26667
X34788Y26351
X34543Y25919
X34651Y25506
X34267Y25585
X33775Y25575
X35251Y25585
X35566Y25381
X44759Y24984
X44257Y26677
X43529Y29276
X47120Y10893
X46604Y11149
X46604Y10381
X47297Y10253
X47326Y9919
X47411Y9574
X47326Y9190
X47332Y8442
X46604Y9358
X48937Y8324
X45332Y22761
X44722Y22476
X44348Y22495
X43905Y21915
X43383Y21718
X43413Y21403
X43747Y20773
X44574Y20901
X44909Y21413
X44899Y21964
X42881Y21974
X42192Y21984
X41946Y22190
X41533Y22515
X41099Y22525
X41287Y22003
X41759Y21521
X42153Y21472
X42044Y20980
X41572Y21058
X40873Y21423
X40657Y20606
X40105Y20694
X40115Y20212
X40046Y19700
X40026Y19267
X40361Y19287
X41070Y19356
X40863Y18962
X41424Y19031
X41415Y18548
X41139Y18194
X40716Y17761
X40932Y16973
X40744Y16501
X40966Y16216
X41237Y16048
X40824Y15182
X41188Y14788
X41464Y14956
X41188Y13096
X42172Y13174
X43324Y13529
X43235Y14041
X43472Y14257
X44151Y14021
X43836Y13657
X43757Y12820
X43550Y12043
X42930Y12082
X42438Y11078
X42642Y10785
X43127Y10468
X43107Y10153
X43915Y9946
X44180Y9769
X44102Y9188
X43846Y9375
X42970Y9149
X42694Y9375
X42399Y9661
X42005Y10025
X41985Y9021
X41289Y9204
X40952Y8814
X40627Y8863
X41139Y9799
X40637Y10704
X39229Y10802
X39229Y11117
X39102Y9867
X38787Y9877
X38757Y9041
X39062Y8962
X37635Y9602
X36995Y9680
X36596Y9581
X36109Y9395
X35794Y9424
X35489Y9542
X35066Y9228
X34741Y9444
X34033Y9375
X34033Y8883
X32930Y9690
X32624Y9552
X32320Y9454
X32163Y9730
X31840Y9728
X31523Y9728
X31001Y9060
X30292Y9257
X30237Y9775
X30726Y10153
X30991Y11117
X31365Y10802
X31985Y10526
X32684Y11127
X32684Y11442
X32565Y11826
X33353Y11570
X33383Y12830
X33659Y12987
X34446Y12869
X34692Y13086
X34918Y13371
X34849Y14631
X34258Y14306
X34189Y13990
X33398Y13859
X33402Y14208
X32842Y14287
X32605Y14050
X31503Y13893
X31031Y13923
X30186Y15015
X31208Y15724
X31510Y15609
X30972Y15999
X30661Y16312
X32517Y16432
X32674Y16157
X32979Y16245
X33088Y15901
X33147Y15232
X34151Y15094
X35007Y15576
X35971Y15428
X36474Y15192
X36719Y14985
X36847Y15674
X37162Y15753
X37792Y15507
X37861Y16121
X37596Y16304
X36916Y16393
X36434Y16373
X35834Y16048
X35942Y17653
X35785Y17928
X35499Y18066
X35203Y18263
X34909Y18106
X33974Y18234
X33815Y19099
X33831Y19422
X33531Y19247
X33403Y19543
X33413Y19858
X32940Y19858
X32290Y20232
X32281Y21137
X32024Y21354
X31720Y21216
X31365Y21186
X31207Y20714
X30883Y20711
X30567Y20694
X31572Y20714
X31502Y19611
X31178Y19611
X30863Y19602
X30509Y19611
X31936Y18883
X32271Y18883
X32350Y16708
X33599Y17003
X34682Y16865
X34731Y19552
X35026Y19710
X35086Y20743
X34377Y20753
X33806Y20586
X33491Y20566
X33826Y21678
X34111Y21531
X34505Y21501
X34830Y21639
X35017Y22180
X36207Y22111
X36218Y22426
X36237Y21560
X36513Y21009
X37005Y20606
X37802Y20645
X37497Y21068
X37625Y21363
X38442Y21127
X38904Y20989
X39151Y21226
X39594Y21157
X39456Y20596
X38796Y20251
X39013Y19808
X39062Y19493
X39367Y19641
X39643Y19159
X39515Y18076
X39033Y18096
X39229Y17840
X39849Y17504
X39524Y16934
X39574Y16452
X38777Y16373
X38737Y16875
X38934Y15743
X38909Y15133
X39203Y15258
X38294Y14621
X37743Y14798
X37664Y13961
X38481Y13795
X38285Y12318
X38039Y12535
X37763Y12377
X37861Y12052
X37286Y12269
X37467Y12534
X37231Y11865
X37005Y11639
X36139Y10802
X35804Y10802
X36779Y8745
X35636Y13993
X38137Y15871
X37409Y17033
X37222Y17417
X36729Y17613
X37891Y18165
X37298Y19258
X37064Y19474
X38285Y19474
X38589Y19562
X38294Y19966
X37979Y19913
X36119Y20101
X36887Y22043
X37113Y22269
X39141Y22407
X39298Y21728
X40056Y21718
X40174Y18401
X41956Y18903
X42310Y18913
X43324Y18539
X43285Y18017
X43639Y17456
X44121Y17535
X44200Y17850
X44987Y18007
X44899Y18519
X43954Y18667
X43944Y16550
X44476Y16767
X44446Y16167
X44768Y16048
X44869Y15734
X44426Y15389
X45155Y14897
X45460Y14818
X45105Y13785
X44771Y12987
X45076Y12062
X44466Y12043
X44052Y11452
X45391Y11354
X41985Y11324
X40804Y12151
X39653Y12505
X39820Y12976
X42231Y16639
X42188Y17472
X43026Y16826
X43127Y16225
X45342Y16747
X45430Y19326
X42537Y20074
X33481Y22673
X31995Y21826
X31277Y22495
X31425Y11747
X44318Y8489
X44663Y8627
X29535Y8962
X29161Y9316
X28649Y9888
X28294Y9641
X28078Y9169
X27704Y9287
X27852Y10409
X28157Y10625
X28452Y10753
X28767Y10719
X29130Y10408
X29447Y10428
X29914Y9764
X30027Y12180
X29958Y13125
X29009Y13145
X29003Y12358
X28816Y11413
X27970Y10921
X27862Y12072
X27881Y12653
X28383Y15350
X28157Y15852
X28825Y15704
X29063Y15704
X29603Y15212
X29387Y18135
X28992Y18342
X28609Y18342
X28117Y18135
X28196Y17781
X27911Y18391
X27940Y19917
X28029Y21137
X28351Y21137
X28580Y21629
X29200Y21865
X29196Y22308
X29702Y21088
X29653Y20035
X29308Y20035
X29481Y19444
X29878Y18292
X30333Y5074
X31996Y4811
X32458Y4811
X33315Y4811
X34191Y4811
X35334Y5078
X29712Y7005
X22457Y23963
X20902Y23811
X20892Y23369
X21089Y22444
X20617Y22414
X20764Y22079
X20558Y21528
X20420Y21242
X20410Y20918
X19918Y20325
X19918Y19995
X19583Y19953
X20223Y19392
X19818Y18882
X19337Y18919
X19032Y19028
X18776Y17995
X18776Y17778
X18983Y17735
X18983Y17420
X19053Y16973
X20873Y16985
X21178Y16906
X21434Y17580
X21670Y17585
X21670Y17831
X21817Y18339
X22054Y18349
X22377Y18479
X22398Y18156
X22416Y18794
X22426Y19109
X22428Y19436
X22447Y19800
X22447Y20115
X22290Y20416
X22290Y20672
X22349Y21660
X21955Y22698
X19987Y22595
X19987Y22802
X19987Y22359
X18018Y22349
X18018Y22585
X18018Y22822
X17703Y22585
X17703Y22349
X17703Y22113
X18018Y22011
X17388Y22261
X17388Y22497
X17388Y22733
X16355Y23018
X16108Y23900
X15833Y24077
X15882Y24432
X16001Y25022
X15798Y25674
X14567Y25555
X14475Y25052
X14249Y24550
X14445Y24235
X13565Y24579
X13117Y24294
X12585Y24097
X12182Y24554
X12182Y24800
X12182Y25046
X12457Y25538
X12467Y25784
X12467Y26050
X13597Y25766
X13666Y25547
X13599Y26479
X14101Y26646
X14455Y27070
X15016Y27699
X13648Y27729
X16414Y28304
X16709Y28304
X17467Y25948
X17467Y24501
X16806Y24454
X19534Y24632
X19751Y25209
X21020Y24701
X20814Y24461
X20646Y18392
X20400Y18392
X20148Y18392
X20489Y16434
X20203Y16129
X20213Y14928
X19337Y14967
X19113Y13877
X18707Y13885
X18609Y13579
X18845Y13363
X19168Y13361
X19368Y13642
X19660Y13479
X19672Y13798
X19977Y13658
X20016Y13973
X21808Y13255
X21880Y15066
X22014Y15379
X22014Y15694
X21274Y15645
X17880Y15790
X17438Y15987
X17388Y16381
X16591Y16768
X16758Y18152
X16758Y18369
X16965Y18438
X17182Y18205
X17073Y20190
X16049Y19185
X14229Y18713
X13932Y18342
X13491Y17601
X13486Y17358
X13609Y16489
X14121Y16883
X14278Y16232
X14691Y15612
X14760Y15140
X14520Y14854
X14081Y14885
X13688Y15357
X12946Y14832
X12693Y15672
X13117Y13694
X13215Y13378
X13097Y12995
X12349Y13585
X11827Y13442
X11827Y13186
X14219Y13717
X15213Y14534
X15646Y14534
X16036Y14534
X16527Y14569
X17034Y14692
X17536Y14524
X17605Y14845
X17979Y14822
X18254Y13205
X17192Y13550
X15144Y16469
X12664Y18073
X12802Y19121
X13136Y18959
X13914Y19552
X14101Y20607
X13904Y21060
X14436Y21463
X14180Y21886
X14101Y22457
X14713Y22827
X12861Y22723
X12861Y22477
X12861Y22231
X12861Y21985
X12861Y21739
X13252Y21708
X16363Y21766
X16562Y12733
X17054Y12733
X16028Y12829
X15536Y12829
X15034Y12829
X14219Y12753
X12300Y12830
X11827Y12949
X18629Y12703
X21365Y11995
X21857Y11985
X32678Y24254
X32127Y24254
X31704Y24254
X31153Y24254
X31913Y24697
X32009Y27562
X32344Y27562
X32678Y27562
X31674Y27562
X31434Y28132
X22010Y5786
X21547Y6278
X21400Y7331
X21410Y8295
X21606Y9280
X21450Y10292
X20612Y10353
X20258Y10746
X20169Y9378
X18772Y10825
X18841Y6278
X23616Y38484
X23409Y38140
X23911Y38021
X25309Y38051
X9070Y41814
X8433Y43967
X8627Y44708
X6373Y43960
X5852Y47198
X7338Y23514
X5841Y22968
X5841Y27796
X5841Y33386
X5841Y37678
X27392Y36930
X27786Y36930
X29184Y36930
X29577Y36930
X30010Y51989
X30404Y51989
X30798Y51989
X31191Y51989
X26093Y36890
X27038Y36910
X28829Y36949
X28140Y36969
X31565Y36989
X29827Y37130
X30095Y37278
X26585Y37363
X31310Y37579
X30325Y37815
X31290Y37894
X28858Y38120
X29597Y38130
X26995Y38146
X27904Y38150
X26546Y38327
X31487Y38701
X29558Y39095
X27530Y39154
X28707Y39193
X31605Y39390
X26152Y39449
X31073Y39705
X30030Y39725
X26526Y39764
X28864Y40079
X29184Y40158
X28514Y40335
X26329Y40414
X29459Y40571
X27825Y40650
X31605Y40709
X28928Y41122
X27904Y41359
X29715Y41457
X26349Y41477
X31526Y41890
X27430Y42022
X28790Y42087
X29160Y42319
X28410Y42342
X27471Y42343
X27786Y42343
X30187Y42697
X30522Y42697
X31329Y42953
X26920Y42993
X29164Y43426
X31624Y43445
X27372Y43504
X31039Y43819
X28670Y43822
X30739Y43957
X26624Y44016
X30187Y44941
X29617Y45099
X28593Y45178
X28908Y45335
X27215Y45355
X26447Y45473
X26743Y45552
X31624Y45886
X27687Y45985
X31034Y46004
X29932Y46122
X29065Y46280
X29420Y46280
X28573Y46378
X26782Y46418
X27687Y46713
X28370Y47022
X31132Y47048
X27333Y47244
X29930Y47432
X26428Y47973
X29580Y48162
X28632Y48170
X29270Y48172
X30340Y48172
X27589Y48248
X31624Y48760
X26684Y49095
X27117Y49095
X26684Y49410
X27117Y49410
X27628Y49567
X31152Y50374
X26152Y50433
X27727Y50630
X26605Y51044
X26979Y51044
X26605Y51496
X26979Y51496
X26132Y51949
X26959Y51989
X31624Y52008
X41011Y7059
X40667Y7266
X40548Y6764
X40578Y5366
T02
X12245Y46029
X14587Y32236
X15955Y46053
X15955Y45207
X15955Y40780
X15955Y40110
X18953Y40071
X18957Y46026
X18957Y45238
X18957Y40760
T03
X55867Y45740
X56182Y45051
X56497Y45740
X56812Y45051
X57127Y45740
X55060Y45140G85X55060Y45652
X57934Y45140G85X57934Y45652
T04
X50768Y42167
X50768Y41183
X50768Y40199
X50768Y39215
X50768Y38230
X5168Y53782
X5168Y51852
X5198Y51038
X5198Y49538
X5975Y51038
X5975Y49538
X7329Y51057
X7329Y49557
X8186Y51037
X8186Y49537
X8317Y52126
X8337Y53071
X9071Y51027
X9071Y49527
X9918Y51019
X9918Y49519
X10246Y52126
X10266Y53071
X18907Y51825
X18907Y50325
X21034Y51825
X21034Y50325
X21999Y51815
X21999Y50315
X32737Y52898
X32737Y51398
X35975Y52888
X35975Y51388
X44558Y50398
X44558Y48898
X45621Y50378
X45621Y48878
X46448Y50358
X46448Y48858
X48229Y50339
X48229Y48839
X49912Y51599
X49912Y50099
X50355Y18587
X50355Y17587
X50355Y16587
X50355Y15587
X50355Y14587
X50355Y13587
X50640Y49010
X50640Y47510
X51014Y51569
X51014Y50069
X51516Y48980
X51516Y47480
X52117Y51556
X52117Y50056
X52973Y51556
X52973Y50056
X20837Y4780
X20837Y5780
X20837Y6780
X20837Y7780
X20837Y8780
X19837Y8780
X19837Y7780
X19837Y6780
X19837Y5780
X19837Y4780
T05
X1957Y21755
X1957Y20755
X1957Y19755
X1957Y18755
X1957Y17755
X1957Y16755
X1957Y15755
X1957Y14755
X1957Y13755
X1957Y12755
X1957Y11755
X1957Y10755
X1957Y9755
X1957Y8755
X1957Y7755
X2957Y21755
X2957Y20755
X2957Y19755
X2957Y18755
X2957Y17755
X2957Y16755
X2957Y15755
X2957Y14755
X2957Y13755
X2957Y12755
X2957Y11755
X2957Y10755
X2957Y9755
X2957Y8755
X2957Y7755
X3957Y21755
X3957Y20755
X3957Y19755
X3957Y18755
X3957Y17755
X3957Y16755
X3957Y15755
X3957Y14755
X3957Y13755
X3957Y12755
X3957Y11755
X3957Y10755
X3957Y9755
X3957Y8755
X3957Y7755
X4957Y21755
X4957Y20755
X4957Y19755
X4957Y18755
X4957Y17755
X4957Y16755
X4957Y15755
X4957Y14755
X4957Y13755
X4957Y12755
X5808Y48742
X5957Y21755
X5957Y20755
X5957Y19755
X5957Y18755
X5957Y17755
X5957Y16755
X5957Y15755
X5957Y14755
X5957Y13755
X5957Y12755
X6957Y21755
X6957Y20755
X6957Y19755
X6957Y18755
X6957Y17755
X6957Y16755
X6957Y15755
X6957Y14755
X6957Y13755
X6957Y12755
X7146Y53043
X7957Y21755
X7957Y20755
X7957Y19755
X7957Y18755
X7957Y17755
X7957Y16755
X7957Y15755
X7957Y14755
X7957Y13755
X7957Y12755
X8957Y21755
X8957Y20755
X8957Y19755
X8957Y18755
X8957Y17755
X8957Y16755
X8957Y15755
X8957Y14755
X8957Y13755
X8957Y12755
X9957Y21755
X9957Y20755
X9957Y19755
X9957Y18755
X9957Y17755
X9957Y16755
X9957Y15755
X9957Y14755
X9957Y13755
X9957Y12755
X11694Y31104
X11694Y29963
X12068Y51656
X12835Y31096
X12835Y29963
X13042Y52650
X13121Y49047
X14341Y52650
X15463Y51577
X16614Y52669
X17983Y51606
X18820Y30120
X18859Y31104
X21615Y48843
X21615Y47843
X21615Y46843
X21615Y45843
X21615Y44843
X21615Y43843
X21615Y42843
X21615Y41843
X24528Y17091
X24528Y14138
X25635Y17091
X26113Y26538
X26142Y27640
X26142Y25435
X27245Y26538
X27245Y24333
X30837Y29736
X31526Y52788
X32097Y29756
X32127Y31154
X33800Y52630
X34597Y32728
X35060Y52630
X35060Y51498
X35463Y40947
X35719Y32728
X35886Y38191
X36886Y38191
X37127Y52630
X37127Y51498
X37356Y3539
X37356Y2539
X37886Y38191
X38356Y3539
X38356Y2539
X38886Y38191
X39356Y3539
X39356Y2539
X39886Y38191
X40356Y3539
X40356Y2539
X40886Y38191
X41356Y3539
X41356Y2539
X41871Y32807
X42356Y3539
X42356Y2539
X42530Y50356
X42589Y51478
X43071Y34963
X43356Y3539
X43356Y2539
X43721Y51478
X44356Y3539
X44356Y2539
X45207Y33122
X45356Y3539
X45356Y2539
X45670Y51488
X46356Y3539
X46356Y2539
X46418Y16223
X46418Y15106
X46792Y51478
X47343Y48900
X47356Y3539
X47356Y2539
X47599Y16223
X47599Y15106
X48042Y51469
X48356Y3539
X48356Y2539
X48465Y44618
X48780Y16223
X48780Y15106
X49371Y48919
X52855Y48919
X53274Y40494
X53274Y39510
X54062Y40494
X54062Y39510
X28753Y13525
X27953Y13525
X28353Y11525
X30758Y37130
X30358Y39130
X31158Y39130
T06
X6296Y55937
X6296Y54165
X7673Y55937
X7673Y54165
X8894Y55937
X8894Y54165
X10075Y55937
X10075Y54165
X11256Y55937
X11256Y54165
X12437Y55937
X12437Y54165
X13618Y55937
X13618Y54165
X14799Y55937
X14799Y54165
X15980Y55937
X15980Y54165
X17161Y55937
X17161Y54165
X18382Y55937
X18382Y54165
X20725Y55937
X20725Y54165
X21906Y55937
X21906Y54165
X23087Y55937
X23087Y54165
X24268Y55937
X24268Y54165
X25450Y55937
X25450Y54165
X26631Y55937
X26631Y54165
X28874Y55937
X28874Y54165
X30055Y55937
X30055Y54165
X31236Y55937
X31236Y54165
X32417Y55937
X32417Y54165
X33599Y55937
X33599Y54165
X34780Y55937
X34780Y54165
X35961Y55937
X35961Y54165
X37142Y55937
X37142Y54165
X39483Y55937
X39483Y54165
X40861Y55937
X40861Y54165
X42083Y55937
X42083Y54165
X43264Y55937
X43264Y54165
X44445Y55937
X44445Y54165
X45626Y55937
X45626Y54165
X46807Y55937
X46807Y54165
X47988Y55937
X47988Y54165
X49169Y55937
X49169Y54165
X50350Y55937
X50350Y54165
X51571Y55937
X51571Y54165
X52949Y55937
X52949Y54165
X54327Y55937
X54327Y54165
T07
X10787Y39961
X12953Y39961
T08
X52688Y34619
X54144Y33753
X54892Y34619
X56349Y33753
X57333Y34619
T09
X55129Y42372
X55129Y37632
T10
X55355Y20587
X55355Y11587
X7913Y39961
T11
X6040Y58181
X19603Y58181
X38264Y58181
X54583Y58181
T12
X1969Y60591
X1969Y28307
X1969Y2008
X58642Y28307
X58661Y60591
X58661Y2008
M30
