G04 #@! TF.GenerationSoftware,KiCad,Pcbnew,(5.99.0-10559-g8513ca974c)*
G04 #@! TF.CreationDate,2021-11-01T12:15:16+02:00*
G04 #@! TF.ProjectId,hellen64_NA8_96,68656c6c-656e-4363-945f-4e41385f3936,a*
G04 #@! TF.SameCoordinates,PX141ef50PYa2cc1bc*
G04 #@! TF.FileFunction,Paste,Top*
G04 #@! TF.FilePolarity,Positive*
%FSLAX46Y46*%
G04 Gerber Fmt 4.6, Leading zero omitted, Abs format (unit mm)*
G04 Created by KiCad (PCBNEW (5.99.0-10559-g8513ca974c)) date 2021-11-01 12:15:16*
%MOMM*%
%LPD*%
G01*
G04 APERTURE LIST*
%ADD10O,0.000001X0.000001*%
%ADD11R,0.375000X0.350000*%
%ADD12R,0.350000X0.375000*%
%ADD13R,2.600000X3.600000*%
%ADD14R,0.800000X2.200000*%
%ADD15R,2.032000X5.080000*%
%ADD16R,11.430000X7.620000*%
G04 APERTURE END LIST*
D10*
G04 #@! TO.C,M4*
X89968539Y5845064D03*
X82218547Y19395047D03*
X82988541Y4570030D03*
G04 #@! TD*
G04 #@! TO.C,R32*
G36*
G01*
X48649428Y128280339D02*
X47399428Y128280339D01*
G75*
G02*
X47299428Y128380339I0J100000D01*
G01*
X47299428Y129180339D01*
G75*
G02*
X47399428Y129280339I100000J0D01*
G01*
X48649428Y129280339D01*
G75*
G02*
X48749428Y129180339I0J-100000D01*
G01*
X48749428Y128380339D01*
G75*
G02*
X48649428Y128280339I-100000J0D01*
G01*
G37*
G36*
G01*
X48649428Y130180361D02*
X47399428Y130180361D01*
G75*
G02*
X47299428Y130280361I0J100000D01*
G01*
X47299428Y131080361D01*
G75*
G02*
X47399428Y131180361I100000J0D01*
G01*
X48649428Y131180361D01*
G75*
G02*
X48749428Y131080361I0J-100000D01*
G01*
X48749428Y130280361D01*
G75*
G02*
X48649428Y130180361I-100000J0D01*
G01*
G37*
G04 #@! TD*
G04 #@! TO.C,R2*
G36*
G01*
X24710000Y87162500D02*
X25490000Y87162500D01*
G75*
G02*
X25560000Y87092500I0J-70000D01*
G01*
X25560000Y86532500D01*
G75*
G02*
X25490000Y86462500I-70000J0D01*
G01*
X24710000Y86462500D01*
G75*
G02*
X24640000Y86532500I0J70000D01*
G01*
X24640000Y87092500D01*
G75*
G02*
X24710000Y87162500I70000J0D01*
G01*
G37*
G36*
G01*
X24710000Y85562500D02*
X25490000Y85562500D01*
G75*
G02*
X25560000Y85492500I0J-70000D01*
G01*
X25560000Y84932500D01*
G75*
G02*
X25490000Y84862500I-70000J0D01*
G01*
X24710000Y84862500D01*
G75*
G02*
X24640000Y84932500I0J70000D01*
G01*
X24640000Y85492500D01*
G75*
G02*
X24710000Y85562500I70000J0D01*
G01*
G37*
G04 #@! TD*
G04 #@! TO.C,R4*
G36*
G01*
X115676680Y113340340D02*
X115676680Y114120340D01*
G75*
G02*
X115746680Y114190340I70000J0D01*
G01*
X116306680Y114190340D01*
G75*
G02*
X116376680Y114120340I0J-70000D01*
G01*
X116376680Y113340340D01*
G75*
G02*
X116306680Y113270340I-70000J0D01*
G01*
X115746680Y113270340D01*
G75*
G02*
X115676680Y113340340I0J70000D01*
G01*
G37*
G36*
G01*
X117276680Y113340340D02*
X117276680Y114120340D01*
G75*
G02*
X117346680Y114190340I70000J0D01*
G01*
X117906680Y114190340D01*
G75*
G02*
X117976680Y114120340I0J-70000D01*
G01*
X117976680Y113340340D01*
G75*
G02*
X117906680Y113270340I-70000J0D01*
G01*
X117346680Y113270340D01*
G75*
G02*
X117276680Y113340340I0J70000D01*
G01*
G37*
G04 #@! TD*
G04 #@! TO.C,C3*
G36*
G01*
X61596678Y25965340D02*
X61596678Y26645340D01*
G75*
G02*
X61681678Y26730340I85000J0D01*
G01*
X62361678Y26730340D01*
G75*
G02*
X62446678Y26645340I0J-85000D01*
G01*
X62446678Y25965340D01*
G75*
G02*
X62361678Y25880340I-85000J0D01*
G01*
X61681678Y25880340D01*
G75*
G02*
X61596678Y25965340I0J85000D01*
G01*
G37*
G36*
G01*
X63176680Y25965340D02*
X63176680Y26645340D01*
G75*
G02*
X63261680Y26730340I85000J0D01*
G01*
X63941680Y26730340D01*
G75*
G02*
X64026680Y26645340I0J-85000D01*
G01*
X64026680Y25965340D01*
G75*
G02*
X63941680Y25880340I-85000J0D01*
G01*
X63261680Y25880340D01*
G75*
G02*
X63176680Y25965340I0J85000D01*
G01*
G37*
G04 #@! TD*
G04 #@! TO.C,R9*
G36*
G01*
X44026680Y98690340D02*
X44026680Y99470340D01*
G75*
G02*
X44096680Y99540340I70000J0D01*
G01*
X44656680Y99540340D01*
G75*
G02*
X44726680Y99470340I0J-70000D01*
G01*
X44726680Y98690340D01*
G75*
G02*
X44656680Y98620340I-70000J0D01*
G01*
X44096680Y98620340D01*
G75*
G02*
X44026680Y98690340I0J70000D01*
G01*
G37*
G36*
G01*
X45626680Y98690340D02*
X45626680Y99470340D01*
G75*
G02*
X45696680Y99540340I70000J0D01*
G01*
X46256680Y99540340D01*
G75*
G02*
X46326680Y99470340I0J-70000D01*
G01*
X46326680Y98690340D01*
G75*
G02*
X46256680Y98620340I-70000J0D01*
G01*
X45696680Y98620340D01*
G75*
G02*
X45626680Y98690340I0J70000D01*
G01*
G37*
G04 #@! TD*
G04 #@! TO.C,R21*
G36*
G01*
X56501680Y128255318D02*
X55251680Y128255318D01*
G75*
G02*
X55151680Y128355318I0J100000D01*
G01*
X55151680Y129155318D01*
G75*
G02*
X55251680Y129255318I100000J0D01*
G01*
X56501680Y129255318D01*
G75*
G02*
X56601680Y129155318I0J-100000D01*
G01*
X56601680Y128355318D01*
G75*
G02*
X56501680Y128255318I-100000J0D01*
G01*
G37*
G36*
G01*
X56501680Y130155340D02*
X55251680Y130155340D01*
G75*
G02*
X55151680Y130255340I0J100000D01*
G01*
X55151680Y131055340D01*
G75*
G02*
X55251680Y131155340I100000J0D01*
G01*
X56501680Y131155340D01*
G75*
G02*
X56601680Y131055340I0J-100000D01*
G01*
X56601680Y130255340D01*
G75*
G02*
X56501680Y130155340I-100000J0D01*
G01*
G37*
G04 #@! TD*
G04 #@! TO.C,M5*
X57244999Y68321715D03*
G04 #@! TD*
G04 #@! TO.C,D1*
G36*
G01*
X67906019Y6350340D02*
X67906019Y5110340D01*
G75*
G02*
X67776019Y4980340I-130000J0D01*
G01*
X66736019Y4980340D01*
G75*
G02*
X66606019Y5110340I0J130000D01*
G01*
X66606019Y6350340D01*
G75*
G02*
X66736019Y6480340I130000J0D01*
G01*
X67776019Y6480340D01*
G75*
G02*
X67906019Y6350340I0J-130000D01*
G01*
G37*
G36*
G01*
X69806040Y6350340D02*
X69806040Y5110340D01*
G75*
G02*
X69676040Y4980340I-130000J0D01*
G01*
X68636040Y4980340D01*
G75*
G02*
X68506040Y5110340I0J130000D01*
G01*
X68506040Y6350340D01*
G75*
G02*
X68636040Y6480340I130000J0D01*
G01*
X69676040Y6480340D01*
G75*
G02*
X69806040Y6350340I0J-130000D01*
G01*
G37*
G04 #@! TD*
G04 #@! TO.C,R48*
G36*
G01*
X113801680Y124655339D02*
X112551680Y124655339D01*
G75*
G02*
X112451680Y124755339I0J100000D01*
G01*
X112451680Y125555339D01*
G75*
G02*
X112551680Y125655339I100000J0D01*
G01*
X113801680Y125655339D01*
G75*
G02*
X113901680Y125555339I0J-100000D01*
G01*
X113901680Y124755339D01*
G75*
G02*
X113801680Y124655339I-100000J0D01*
G01*
G37*
G36*
G01*
X113801680Y126555361D02*
X112551680Y126555361D01*
G75*
G02*
X112451680Y126655361I0J100000D01*
G01*
X112451680Y127455361D01*
G75*
G02*
X112551680Y127555361I100000J0D01*
G01*
X113801680Y127555361D01*
G75*
G02*
X113901680Y127455361I0J-100000D01*
G01*
X113901680Y126655361D01*
G75*
G02*
X113801680Y126555361I-100000J0D01*
G01*
G37*
G04 #@! TD*
G04 #@! TO.C,D15*
G36*
G01*
X62411889Y79496090D02*
X62411889Y79016090D01*
G75*
G02*
X62351889Y78956090I-60000J0D01*
G01*
X61871889Y78956090D01*
G75*
G02*
X61811889Y79016090I0J60000D01*
G01*
X61811889Y79496090D01*
G75*
G02*
X61871889Y79556090I60000J0D01*
G01*
X62351889Y79556090D01*
G75*
G02*
X62411889Y79496090I0J-60000D01*
G01*
G37*
G36*
G01*
X62411889Y77296090D02*
X62411889Y76816090D01*
G75*
G02*
X62351889Y76756090I-60000J0D01*
G01*
X61871889Y76756090D01*
G75*
G02*
X61811889Y76816090I0J60000D01*
G01*
X61811889Y77296090D01*
G75*
G02*
X61871889Y77356090I60000J0D01*
G01*
X62351889Y77356090D01*
G75*
G02*
X62411889Y77296090I0J-60000D01*
G01*
G37*
G04 #@! TD*
G04 #@! TO.C,C7*
G36*
G01*
X34790197Y120526785D02*
X35470197Y120526785D01*
G75*
G02*
X35555197Y120441785I0J-85000D01*
G01*
X35555197Y119761785D01*
G75*
G02*
X35470197Y119676785I-85000J0D01*
G01*
X34790197Y119676785D01*
G75*
G02*
X34705197Y119761785I0J85000D01*
G01*
X34705197Y120441785D01*
G75*
G02*
X34790197Y120526785I85000J0D01*
G01*
G37*
G36*
G01*
X34790197Y118946783D02*
X35470197Y118946783D01*
G75*
G02*
X35555197Y118861783I0J-85000D01*
G01*
X35555197Y118181783D01*
G75*
G02*
X35470197Y118096783I-85000J0D01*
G01*
X34790197Y118096783D01*
G75*
G02*
X34705197Y118181783I0J85000D01*
G01*
X34705197Y118861783D01*
G75*
G02*
X34790197Y118946783I85000J0D01*
G01*
G37*
G04 #@! TD*
G04 #@! TO.C,C1*
G36*
G01*
X66211680Y22945341D02*
X66891680Y22945341D01*
G75*
G02*
X66976680Y22860341I0J-85000D01*
G01*
X66976680Y22180341D01*
G75*
G02*
X66891680Y22095341I-85000J0D01*
G01*
X66211680Y22095341D01*
G75*
G02*
X66126680Y22180341I0J85000D01*
G01*
X66126680Y22860341D01*
G75*
G02*
X66211680Y22945341I85000J0D01*
G01*
G37*
G36*
G01*
X66211680Y21365339D02*
X66891680Y21365339D01*
G75*
G02*
X66976680Y21280339I0J-85000D01*
G01*
X66976680Y20600339D01*
G75*
G02*
X66891680Y20515339I-85000J0D01*
G01*
X66211680Y20515339D01*
G75*
G02*
X66126680Y20600339I0J85000D01*
G01*
X66126680Y21280339D01*
G75*
G02*
X66211680Y21365339I85000J0D01*
G01*
G37*
G04 #@! TD*
G04 #@! TO.C,S1*
G36*
G01*
X63281680Y21205341D02*
X65121680Y21205341D01*
G75*
G02*
X65201680Y21125341I0J-80000D01*
G01*
X65201680Y20485341D01*
G75*
G02*
X65121680Y20405341I-80000J0D01*
G01*
X63281680Y20405341D01*
G75*
G02*
X63201680Y20485341I0J80000D01*
G01*
X63201680Y21125341D01*
G75*
G02*
X63281680Y21205341I80000J0D01*
G01*
G37*
G36*
G01*
X63281680Y17005340D02*
X65121680Y17005340D01*
G75*
G02*
X65201680Y16925340I0J-80000D01*
G01*
X65201680Y16285340D01*
G75*
G02*
X65121680Y16205340I-80000J0D01*
G01*
X63281680Y16205340D01*
G75*
G02*
X63201680Y16285340I0J80000D01*
G01*
X63201680Y16925340D01*
G75*
G02*
X63281680Y17005340I80000J0D01*
G01*
G37*
G04 #@! TD*
G04 #@! TO.C,D6*
G36*
G01*
X71811891Y79556089D02*
X72711891Y79556089D01*
G75*
G02*
X72811891Y79456089I0J-100000D01*
G01*
X72811891Y78656089D01*
G75*
G02*
X72711891Y78556089I-100000J0D01*
G01*
X71811891Y78556089D01*
G75*
G02*
X71711891Y78656089I0J100000D01*
G01*
X71711891Y79456089D01*
G75*
G02*
X71811891Y79556089I100000J0D01*
G01*
G37*
G36*
G01*
X71811891Y77856089D02*
X72711891Y77856089D01*
G75*
G02*
X72811891Y77756089I0J-100000D01*
G01*
X72811891Y76956089D01*
G75*
G02*
X72711891Y76856089I-100000J0D01*
G01*
X71811891Y76856089D01*
G75*
G02*
X71711891Y76956089I0J100000D01*
G01*
X71711891Y77756089D01*
G75*
G02*
X71811891Y77856089I100000J0D01*
G01*
G37*
G04 #@! TD*
G04 #@! TO.C,C4*
G36*
G01*
X131806682Y84545340D02*
X131806682Y83865340D01*
G75*
G02*
X131721682Y83780340I-85000J0D01*
G01*
X131041682Y83780340D01*
G75*
G02*
X130956682Y83865340I0J85000D01*
G01*
X130956682Y84545340D01*
G75*
G02*
X131041682Y84630340I85000J0D01*
G01*
X131721682Y84630340D01*
G75*
G02*
X131806682Y84545340I0J-85000D01*
G01*
G37*
G36*
G01*
X130226680Y84545340D02*
X130226680Y83865340D01*
G75*
G02*
X130141680Y83780340I-85000J0D01*
G01*
X129461680Y83780340D01*
G75*
G02*
X129376680Y83865340I0J85000D01*
G01*
X129376680Y84545340D01*
G75*
G02*
X129461680Y84630340I85000J0D01*
G01*
X130141680Y84630340D01*
G75*
G02*
X130226680Y84545340I0J-85000D01*
G01*
G37*
G04 #@! TD*
G04 #@! TO.C,R24*
G36*
G01*
X116501680Y124605339D02*
X115251680Y124605339D01*
G75*
G02*
X115151680Y124705339I0J100000D01*
G01*
X115151680Y125505339D01*
G75*
G02*
X115251680Y125605339I100000J0D01*
G01*
X116501680Y125605339D01*
G75*
G02*
X116601680Y125505339I0J-100000D01*
G01*
X116601680Y124705339D01*
G75*
G02*
X116501680Y124605339I-100000J0D01*
G01*
G37*
G36*
G01*
X116501680Y126505361D02*
X115251680Y126505361D01*
G75*
G02*
X115151680Y126605361I0J100000D01*
G01*
X115151680Y127405361D01*
G75*
G02*
X115251680Y127505361I100000J0D01*
G01*
X116501680Y127505361D01*
G75*
G02*
X116601680Y127405361I0J-100000D01*
G01*
X116601680Y126605361D01*
G75*
G02*
X116501680Y126505361I-100000J0D01*
G01*
G37*
G04 #@! TD*
G04 #@! TO.C,D28*
G36*
G01*
X55996680Y77215340D02*
X55996680Y76195340D01*
G75*
G02*
X55906680Y76105340I-90000J0D01*
G01*
X55186680Y76105340D01*
G75*
G02*
X55096680Y76195340I0J90000D01*
G01*
X55096680Y77215340D01*
G75*
G02*
X55186680Y77305340I90000J0D01*
G01*
X55906680Y77305340D01*
G75*
G02*
X55996680Y77215340I0J-90000D01*
G01*
G37*
G36*
G01*
X52696680Y77215340D02*
X52696680Y76195340D01*
G75*
G02*
X52606680Y76105340I-90000J0D01*
G01*
X51886680Y76105340D01*
G75*
G02*
X51796680Y76195340I0J90000D01*
G01*
X51796680Y77215340D01*
G75*
G02*
X51886680Y77305340I90000J0D01*
G01*
X52606680Y77305340D01*
G75*
G02*
X52696680Y77215340I0J-90000D01*
G01*
G37*
G04 #@! TD*
G04 #@! TO.C,D12*
G36*
G01*
X74199386Y79494591D02*
X74199386Y79014591D01*
G75*
G02*
X74139386Y78954591I-60000J0D01*
G01*
X73659386Y78954591D01*
G75*
G02*
X73599386Y79014591I0J60000D01*
G01*
X73599386Y79494591D01*
G75*
G02*
X73659386Y79554591I60000J0D01*
G01*
X74139386Y79554591D01*
G75*
G02*
X74199386Y79494591I0J-60000D01*
G01*
G37*
G36*
G01*
X74199386Y77294591D02*
X74199386Y76814591D01*
G75*
G02*
X74139386Y76754591I-60000J0D01*
G01*
X73659386Y76754591D01*
G75*
G02*
X73599386Y76814591I0J60000D01*
G01*
X73599386Y77294591D01*
G75*
G02*
X73659386Y77354591I60000J0D01*
G01*
X74139386Y77354591D01*
G75*
G02*
X74199386Y77294591I0J-60000D01*
G01*
G37*
G04 #@! TD*
G04 #@! TO.C,R42*
G36*
G01*
X13826680Y126280339D02*
X12576680Y126280339D01*
G75*
G02*
X12476680Y126380339I0J100000D01*
G01*
X12476680Y127180339D01*
G75*
G02*
X12576680Y127280339I100000J0D01*
G01*
X13826680Y127280339D01*
G75*
G02*
X13926680Y127180339I0J-100000D01*
G01*
X13926680Y126380339D01*
G75*
G02*
X13826680Y126280339I-100000J0D01*
G01*
G37*
G36*
G01*
X13826680Y128180361D02*
X12576680Y128180361D01*
G75*
G02*
X12476680Y128280361I0J100000D01*
G01*
X12476680Y129080361D01*
G75*
G02*
X12576680Y129180361I100000J0D01*
G01*
X13826680Y129180361D01*
G75*
G02*
X13926680Y129080361I0J-100000D01*
G01*
X13926680Y128280361D01*
G75*
G02*
X13826680Y128180361I-100000J0D01*
G01*
G37*
G04 #@! TD*
G04 #@! TO.C,D22*
G36*
G01*
X38989177Y92443841D02*
X38989177Y91963841D01*
G75*
G02*
X38929177Y91903841I-60000J0D01*
G01*
X38449177Y91903841D01*
G75*
G02*
X38389177Y91963841I0J60000D01*
G01*
X38389177Y92443841D01*
G75*
G02*
X38449177Y92503841I60000J0D01*
G01*
X38929177Y92503841D01*
G75*
G02*
X38989177Y92443841I0J-60000D01*
G01*
G37*
G36*
G01*
X38989177Y90243841D02*
X38989177Y89763841D01*
G75*
G02*
X38929177Y89703841I-60000J0D01*
G01*
X38449177Y89703841D01*
G75*
G02*
X38389177Y89763841I0J60000D01*
G01*
X38389177Y90243841D01*
G75*
G02*
X38449177Y90303841I60000J0D01*
G01*
X38929177Y90303841D01*
G75*
G02*
X38989177Y90243841I0J-60000D01*
G01*
G37*
G04 #@! TD*
G04 #@! TO.C,D11*
G36*
G01*
X28995000Y90212521D02*
X27755000Y90212521D01*
G75*
G02*
X27625000Y90342521I0J130000D01*
G01*
X27625000Y91382521D01*
G75*
G02*
X27755000Y91512521I130000J0D01*
G01*
X28995000Y91512521D01*
G75*
G02*
X29125000Y91382521I0J-130000D01*
G01*
X29125000Y90342521D01*
G75*
G02*
X28995000Y90212521I-130000J0D01*
G01*
G37*
G36*
G01*
X28995000Y88312500D02*
X27755000Y88312500D01*
G75*
G02*
X27625000Y88442500I0J130000D01*
G01*
X27625000Y89482500D01*
G75*
G02*
X27755000Y89612500I130000J0D01*
G01*
X28995000Y89612500D01*
G75*
G02*
X29125000Y89482500I0J-130000D01*
G01*
X29125000Y88442500D01*
G75*
G02*
X28995000Y88312500I-130000J0D01*
G01*
G37*
G04 #@! TD*
G04 #@! TO.C,C17*
G36*
G01*
X39526680Y100830340D02*
X40576680Y100830340D01*
G75*
G02*
X40676680Y100730340I0J-100000D01*
G01*
X40676680Y99930340D01*
G75*
G02*
X40576680Y99830340I-100000J0D01*
G01*
X39526680Y99830340D01*
G75*
G02*
X39426680Y99930340I0J100000D01*
G01*
X39426680Y100730340D01*
G75*
G02*
X39526680Y100830340I100000J0D01*
G01*
G37*
G36*
G01*
X39526680Y98830340D02*
X40576680Y98830340D01*
G75*
G02*
X40676680Y98730340I0J-100000D01*
G01*
X40676680Y97930340D01*
G75*
G02*
X40576680Y97830340I-100000J0D01*
G01*
X39526680Y97830340D01*
G75*
G02*
X39426680Y97930340I0J100000D01*
G01*
X39426680Y98730340D01*
G75*
G02*
X39526680Y98830340I100000J0D01*
G01*
G37*
G04 #@! TD*
G04 #@! TO.C,R11*
G36*
G01*
X98516680Y128805340D02*
X97736680Y128805340D01*
G75*
G02*
X97666680Y128875340I0J70000D01*
G01*
X97666680Y129435340D01*
G75*
G02*
X97736680Y129505340I70000J0D01*
G01*
X98516680Y129505340D01*
G75*
G02*
X98586680Y129435340I0J-70000D01*
G01*
X98586680Y128875340D01*
G75*
G02*
X98516680Y128805340I-70000J0D01*
G01*
G37*
G36*
G01*
X98516680Y130405340D02*
X97736680Y130405340D01*
G75*
G02*
X97666680Y130475340I0J70000D01*
G01*
X97666680Y131035340D01*
G75*
G02*
X97736680Y131105340I70000J0D01*
G01*
X98516680Y131105340D01*
G75*
G02*
X98586680Y131035340I0J-70000D01*
G01*
X98586680Y130475340D01*
G75*
G02*
X98516680Y130405340I-70000J0D01*
G01*
G37*
G04 #@! TD*
G04 #@! TO.C,R6*
G36*
G01*
X69601680Y83115340D02*
X69601680Y82445340D01*
G75*
G02*
X69536680Y82380340I-65000J0D01*
G01*
X69016680Y82380340D01*
G75*
G02*
X68951680Y82445340I0J65000D01*
G01*
X68951680Y83115340D01*
G75*
G02*
X69016680Y83180340I65000J0D01*
G01*
X69536680Y83180340D01*
G75*
G02*
X69601680Y83115340I0J-65000D01*
G01*
G37*
G36*
G01*
X68626680Y83135340D02*
X68626680Y82425340D01*
G75*
G02*
X68581680Y82380340I-45000J0D01*
G01*
X68221680Y82380340D01*
G75*
G02*
X68176680Y82425340I0J45000D01*
G01*
X68176680Y83135340D01*
G75*
G02*
X68221680Y83180340I45000J0D01*
G01*
X68581680Y83180340D01*
G75*
G02*
X68626680Y83135340I0J-45000D01*
G01*
G37*
G36*
G01*
X67826680Y83135340D02*
X67826680Y82425340D01*
G75*
G02*
X67781680Y82380340I-45000J0D01*
G01*
X67421680Y82380340D01*
G75*
G02*
X67376680Y82425340I0J45000D01*
G01*
X67376680Y83135340D01*
G75*
G02*
X67421680Y83180340I45000J0D01*
G01*
X67781680Y83180340D01*
G75*
G02*
X67826680Y83135340I0J-45000D01*
G01*
G37*
G36*
G01*
X67051680Y83115340D02*
X67051680Y82445340D01*
G75*
G02*
X66986680Y82380340I-65000J0D01*
G01*
X66466680Y82380340D01*
G75*
G02*
X66401680Y82445340I0J65000D01*
G01*
X66401680Y83115340D01*
G75*
G02*
X66466680Y83180340I65000J0D01*
G01*
X66986680Y83180340D01*
G75*
G02*
X67051680Y83115340I0J-65000D01*
G01*
G37*
G36*
G01*
X67051680Y81315340D02*
X67051680Y80645340D01*
G75*
G02*
X66986680Y80580340I-65000J0D01*
G01*
X66466680Y80580340D01*
G75*
G02*
X66401680Y80645340I0J65000D01*
G01*
X66401680Y81315340D01*
G75*
G02*
X66466680Y81380340I65000J0D01*
G01*
X66986680Y81380340D01*
G75*
G02*
X67051680Y81315340I0J-65000D01*
G01*
G37*
G36*
G01*
X67826680Y81335340D02*
X67826680Y80625340D01*
G75*
G02*
X67781680Y80580340I-45000J0D01*
G01*
X67421680Y80580340D01*
G75*
G02*
X67376680Y80625340I0J45000D01*
G01*
X67376680Y81335340D01*
G75*
G02*
X67421680Y81380340I45000J0D01*
G01*
X67781680Y81380340D01*
G75*
G02*
X67826680Y81335340I0J-45000D01*
G01*
G37*
G36*
G01*
X68626680Y81335340D02*
X68626680Y80625340D01*
G75*
G02*
X68581680Y80580340I-45000J0D01*
G01*
X68221680Y80580340D01*
G75*
G02*
X68176680Y80625340I0J45000D01*
G01*
X68176680Y81335340D01*
G75*
G02*
X68221680Y81380340I45000J0D01*
G01*
X68581680Y81380340D01*
G75*
G02*
X68626680Y81335340I0J-45000D01*
G01*
G37*
G36*
G01*
X69601680Y81315340D02*
X69601680Y80645340D01*
G75*
G02*
X69536680Y80580340I-65000J0D01*
G01*
X69016680Y80580340D01*
G75*
G02*
X68951680Y80645340I0J65000D01*
G01*
X68951680Y81315340D01*
G75*
G02*
X69016680Y81380340I65000J0D01*
G01*
X69536680Y81380340D01*
G75*
G02*
X69601680Y81315340I0J-65000D01*
G01*
G37*
G04 #@! TD*
G04 #@! TO.C,R43*
G36*
G01*
X54051680Y128280339D02*
X52801680Y128280339D01*
G75*
G02*
X52701680Y128380339I0J100000D01*
G01*
X52701680Y129180339D01*
G75*
G02*
X52801680Y129280339I100000J0D01*
G01*
X54051680Y129280339D01*
G75*
G02*
X54151680Y129180339I0J-100000D01*
G01*
X54151680Y128380339D01*
G75*
G02*
X54051680Y128280339I-100000J0D01*
G01*
G37*
G36*
G01*
X54051680Y130180361D02*
X52801680Y130180361D01*
G75*
G02*
X52701680Y130280361I0J100000D01*
G01*
X52701680Y131080361D01*
G75*
G02*
X52801680Y131180361I100000J0D01*
G01*
X54051680Y131180361D01*
G75*
G02*
X54151680Y131080361I0J-100000D01*
G01*
X54151680Y130280361D01*
G75*
G02*
X54051680Y130180361I-100000J0D01*
G01*
G37*
G04 #@! TD*
G04 #@! TO.C,D30*
G36*
G01*
X96662380Y100599897D02*
X97142380Y100599897D01*
G75*
G02*
X97202380Y100539897I0J-60000D01*
G01*
X97202380Y100059897D01*
G75*
G02*
X97142380Y99999897I-60000J0D01*
G01*
X96662380Y99999897D01*
G75*
G02*
X96602380Y100059897I0J60000D01*
G01*
X96602380Y100539897D01*
G75*
G02*
X96662380Y100599897I60000J0D01*
G01*
G37*
G36*
G01*
X98862380Y100599897D02*
X99342380Y100599897D01*
G75*
G02*
X99402380Y100539897I0J-60000D01*
G01*
X99402380Y100059897D01*
G75*
G02*
X99342380Y99999897I-60000J0D01*
G01*
X98862380Y99999897D01*
G75*
G02*
X98802380Y100059897I0J60000D01*
G01*
X98802380Y100539897D01*
G75*
G02*
X98862380Y100599897I60000J0D01*
G01*
G37*
G04 #@! TD*
G04 #@! TO.C,M8*
X58359046Y98199900D03*
G04 #@! TD*
G04 #@! TO.C,R17*
G36*
G01*
X131751680Y130496041D02*
X133001680Y130496041D01*
G75*
G02*
X133101680Y130396041I0J-100000D01*
G01*
X133101680Y129596041D01*
G75*
G02*
X133001680Y129496041I-100000J0D01*
G01*
X131751680Y129496041D01*
G75*
G02*
X131651680Y129596041I0J100000D01*
G01*
X131651680Y130396041D01*
G75*
G02*
X131751680Y130496041I100000J0D01*
G01*
G37*
G36*
G01*
X131751680Y128596019D02*
X133001680Y128596019D01*
G75*
G02*
X133101680Y128496019I0J-100000D01*
G01*
X133101680Y127696019D01*
G75*
G02*
X133001680Y127596019I-100000J0D01*
G01*
X131751680Y127596019D01*
G75*
G02*
X131651680Y127696019I0J100000D01*
G01*
X131651680Y128496019D01*
G75*
G02*
X131751680Y128596019I100000J0D01*
G01*
G37*
G04 #@! TD*
G04 #@! TO.C,R8*
G36*
G01*
X123126680Y124505339D02*
X121876680Y124505339D01*
G75*
G02*
X121776680Y124605339I0J100000D01*
G01*
X121776680Y125405339D01*
G75*
G02*
X121876680Y125505339I100000J0D01*
G01*
X123126680Y125505339D01*
G75*
G02*
X123226680Y125405339I0J-100000D01*
G01*
X123226680Y124605339D01*
G75*
G02*
X123126680Y124505339I-100000J0D01*
G01*
G37*
G36*
G01*
X123126680Y126405361D02*
X121876680Y126405361D01*
G75*
G02*
X121776680Y126505361I0J100000D01*
G01*
X121776680Y127305361D01*
G75*
G02*
X121876680Y127405361I100000J0D01*
G01*
X123126680Y127405361D01*
G75*
G02*
X123226680Y127305361I0J-100000D01*
G01*
X123226680Y126505361D01*
G75*
G02*
X123126680Y126405361I-100000J0D01*
G01*
G37*
G04 #@! TD*
G04 #@! TO.C,M13*
X104618539Y19553554D03*
G04 #@! TD*
G04 #@! TO.C,S2*
G36*
G01*
X67856680Y21205341D02*
X69696680Y21205341D01*
G75*
G02*
X69776680Y21125341I0J-80000D01*
G01*
X69776680Y20485341D01*
G75*
G02*
X69696680Y20405341I-80000J0D01*
G01*
X67856680Y20405341D01*
G75*
G02*
X67776680Y20485341I0J80000D01*
G01*
X67776680Y21125341D01*
G75*
G02*
X67856680Y21205341I80000J0D01*
G01*
G37*
G36*
G01*
X67856680Y17005340D02*
X69696680Y17005340D01*
G75*
G02*
X69776680Y16925340I0J-80000D01*
G01*
X69776680Y16285340D01*
G75*
G02*
X69696680Y16205340I-80000J0D01*
G01*
X67856680Y16205340D01*
G75*
G02*
X67776680Y16285340I0J80000D01*
G01*
X67776680Y16925340D01*
G75*
G02*
X67856680Y17005340I80000J0D01*
G01*
G37*
G04 #@! TD*
G04 #@! TO.C,R40*
G36*
G01*
X23666221Y126254437D02*
X22416221Y126254437D01*
G75*
G02*
X22316221Y126354437I0J100000D01*
G01*
X22316221Y127154437D01*
G75*
G02*
X22416221Y127254437I100000J0D01*
G01*
X23666221Y127254437D01*
G75*
G02*
X23766221Y127154437I0J-100000D01*
G01*
X23766221Y126354437D01*
G75*
G02*
X23666221Y126254437I-100000J0D01*
G01*
G37*
G36*
G01*
X23666221Y128154459D02*
X22416221Y128154459D01*
G75*
G02*
X22316221Y128254459I0J100000D01*
G01*
X22316221Y129054459D01*
G75*
G02*
X22416221Y129154459I100000J0D01*
G01*
X23666221Y129154459D01*
G75*
G02*
X23766221Y129054459I0J-100000D01*
G01*
X23766221Y128254459D01*
G75*
G02*
X23666221Y128154459I-100000J0D01*
G01*
G37*
G04 #@! TD*
G04 #@! TO.C,D23*
G36*
G01*
X35701680Y92445340D02*
X35701680Y91965340D01*
G75*
G02*
X35641680Y91905340I-60000J0D01*
G01*
X35161680Y91905340D01*
G75*
G02*
X35101680Y91965340I0J60000D01*
G01*
X35101680Y92445340D01*
G75*
G02*
X35161680Y92505340I60000J0D01*
G01*
X35641680Y92505340D01*
G75*
G02*
X35701680Y92445340I0J-60000D01*
G01*
G37*
G36*
G01*
X35701680Y90245340D02*
X35701680Y89765340D01*
G75*
G02*
X35641680Y89705340I-60000J0D01*
G01*
X35161680Y89705340D01*
G75*
G02*
X35101680Y89765340I0J60000D01*
G01*
X35101680Y90245340D01*
G75*
G02*
X35161680Y90305340I60000J0D01*
G01*
X35641680Y90305340D01*
G75*
G02*
X35701680Y90245340I0J-60000D01*
G01*
G37*
G04 #@! TD*
G04 #@! TO.C,D26*
G36*
G01*
X96602381Y103412402D02*
X96602381Y104312402D01*
G75*
G02*
X96702381Y104412402I100000J0D01*
G01*
X97502381Y104412402D01*
G75*
G02*
X97602381Y104312402I0J-100000D01*
G01*
X97602381Y103412402D01*
G75*
G02*
X97502381Y103312402I-100000J0D01*
G01*
X96702381Y103312402D01*
G75*
G02*
X96602381Y103412402I0J100000D01*
G01*
G37*
G36*
G01*
X98302381Y103412402D02*
X98302381Y104312402D01*
G75*
G02*
X98402381Y104412402I100000J0D01*
G01*
X99202381Y104412402D01*
G75*
G02*
X99302381Y104312402I0J-100000D01*
G01*
X99302381Y103412402D01*
G75*
G02*
X99202381Y103312402I-100000J0D01*
G01*
X98402381Y103312402D01*
G75*
G02*
X98302381Y103412402I0J100000D01*
G01*
G37*
G04 #@! TD*
G04 #@! TO.C,C16*
G36*
G01*
X43605197Y121111784D02*
X44655197Y121111784D01*
G75*
G02*
X44755197Y121011784I0J-100000D01*
G01*
X44755197Y120211784D01*
G75*
G02*
X44655197Y120111784I-100000J0D01*
G01*
X43605197Y120111784D01*
G75*
G02*
X43505197Y120211784I0J100000D01*
G01*
X43505197Y121011784D01*
G75*
G02*
X43605197Y121111784I100000J0D01*
G01*
G37*
G36*
G01*
X43605197Y119111784D02*
X44655197Y119111784D01*
G75*
G02*
X44755197Y119011784I0J-100000D01*
G01*
X44755197Y118211784D01*
G75*
G02*
X44655197Y118111784I-100000J0D01*
G01*
X43605197Y118111784D01*
G75*
G02*
X43505197Y118211784I0J100000D01*
G01*
X43505197Y119011784D01*
G75*
G02*
X43605197Y119111784I100000J0D01*
G01*
G37*
G04 #@! TD*
G04 #@! TO.C,R16*
G36*
G01*
X92367380Y104512400D02*
X93037380Y104512400D01*
G75*
G02*
X93102380Y104447400I0J-65000D01*
G01*
X93102380Y103927400D01*
G75*
G02*
X93037380Y103862400I-65000J0D01*
G01*
X92367380Y103862400D01*
G75*
G02*
X92302380Y103927400I0J65000D01*
G01*
X92302380Y104447400D01*
G75*
G02*
X92367380Y104512400I65000J0D01*
G01*
G37*
G36*
G01*
X92347380Y103537400D02*
X93057380Y103537400D01*
G75*
G02*
X93102380Y103492400I0J-45000D01*
G01*
X93102380Y103132400D01*
G75*
G02*
X93057380Y103087400I-45000J0D01*
G01*
X92347380Y103087400D01*
G75*
G02*
X92302380Y103132400I0J45000D01*
G01*
X92302380Y103492400D01*
G75*
G02*
X92347380Y103537400I45000J0D01*
G01*
G37*
G36*
G01*
X92347380Y102737400D02*
X93057380Y102737400D01*
G75*
G02*
X93102380Y102692400I0J-45000D01*
G01*
X93102380Y102332400D01*
G75*
G02*
X93057380Y102287400I-45000J0D01*
G01*
X92347380Y102287400D01*
G75*
G02*
X92302380Y102332400I0J45000D01*
G01*
X92302380Y102692400D01*
G75*
G02*
X92347380Y102737400I45000J0D01*
G01*
G37*
G36*
G01*
X92367380Y101962400D02*
X93037380Y101962400D01*
G75*
G02*
X93102380Y101897400I0J-65000D01*
G01*
X93102380Y101377400D01*
G75*
G02*
X93037380Y101312400I-65000J0D01*
G01*
X92367380Y101312400D01*
G75*
G02*
X92302380Y101377400I0J65000D01*
G01*
X92302380Y101897400D01*
G75*
G02*
X92367380Y101962400I65000J0D01*
G01*
G37*
G36*
G01*
X94167380Y101962400D02*
X94837380Y101962400D01*
G75*
G02*
X94902380Y101897400I0J-65000D01*
G01*
X94902380Y101377400D01*
G75*
G02*
X94837380Y101312400I-65000J0D01*
G01*
X94167380Y101312400D01*
G75*
G02*
X94102380Y101377400I0J65000D01*
G01*
X94102380Y101897400D01*
G75*
G02*
X94167380Y101962400I65000J0D01*
G01*
G37*
G36*
G01*
X94147380Y102737400D02*
X94857380Y102737400D01*
G75*
G02*
X94902380Y102692400I0J-45000D01*
G01*
X94902380Y102332400D01*
G75*
G02*
X94857380Y102287400I-45000J0D01*
G01*
X94147380Y102287400D01*
G75*
G02*
X94102380Y102332400I0J45000D01*
G01*
X94102380Y102692400D01*
G75*
G02*
X94147380Y102737400I45000J0D01*
G01*
G37*
G36*
G01*
X94147380Y103537400D02*
X94857380Y103537400D01*
G75*
G02*
X94902380Y103492400I0J-45000D01*
G01*
X94902380Y103132400D01*
G75*
G02*
X94857380Y103087400I-45000J0D01*
G01*
X94147380Y103087400D01*
G75*
G02*
X94102380Y103132400I0J45000D01*
G01*
X94102380Y103492400D01*
G75*
G02*
X94147380Y103537400I45000J0D01*
G01*
G37*
G36*
G01*
X94167380Y104512400D02*
X94837380Y104512400D01*
G75*
G02*
X94902380Y104447400I0J-65000D01*
G01*
X94902380Y103927400D01*
G75*
G02*
X94837380Y103862400I-65000J0D01*
G01*
X94167380Y103862400D01*
G75*
G02*
X94102380Y103927400I0J65000D01*
G01*
X94102380Y104447400D01*
G75*
G02*
X94167380Y104512400I65000J0D01*
G01*
G37*
G04 #@! TD*
G04 #@! TO.C,D9*
G36*
G01*
X63311891Y79556089D02*
X64211891Y79556089D01*
G75*
G02*
X64311891Y79456089I0J-100000D01*
G01*
X64311891Y78656089D01*
G75*
G02*
X64211891Y78556089I-100000J0D01*
G01*
X63311891Y78556089D01*
G75*
G02*
X63211891Y78656089I0J100000D01*
G01*
X63211891Y79456089D01*
G75*
G02*
X63311891Y79556089I100000J0D01*
G01*
G37*
G36*
G01*
X63311891Y77856089D02*
X64211891Y77856089D01*
G75*
G02*
X64311891Y77756089I0J-100000D01*
G01*
X64311891Y76956089D01*
G75*
G02*
X64211891Y76856089I-100000J0D01*
G01*
X63311891Y76856089D01*
G75*
G02*
X63211891Y76956089I0J100000D01*
G01*
X63211891Y77756089D01*
G75*
G02*
X63311891Y77856089I100000J0D01*
G01*
G37*
G04 #@! TD*
G04 #@! TO.C,D8*
G36*
G01*
X66611891Y79556089D02*
X67511891Y79556089D01*
G75*
G02*
X67611891Y79456089I0J-100000D01*
G01*
X67611891Y78656089D01*
G75*
G02*
X67511891Y78556089I-100000J0D01*
G01*
X66611891Y78556089D01*
G75*
G02*
X66511891Y78656089I0J100000D01*
G01*
X66511891Y79456089D01*
G75*
G02*
X66611891Y79556089I100000J0D01*
G01*
G37*
G36*
G01*
X66611891Y77856089D02*
X67511891Y77856089D01*
G75*
G02*
X67611891Y77756089I0J-100000D01*
G01*
X67611891Y76956089D01*
G75*
G02*
X67511891Y76856089I-100000J0D01*
G01*
X66611891Y76856089D01*
G75*
G02*
X66511891Y76956089I0J100000D01*
G01*
X66511891Y77756089D01*
G75*
G02*
X66611891Y77856089I100000J0D01*
G01*
G37*
G04 #@! TD*
G04 #@! TO.C,D14*
G36*
G01*
X65711889Y79496090D02*
X65711889Y79016090D01*
G75*
G02*
X65651889Y78956090I-60000J0D01*
G01*
X65171889Y78956090D01*
G75*
G02*
X65111889Y79016090I0J60000D01*
G01*
X65111889Y79496090D01*
G75*
G02*
X65171889Y79556090I60000J0D01*
G01*
X65651889Y79556090D01*
G75*
G02*
X65711889Y79496090I0J-60000D01*
G01*
G37*
G36*
G01*
X65711889Y77296090D02*
X65711889Y76816090D01*
G75*
G02*
X65651889Y76756090I-60000J0D01*
G01*
X65171889Y76756090D01*
G75*
G02*
X65111889Y76816090I0J60000D01*
G01*
X65111889Y77296090D01*
G75*
G02*
X65171889Y77356090I60000J0D01*
G01*
X65651889Y77356090D01*
G75*
G02*
X65711889Y77296090I0J-60000D01*
G01*
G37*
G04 #@! TD*
G04 #@! TO.C,C13*
G36*
G01*
X41655197Y118111784D02*
X40605197Y118111784D01*
G75*
G02*
X40505197Y118211784I0J100000D01*
G01*
X40505197Y119011784D01*
G75*
G02*
X40605197Y119111784I100000J0D01*
G01*
X41655197Y119111784D01*
G75*
G02*
X41755197Y119011784I0J-100000D01*
G01*
X41755197Y118211784D01*
G75*
G02*
X41655197Y118111784I-100000J0D01*
G01*
G37*
G36*
G01*
X41655197Y120111784D02*
X40605197Y120111784D01*
G75*
G02*
X40505197Y120211784I0J100000D01*
G01*
X40505197Y121011784D01*
G75*
G02*
X40605197Y121111784I100000J0D01*
G01*
X41655197Y121111784D01*
G75*
G02*
X41755197Y121011784I0J-100000D01*
G01*
X41755197Y120211784D01*
G75*
G02*
X41655197Y120111784I-100000J0D01*
G01*
G37*
G04 #@! TD*
G04 #@! TO.C,D29*
G36*
G01*
X96662380Y105812400D02*
X97142380Y105812400D01*
G75*
G02*
X97202380Y105752400I0J-60000D01*
G01*
X97202380Y105272400D01*
G75*
G02*
X97142380Y105212400I-60000J0D01*
G01*
X96662380Y105212400D01*
G75*
G02*
X96602380Y105272400I0J60000D01*
G01*
X96602380Y105752400D01*
G75*
G02*
X96662380Y105812400I60000J0D01*
G01*
G37*
G36*
G01*
X98862380Y105812400D02*
X99342380Y105812400D01*
G75*
G02*
X99402380Y105752400I0J-60000D01*
G01*
X99402380Y105272400D01*
G75*
G02*
X99342380Y105212400I-60000J0D01*
G01*
X98862380Y105212400D01*
G75*
G02*
X98802380Y105272400I0J60000D01*
G01*
X98802380Y105752400D01*
G75*
G02*
X98862380Y105812400I60000J0D01*
G01*
G37*
G04 #@! TD*
G04 #@! TO.C,R38*
G36*
G01*
X15801680Y126280339D02*
X14551680Y126280339D01*
G75*
G02*
X14451680Y126380339I0J100000D01*
G01*
X14451680Y127180339D01*
G75*
G02*
X14551680Y127280339I100000J0D01*
G01*
X15801680Y127280339D01*
G75*
G02*
X15901680Y127180339I0J-100000D01*
G01*
X15901680Y126380339D01*
G75*
G02*
X15801680Y126280339I-100000J0D01*
G01*
G37*
G36*
G01*
X15801680Y128180361D02*
X14551680Y128180361D01*
G75*
G02*
X14451680Y128280361I0J100000D01*
G01*
X14451680Y129080361D01*
G75*
G02*
X14551680Y129180361I100000J0D01*
G01*
X15801680Y129180361D01*
G75*
G02*
X15901680Y129080361I0J-100000D01*
G01*
X15901680Y128280361D01*
G75*
G02*
X15801680Y128180361I-100000J0D01*
G01*
G37*
G04 #@! TD*
G04 #@! TO.C,R44*
G36*
G01*
X130201680Y127630339D02*
X128951680Y127630339D01*
G75*
G02*
X128851680Y127730339I0J100000D01*
G01*
X128851680Y128530339D01*
G75*
G02*
X128951680Y128630339I100000J0D01*
G01*
X130201680Y128630339D01*
G75*
G02*
X130301680Y128530339I0J-100000D01*
G01*
X130301680Y127730339D01*
G75*
G02*
X130201680Y127630339I-100000J0D01*
G01*
G37*
G36*
G01*
X130201680Y129530361D02*
X128951680Y129530361D01*
G75*
G02*
X128851680Y129630361I0J100000D01*
G01*
X128851680Y130430361D01*
G75*
G02*
X128951680Y130530361I100000J0D01*
G01*
X130201680Y130530361D01*
G75*
G02*
X130301680Y130430361I0J-100000D01*
G01*
X130301680Y129630361D01*
G75*
G02*
X130201680Y129530361I-100000J0D01*
G01*
G37*
G04 #@! TD*
G04 #@! TO.C,C9*
G36*
G01*
X37155197Y118111784D02*
X36105197Y118111784D01*
G75*
G02*
X36005197Y118211784I0J100000D01*
G01*
X36005197Y119011784D01*
G75*
G02*
X36105197Y119111784I100000J0D01*
G01*
X37155197Y119111784D01*
G75*
G02*
X37255197Y119011784I0J-100000D01*
G01*
X37255197Y118211784D01*
G75*
G02*
X37155197Y118111784I-100000J0D01*
G01*
G37*
G36*
G01*
X37155197Y120111784D02*
X36105197Y120111784D01*
G75*
G02*
X36005197Y120211784I0J100000D01*
G01*
X36005197Y121011784D01*
G75*
G02*
X36105197Y121111784I100000J0D01*
G01*
X37155197Y121111784D01*
G75*
G02*
X37255197Y121011784I0J-100000D01*
G01*
X37255197Y120211784D01*
G75*
G02*
X37155197Y120111784I-100000J0D01*
G01*
G37*
G04 #@! TD*
G04 #@! TO.C,D16*
G36*
G01*
X45051680Y92512399D02*
X45951680Y92512399D01*
G75*
G02*
X46051680Y92412399I0J-100000D01*
G01*
X46051680Y91612399D01*
G75*
G02*
X45951680Y91512399I-100000J0D01*
G01*
X45051680Y91512399D01*
G75*
G02*
X44951680Y91612399I0J100000D01*
G01*
X44951680Y92412399D01*
G75*
G02*
X45051680Y92512399I100000J0D01*
G01*
G37*
G36*
G01*
X45051680Y90812399D02*
X45951680Y90812399D01*
G75*
G02*
X46051680Y90712399I0J-100000D01*
G01*
X46051680Y89912399D01*
G75*
G02*
X45951680Y89812399I-100000J0D01*
G01*
X45051680Y89812399D01*
G75*
G02*
X44951680Y89912399I0J100000D01*
G01*
X44951680Y90712399D01*
G75*
G02*
X45051680Y90812399I100000J0D01*
G01*
G37*
G04 #@! TD*
G04 #@! TO.C,R3*
G36*
G01*
X87401680Y76590340D02*
X87401680Y77370340D01*
G75*
G02*
X87471680Y77440340I70000J0D01*
G01*
X88031680Y77440340D01*
G75*
G02*
X88101680Y77370340I0J-70000D01*
G01*
X88101680Y76590340D01*
G75*
G02*
X88031680Y76520340I-70000J0D01*
G01*
X87471680Y76520340D01*
G75*
G02*
X87401680Y76590340I0J70000D01*
G01*
G37*
G36*
G01*
X89001680Y76590340D02*
X89001680Y77370340D01*
G75*
G02*
X89071680Y77440340I70000J0D01*
G01*
X89631680Y77440340D01*
G75*
G02*
X89701680Y77370340I0J-70000D01*
G01*
X89701680Y76590340D01*
G75*
G02*
X89631680Y76520340I-70000J0D01*
G01*
X89071680Y76520340D01*
G75*
G02*
X89001680Y76590340I0J70000D01*
G01*
G37*
G04 #@! TD*
G04 #@! TO.C,R10*
G36*
G01*
X43701680Y99445340D02*
X43701680Y98665340D01*
G75*
G02*
X43631680Y98595340I-70000J0D01*
G01*
X43071680Y98595340D01*
G75*
G02*
X43001680Y98665340I0J70000D01*
G01*
X43001680Y99445340D01*
G75*
G02*
X43071680Y99515340I70000J0D01*
G01*
X43631680Y99515340D01*
G75*
G02*
X43701680Y99445340I0J-70000D01*
G01*
G37*
G36*
G01*
X42101680Y99445340D02*
X42101680Y98665340D01*
G75*
G02*
X42031680Y98595340I-70000J0D01*
G01*
X41471680Y98595340D01*
G75*
G02*
X41401680Y98665340I0J70000D01*
G01*
X41401680Y99445340D01*
G75*
G02*
X41471680Y99515340I70000J0D01*
G01*
X42031680Y99515340D01*
G75*
G02*
X42101680Y99445340I0J-70000D01*
G01*
G37*
G04 #@! TD*
G04 #@! TO.C,D19*
G36*
G01*
X36601682Y92505339D02*
X37501682Y92505339D01*
G75*
G02*
X37601682Y92405339I0J-100000D01*
G01*
X37601682Y91605339D01*
G75*
G02*
X37501682Y91505339I-100000J0D01*
G01*
X36601682Y91505339D01*
G75*
G02*
X36501682Y91605339I0J100000D01*
G01*
X36501682Y92405339D01*
G75*
G02*
X36601682Y92505339I100000J0D01*
G01*
G37*
G36*
G01*
X36601682Y90805339D02*
X37501682Y90805339D01*
G75*
G02*
X37601682Y90705339I0J-100000D01*
G01*
X37601682Y89905339D01*
G75*
G02*
X37501682Y89805339I-100000J0D01*
G01*
X36601682Y89805339D01*
G75*
G02*
X36501682Y89905339I0J100000D01*
G01*
X36501682Y90705339D01*
G75*
G02*
X36601682Y90805339I100000J0D01*
G01*
G37*
G04 #@! TD*
G04 #@! TO.C,D21*
G36*
G01*
X44201680Y92445340D02*
X44201680Y91965340D01*
G75*
G02*
X44141680Y91905340I-60000J0D01*
G01*
X43661680Y91905340D01*
G75*
G02*
X43601680Y91965340I0J60000D01*
G01*
X43601680Y92445340D01*
G75*
G02*
X43661680Y92505340I60000J0D01*
G01*
X44141680Y92505340D01*
G75*
G02*
X44201680Y92445340I0J-60000D01*
G01*
G37*
G36*
G01*
X44201680Y90245340D02*
X44201680Y89765340D01*
G75*
G02*
X44141680Y89705340I-60000J0D01*
G01*
X43661680Y89705340D01*
G75*
G02*
X43601680Y89765340I0J60000D01*
G01*
X43601680Y90245340D01*
G75*
G02*
X43661680Y90305340I60000J0D01*
G01*
X44141680Y90305340D01*
G75*
G02*
X44201680Y90245340I0J-60000D01*
G01*
G37*
G04 #@! TD*
G04 #@! TO.C,R31*
G36*
G01*
X129251680Y121130339D02*
X128001680Y121130339D01*
G75*
G02*
X127901680Y121230339I0J100000D01*
G01*
X127901680Y122030339D01*
G75*
G02*
X128001680Y122130339I100000J0D01*
G01*
X129251680Y122130339D01*
G75*
G02*
X129351680Y122030339I0J-100000D01*
G01*
X129351680Y121230339D01*
G75*
G02*
X129251680Y121130339I-100000J0D01*
G01*
G37*
G36*
G01*
X129251680Y123030361D02*
X128001680Y123030361D01*
G75*
G02*
X127901680Y123130361I0J100000D01*
G01*
X127901680Y123930361D01*
G75*
G02*
X128001680Y124030361I100000J0D01*
G01*
X129251680Y124030361D01*
G75*
G02*
X129351680Y123930361I0J-100000D01*
G01*
X129351680Y123130361D01*
G75*
G02*
X129251680Y123030361I-100000J0D01*
G01*
G37*
G04 #@! TD*
D11*
G04 #@! TO.C,U1*
X64564180Y27855340D03*
X64564180Y28355340D03*
X64564180Y28855340D03*
X64564180Y29355340D03*
D12*
X64051680Y29367840D03*
X63551680Y29367840D03*
D11*
X63039180Y29355340D03*
X63039180Y28855340D03*
X63039180Y28355340D03*
X63039180Y27855340D03*
D12*
X63551680Y27842840D03*
X64051680Y27842840D03*
G04 #@! TD*
D13*
G04 #@! TO.C,BT1*
X43051680Y11705340D03*
X13751680Y11705340D03*
G04 #@! TD*
G04 #@! TO.C,R5*
G36*
G01*
X27260000Y87162500D02*
X28040000Y87162500D01*
G75*
G02*
X28110000Y87092500I0J-70000D01*
G01*
X28110000Y86532500D01*
G75*
G02*
X28040000Y86462500I-70000J0D01*
G01*
X27260000Y86462500D01*
G75*
G02*
X27190000Y86532500I0J70000D01*
G01*
X27190000Y87092500D01*
G75*
G02*
X27260000Y87162500I70000J0D01*
G01*
G37*
G36*
G01*
X27260000Y85562500D02*
X28040000Y85562500D01*
G75*
G02*
X28110000Y85492500I0J-70000D01*
G01*
X28110000Y84932500D01*
G75*
G02*
X28040000Y84862500I-70000J0D01*
G01*
X27260000Y84862500D01*
G75*
G02*
X27190000Y84932500I0J70000D01*
G01*
X27190000Y85492500D01*
G75*
G02*
X27260000Y85562500I70000J0D01*
G01*
G37*
G04 #@! TD*
G04 #@! TO.C,D2*
G36*
G01*
X67826659Y10450340D02*
X67826659Y9210340D01*
G75*
G02*
X67696659Y9080340I-130000J0D01*
G01*
X66656659Y9080340D01*
G75*
G02*
X66526659Y9210340I0J130000D01*
G01*
X66526659Y10450340D01*
G75*
G02*
X66656659Y10580340I130000J0D01*
G01*
X67696659Y10580340D01*
G75*
G02*
X67826659Y10450340I0J-130000D01*
G01*
G37*
G36*
G01*
X69726680Y10450340D02*
X69726680Y9210340D01*
G75*
G02*
X69596680Y9080340I-130000J0D01*
G01*
X68556680Y9080340D01*
G75*
G02*
X68426680Y9210340I0J130000D01*
G01*
X68426680Y10450340D01*
G75*
G02*
X68556680Y10580340I130000J0D01*
G01*
X69596680Y10580340D01*
G75*
G02*
X69726680Y10450340I0J-130000D01*
G01*
G37*
G04 #@! TD*
G04 #@! TO.C,D10*
G36*
G01*
X25284740Y90112522D02*
X24044740Y90112522D01*
G75*
G02*
X23914740Y90242522I0J130000D01*
G01*
X23914740Y91282522D01*
G75*
G02*
X24044740Y91412522I130000J0D01*
G01*
X25284740Y91412522D01*
G75*
G02*
X25414740Y91282522I0J-130000D01*
G01*
X25414740Y90242522D01*
G75*
G02*
X25284740Y90112522I-130000J0D01*
G01*
G37*
G36*
G01*
X25284740Y88212501D02*
X24044740Y88212501D01*
G75*
G02*
X23914740Y88342501I0J130000D01*
G01*
X23914740Y89382501D01*
G75*
G02*
X24044740Y89512501I130000J0D01*
G01*
X25284740Y89512501D01*
G75*
G02*
X25414740Y89382501I0J-130000D01*
G01*
X25414740Y88342501D01*
G75*
G02*
X25284740Y88212501I-130000J0D01*
G01*
G37*
G04 #@! TD*
D10*
G04 #@! TO.C,M10*
X19362887Y121058985D03*
X24865452Y120973784D03*
G36*
G01*
X29287884Y112233989D02*
X29287884Y112233989D01*
X29287884Y112233989D01*
X29287884Y112233989D01*
X29287884Y112233989D01*
G37*
X26287887Y111733980D03*
G04 #@! TD*
G04 #@! TO.C,D17*
G36*
G01*
X41801682Y92505339D02*
X42701682Y92505339D01*
G75*
G02*
X42801682Y92405339I0J-100000D01*
G01*
X42801682Y91605339D01*
G75*
G02*
X42701682Y91505339I-100000J0D01*
G01*
X41801682Y91505339D01*
G75*
G02*
X41701682Y91605339I0J100000D01*
G01*
X41701682Y92405339D01*
G75*
G02*
X41801682Y92505339I100000J0D01*
G01*
G37*
G36*
G01*
X41801682Y90805339D02*
X42701682Y90805339D01*
G75*
G02*
X42801682Y90705339I0J-100000D01*
G01*
X42801682Y89905339D01*
G75*
G02*
X42701682Y89805339I-100000J0D01*
G01*
X41801682Y89805339D01*
G75*
G02*
X41701682Y89905339I0J100000D01*
G01*
X41701682Y90705339D01*
G75*
G02*
X41801682Y90805339I100000J0D01*
G01*
G37*
G04 #@! TD*
G04 #@! TO.C,R19*
G36*
G01*
X47101680Y98220340D02*
X47101680Y97440340D01*
G75*
G02*
X47031680Y97370340I-70000J0D01*
G01*
X46471680Y97370340D01*
G75*
G02*
X46401680Y97440340I0J70000D01*
G01*
X46401680Y98220340D01*
G75*
G02*
X46471680Y98290340I70000J0D01*
G01*
X47031680Y98290340D01*
G75*
G02*
X47101680Y98220340I0J-70000D01*
G01*
G37*
G36*
G01*
X45501680Y98220340D02*
X45501680Y97440340D01*
G75*
G02*
X45431680Y97370340I-70000J0D01*
G01*
X44871680Y97370340D01*
G75*
G02*
X44801680Y97440340I0J70000D01*
G01*
X44801680Y98220340D01*
G75*
G02*
X44871680Y98290340I70000J0D01*
G01*
X45431680Y98290340D01*
G75*
G02*
X45501680Y98220340I0J-70000D01*
G01*
G37*
G04 #@! TD*
G04 #@! TO.C,D3*
G36*
G01*
X124130830Y48690850D02*
X123230830Y48690850D01*
G75*
G02*
X123130830Y48790850I0J100000D01*
G01*
X123130830Y49590850D01*
G75*
G02*
X123230830Y49690850I100000J0D01*
G01*
X124130830Y49690850D01*
G75*
G02*
X124230830Y49590850I0J-100000D01*
G01*
X124230830Y48790850D01*
G75*
G02*
X124130830Y48690850I-100000J0D01*
G01*
G37*
G36*
G01*
X124130830Y50390850D02*
X123230830Y50390850D01*
G75*
G02*
X123130830Y50490850I0J100000D01*
G01*
X123130830Y51290850D01*
G75*
G02*
X123230830Y51390850I100000J0D01*
G01*
X124130830Y51390850D01*
G75*
G02*
X124230830Y51290850I0J-100000D01*
G01*
X124230830Y50490850D01*
G75*
G02*
X124130830Y50390850I-100000J0D01*
G01*
G37*
G04 #@! TD*
G04 #@! TO.C,U3*
G36*
G01*
X128156680Y85455340D02*
X128456680Y85455340D01*
G75*
G02*
X128606680Y85305340I0J-150000D01*
G01*
X128606680Y83655340D01*
G75*
G02*
X128456680Y83505340I-150000J0D01*
G01*
X128156680Y83505340D01*
G75*
G02*
X128006680Y83655340I0J150000D01*
G01*
X128006680Y85305340D01*
G75*
G02*
X128156680Y85455340I150000J0D01*
G01*
G37*
G36*
G01*
X126886680Y85455340D02*
X127186680Y85455340D01*
G75*
G02*
X127336680Y85305340I0J-150000D01*
G01*
X127336680Y83655340D01*
G75*
G02*
X127186680Y83505340I-150000J0D01*
G01*
X126886680Y83505340D01*
G75*
G02*
X126736680Y83655340I0J150000D01*
G01*
X126736680Y85305340D01*
G75*
G02*
X126886680Y85455340I150000J0D01*
G01*
G37*
G36*
G01*
X125616680Y85455340D02*
X125916680Y85455340D01*
G75*
G02*
X126066680Y85305340I0J-150000D01*
G01*
X126066680Y83655340D01*
G75*
G02*
X125916680Y83505340I-150000J0D01*
G01*
X125616680Y83505340D01*
G75*
G02*
X125466680Y83655340I0J150000D01*
G01*
X125466680Y85305340D01*
G75*
G02*
X125616680Y85455340I150000J0D01*
G01*
G37*
G36*
G01*
X124346680Y85455340D02*
X124646680Y85455340D01*
G75*
G02*
X124796680Y85305340I0J-150000D01*
G01*
X124796680Y83655340D01*
G75*
G02*
X124646680Y83505340I-150000J0D01*
G01*
X124346680Y83505340D01*
G75*
G02*
X124196680Y83655340I0J150000D01*
G01*
X124196680Y85305340D01*
G75*
G02*
X124346680Y85455340I150000J0D01*
G01*
G37*
G36*
G01*
X124346680Y80505340D02*
X124646680Y80505340D01*
G75*
G02*
X124796680Y80355340I0J-150000D01*
G01*
X124796680Y78705340D01*
G75*
G02*
X124646680Y78555340I-150000J0D01*
G01*
X124346680Y78555340D01*
G75*
G02*
X124196680Y78705340I0J150000D01*
G01*
X124196680Y80355340D01*
G75*
G02*
X124346680Y80505340I150000J0D01*
G01*
G37*
G36*
G01*
X125616680Y80505340D02*
X125916680Y80505340D01*
G75*
G02*
X126066680Y80355340I0J-150000D01*
G01*
X126066680Y78705340D01*
G75*
G02*
X125916680Y78555340I-150000J0D01*
G01*
X125616680Y78555340D01*
G75*
G02*
X125466680Y78705340I0J150000D01*
G01*
X125466680Y80355340D01*
G75*
G02*
X125616680Y80505340I150000J0D01*
G01*
G37*
G36*
G01*
X126886680Y80505340D02*
X127186680Y80505340D01*
G75*
G02*
X127336680Y80355340I0J-150000D01*
G01*
X127336680Y78705340D01*
G75*
G02*
X127186680Y78555340I-150000J0D01*
G01*
X126886680Y78555340D01*
G75*
G02*
X126736680Y78705340I0J150000D01*
G01*
X126736680Y80355340D01*
G75*
G02*
X126886680Y80505340I150000J0D01*
G01*
G37*
G36*
G01*
X128156680Y80505340D02*
X128456680Y80505340D01*
G75*
G02*
X128606680Y80355340I0J-150000D01*
G01*
X128606680Y78705340D01*
G75*
G02*
X128456680Y78555340I-150000J0D01*
G01*
X128156680Y78555340D01*
G75*
G02*
X128006680Y78705340I0J150000D01*
G01*
X128006680Y80355340D01*
G75*
G02*
X128156680Y80505340I150000J0D01*
G01*
G37*
G04 #@! TD*
G04 #@! TO.C,U4*
G36*
G01*
X134301680Y11530340D02*
X134301680Y11730340D01*
G75*
G02*
X134401680Y11830340I100000J0D01*
G01*
X134751680Y11830340D01*
G75*
G02*
X134851680Y11730340I0J-100000D01*
G01*
X134851680Y11530340D01*
G75*
G02*
X134751680Y11430340I-100000J0D01*
G01*
X134401680Y11430340D01*
G75*
G02*
X134301680Y11530340I0J100000D01*
G01*
G37*
G36*
G01*
X134301680Y10930340D02*
X134301680Y11130340D01*
G75*
G02*
X134401680Y11230340I100000J0D01*
G01*
X134751680Y11230340D01*
G75*
G02*
X134851680Y11130340I0J-100000D01*
G01*
X134851680Y10930340D01*
G75*
G02*
X134751680Y10830340I-100000J0D01*
G01*
X134401680Y10830340D01*
G75*
G02*
X134301680Y10930340I0J100000D01*
G01*
G37*
G36*
G01*
X134701680Y10230340D02*
X134701680Y10580340D01*
G75*
G02*
X134801680Y10680340I100000J0D01*
G01*
X135001680Y10680340D01*
G75*
G02*
X135101680Y10580340I0J-100000D01*
G01*
X135101680Y10230340D01*
G75*
G02*
X135001680Y10130340I-100000J0D01*
G01*
X134801680Y10130340D01*
G75*
G02*
X134701680Y10230340I0J100000D01*
G01*
G37*
G36*
G01*
X135301680Y10230340D02*
X135301680Y10580340D01*
G75*
G02*
X135401680Y10680340I100000J0D01*
G01*
X135601680Y10680340D01*
G75*
G02*
X135701680Y10580340I0J-100000D01*
G01*
X135701680Y10230340D01*
G75*
G02*
X135601680Y10130340I-100000J0D01*
G01*
X135401680Y10130340D01*
G75*
G02*
X135301680Y10230340I0J100000D01*
G01*
G37*
G36*
G01*
X135901680Y10230340D02*
X135901680Y10580340D01*
G75*
G02*
X136001680Y10680340I100000J0D01*
G01*
X136201680Y10680340D01*
G75*
G02*
X136301680Y10580340I0J-100000D01*
G01*
X136301680Y10230340D01*
G75*
G02*
X136201680Y10130340I-100000J0D01*
G01*
X136001680Y10130340D01*
G75*
G02*
X135901680Y10230340I0J100000D01*
G01*
G37*
G36*
G01*
X136151680Y10930340D02*
X136151680Y11130340D01*
G75*
G02*
X136251680Y11230340I100000J0D01*
G01*
X136601680Y11230340D01*
G75*
G02*
X136701680Y11130340I0J-100000D01*
G01*
X136701680Y10930340D01*
G75*
G02*
X136601680Y10830340I-100000J0D01*
G01*
X136251680Y10830340D01*
G75*
G02*
X136151680Y10930340I0J100000D01*
G01*
G37*
G36*
G01*
X136151680Y11530340D02*
X136151680Y11730340D01*
G75*
G02*
X136251680Y11830340I100000J0D01*
G01*
X136601680Y11830340D01*
G75*
G02*
X136701680Y11730340I0J-100000D01*
G01*
X136701680Y11530340D01*
G75*
G02*
X136601680Y11430340I-100000J0D01*
G01*
X136251680Y11430340D01*
G75*
G02*
X136151680Y11530340I0J100000D01*
G01*
G37*
G36*
G01*
X135901680Y12080340D02*
X135901680Y12430340D01*
G75*
G02*
X136001680Y12530340I100000J0D01*
G01*
X136201680Y12530340D01*
G75*
G02*
X136301680Y12430340I0J-100000D01*
G01*
X136301680Y12080340D01*
G75*
G02*
X136201680Y11980340I-100000J0D01*
G01*
X136001680Y11980340D01*
G75*
G02*
X135901680Y12080340I0J100000D01*
G01*
G37*
G36*
G01*
X135301680Y12080340D02*
X135301680Y12430340D01*
G75*
G02*
X135401680Y12530340I100000J0D01*
G01*
X135601680Y12530340D01*
G75*
G02*
X135701680Y12430340I0J-100000D01*
G01*
X135701680Y12080340D01*
G75*
G02*
X135601680Y11980340I-100000J0D01*
G01*
X135401680Y11980340D01*
G75*
G02*
X135301680Y12080340I0J100000D01*
G01*
G37*
G36*
G01*
X134701680Y12080340D02*
X134701680Y12430340D01*
G75*
G02*
X134801680Y12530340I100000J0D01*
G01*
X135001680Y12530340D01*
G75*
G02*
X135101680Y12430340I0J-100000D01*
G01*
X135101680Y12080340D01*
G75*
G02*
X135001680Y11980340I-100000J0D01*
G01*
X134801680Y11980340D01*
G75*
G02*
X134701680Y12080340I0J100000D01*
G01*
G37*
G04 #@! TD*
G04 #@! TO.C,C20*
G36*
G01*
X36076680Y97830340D02*
X35026680Y97830340D01*
G75*
G02*
X34926680Y97930340I0J100000D01*
G01*
X34926680Y98730340D01*
G75*
G02*
X35026680Y98830340I100000J0D01*
G01*
X36076680Y98830340D01*
G75*
G02*
X36176680Y98730340I0J-100000D01*
G01*
X36176680Y97930340D01*
G75*
G02*
X36076680Y97830340I-100000J0D01*
G01*
G37*
G36*
G01*
X36076680Y99830340D02*
X35026680Y99830340D01*
G75*
G02*
X34926680Y99930340I0J100000D01*
G01*
X34926680Y100730340D01*
G75*
G02*
X35026680Y100830340I100000J0D01*
G01*
X36076680Y100830340D01*
G75*
G02*
X36176680Y100730340I0J-100000D01*
G01*
X36176680Y99930340D01*
G75*
G02*
X36076680Y99830340I-100000J0D01*
G01*
G37*
G04 #@! TD*
G04 #@! TO.C,C10*
G36*
G01*
X43816681Y100620340D02*
X43816681Y99940340D01*
G75*
G02*
X43731681Y99855340I-85000J0D01*
G01*
X43051681Y99855340D01*
G75*
G02*
X42966681Y99940340I0J85000D01*
G01*
X42966681Y100620340D01*
G75*
G02*
X43051681Y100705340I85000J0D01*
G01*
X43731681Y100705340D01*
G75*
G02*
X43816681Y100620340I0J-85000D01*
G01*
G37*
G36*
G01*
X42236679Y100620340D02*
X42236679Y99940340D01*
G75*
G02*
X42151679Y99855340I-85000J0D01*
G01*
X41471679Y99855340D01*
G75*
G02*
X41386679Y99940340I0J85000D01*
G01*
X41386679Y100620340D01*
G75*
G02*
X41471679Y100705340I85000J0D01*
G01*
X42151679Y100705340D01*
G75*
G02*
X42236679Y100620340I0J-85000D01*
G01*
G37*
G04 #@! TD*
G04 #@! TO.C,C14*
G36*
G01*
X35560000Y117515001D02*
X36240000Y117515001D01*
G75*
G02*
X36325000Y117430001I0J-85000D01*
G01*
X36325000Y116750001D01*
G75*
G02*
X36240000Y116665001I-85000J0D01*
G01*
X35560000Y116665001D01*
G75*
G02*
X35475000Y116750001I0J85000D01*
G01*
X35475000Y117430001D01*
G75*
G02*
X35560000Y117515001I85000J0D01*
G01*
G37*
G36*
G01*
X35560000Y115934999D02*
X36240000Y115934999D01*
G75*
G02*
X36325000Y115849999I0J-85000D01*
G01*
X36325000Y115169999D01*
G75*
G02*
X36240000Y115084999I-85000J0D01*
G01*
X35560000Y115084999D01*
G75*
G02*
X35475000Y115169999I0J85000D01*
G01*
X35475000Y115849999D01*
G75*
G02*
X35560000Y115934999I85000J0D01*
G01*
G37*
G04 #@! TD*
G04 #@! TO.C,R14*
G36*
G01*
X102852380Y104302400D02*
X102852380Y103522400D01*
G75*
G02*
X102782380Y103452400I-70000J0D01*
G01*
X102222380Y103452400D01*
G75*
G02*
X102152380Y103522400I0J70000D01*
G01*
X102152380Y104302400D01*
G75*
G02*
X102222380Y104372400I70000J0D01*
G01*
X102782380Y104372400D01*
G75*
G02*
X102852380Y104302400I0J-70000D01*
G01*
G37*
G36*
G01*
X101252380Y104302400D02*
X101252380Y103522400D01*
G75*
G02*
X101182380Y103452400I-70000J0D01*
G01*
X100622380Y103452400D01*
G75*
G02*
X100552380Y103522400I0J70000D01*
G01*
X100552380Y104302400D01*
G75*
G02*
X100622380Y104372400I70000J0D01*
G01*
X101182380Y104372400D01*
G75*
G02*
X101252380Y104302400I0J-70000D01*
G01*
G37*
G04 #@! TD*
G04 #@! TO.C,D5*
G36*
G01*
X26775000Y91252500D02*
X26775000Y90772500D01*
G75*
G02*
X26715000Y90712500I-60000J0D01*
G01*
X26235000Y90712500D01*
G75*
G02*
X26175000Y90772500I0J60000D01*
G01*
X26175000Y91252500D01*
G75*
G02*
X26235000Y91312500I60000J0D01*
G01*
X26715000Y91312500D01*
G75*
G02*
X26775000Y91252500I0J-60000D01*
G01*
G37*
G36*
G01*
X26775000Y89052500D02*
X26775000Y88572500D01*
G75*
G02*
X26715000Y88512500I-60000J0D01*
G01*
X26235000Y88512500D01*
G75*
G02*
X26175000Y88572500I0J60000D01*
G01*
X26175000Y89052500D01*
G75*
G02*
X26235000Y89112500I60000J0D01*
G01*
X26715000Y89112500D01*
G75*
G02*
X26775000Y89052500I0J-60000D01*
G01*
G37*
G04 #@! TD*
G04 #@! TO.C,F3*
G36*
G01*
X22519990Y133900000D02*
X21829990Y133900000D01*
G75*
G02*
X21599990Y134130000I0J230000D01*
G01*
X21599990Y135470000D01*
G75*
G02*
X21829990Y135700000I230000J0D01*
G01*
X22519990Y135700000D01*
G75*
G02*
X22749990Y135470000I0J-230000D01*
G01*
X22749990Y134130000D01*
G75*
G02*
X22519990Y133900000I-230000J0D01*
G01*
G37*
G36*
G01*
X25420010Y133900000D02*
X24730010Y133900000D01*
G75*
G02*
X24500010Y134130000I0J230000D01*
G01*
X24500010Y135470000D01*
G75*
G02*
X24730010Y135700000I230000J0D01*
G01*
X25420010Y135700000D01*
G75*
G02*
X25650010Y135470000I0J-230000D01*
G01*
X25650010Y134130000D01*
G75*
G02*
X25420010Y133900000I-230000J0D01*
G01*
G37*
G04 #@! TD*
G04 #@! TO.C,C11*
G36*
G01*
X38655197Y118111784D02*
X37605197Y118111784D01*
G75*
G02*
X37505197Y118211784I0J100000D01*
G01*
X37505197Y119011784D01*
G75*
G02*
X37605197Y119111784I100000J0D01*
G01*
X38655197Y119111784D01*
G75*
G02*
X38755197Y119011784I0J-100000D01*
G01*
X38755197Y118211784D01*
G75*
G02*
X38655197Y118111784I-100000J0D01*
G01*
G37*
G36*
G01*
X38655197Y120111784D02*
X37605197Y120111784D01*
G75*
G02*
X37505197Y120211784I0J100000D01*
G01*
X37505197Y121011784D01*
G75*
G02*
X37605197Y121111784I100000J0D01*
G01*
X38655197Y121111784D01*
G75*
G02*
X38755197Y121011784I0J-100000D01*
G01*
X38755197Y120211784D01*
G75*
G02*
X38655197Y120111784I-100000J0D01*
G01*
G37*
G04 #@! TD*
G04 #@! TO.C,C19*
G36*
G01*
X37576680Y97830340D02*
X36526680Y97830340D01*
G75*
G02*
X36426680Y97930340I0J100000D01*
G01*
X36426680Y98730340D01*
G75*
G02*
X36526680Y98830340I100000J0D01*
G01*
X37576680Y98830340D01*
G75*
G02*
X37676680Y98730340I0J-100000D01*
G01*
X37676680Y97930340D01*
G75*
G02*
X37576680Y97830340I-100000J0D01*
G01*
G37*
G36*
G01*
X37576680Y99830340D02*
X36526680Y99830340D01*
G75*
G02*
X36426680Y99930340I0J100000D01*
G01*
X36426680Y100730340D01*
G75*
G02*
X36526680Y100830340I100000J0D01*
G01*
X37576680Y100830340D01*
G75*
G02*
X37676680Y100730340I0J-100000D01*
G01*
X37676680Y99930340D01*
G75*
G02*
X37576680Y99830340I-100000J0D01*
G01*
G37*
G04 #@! TD*
G04 #@! TO.C,D31*
G36*
G01*
X53201680Y95595340D02*
X53201680Y96615340D01*
G75*
G02*
X53291680Y96705340I90000J0D01*
G01*
X54011680Y96705340D01*
G75*
G02*
X54101680Y96615340I0J-90000D01*
G01*
X54101680Y95595340D01*
G75*
G02*
X54011680Y95505340I-90000J0D01*
G01*
X53291680Y95505340D01*
G75*
G02*
X53201680Y95595340I0J90000D01*
G01*
G37*
G36*
G01*
X56501680Y95595340D02*
X56501680Y96615340D01*
G75*
G02*
X56591680Y96705340I90000J0D01*
G01*
X57311680Y96705340D01*
G75*
G02*
X57401680Y96615340I0J-90000D01*
G01*
X57401680Y95595340D01*
G75*
G02*
X57311680Y95505340I-90000J0D01*
G01*
X56591680Y95505340D01*
G75*
G02*
X56501680Y95595340I0J90000D01*
G01*
G37*
G04 #@! TD*
G04 #@! TO.C,R35*
G36*
G01*
X25816221Y126234437D02*
X24566221Y126234437D01*
G75*
G02*
X24466221Y126334437I0J100000D01*
G01*
X24466221Y127134437D01*
G75*
G02*
X24566221Y127234437I100000J0D01*
G01*
X25816221Y127234437D01*
G75*
G02*
X25916221Y127134437I0J-100000D01*
G01*
X25916221Y126334437D01*
G75*
G02*
X25816221Y126234437I-100000J0D01*
G01*
G37*
G36*
G01*
X25816221Y128134459D02*
X24566221Y128134459D01*
G75*
G02*
X24466221Y128234459I0J100000D01*
G01*
X24466221Y129034459D01*
G75*
G02*
X24566221Y129134459I100000J0D01*
G01*
X25816221Y129134459D01*
G75*
G02*
X25916221Y129034459I0J-100000D01*
G01*
X25916221Y128234459D01*
G75*
G02*
X25816221Y128134459I-100000J0D01*
G01*
G37*
G04 #@! TD*
G04 #@! TO.C,D18*
G36*
G01*
X39901682Y92505339D02*
X40801682Y92505339D01*
G75*
G02*
X40901682Y92405339I0J-100000D01*
G01*
X40901682Y91605339D01*
G75*
G02*
X40801682Y91505339I-100000J0D01*
G01*
X39901682Y91505339D01*
G75*
G02*
X39801682Y91605339I0J100000D01*
G01*
X39801682Y92405339D01*
G75*
G02*
X39901682Y92505339I100000J0D01*
G01*
G37*
G36*
G01*
X39901682Y90805339D02*
X40801682Y90805339D01*
G75*
G02*
X40901682Y90705339I0J-100000D01*
G01*
X40901682Y89905339D01*
G75*
G02*
X40801682Y89805339I-100000J0D01*
G01*
X39901682Y89805339D01*
G75*
G02*
X39801682Y89905339I0J100000D01*
G01*
X39801682Y90705339D01*
G75*
G02*
X39901682Y90805339I100000J0D01*
G01*
G37*
G04 #@! TD*
G04 #@! TO.C,D20*
G36*
G01*
X47401680Y92450901D02*
X47401680Y91970901D01*
G75*
G02*
X47341680Y91910901I-60000J0D01*
G01*
X46861680Y91910901D01*
G75*
G02*
X46801680Y91970901I0J60000D01*
G01*
X46801680Y92450901D01*
G75*
G02*
X46861680Y92510901I60000J0D01*
G01*
X47341680Y92510901D01*
G75*
G02*
X47401680Y92450901I0J-60000D01*
G01*
G37*
G36*
G01*
X47401680Y90250901D02*
X47401680Y89770901D01*
G75*
G02*
X47341680Y89710901I-60000J0D01*
G01*
X46861680Y89710901D01*
G75*
G02*
X46801680Y89770901I0J60000D01*
G01*
X46801680Y90250901D01*
G75*
G02*
X46861680Y90310901I60000J0D01*
G01*
X47341680Y90310901D01*
G75*
G02*
X47401680Y90250901I0J-60000D01*
G01*
G37*
G04 #@! TD*
G04 #@! TO.C,D33*
G36*
G01*
X40315182Y96617842D02*
X39835182Y96617842D01*
G75*
G02*
X39775182Y96677842I0J60000D01*
G01*
X39775182Y97157842D01*
G75*
G02*
X39835182Y97217842I60000J0D01*
G01*
X40315182Y97217842D01*
G75*
G02*
X40375182Y97157842I0J-60000D01*
G01*
X40375182Y96677842D01*
G75*
G02*
X40315182Y96617842I-60000J0D01*
G01*
G37*
G36*
G01*
X38115182Y96617842D02*
X37635182Y96617842D01*
G75*
G02*
X37575182Y96677842I0J60000D01*
G01*
X37575182Y97157842D01*
G75*
G02*
X37635182Y97217842I60000J0D01*
G01*
X38115182Y97217842D01*
G75*
G02*
X38175182Y97157842I0J-60000D01*
G01*
X38175182Y96677842D01*
G75*
G02*
X38115182Y96617842I-60000J0D01*
G01*
G37*
G04 #@! TD*
G04 #@! TO.C,D27*
G36*
G01*
X96602381Y101512402D02*
X96602381Y102412402D01*
G75*
G02*
X96702381Y102512402I100000J0D01*
G01*
X97502381Y102512402D01*
G75*
G02*
X97602381Y102412402I0J-100000D01*
G01*
X97602381Y101512402D01*
G75*
G02*
X97502381Y101412402I-100000J0D01*
G01*
X96702381Y101412402D01*
G75*
G02*
X96602381Y101512402I0J100000D01*
G01*
G37*
G36*
G01*
X98302381Y101512402D02*
X98302381Y102412402D01*
G75*
G02*
X98402381Y102512402I100000J0D01*
G01*
X99202381Y102512402D01*
G75*
G02*
X99302381Y102412402I0J-100000D01*
G01*
X99302381Y101512402D01*
G75*
G02*
X99202381Y101412402I-100000J0D01*
G01*
X98402381Y101412402D01*
G75*
G02*
X98302381Y101512402I0J100000D01*
G01*
G37*
G04 #@! TD*
G04 #@! TO.C,C18*
G36*
G01*
X38026680Y100830340D02*
X39076680Y100830340D01*
G75*
G02*
X39176680Y100730340I0J-100000D01*
G01*
X39176680Y99930340D01*
G75*
G02*
X39076680Y99830340I-100000J0D01*
G01*
X38026680Y99830340D01*
G75*
G02*
X37926680Y99930340I0J100000D01*
G01*
X37926680Y100730340D01*
G75*
G02*
X38026680Y100830340I100000J0D01*
G01*
G37*
G36*
G01*
X38026680Y98830340D02*
X39076680Y98830340D01*
G75*
G02*
X39176680Y98730340I0J-100000D01*
G01*
X39176680Y97930340D01*
G75*
G02*
X39076680Y97830340I-100000J0D01*
G01*
X38026680Y97830340D01*
G75*
G02*
X37926680Y97930340I0J100000D01*
G01*
X37926680Y98730340D01*
G75*
G02*
X38026680Y98830340I100000J0D01*
G01*
G37*
G04 #@! TD*
G04 #@! TO.C,R37*
G36*
G01*
X21416221Y126279437D02*
X20166221Y126279437D01*
G75*
G02*
X20066221Y126379437I0J100000D01*
G01*
X20066221Y127179437D01*
G75*
G02*
X20166221Y127279437I100000J0D01*
G01*
X21416221Y127279437D01*
G75*
G02*
X21516221Y127179437I0J-100000D01*
G01*
X21516221Y126379437D01*
G75*
G02*
X21416221Y126279437I-100000J0D01*
G01*
G37*
G36*
G01*
X21416221Y128179459D02*
X20166221Y128179459D01*
G75*
G02*
X20066221Y128279459I0J100000D01*
G01*
X20066221Y129079459D01*
G75*
G02*
X20166221Y129179459I100000J0D01*
G01*
X21416221Y129179459D01*
G75*
G02*
X21516221Y129079459I0J-100000D01*
G01*
X21516221Y128279459D01*
G75*
G02*
X21416221Y128179459I-100000J0D01*
G01*
G37*
G04 #@! TD*
G04 #@! TO.C,R26*
G36*
G01*
X92001680Y130980339D02*
X90751680Y130980339D01*
G75*
G02*
X90651680Y131080339I0J100000D01*
G01*
X90651680Y131880339D01*
G75*
G02*
X90751680Y131980339I100000J0D01*
G01*
X92001680Y131980339D01*
G75*
G02*
X92101680Y131880339I0J-100000D01*
G01*
X92101680Y131080339D01*
G75*
G02*
X92001680Y130980339I-100000J0D01*
G01*
G37*
G36*
G01*
X92001680Y132880361D02*
X90751680Y132880361D01*
G75*
G02*
X90651680Y132980361I0J100000D01*
G01*
X90651680Y133780361D01*
G75*
G02*
X90751680Y133880361I100000J0D01*
G01*
X92001680Y133880361D01*
G75*
G02*
X92101680Y133780361I0J-100000D01*
G01*
X92101680Y132980361D01*
G75*
G02*
X92001680Y132880361I-100000J0D01*
G01*
G37*
G04 #@! TD*
G04 #@! TO.C,D24*
G36*
G01*
X45314183Y5866838D02*
X45314183Y6346838D01*
G75*
G02*
X45374183Y6406838I60000J0D01*
G01*
X45854183Y6406838D01*
G75*
G02*
X45914183Y6346838I0J-60000D01*
G01*
X45914183Y5866838D01*
G75*
G02*
X45854183Y5806838I-60000J0D01*
G01*
X45374183Y5806838D01*
G75*
G02*
X45314183Y5866838I0J60000D01*
G01*
G37*
G36*
G01*
X45314183Y8066838D02*
X45314183Y8546838D01*
G75*
G02*
X45374183Y8606838I60000J0D01*
G01*
X45854183Y8606838D01*
G75*
G02*
X45914183Y8546838I0J-60000D01*
G01*
X45914183Y8066838D01*
G75*
G02*
X45854183Y8006838I-60000J0D01*
G01*
X45374183Y8006838D01*
G75*
G02*
X45314183Y8066838I0J60000D01*
G01*
G37*
G04 #@! TD*
G04 #@! TO.C,R25*
G36*
G01*
X135176680Y127596039D02*
X133926680Y127596039D01*
G75*
G02*
X133826680Y127696039I0J100000D01*
G01*
X133826680Y128496039D01*
G75*
G02*
X133926680Y128596039I100000J0D01*
G01*
X135176680Y128596039D01*
G75*
G02*
X135276680Y128496039I0J-100000D01*
G01*
X135276680Y127696039D01*
G75*
G02*
X135176680Y127596039I-100000J0D01*
G01*
G37*
G36*
G01*
X135176680Y129496061D02*
X133926680Y129496061D01*
G75*
G02*
X133826680Y129596061I0J100000D01*
G01*
X133826680Y130396061D01*
G75*
G02*
X133926680Y130496061I100000J0D01*
G01*
X135176680Y130496061D01*
G75*
G02*
X135276680Y130396061I0J-100000D01*
G01*
X135276680Y129596061D01*
G75*
G02*
X135176680Y129496061I-100000J0D01*
G01*
G37*
G04 #@! TD*
G04 #@! TO.C,C8*
G36*
G01*
X44051680Y99940340D02*
X44051680Y100620340D01*
G75*
G02*
X44136680Y100705340I85000J0D01*
G01*
X44816680Y100705340D01*
G75*
G02*
X44901680Y100620340I0J-85000D01*
G01*
X44901680Y99940340D01*
G75*
G02*
X44816680Y99855340I-85000J0D01*
G01*
X44136680Y99855340D01*
G75*
G02*
X44051680Y99940340I0J85000D01*
G01*
G37*
G36*
G01*
X45631682Y99940340D02*
X45631682Y100620340D01*
G75*
G02*
X45716682Y100705340I85000J0D01*
G01*
X46396682Y100705340D01*
G75*
G02*
X46481682Y100620340I0J-85000D01*
G01*
X46481682Y99940340D01*
G75*
G02*
X46396682Y99855340I-85000J0D01*
G01*
X45716682Y99855340D01*
G75*
G02*
X45631682Y99940340I0J85000D01*
G01*
G37*
G04 #@! TD*
G04 #@! TO.C,D34*
G36*
G01*
X44041680Y97505340D02*
X43561680Y97505340D01*
G75*
G02*
X43501680Y97565340I0J60000D01*
G01*
X43501680Y98045340D01*
G75*
G02*
X43561680Y98105340I60000J0D01*
G01*
X44041680Y98105340D01*
G75*
G02*
X44101680Y98045340I0J-60000D01*
G01*
X44101680Y97565340D01*
G75*
G02*
X44041680Y97505340I-60000J0D01*
G01*
G37*
G36*
G01*
X41841680Y97505340D02*
X41361680Y97505340D01*
G75*
G02*
X41301680Y97565340I0J60000D01*
G01*
X41301680Y98045340D01*
G75*
G02*
X41361680Y98105340I60000J0D01*
G01*
X41841680Y98105340D01*
G75*
G02*
X41901680Y98045340I0J-60000D01*
G01*
X41901680Y97565340D01*
G75*
G02*
X41841680Y97505340I-60000J0D01*
G01*
G37*
G04 #@! TD*
G04 #@! TO.C,R27*
G36*
G01*
X126151680Y130605341D02*
X127401680Y130605341D01*
G75*
G02*
X127501680Y130505341I0J-100000D01*
G01*
X127501680Y129705341D01*
G75*
G02*
X127401680Y129605341I-100000J0D01*
G01*
X126151680Y129605341D01*
G75*
G02*
X126051680Y129705341I0J100000D01*
G01*
X126051680Y130505341D01*
G75*
G02*
X126151680Y130605341I100000J0D01*
G01*
G37*
G36*
G01*
X126151680Y128705319D02*
X127401680Y128705319D01*
G75*
G02*
X127501680Y128605319I0J-100000D01*
G01*
X127501680Y127805319D01*
G75*
G02*
X127401680Y127705319I-100000J0D01*
G01*
X126151680Y127705319D01*
G75*
G02*
X126051680Y127805319I0J100000D01*
G01*
X126051680Y128605319D01*
G75*
G02*
X126151680Y128705319I100000J0D01*
G01*
G37*
G04 #@! TD*
G04 #@! TO.C,R50*
G36*
G01*
X71726680Y9440340D02*
X71726680Y10220340D01*
G75*
G02*
X71796680Y10290340I70000J0D01*
G01*
X72356680Y10290340D01*
G75*
G02*
X72426680Y10220340I0J-70000D01*
G01*
X72426680Y9440340D01*
G75*
G02*
X72356680Y9370340I-70000J0D01*
G01*
X71796680Y9370340D01*
G75*
G02*
X71726680Y9440340I0J70000D01*
G01*
G37*
G36*
G01*
X73326680Y9440340D02*
X73326680Y10220340D01*
G75*
G02*
X73396680Y10290340I70000J0D01*
G01*
X73956680Y10290340D01*
G75*
G02*
X74026680Y10220340I0J-70000D01*
G01*
X74026680Y9440340D01*
G75*
G02*
X73956680Y9370340I-70000J0D01*
G01*
X73396680Y9370340D01*
G75*
G02*
X73326680Y9440340I0J70000D01*
G01*
G37*
G04 #@! TD*
G04 #@! TO.C,C6*
G36*
G01*
X136806682Y14595354D02*
X136806682Y13915354D01*
G75*
G02*
X136721682Y13830354I-85000J0D01*
G01*
X136041682Y13830354D01*
G75*
G02*
X135956682Y13915354I0J85000D01*
G01*
X135956682Y14595354D01*
G75*
G02*
X136041682Y14680354I85000J0D01*
G01*
X136721682Y14680354D01*
G75*
G02*
X136806682Y14595354I0J-85000D01*
G01*
G37*
G36*
G01*
X135226680Y14595354D02*
X135226680Y13915354D01*
G75*
G02*
X135141680Y13830354I-85000J0D01*
G01*
X134461680Y13830354D01*
G75*
G02*
X134376680Y13915354I0J85000D01*
G01*
X134376680Y14595354D01*
G75*
G02*
X134461680Y14680354I85000J0D01*
G01*
X135141680Y14680354D01*
G75*
G02*
X135226680Y14595354I0J-85000D01*
G01*
G37*
G04 #@! TD*
G04 #@! TO.C,R15*
G36*
G01*
X102852380Y102402400D02*
X102852380Y101622400D01*
G75*
G02*
X102782380Y101552400I-70000J0D01*
G01*
X102222380Y101552400D01*
G75*
G02*
X102152380Y101622400I0J70000D01*
G01*
X102152380Y102402400D01*
G75*
G02*
X102222380Y102472400I70000J0D01*
G01*
X102782380Y102472400D01*
G75*
G02*
X102852380Y102402400I0J-70000D01*
G01*
G37*
G36*
G01*
X101252380Y102402400D02*
X101252380Y101622400D01*
G75*
G02*
X101182380Y101552400I-70000J0D01*
G01*
X100622380Y101552400D01*
G75*
G02*
X100552380Y101622400I0J70000D01*
G01*
X100552380Y102402400D01*
G75*
G02*
X100622380Y102472400I70000J0D01*
G01*
X101182380Y102472400D01*
G75*
G02*
X101252380Y102402400I0J-70000D01*
G01*
G37*
G04 #@! TD*
G04 #@! TO.C,R39*
G36*
G01*
X19241221Y126329437D02*
X17991221Y126329437D01*
G75*
G02*
X17891221Y126429437I0J100000D01*
G01*
X17891221Y127229437D01*
G75*
G02*
X17991221Y127329437I100000J0D01*
G01*
X19241221Y127329437D01*
G75*
G02*
X19341221Y127229437I0J-100000D01*
G01*
X19341221Y126429437D01*
G75*
G02*
X19241221Y126329437I-100000J0D01*
G01*
G37*
G36*
G01*
X19241221Y128229459D02*
X17991221Y128229459D01*
G75*
G02*
X17891221Y128329459I0J100000D01*
G01*
X17891221Y129129459D01*
G75*
G02*
X17991221Y129229459I100000J0D01*
G01*
X19241221Y129229459D01*
G75*
G02*
X19341221Y129129459I0J-100000D01*
G01*
X19341221Y128329459D01*
G75*
G02*
X19241221Y128229459I-100000J0D01*
G01*
G37*
G04 #@! TD*
G04 #@! TO.C,D4*
G36*
G01*
X122130830Y48690850D02*
X121230830Y48690850D01*
G75*
G02*
X121130830Y48790850I0J100000D01*
G01*
X121130830Y49590850D01*
G75*
G02*
X121230830Y49690850I100000J0D01*
G01*
X122130830Y49690850D01*
G75*
G02*
X122230830Y49590850I0J-100000D01*
G01*
X122230830Y48790850D01*
G75*
G02*
X122130830Y48690850I-100000J0D01*
G01*
G37*
G36*
G01*
X122130830Y50390850D02*
X121230830Y50390850D01*
G75*
G02*
X121130830Y50490850I0J100000D01*
G01*
X121130830Y51290850D01*
G75*
G02*
X121230830Y51390850I100000J0D01*
G01*
X122130830Y51390850D01*
G75*
G02*
X122230830Y51290850I0J-100000D01*
G01*
X122230830Y50490850D01*
G75*
G02*
X122130830Y50390850I-100000J0D01*
G01*
G37*
G04 #@! TD*
G04 #@! TO.C,D7*
G36*
G01*
X68511891Y79556089D02*
X69411891Y79556089D01*
G75*
G02*
X69511891Y79456089I0J-100000D01*
G01*
X69511891Y78656089D01*
G75*
G02*
X69411891Y78556089I-100000J0D01*
G01*
X68511891Y78556089D01*
G75*
G02*
X68411891Y78656089I0J100000D01*
G01*
X68411891Y79456089D01*
G75*
G02*
X68511891Y79556089I100000J0D01*
G01*
G37*
G36*
G01*
X68511891Y77856089D02*
X69411891Y77856089D01*
G75*
G02*
X69511891Y77756089I0J-100000D01*
G01*
X69511891Y76956089D01*
G75*
G02*
X69411891Y76856089I-100000J0D01*
G01*
X68511891Y76856089D01*
G75*
G02*
X68411891Y76956089I0J100000D01*
G01*
X68411891Y77756089D01*
G75*
G02*
X68511891Y77856089I100000J0D01*
G01*
G37*
G04 #@! TD*
G04 #@! TO.C,C5*
G36*
G01*
X129561680Y80920341D02*
X130241680Y80920341D01*
G75*
G02*
X130326680Y80835341I0J-85000D01*
G01*
X130326680Y80155341D01*
G75*
G02*
X130241680Y80070341I-85000J0D01*
G01*
X129561680Y80070341D01*
G75*
G02*
X129476680Y80155341I0J85000D01*
G01*
X129476680Y80835341D01*
G75*
G02*
X129561680Y80920341I85000J0D01*
G01*
G37*
G36*
G01*
X129561680Y79340339D02*
X130241680Y79340339D01*
G75*
G02*
X130326680Y79255339I0J-85000D01*
G01*
X130326680Y78575339D01*
G75*
G02*
X130241680Y78490339I-85000J0D01*
G01*
X129561680Y78490339D01*
G75*
G02*
X129476680Y78575339I0J85000D01*
G01*
X129476680Y79255339D01*
G75*
G02*
X129561680Y79340339I85000J0D01*
G01*
G37*
G04 #@! TD*
G04 #@! TO.C,R1*
G36*
G01*
X124330832Y55225849D02*
X124330832Y54555849D01*
G75*
G02*
X124265832Y54490849I-65000J0D01*
G01*
X123745832Y54490849D01*
G75*
G02*
X123680832Y54555849I0J65000D01*
G01*
X123680832Y55225849D01*
G75*
G02*
X123745832Y55290849I65000J0D01*
G01*
X124265832Y55290849D01*
G75*
G02*
X124330832Y55225849I0J-65000D01*
G01*
G37*
G36*
G01*
X123355832Y55245849D02*
X123355832Y54535849D01*
G75*
G02*
X123310832Y54490849I-45000J0D01*
G01*
X122950832Y54490849D01*
G75*
G02*
X122905832Y54535849I0J45000D01*
G01*
X122905832Y55245849D01*
G75*
G02*
X122950832Y55290849I45000J0D01*
G01*
X123310832Y55290849D01*
G75*
G02*
X123355832Y55245849I0J-45000D01*
G01*
G37*
G36*
G01*
X122555832Y55245849D02*
X122555832Y54535849D01*
G75*
G02*
X122510832Y54490849I-45000J0D01*
G01*
X122150832Y54490849D01*
G75*
G02*
X122105832Y54535849I0J45000D01*
G01*
X122105832Y55245849D01*
G75*
G02*
X122150832Y55290849I45000J0D01*
G01*
X122510832Y55290849D01*
G75*
G02*
X122555832Y55245849I0J-45000D01*
G01*
G37*
G36*
G01*
X121780832Y55225849D02*
X121780832Y54555849D01*
G75*
G02*
X121715832Y54490849I-65000J0D01*
G01*
X121195832Y54490849D01*
G75*
G02*
X121130832Y54555849I0J65000D01*
G01*
X121130832Y55225849D01*
G75*
G02*
X121195832Y55290849I65000J0D01*
G01*
X121715832Y55290849D01*
G75*
G02*
X121780832Y55225849I0J-65000D01*
G01*
G37*
G36*
G01*
X121780832Y53425849D02*
X121780832Y52755849D01*
G75*
G02*
X121715832Y52690849I-65000J0D01*
G01*
X121195832Y52690849D01*
G75*
G02*
X121130832Y52755849I0J65000D01*
G01*
X121130832Y53425849D01*
G75*
G02*
X121195832Y53490849I65000J0D01*
G01*
X121715832Y53490849D01*
G75*
G02*
X121780832Y53425849I0J-65000D01*
G01*
G37*
G36*
G01*
X122555832Y53445849D02*
X122555832Y52735849D01*
G75*
G02*
X122510832Y52690849I-45000J0D01*
G01*
X122150832Y52690849D01*
G75*
G02*
X122105832Y52735849I0J45000D01*
G01*
X122105832Y53445849D01*
G75*
G02*
X122150832Y53490849I45000J0D01*
G01*
X122510832Y53490849D01*
G75*
G02*
X122555832Y53445849I0J-45000D01*
G01*
G37*
G36*
G01*
X123355832Y53445849D02*
X123355832Y52735849D01*
G75*
G02*
X123310832Y52690849I-45000J0D01*
G01*
X122950832Y52690849D01*
G75*
G02*
X122905832Y52735849I0J45000D01*
G01*
X122905832Y53445849D01*
G75*
G02*
X122950832Y53490849I45000J0D01*
G01*
X123310832Y53490849D01*
G75*
G02*
X123355832Y53445849I0J-45000D01*
G01*
G37*
G36*
G01*
X124330832Y53425849D02*
X124330832Y52755849D01*
G75*
G02*
X124265832Y52690849I-65000J0D01*
G01*
X123745832Y52690849D01*
G75*
G02*
X123680832Y52755849I0J65000D01*
G01*
X123680832Y53425849D01*
G75*
G02*
X123745832Y53490849I65000J0D01*
G01*
X124265832Y53490849D01*
G75*
G02*
X124330832Y53425849I0J-65000D01*
G01*
G37*
G04 #@! TD*
G04 #@! TO.C,D25*
G36*
G01*
X58291680Y69300340D02*
X59311680Y69300340D01*
G75*
G02*
X59401680Y69210340I0J-90000D01*
G01*
X59401680Y68490340D01*
G75*
G02*
X59311680Y68400340I-90000J0D01*
G01*
X58291680Y68400340D01*
G75*
G02*
X58201680Y68490340I0J90000D01*
G01*
X58201680Y69210340D01*
G75*
G02*
X58291680Y69300340I90000J0D01*
G01*
G37*
G36*
G01*
X58291680Y66000340D02*
X59311680Y66000340D01*
G75*
G02*
X59401680Y65910340I0J-90000D01*
G01*
X59401680Y65190340D01*
G75*
G02*
X59311680Y65100340I-90000J0D01*
G01*
X58291680Y65100340D01*
G75*
G02*
X58201680Y65190340I0J90000D01*
G01*
X58201680Y65910340D01*
G75*
G02*
X58291680Y66000340I90000J0D01*
G01*
G37*
G04 #@! TD*
G04 #@! TO.C,R7*
G36*
G01*
X42876680Y95765340D02*
X42876680Y95095340D01*
G75*
G02*
X42811680Y95030340I-65000J0D01*
G01*
X42291680Y95030340D01*
G75*
G02*
X42226680Y95095340I0J65000D01*
G01*
X42226680Y95765340D01*
G75*
G02*
X42291680Y95830340I65000J0D01*
G01*
X42811680Y95830340D01*
G75*
G02*
X42876680Y95765340I0J-65000D01*
G01*
G37*
G36*
G01*
X41901680Y95785340D02*
X41901680Y95075340D01*
G75*
G02*
X41856680Y95030340I-45000J0D01*
G01*
X41496680Y95030340D01*
G75*
G02*
X41451680Y95075340I0J45000D01*
G01*
X41451680Y95785340D01*
G75*
G02*
X41496680Y95830340I45000J0D01*
G01*
X41856680Y95830340D01*
G75*
G02*
X41901680Y95785340I0J-45000D01*
G01*
G37*
G36*
G01*
X41101680Y95785340D02*
X41101680Y95075340D01*
G75*
G02*
X41056680Y95030340I-45000J0D01*
G01*
X40696680Y95030340D01*
G75*
G02*
X40651680Y95075340I0J45000D01*
G01*
X40651680Y95785340D01*
G75*
G02*
X40696680Y95830340I45000J0D01*
G01*
X41056680Y95830340D01*
G75*
G02*
X41101680Y95785340I0J-45000D01*
G01*
G37*
G36*
G01*
X40326680Y95765340D02*
X40326680Y95095340D01*
G75*
G02*
X40261680Y95030340I-65000J0D01*
G01*
X39741680Y95030340D01*
G75*
G02*
X39676680Y95095340I0J65000D01*
G01*
X39676680Y95765340D01*
G75*
G02*
X39741680Y95830340I65000J0D01*
G01*
X40261680Y95830340D01*
G75*
G02*
X40326680Y95765340I0J-65000D01*
G01*
G37*
G36*
G01*
X40326680Y93965340D02*
X40326680Y93295340D01*
G75*
G02*
X40261680Y93230340I-65000J0D01*
G01*
X39741680Y93230340D01*
G75*
G02*
X39676680Y93295340I0J65000D01*
G01*
X39676680Y93965340D01*
G75*
G02*
X39741680Y94030340I65000J0D01*
G01*
X40261680Y94030340D01*
G75*
G02*
X40326680Y93965340I0J-65000D01*
G01*
G37*
G36*
G01*
X41101680Y93985340D02*
X41101680Y93275340D01*
G75*
G02*
X41056680Y93230340I-45000J0D01*
G01*
X40696680Y93230340D01*
G75*
G02*
X40651680Y93275340I0J45000D01*
G01*
X40651680Y93985340D01*
G75*
G02*
X40696680Y94030340I45000J0D01*
G01*
X41056680Y94030340D01*
G75*
G02*
X41101680Y93985340I0J-45000D01*
G01*
G37*
G36*
G01*
X41901680Y93985340D02*
X41901680Y93275340D01*
G75*
G02*
X41856680Y93230340I-45000J0D01*
G01*
X41496680Y93230340D01*
G75*
G02*
X41451680Y93275340I0J45000D01*
G01*
X41451680Y93985340D01*
G75*
G02*
X41496680Y94030340I45000J0D01*
G01*
X41856680Y94030340D01*
G75*
G02*
X41901680Y93985340I0J-45000D01*
G01*
G37*
G36*
G01*
X42876680Y93965340D02*
X42876680Y93295340D01*
G75*
G02*
X42811680Y93230340I-65000J0D01*
G01*
X42291680Y93230340D01*
G75*
G02*
X42226680Y93295340I0J65000D01*
G01*
X42226680Y93965340D01*
G75*
G02*
X42291680Y94030340I65000J0D01*
G01*
X42811680Y94030340D01*
G75*
G02*
X42876680Y93965340I0J-65000D01*
G01*
G37*
G04 #@! TD*
G04 #@! TO.C,D32*
G36*
G01*
X59661680Y78435340D02*
X58641680Y78435340D01*
G75*
G02*
X58551680Y78525340I0J90000D01*
G01*
X58551680Y79245340D01*
G75*
G02*
X58641680Y79335340I90000J0D01*
G01*
X59661680Y79335340D01*
G75*
G02*
X59751680Y79245340I0J-90000D01*
G01*
X59751680Y78525340D01*
G75*
G02*
X59661680Y78435340I-90000J0D01*
G01*
G37*
G36*
G01*
X59661680Y81735340D02*
X58641680Y81735340D01*
G75*
G02*
X58551680Y81825340I0J90000D01*
G01*
X58551680Y82545340D01*
G75*
G02*
X58641680Y82635340I90000J0D01*
G01*
X59661680Y82635340D01*
G75*
G02*
X59751680Y82545340I0J-90000D01*
G01*
X59751680Y81825340D01*
G75*
G02*
X59661680Y81735340I-90000J0D01*
G01*
G37*
G04 #@! TD*
G04 #@! TO.C,R13*
G36*
G01*
X71806040Y5340340D02*
X71806040Y6120340D01*
G75*
G02*
X71876040Y6190340I70000J0D01*
G01*
X72436040Y6190340D01*
G75*
G02*
X72506040Y6120340I0J-70000D01*
G01*
X72506040Y5340340D01*
G75*
G02*
X72436040Y5270340I-70000J0D01*
G01*
X71876040Y5270340D01*
G75*
G02*
X71806040Y5340340I0J70000D01*
G01*
G37*
G36*
G01*
X73406040Y5340340D02*
X73406040Y6120340D01*
G75*
G02*
X73476040Y6190340I70000J0D01*
G01*
X74036040Y6190340D01*
G75*
G02*
X74106040Y6120340I0J-70000D01*
G01*
X74106040Y5340340D01*
G75*
G02*
X74036040Y5270340I-70000J0D01*
G01*
X73476040Y5270340D01*
G75*
G02*
X73406040Y5340340I0J70000D01*
G01*
G37*
G04 #@! TD*
G04 #@! TO.C,R46*
G36*
G01*
X118601680Y124555339D02*
X117351680Y124555339D01*
G75*
G02*
X117251680Y124655339I0J100000D01*
G01*
X117251680Y125455339D01*
G75*
G02*
X117351680Y125555339I100000J0D01*
G01*
X118601680Y125555339D01*
G75*
G02*
X118701680Y125455339I0J-100000D01*
G01*
X118701680Y124655339D01*
G75*
G02*
X118601680Y124555339I-100000J0D01*
G01*
G37*
G36*
G01*
X118601680Y126455361D02*
X117351680Y126455361D01*
G75*
G02*
X117251680Y126555361I0J100000D01*
G01*
X117251680Y127355361D01*
G75*
G02*
X117351680Y127455361I100000J0D01*
G01*
X118601680Y127455361D01*
G75*
G02*
X118701680Y127355361I0J-100000D01*
G01*
X118701680Y126555361D01*
G75*
G02*
X118601680Y126455361I-100000J0D01*
G01*
G37*
G04 #@! TD*
G04 #@! TO.C,C2*
G36*
G01*
X125662380Y45127401D02*
X126342380Y45127401D01*
G75*
G02*
X126427380Y45042401I0J-85000D01*
G01*
X126427380Y44362401D01*
G75*
G02*
X126342380Y44277401I-85000J0D01*
G01*
X125662380Y44277401D01*
G75*
G02*
X125577380Y44362401I0J85000D01*
G01*
X125577380Y45042401D01*
G75*
G02*
X125662380Y45127401I85000J0D01*
G01*
G37*
G36*
G01*
X125662380Y43547399D02*
X126342380Y43547399D01*
G75*
G02*
X126427380Y43462399I0J-85000D01*
G01*
X126427380Y42782399D01*
G75*
G02*
X126342380Y42697399I-85000J0D01*
G01*
X125662380Y42697399D01*
G75*
G02*
X125577380Y42782399I0J85000D01*
G01*
X125577380Y43462399D01*
G75*
G02*
X125662380Y43547399I85000J0D01*
G01*
G37*
G04 #@! TD*
G04 #@! TO.C,R12*
G36*
G01*
X130226680Y123955341D02*
X131476680Y123955341D01*
G75*
G02*
X131576680Y123855341I0J-100000D01*
G01*
X131576680Y123055341D01*
G75*
G02*
X131476680Y122955341I-100000J0D01*
G01*
X130226680Y122955341D01*
G75*
G02*
X130126680Y123055341I0J100000D01*
G01*
X130126680Y123855341D01*
G75*
G02*
X130226680Y123955341I100000J0D01*
G01*
G37*
G36*
G01*
X130226680Y122055319D02*
X131476680Y122055319D01*
G75*
G02*
X131576680Y121955319I0J-100000D01*
G01*
X131576680Y121155319D01*
G75*
G02*
X131476680Y121055319I-100000J0D01*
G01*
X130226680Y121055319D01*
G75*
G02*
X130126680Y121155319I0J100000D01*
G01*
X130126680Y121955319D01*
G75*
G02*
X130226680Y122055319I100000J0D01*
G01*
G37*
G04 #@! TD*
G04 #@! TO.C,C12*
G36*
G01*
X40155197Y118111784D02*
X39105197Y118111784D01*
G75*
G02*
X39005197Y118211784I0J100000D01*
G01*
X39005197Y119011784D01*
G75*
G02*
X39105197Y119111784I100000J0D01*
G01*
X40155197Y119111784D01*
G75*
G02*
X40255197Y119011784I0J-100000D01*
G01*
X40255197Y118211784D01*
G75*
G02*
X40155197Y118111784I-100000J0D01*
G01*
G37*
G36*
G01*
X40155197Y120111784D02*
X39105197Y120111784D01*
G75*
G02*
X39005197Y120211784I0J100000D01*
G01*
X39005197Y121011784D01*
G75*
G02*
X39105197Y121111784I100000J0D01*
G01*
X40155197Y121111784D01*
G75*
G02*
X40255197Y121011784I0J-100000D01*
G01*
X40255197Y120211784D01*
G75*
G02*
X40155197Y120111784I-100000J0D01*
G01*
G37*
G04 #@! TD*
G04 #@! TO.C,C15*
G36*
G01*
X43155197Y118111784D02*
X42105197Y118111784D01*
G75*
G02*
X42005197Y118211784I0J100000D01*
G01*
X42005197Y119011784D01*
G75*
G02*
X42105197Y119111784I100000J0D01*
G01*
X43155197Y119111784D01*
G75*
G02*
X43255197Y119011784I0J-100000D01*
G01*
X43255197Y118211784D01*
G75*
G02*
X43155197Y118111784I-100000J0D01*
G01*
G37*
G36*
G01*
X43155197Y120111784D02*
X42105197Y120111784D01*
G75*
G02*
X42005197Y120211784I0J100000D01*
G01*
X42005197Y121011784D01*
G75*
G02*
X42105197Y121111784I100000J0D01*
G01*
X43155197Y121111784D01*
G75*
G02*
X43255197Y121011784I0J-100000D01*
G01*
X43255197Y120211784D01*
G75*
G02*
X43155197Y120111784I-100000J0D01*
G01*
G37*
G04 #@! TD*
G04 #@! TO.C,R18*
G36*
G01*
X83776680Y131005339D02*
X82526680Y131005339D01*
G75*
G02*
X82426680Y131105339I0J100000D01*
G01*
X82426680Y131905339D01*
G75*
G02*
X82526680Y132005339I100000J0D01*
G01*
X83776680Y132005339D01*
G75*
G02*
X83876680Y131905339I0J-100000D01*
G01*
X83876680Y131105339D01*
G75*
G02*
X83776680Y131005339I-100000J0D01*
G01*
G37*
G36*
G01*
X83776680Y132905361D02*
X82526680Y132905361D01*
G75*
G02*
X82426680Y133005361I0J100000D01*
G01*
X82426680Y133805361D01*
G75*
G02*
X82526680Y133905361I100000J0D01*
G01*
X83776680Y133905361D01*
G75*
G02*
X83876680Y133805361I0J-100000D01*
G01*
X83876680Y133005361D01*
G75*
G02*
X83776680Y132905361I-100000J0D01*
G01*
G37*
G04 #@! TD*
G04 #@! TO.C,D13*
G36*
G01*
X70899386Y79494591D02*
X70899386Y79014591D01*
G75*
G02*
X70839386Y78954591I-60000J0D01*
G01*
X70359386Y78954591D01*
G75*
G02*
X70299386Y79014591I0J60000D01*
G01*
X70299386Y79494591D01*
G75*
G02*
X70359386Y79554591I60000J0D01*
G01*
X70839386Y79554591D01*
G75*
G02*
X70899386Y79494591I0J-60000D01*
G01*
G37*
G36*
G01*
X70899386Y77294591D02*
X70899386Y76814591D01*
G75*
G02*
X70839386Y76754591I-60000J0D01*
G01*
X70359386Y76754591D01*
G75*
G02*
X70299386Y76814591I0J60000D01*
G01*
X70299386Y77294591D01*
G75*
G02*
X70359386Y77354591I60000J0D01*
G01*
X70839386Y77354591D01*
G75*
G02*
X70899386Y77294591I0J-60000D01*
G01*
G37*
G04 #@! TD*
G04 #@! TO.C,M11*
X18018188Y58024998D03*
X14612477Y72900000D03*
X18562492Y96719996D03*
X16662491Y96720001D03*
X20020165Y59725015D03*
G04 #@! TD*
D14*
G04 #@! TO.C,U5*
X37961680Y102655340D03*
X39231680Y102655340D03*
X40501680Y102655340D03*
X41771680Y102655340D03*
X43041680Y102655340D03*
X44311680Y102655340D03*
X45581680Y102655340D03*
X46851680Y102655340D03*
X48121680Y102655340D03*
X49391680Y102655340D03*
X49391680Y115855340D03*
X48121680Y115855340D03*
X46851680Y115855340D03*
X45581680Y115855340D03*
X44311680Y115855340D03*
X43041680Y115855340D03*
X41771680Y115855340D03*
X40501680Y115855340D03*
X39231680Y115855340D03*
X37961680Y115855340D03*
D15*
X36564680Y109255340D03*
D16*
X43676680Y109255340D03*
D15*
X50788680Y109255340D03*
G04 #@! TD*
G04 #@! TO.C,F2*
G36*
G01*
X12226680Y135260350D02*
X12226680Y135950350D01*
G75*
G02*
X12456680Y136180350I230000J0D01*
G01*
X13796680Y136180350D01*
G75*
G02*
X14026680Y135950350I0J-230000D01*
G01*
X14026680Y135260350D01*
G75*
G02*
X13796680Y135030350I-230000J0D01*
G01*
X12456680Y135030350D01*
G75*
G02*
X12226680Y135260350I0J230000D01*
G01*
G37*
G36*
G01*
X12226680Y132360330D02*
X12226680Y133050330D01*
G75*
G02*
X12456680Y133280330I230000J0D01*
G01*
X13796680Y133280330D01*
G75*
G02*
X14026680Y133050330I0J-230000D01*
G01*
X14026680Y132360330D01*
G75*
G02*
X13796680Y132130330I-230000J0D01*
G01*
X12456680Y132130330D01*
G75*
G02*
X12226680Y132360330I0J230000D01*
G01*
G37*
G04 #@! TD*
M02*
