M48
; DRILL file {KiCad (5.99.0-10559-g8513ca974c)} date 11/01/21 12:15:22
; FORMAT={2:4/ absolute / inch / suppress leading zeros}
; #@! TF.CreationDate,2021-11-01T12:15:22+02:00
; #@! TF.GenerationSoftware,Kicad,Pcbnew,(5.99.0-10559-g8513ca974c)
; #@! TF.FileFunction,MixedPlating,1,2
FMAT,2
INCH,TZ
; #@! TA.AperFunction,Plated,PTH,ComponentDrill
T1C0.0118
; #@! TA.AperFunction,Plated,PTH,ViaDrill
T2C0.0118
; #@! TA.AperFunction,Plated,PTH,ComponentDrill
T3C0.0118
; #@! TA.AperFunction,Plated,PTH,ViaDrill
T4C0.0120
; #@! TA.AperFunction,Plated,PTH,ViaDrill
T5C0.0130
; #@! TA.AperFunction,Plated,PTH,ViaDrill
T6C0.0197
; #@! TA.AperFunction,Plated,PTH,ComponentDrill
T7C0.0276
; #@! TA.AperFunction,Plated,PTH,ComponentDrill
T8C0.0320
; #@! TA.AperFunction,Plated,PTH,ComponentDrill
T9C0.0335
; #@! TA.AperFunction,Plated,PTH,ComponentDrill
T10C0.0362
; #@! TA.AperFunction,Plated,PTH,ComponentDrill
T11C0.0394
; #@! TA.AperFunction,Plated,PTH,ComponentDrill
T12C0.0433
; #@! TA.AperFunction,Plated,PTH,ComponentDrill
T13C0.0709
; #@! TA.AperFunction,Plated,PTH,ComponentDrill
T14C0.0787
; #@! TA.AperFunction,Plated,PTH,ComponentDrill
T15C0.0917
; #@! TA.AperFunction,Plated,PTH,ComponentDrill
T16C0.1200
; #@! TA.AperFunction,Plated,PTH,ComponentDrill
T17C0.1378
; #@! TA.AperFunction,Plated,PTH,ComponentDrill
T18C0.1969
; #@! TA.AperFunction,NonPlated,NPTH,ComponentDrill
T19C0.1181
%
G90
G05
T1
X5842Y37677
X5842Y33386
X5842Y27795
X5842Y22967
X5852Y47198
X6373Y43960
X7338Y23514
X8433Y43967
X8627Y44708
X9070Y41815
X23409Y38140
X23616Y38484
X23911Y38022
X25309Y38051
X29712Y7006
X30332Y5075
X31995Y4811
X32458Y4811
X33314Y4811
X34190Y4811
X35334Y5078
X40549Y6763
X40578Y5366
X40667Y7265
X41011Y7058
X46575Y11150
X46575Y10383
X46575Y9359
X47091Y10895
X47268Y10255
X47298Y9192
X47298Y9920
X47304Y8444
X47382Y9576
X48908Y8326
T2
X941Y17408
X946Y50868
X946Y47915
X946Y42994
X946Y38073
X946Y32167
X946Y25278
X946Y14451
X946Y7561
X2205Y56045
X2796Y43467
X2914Y33349
X3072Y38703
X3111Y49687
X3898Y3624
X4528Y45356
X4528Y40475
X4528Y34963
X4568Y30711
X4568Y25160
X4696Y51380
X4741Y49246
X5020Y22473
X5316Y44963
X5316Y31813
X5394Y27404
X5424Y47522
X5434Y42522
X5434Y38034
X5660Y39402
X5788Y7364
X5847Y366
X6359Y54884
X6694Y2876
X7284Y5593
X7363Y57669
X8396Y39057
X8446Y40868
X8554Y48447
X8820Y34530
X8908Y48112
X8957Y28752
X8997Y23290
X9070Y41248
X9070Y36445
X9095Y31065
X9095Y22738
X9306Y37748
X9410Y36380
X9420Y32847
X9449Y55150
X9449Y33349
X9489Y32266
X9686Y26774
X9804Y60711
X9961Y51538
X10040Y43162
X10040Y2915
X10207Y39215
X10306Y11931
X10385Y34559
X10616Y36344
X10629Y37481
X10709Y48093
X10818Y10622
X11034Y297
X11142Y15514
X11182Y25120
X11221Y20514
X11261Y13309
X11339Y28585
X11379Y11577
X11615Y52069
X11792Y49963
X11812Y47837
X11812Y46577
X11851Y55041
X11920Y50553
X11959Y40524
X12018Y49746
X12048Y33654
X12107Y35022
X12186Y37689
X12255Y39293
X12688Y46597
X12717Y41912
X12757Y37128
X12766Y44244
X13111Y11341
X13298Y48496
X13347Y47482
X13396Y33939
X13534Y39302
X13672Y50325
X13721Y8132
X13761Y32965
X13790Y55051
X13800Y33654
X13829Y47640
X13839Y42758
X13869Y44264
X13898Y6695
X13967Y32207
X14135Y37679
X14135Y31183
X14135Y29648
X14194Y50691
X14292Y44264
X14558Y45593
X14577Y39914
X14607Y33073
X14627Y57778
X14715Y40396
X14715Y46319
X14764Y44923
X14774Y60652
X14784Y50159
X14833Y33585
X14981Y40868
X15079Y11341
X15138Y50376
X15148Y32826
X15237Y31341
X15503Y50032
X15512Y32896
X15886Y297
X16172Y32689
X16379Y49175
X16508Y32649
X16585Y32364
X16694Y29648
X16703Y51528
X16713Y46252
X16753Y39766
X16930Y45307
X16930Y40110
X17156Y33683
X17245Y29815
X17283Y49185
X17294Y48841
X17353Y37699
X17422Y45288
X17461Y40081
X17511Y31410
X17540Y7541
X17609Y41134
X17638Y44697
X17698Y46223
X17727Y50081
X17737Y39854
X17776Y37679
X17796Y33939
X17875Y11459
X17904Y47473
X17953Y44854
X17953Y41321
X17953Y9648
X17953Y1892
X18062Y36705
X18199Y48417
X18219Y5967
X18278Y46813
X18505Y37768
X18534Y33034
X18692Y36715
X18831Y34530
X18859Y47630
X18928Y56390
X19144Y34028
X19194Y46695
X19361Y38092
X19361Y33269
X19371Y35110
X19449Y36114
X19475Y49490
X19499Y51026
X19518Y54106
X19528Y55652
X19686Y3545
X19804Y11459
X19814Y29500
X19981Y47984
X20050Y1498
X20079Y34077
X20089Y29943
X20148Y248
X20433Y49362
X20631Y60711
X20729Y48861
X20764Y29702
X20955Y37837
X21044Y49352
X21060Y29156
X21103Y39067
X21142Y31026
X21221Y33919
X21241Y36360
X21428Y36095
X21654Y1459
X21664Y35494
X22294Y33644
X22354Y36735
X22402Y3624
X22403Y32650
X22442Y11734
X22560Y34215
X22668Y45445
X22678Y32420
X22835Y14254
X22835Y13821
X22835Y9136
X22835Y5947
X22875Y20632
X22894Y28742
X22953Y32689
X22990Y28046
X23032Y22286
X23150Y23545
X23268Y34471
X23419Y14867
X23455Y42138
X23455Y57748
X23465Y11774
X23505Y24293
X23583Y297
X23662Y14175
X23731Y55297
X23731Y15110
X23740Y43230
X23780Y32167
X23859Y33978
X23859Y42827
X23908Y50268
X23918Y53486
X24007Y43595
X24016Y15297
X24125Y20642
X24213Y34963
X24213Y32610
X24312Y43122
X24331Y31734
X24538Y54914
X24568Y34146
X24686Y8644
X24725Y9451
X24744Y6142
X24922Y52640
X24981Y21823
X25119Y11262
X25168Y23585
X25316Y10160
X25345Y15740
X25355Y32207
X25473Y9490
X25532Y33684
X25621Y8782
X25635Y10632
X25660Y14146
X25661Y11419
X25709Y47207
X25788Y45160
X25808Y54933
X25809Y48914
X25827Y37128
X25857Y7906
X25867Y39215
X25906Y42246
X25945Y5325
X25946Y53664
X26103Y22797
X26103Y20475
X26142Y28585
X26182Y19805
X26221Y15750
X26300Y23506
X26349Y297
X26516Y60681
X26536Y9569
X26644Y33684
X26723Y53329
X26733Y6026
X26762Y52404
X27087Y9766
X27117Y3063
X27166Y22679
X27166Y20317
X27221Y27644
X27442Y34421
X27461Y52354
X27501Y27335
X27698Y55071
X27766Y56852
X27796Y52345
X27796Y33595
X27875Y36104
X28032Y32364
X28072Y24451
X28121Y52335
X28583Y36144
X28642Y6410
X29174Y32325
X29203Y278
X29213Y57748
X29253Y23467
X29381Y6114
X29410Y36045
X29410Y4195
X29735Y55101
X29794Y36351
X30070Y36026
X30158Y31695
X30198Y23978
X30316Y26892
X30316Y25081
X30512Y27955
X30867Y53014
X30946Y32079
X31182Y23860
X31192Y30524
X31694Y297
X31743Y55091
X31920Y57748
X31979Y60750
X32048Y52591
X32284Y44884
X32284Y40593
X32284Y37089
X32363Y50278
X32491Y33466
X32875Y49766
X32894Y38142
X32914Y47955
X32993Y29963
X33003Y31508
X33072Y57108
X33130Y32650
X33229Y24490
X33236Y32946
X33249Y31745
X33298Y54687
X33347Y46223
X33347Y43349
X33524Y41921
X33583Y31962
X33642Y31291
X33711Y32502
X33743Y41723
X33743Y41723
X33772Y33930
X33790Y38437
X33800Y41114
X33881Y41418
X33881Y41418
X33908Y50248
X34076Y51892
X34607Y33398
X34735Y34500
X34745Y35012
X34865Y35325
X34865Y33917
X34873Y49943
X34902Y55071
X34922Y30740
X35001Y32335
X35178Y41498
X35316Y48063
X35355Y46065
X35453Y57738
X35759Y2443
X35759Y317
X35926Y42886
X36103Y30425
X36103Y4766
X36182Y39372
X36418Y53191
X36458Y2306
X36497Y1685
X36497Y612
X36837Y39547
X36900Y32443
X37048Y47994
X37073Y30726
X37127Y45160
X37166Y7994
X37166Y6695
X37186Y32689
X37383Y37738
X37491Y49362
X37717Y39372
X37816Y55868
X37845Y30120
X37973Y31282
X38062Y317
X38249Y32345
X38347Y43112
X38426Y5475
X38505Y7994
X38505Y6380
X38613Y50573
X38613Y50573
X38633Y31213
X38741Y29963
X38938Y1656
X38987Y52089
X39016Y5317
X39056Y47719
X39066Y32473
X39154Y44057
X39154Y33427
X39331Y60711
X39381Y32827
X39528Y39490
X39538Y52532
X39558Y51715
X39696Y31479
X39961Y32571
X40001Y45199
X40011Y33516
X40316Y58349
X40316Y30228
X40414Y31636
X40631Y33191
X41034Y39569
X41103Y41301
X41172Y49766
X41179Y30560
X41221Y38742
X41261Y44608
X41270Y31617
X41310Y51360
X41753Y46223
X41802Y49687
X41861Y44982
X41890Y33585
X42353Y44421
X42491Y32315
X42511Y31744
X42541Y33282
X42638Y278
X42786Y46725
X42796Y7955
X42816Y30701
X42835Y43201
X42855Y33723
X42894Y49648
X42894Y31400
X42934Y38821
X42973Y45917
X42973Y41429
X43180Y37315
X43199Y48309
X43199Y32059
X43209Y34303
X43288Y31528
X43446Y49205
X43617Y30362
X43938Y43181
X43948Y30416
X43967Y58388
X43967Y38752
X43977Y34018
X44016Y35238
X44056Y31813
X44213Y8152
X44253Y60711
X44253Y5317
X44331Y6498
X44587Y1852
X44942Y42709
X44961Y33664
X44971Y38408
X45119Y35238
X45316Y31262
X45473Y7601
X45626Y45263
X45680Y47620
X45906Y34215
X45906Y29215
X45946Y27049
X45985Y24175
X46103Y13821
X46133Y44333
X46182Y11577
X46261Y22719
X46261Y19845
X46261Y17679
X46300Y38703
X46477Y35071
X46497Y33614
X46497Y31124
X46605Y41675
X46654Y45917
X46674Y46695
X46851Y38703
X46940Y37014
X46969Y1656
X47009Y21380
X47196Y37014
X47323Y17443
X47717Y7404
X47796Y41577
X47835Y25435
X47875Y28073
X47894Y46784
X47914Y33575
X48022Y45868
X48081Y35110
X48101Y38870
X48111Y22561
X48131Y47994
X48150Y48240
X48298Y58142
X48337Y31085
X48613Y60780
X48731Y34480
X48820Y29648
X48859Y35406
X48898Y34126
X48938Y24175
X49036Y33782
X49056Y32010
X49528Y3624
X49696Y36006
X49715Y34549
X49804Y20002
X49863Y46341
X49961Y2404
X50001Y23782
X50001Y21183
X50001Y9727
X50237Y32246
X50512Y30002
X50522Y297
X50552Y5278
X50581Y43949
X50709Y23073
X50749Y26183
X50749Y20160
X50749Y7679
X50788Y19057
X50847Y3526
X50896Y35730
X50946Y6419
X50985Y10986
X51103Y33585
X51103Y30632
X51142Y32049
X51182Y13742
X51261Y17640
X51300Y43703
X51318Y37955
X51536Y7915
X51615Y35908
X51890Y3427
X52127Y59727
X52225Y32177
X52359Y2660
X52599Y43073
X52626Y4044
X52796Y45002
X52875Y35790
X53111Y5278
X53190Y35790
X53426Y16223
X53544Y10593
X53583Y3644
X53780Y6223
X53997Y4097
X54016Y5160
X54174Y35356
X54174Y6931
X54292Y46459
X54371Y13309
X54528Y51971
X54686Y18112
X54686Y8545
X54883Y22837
X54883Y4254
X55198Y26104
X55237Y54018
X55512Y40671
X55512Y14569
X55591Y17994
X56064Y2640
X56812Y8112
X56969Y55160
X57127Y37325
X57599Y23427
X58229Y40396
X58308Y50081
X58623Y46931
X58623Y37364
X58741Y43427
X60001Y56774
X60001Y49884
X60001Y42994
X60001Y31183
X60001Y24293
X60001Y17404
X60001Y10514
X60070Y37748
T3
X27392Y36929
X27785Y36929
X29183Y36929
X29577Y36929
X30010Y51988
X30404Y51988
X30797Y51988
X31152Y24254
X31191Y51988
X31433Y28132
X31674Y27561
X31703Y24254
X31913Y24697
X32009Y27561
X32127Y24254
X32343Y27561
X32678Y24254
X32678Y27561
T4
X6477Y48221
X9086Y33073
X14505Y29072
X15237Y35120
X15266Y34067
X15375Y32286
X17944Y35445
X18268Y29745
X18824Y31656
X20110Y34795
X20391Y36931
X20627Y31971
X21116Y35218
X21427Y40538
X21526Y36528
X21725Y40425
X21827Y36633
X22205Y30081
X22235Y34146
X22520Y28821
X22835Y28388
X23032Y25249
X23155Y21656
X23155Y8624
X23249Y30160
X23446Y6075
X23780Y6065
X23839Y30858
X24074Y27440
X24105Y6065
X24371Y11065
X24410Y11538
X24410Y6075
X24579Y30041
X24710Y30337
X24794Y24973
X25089Y8693
X25119Y29136
X25166Y25099
X25385Y26301
X25483Y36321
X25542Y34244
X25714Y29766
X25877Y36469
X25929Y52195
X26049Y30337
X26370Y12566
X26428Y34205
X26540Y11191
X26540Y10872
X26540Y10553
X26551Y10227
X26678Y12484
X26694Y6934
X26975Y12187
X27090Y29413
X27171Y11695
X27481Y6934
X27505Y30336
X27816Y34423
X27845Y8526
X27918Y6459
X28298Y33830
X28446Y36698
X28544Y24375
X28750Y24090
X28824Y30336
X28898Y34205
X29047Y23793
X29122Y31816
X29542Y31816
X29572Y8112
X29636Y2473
X29686Y24018
X29873Y33163
X31225Y7994
X31698Y7994
X32097Y33729
X32717Y1587
X32879Y8152
X33174Y27154
X33190Y26498
X33190Y27969
X33347Y30475
X33588Y8152
X33655Y23580
X34078Y33811
X35044Y8112
X35205Y30640
X36934Y31065
X37353Y1665
X37442Y30770
X39686Y29963
X40670Y8153
X41575Y40927
X41822Y40150
X43151Y7958
X43505Y7958
X44336Y31419
X44410Y30552
X44915Y23691
X45552Y30996
X47367Y1104
X48268Y23706
X48524Y35849
X48770Y35849
X48977Y17603
X49213Y30553
X49253Y17131
X49372Y36862
X49645Y36734
X50227Y36075
X51392Y19662
X51566Y19392
T5
X31406Y23194
X36458Y5635
X45394Y29687
T6
X12245Y46029
X14587Y32236
X15955Y46053
X15955Y45207
X15955Y40780
X15955Y40110
X18953Y40071
X18957Y46026
X18957Y45238
X18957Y40760
T7
X55867Y45740
X56182Y45051
X56497Y45740
X56812Y45051
X57127Y45740
T8
X5168Y53782
X5168Y51852
X5198Y51038
X5198Y49538
X5975Y51038
X5975Y49538
X7329Y51057
X7329Y49557
X8186Y51037
X8186Y49537
X8317Y52126
X8337Y53071
X9071Y51027
X9071Y49527
X9918Y51019
X9918Y49519
X10246Y52126
X10266Y53071
X18907Y51825
X18907Y50325
X21034Y51825
X21034Y50325
X21999Y51815
X21999Y50315
X32737Y52898
X32737Y51398
X35975Y52888
X35975Y51388
X44558Y50398
X44558Y48898
X45621Y50378
X45621Y48878
X46448Y50358
X46448Y48858
X48229Y50339
X48229Y48839
X49912Y51599
X49912Y50099
X50355Y18587
X50355Y17587
X50355Y16587
X50355Y15587
X50355Y14587
X50355Y13587
X50640Y49010
X50640Y47510
X51014Y51569
X51014Y50069
X51516Y48980
X51516Y47480
X52117Y51556
X52117Y50056
X52973Y51556
X52973Y50056
T9
X50768Y42167
X50768Y41183
X50768Y40199
X50768Y39215
X50768Y38230
T10
X53274Y40494
X53274Y39510
X54062Y40494
X54062Y39510
T11
X1957Y21755
X1957Y20755
X1957Y19755
X1957Y18755
X1957Y17755
X1957Y16755
X1957Y15755
X1957Y14755
X1957Y13755
X1957Y12755
X1957Y11755
X1957Y10755
X1957Y9755
X1957Y8755
X1957Y7755
X2957Y21755
X2957Y20755
X2957Y19755
X2957Y18755
X2957Y17755
X2957Y16755
X2957Y15755
X2957Y14755
X2957Y13755
X2957Y12755
X2957Y11755
X2957Y10755
X2957Y9755
X2957Y8755
X2957Y7755
X3957Y21755
X3957Y20755
X3957Y19755
X3957Y18755
X3957Y17755
X3957Y16755
X3957Y15755
X3957Y14755
X3957Y13755
X3957Y12755
X3957Y11755
X3957Y10755
X3957Y9755
X3957Y8755
X3957Y7755
X4957Y21755
X4957Y20755
X4957Y19755
X4957Y18755
X4957Y17755
X4957Y16755
X4957Y15755
X4957Y14755
X4957Y13755
X4957Y12755
X5808Y48742
X5957Y21755
X5957Y20755
X5957Y19755
X5957Y18755
X5957Y17755
X5957Y16755
X5957Y15755
X5957Y14755
X5957Y13755
X5957Y12755
X6957Y21755
X6957Y20755
X6957Y19755
X6957Y18755
X6957Y17755
X6957Y16755
X6957Y15755
X6957Y14755
X6957Y13755
X6957Y12755
X7146Y53043
X7957Y21755
X7957Y20755
X7957Y19755
X7957Y18755
X7957Y17755
X7957Y16755
X7957Y15755
X7957Y14755
X7957Y13755
X7957Y12755
X8957Y21755
X8957Y20755
X8957Y19755
X8957Y18755
X8957Y17755
X8957Y16755
X8957Y15755
X8957Y14755
X8957Y13755
X8957Y12755
X9957Y21755
X9957Y20755
X9957Y19755
X9957Y18755
X9957Y17755
X9957Y16755
X9957Y15755
X9957Y14755
X9957Y13755
X9957Y12755
X11694Y31104
X11694Y29963
X12068Y51656
X12835Y31096
X12835Y29963
X13042Y52650
X13121Y49047
X14341Y52650
X15463Y51577
X16614Y52669
X17983Y51606
X18820Y30120
X18859Y31104
X21615Y48843
X21615Y47843
X21615Y46843
X21615Y45843
X21615Y44843
X21615Y43843
X21615Y42843
X21615Y41843
X24528Y17091
X24528Y14138
X25635Y17091
X26113Y26538
X26142Y27640
X26142Y25435
X27245Y26538
X27245Y24333
X30837Y29736
X31526Y52788
X32097Y29756
X32127Y31154
X33800Y52630
X34597Y32728
X35060Y52630
X35060Y51498
X35463Y40947
X35719Y32728
X35886Y38191
X36886Y38191
X37127Y52630
X37127Y51498
X37356Y3539
X37356Y2539
X37886Y38191
X38356Y3539
X38356Y2539
X38886Y38191
X39356Y3539
X39356Y2539
X39886Y38191
X40356Y3539
X40356Y2539
X40886Y38191
X41356Y3539
X41356Y2539
X41871Y32807
X42356Y3539
X42356Y2539
X42530Y50356
X42589Y51478
X43071Y34963
X43356Y3539
X43356Y2539
X43721Y51478
X44356Y3539
X44356Y2539
X45207Y33122
X45356Y3539
X45356Y2539
X45670Y51488
X46356Y3539
X46356Y2539
X46418Y16223
X46418Y15106
X46792Y51478
X47343Y48900
X47356Y3539
X47356Y2539
X47599Y16223
X47599Y15106
X48042Y51469
X48356Y3539
X48356Y2539
X48465Y44618
X48780Y16223
X48780Y15106
X49371Y48919
X52855Y48919
T12
X6296Y55937
X6296Y54165
X7673Y55937
X7673Y54165
X8894Y55937
X8894Y54165
X10075Y55937
X10075Y54165
X11256Y55937
X11256Y54165
X12437Y55937
X12437Y54165
X13618Y55937
X13618Y54165
X14799Y55937
X14799Y54165
X15980Y55937
X15980Y54165
X17161Y55937
X17161Y54165
X18382Y55937
X18382Y54165
X20725Y55937
X20725Y54165
X21906Y55937
X21906Y54165
X23087Y55937
X23087Y54165
X24268Y55937
X24268Y54165
X25450Y55937
X25450Y54165
X26631Y55937
X26631Y54165
X28874Y55937
X28874Y54165
X30055Y55937
X30055Y54165
X31236Y55937
X31236Y54165
X32417Y55937
X32417Y54165
X33599Y55937
X33599Y54165
X34780Y55937
X34780Y54165
X35961Y55937
X35961Y54165
X37142Y55937
X37142Y54165
X39483Y55937
X39483Y54165
X40861Y55937
X40861Y54165
X42083Y55937
X42083Y54165
X43264Y55937
X43264Y54165
X44445Y55937
X44445Y54165
X45626Y55937
X45626Y54165
X46807Y55937
X46807Y54165
X47988Y55937
X47988Y54165
X49169Y55937
X49169Y54165
X50350Y55937
X50350Y54165
X51571Y55937
X51571Y54165
X52949Y55937
X52949Y54165
X54327Y55937
X54327Y54165
T13
X10787Y39961
X12953Y39961
T14
X52688Y34619
X54144Y33753
X54892Y34619
X56349Y33753
X57333Y34619
T15
X55129Y42372
X55129Y37632
T16
X55355Y20587
X55355Y11587
T17
X6040Y58181
X19603Y58181
X38264Y58181
X54583Y58181
T18
X1969Y60591
X1969Y28307
X1969Y2008
X58642Y28307
X58661Y60591
X58661Y2008
T19
X7913Y39961
T7
X55060Y45140G85X55060Y45652
G05
X57934Y45140G85X57934Y45652
G05
T0
M30
